<?xml version="1.0" encoding="UTF-8"?>
<svg id="Layer_1" xmlns="http://www.w3.org/2000/svg" version="1.1" viewBox="0 0 1048.6 219.1">
  <!-- Generator: Adobe Illustrator 29.5.0, SVG Export Plug-In . SVG Version: 2.1.0 Build 137)  -->
  <defs>
    <style>
      .st0 {
        isolation: isolate;
      }

      .st1 {
        fill: #fff;
      }
    </style>
  </defs>
  <g class="st0">
    <g class="st0">
      <path class="st1" d="M1.7,61.9h6.2l47.1,117.6,47.8-117.6h7.6l47.8,117.6,47.1-117.6h6.2l-49.7,122.4h-7.2l-48-117.6-48,117.6h-7.2L1.7,61.9Z"/>
      <path class="st1" d="M218.9,123.1c0,32.3,21.3,60.2,62.6,60.2s54-26.1,58.6-41.6h4.8c-3.8,17.2-17.2,46.4-63.3,46.4s-67.4-27.7-67.4-65,25.8-65,67.4-65,65.2,23.9,65.2,65h-127.9ZM342,118.3c-1.9-28.9-23.2-55.4-60.5-55.4s-60.7,25.3-62.6,55.4h123.1Z"/>
      <path class="st1" d="M363.3,13.7h4.8v170.6h-4.8V13.7Z"/>
      <path class="st1" d="M524.6,142.7c-6.7,27.5-27.5,45.4-64.5,45.4s-67.4-27.7-67.4-65,25.8-65,67.4-65,58.8,15.5,63.6,42.1h-4.8c-5-21-20.3-37.3-58.8-37.3s-62.6,28-62.6,60.2,21.3,60.2,62.6,60.2,52.8-13.9,59.7-40.6h4.8Z"/>
      <path class="st1" d="M609.2,58.1c41.6,0,67.4,27.7,67.4,65s-25.8,65-67.4,65-67.4-27.7-67.4-65,25.8-65,67.4-65ZM609.2,183.3c40.9,0,62.6-28,62.6-60.2s-21.7-60.2-62.6-60.2-62.6,28-62.6,60.2,21.3,60.2,62.6,60.2Z"/>
      <path class="st1" d="M695.5,61.9h4.8v23.4h.5c7.6-17.2,23.2-27.2,49.7-27.2s38.7,8.6,44.5,28.7h.5c8.6-20.3,26.3-28.7,44.5-28.7,46.8,0,55,25.8,55,49.2v77h-4.8v-77c0-20.3-6.2-44.5-50.2-44.5s-42.3,14.3-42.3,42.5v78.9h-4.8v-78.9c0-31.3-18.4-42.5-42.3-42.5s-50.2,16-50.2,45.9v75.5h-4.8V61.9Z"/>
      <path class="st1" d="M918.5,123.1c0,32.3,21.3,60.2,62.6,60.2s54-26.1,58.6-41.6h4.8c-3.8,17.2-17.2,46.4-63.3,46.4s-67.4-27.7-67.4-65,25.8-65,67.4-65,65.2,23.9,65.2,65h-127.9ZM1041.6,118.3c-1.9-28.9-23.2-55.4-60.5-55.4s-60.7,25.3-62.6,55.4h123.1Z"/>
    </g>
  </g>
</svg>