<?xml version="1.0" encoding="UTF-8"?>
<svg xmlns="http://www.w3.org/2000/svg" viewBox="0 0 389 354"
  preserveAspectRatio="xMidYMid meet">
  <defs>
    <style>
      .st0 { fill: #fff; }
    </style>
  </defs>
  <g transform="translate(0,354) scale(0.1,-0.1)" class="st0">
    <path d="M1650 3531 c-121 -11 -273 -39 -360 -68 -41 -13 -114 -37 -161 -52 -48 -16 -112 -42 -142 -60 -30 -17 -61 -31 -69 -31 -8 0 -24 -9 -35 -20 -12 -10 -48 -33 -80 -50 -32 -17 -78 -48 -103 -70 -25 -22 -49 -40 -55 -40 -17 0 -209 -202 -272 -285 -74 -99 -142 -208 -146 -234 -2 -10 -8 -25 -14 -33 -6 -7 -17 -29 -26 -48 -73 -164 -80 -185 -106 -294 -51 -215 -59 -314 -66 -811 -5 -367 -4 -432 14 -614 12 -112 23 -206 25 -209 8 -8 739 -162 744 -157 4 4 30 222 32 264 0 9 3 11 8 5 11 -11 27 -91 42 -206 9 -66 16 -88 28 -92 10 -3 125 -28 257 -56 132 -28 248 -53 258 -56 13 -4 17 1 17 24 0 60 -86 315 -167 491 -9 19 -28 70 -43 113 -15 44 -31 82 -34 85 -3 4 -6 14 -6 24 0 65 -88 271 -140 329 -8 9 -42 52 -75 95 -33 43 -66 84 -72 91 -7 7 -13 16 -13 19 0 8 -78 118 -105 148 -8 9 -15 20 -15 25 0 4 -14 27 -30 52 -17 25 -44 72 -60 105 -16 33 -34 67 -39 75 -5 8 -19 38 -31 65 -12 28 -26 58 -31 67 -5 10 -9 22 -9 27 0 5 -5 22 -12 38 -6 15 -12 33 -12 38 -1 6 -7 35 -14 65 -6 30 -13 78 -14 105 -3 45 -1 50 17 48 64 -7 99 -18 177 -58 48 -25 92 -45 98 -45 6 0 49 -18 96 -41 47 -23 91 -42 97 -43 19 -4 46 -16 125 -52 40 -19 77 -34 83 -34 5 0 17 -4 27 -10 47 -25 167 -80 177 -80 6 0 32 -13 58 -30 26 -17 54 -30 61 -30 8 0 19 -7 26 -15 7 -8 21 -15 31 -15 10 0 48 -21 84 -46 36 -25 65 -43 65 -39 0 4 25 -17 56 -47 68 -64 64 -59 120 -133 25 -33 47 -61 49 -63 7 -7 86 84 105 121 69 135 147 204 330 295 36 18 81 46 99 62 18 17 36 30 42 30 5 0 9 4 9 9 0 5 13 22 30 38 28 28 29 29 7 30 -12 1 -56 -7 -97 -17 -154 -38 -312 -35 -465 10 -16 5 -43 11 -58 14 -37 6 -195 84 -224 110 -29 25 -29 38 0 27 39 -15 190 -44 247 -47 72 -4 321 -4 385 0 91 6 287 79 381 141 29 19 55 35 57 35 3 0 35 19 73 41 80 49 214 89 300 89 100 0 181 -34 251 -106 118 -123 193 -239 235 -368 21 -65 26 -188 18 -466 -3 -110 0 -146 15 -190 9 -30 21 -59 26 -64 5 -6 9 -17 9 -25 0 -9 16 -34 35 -56 l34 -40 -21 80 c-26 101 -20 219 16 327 60 180 79 270 78 373 0 142 -26 227 -100 338 -40 59 -119 125 -184 154 l-38 17 1 67 c2 111 -23 183 -106 310 -30 47 -116 117 -190 158 -22 12 -53 29 -70 39 -16 10 -48 23 -70 30 -22 7 -49 17 -60 22 -112 49 -166 70 -181 70 -10 0 -57 13 -104 29 -95 32 -161 48 -235 57 -27 3 -54 10 -60 14 -5 4 -30 11 -55 15 -25 3 -65 12 -90 19 -76 22 -142 36 -220 46 -42 5 -96 13 -120 19 -65 14 -251 21 -350 12z"/>
    <path d="M3084 2510 c-11 -4 -49 -27 -85 -50 -64 -41 -130 -110 -204 -215 -46 -65 -144 -169 -195 -207 -19 -14 -66 -43 -105 -63 -38 -21 -82 -46 -97 -56 -14 -11 -30 -19 -35 -19 -11 0 -84 -86 -113 -135 -13 -22 -27 -42 -30 -45 -3 -3 -16 -22 -29 -42 -33 -55 -108 -118 -195 -163 l-77 -40 -20 25 c-11 14 -28 34 -37 45 -9 11 -24 32 -32 47 -27 48 -200 218 -222 218 -4 0 -37 20 -74 45 -36 25 -71 45 -78 45 -7 0 -46 18 -86 40 -40 22 -90 44 -110 50 -21 6 -43 17 -50 25 -7 8 -18 15 -25 15 -6 0 -33 11 -59 25 -26 14 -54 25 -63 25 -12 0 -81 31 -175 81 -10 5 -24 9 -31 9 -7 0 -43 16 -81 36 l-68 36 7 -33 c14 -65 157 -345 215 -419 15 -19 60 -80 101 -135 40 -55 82 -109 92 -120 10 -11 26 -32 35 -48 10 -16 22 -25 30 -22 9 3 12 0 9 -8 -3 -8 16 -38 41 -68 26 -30 65 -77 87 -104 88 -106 152 -165 219 -201 67 -35 71 -36 155 -32 47 3 93 8 102 12 29 13 16 -53 -19 -95 -45 -53 -157 -72 -269 -46 -56 14 -81 9 -53 -8 6 -3 10 -15 10 -27 0 -11 6 -32 14 -46 7 -15 24 -58 36 -97 12 -38 26 -79 30 -90 29 -67 61 -201 70 -294 5 -46 11 -85 14 -88 5 -6 450 -103 453 -99 2 1 -10 16 -25 32 -16 16 -46 58 -67 94 -21 36 -45 76 -54 90 -29 45 -91 174 -96 198 -2 13 -7 32 -10 43 -4 10 -4 19 -1 19 4 0 43 -37 89 -83 153 -153 302 -265 437 -327 25 -12 61 -30 80 -40 19 -10 57 -30 84 -44 27 -14 56 -26 65 -26 10 0 21 -4 26 -8 17 -15 158 -75 195 -83 19 -4 65 -15 102 -24 60 -15 71 -15 119 -1 102 31 120 55 139 196 7 48 18 93 27 102 9 10 48 36 88 57 87 48 98 71 54 112 -16 15 -39 29 -50 31 -14 2 3 15 56 43 89 47 97 64 65 132 -37 80 -8 114 130 150 107 29 133 71 90 147 -27 49 -73 120 -82 126 -9 7 -49 79 -82 147 -44 92 -57 245 -26 301 19 34 63 148 76 197 26 94 14 296 -25 451 -31 123 -121 266 -188 298 -34 17 -182 21 -219 6z"/>
  </g>
</svg>