<?xml version="1.0" encoding="UTF-8"?>
<svg id="conversation" xmlns="http://www.w3.org/2000/svg" version="1.1" viewBox="0 0 800 666.7">
  <!-- Generator: Adobe Illustrator 30.3.0, SVG Export Plug-In . SVG Version: 2.1.3 Build 182)  -->
  <defs>
    <style>
      .st0 {
        fill: #fff;
      }
    </style>
  </defs>
  <path class="st0" d="M672.8,200C640.8,84.7,500.8,0,340,0S0,112,0,250c.2,42.9,14.9,84.8,42.4,121L2.4,491c-3.8,12.1.8,25,12,33.3,7,5.5,16.1,8.6,25.6,9,5.4,0,10.7-.9,15.6-2.7l146.4-52c44,14.1,90.8,21.3,138,21.3,187.6,0,340-112,340-250,0-16.8-2.4-33.6-7.2-50Z"/>
  <path class="st0" d="M760,666.7c-5.4,0-10.7-.9-15.6-2.7l-144.4-52c-44.7,14.3-92.1,21.6-140,21.3-138.4,3.4-265.3-64-320-170-8.2-16.5.6-35.4,20-43,20.7-6.5,43.8,2.1,51.6,19.3,0,0,0,0,0,0,43.3,81,142.1,131.5,248.4,127,42,0,83.6-7.2,122-21.3,10.2-3.7,21.8-3.7,32,0l84.4,30-22.8-66.7c-3.4-9.8-1.2-20.4,6-28.7,25.3-27.5,39.4-61,40-95.7-2.4-61.5-43-117.6-107.2-148-18.8-9.8-24.5-30.4-12.8-46,11.7-15.6,36.4-20.4,55.2-10.7,86.8,42.7,141,119.7,143.2,203.7-.2,42.9-14.9,84.8-42.4,121l40,120c3.8,12.1-.8,25-12,33.3-7,5.5-16.1,8.6-25.6,9Z"/>
</svg>