<?xml version="1.0" encoding="UTF-8"?>
<svg id="Layer_1" xmlns="http://www.w3.org/2000/svg" version="1.1" viewBox="0 0 737.8 829.1">
  <!-- Generator: Adobe Illustrator 29.4.0, SVG Export Plug-In . SVG Version: 2.1.0 Build 152)  -->
  <defs>
    <style>
      .st0 {
        fill: #fff;
      }
    </style>
  </defs>
  <path class="st0" d="M647,352.3l-18-8.5c-9-5.3-18.6-11.5-25.5-19.5-.8-1-7.1-9.4-6.5-10,19.5-3.1,38.7-10.4,54-23-20.8,5.4-42.1,9.7-63.5,12-15,1.6-25.7-2.9-37,9-19,20.1-34.6,56.9-64.1,63.9-.6.1-6.1,1.9-5.4-.3,9.2-11.2,16-24.7,20.5-38.5s1.4-3.2-.5-3c-11.9,23.7-32.9,43.5-52,61.6-2.9.7-2.1-6.3-2-8.1,1.8-25.2,32.6-59.5,45.8-81.2,11.5-19,20.6-49.1,41.5-59.5,27.5-13.8,55.6-12.7,80.2-35.9,1-1,4-.9,2-3l-34.5,12-7-36.3c11.7-10.7,19.7-24.8,25-39.7-12.3,15.1-26.9,28.4-42.7,39.8-12.8,9.2-25.4,14.5-36.3,26.7-27.4,30.8-49.9,86.2-99,82.5l12.5-10c9.2-8.4,20.1-23.8,23-36s1.3-3.3-.5-3c-10.6,18.9-48.1,51.1-70.5,48-1.4-.2-1.7.6-1.5-1.5,11.6-14.3,26.5-25.5,39-39,24.6-26.5,25.8-41,41.4-70.6,15.4-29.1,46.8-42.1,68.6-66.4,20.6-22.9,40.3-68.7,78.7-49.7,19.3,9.5,21.8,29.5,24.2,48.8,4.5,36.1-1,86.9,23.6,115.4,10.8,12.5,27.1,18.4,36.1,32.9,15.2,24.2,5,47.6-3.4,71.9-22.5,65.5-49.8,127.7-68.8,195.2-11.4,40.5-13.1,59.2,7,97,18.5,34.9,44.6,71.1,67.7,103.3,11,15.4,25.8,31.9,35.6,47.4,4.1,6.5,4.3,8.1-1.3,14.3-37.3,41.3-160.9,47.3-208.9,24.8s-23.5-32.3-32.5-52.5c-13.2-29.8-32.9-62.9-50.8-90.2-28-42.8-39.8-37.8-83.4-55.6s-26.3-12.5-37.9-21.1c-2.1-1.6-11.1-7.9-11.1-9.9,22.6-12.7,46.8-25.1,68.3-39.7,7.7-5.2,23.7-20.2,30-23,14.6-6.6,38.3,2.2,51.6,9.4-2,19.2,1.7,38.2,6.9,56.6l6.3,15.2c-1.7-33,7.3-59.9,26.2-86.3,14.7-20.5,33.4-42.4,56.1-53.9l79.7-39.8c.2-1.3-.6-2.3-1.2-3.3-6.4-11.3-21.8-27.2-30.2-38.8-3.1-4.2-16.1-21-16.6-24.5s3-17.9,6.5-18.2c5.3,2.7,10.6,5.5,16.3,7.5s12.4,4.3,14.7,4.3h23.5ZM555,775.3c-14.3-47.6-40.1-94.5-76-129,20.7,45.5,47.4,88.1,76,129Z"/>
  <path class="st0" d="M472,146.3c.1-4.7.3-9.8,0-14.5-.5-7.7-3.4-20.9-2-27.9s18.9-19.8,15.5-29.5c-10.4,12.5-23.9,24.5-37.6,33.4-3.1,2-20.8,12.6-22.9,13.2-3.9,1-5.4-2.3-9-2.6,9.3,36.9-17.7,80.1-53,92-.6-.6,6.6-11.2,7.5-13,6.4-12.1,11.1-24.9,12.4-38.7s.9-3.6-.9-3.4c-5,16.2-15.4,33.1-26.1,46.5-7.1,8.9-16.6,19.8-28,22.5,5.8-23.9,17.8-44.3,22.5-69,4.4-23.3-.9-47.7,11.3-68.7,12.4-21.2,66.5-67.5,88.5-79.5,56.3-30.6,71.8,44.8,86.7,81.8,0,2.2-3.8,6.4-5.5,8.4-5.7,6.8-13.6,12.7-19.5,19.5l-40,29.5Z"/>
  <path class="st0" d="M291,284.3c1.7,18.1-13.9,32.3-26.5,43s-29.8,22.7-45.5,31c-.2,1.9,2,.8,3,.5,23.1-5.6,45.9-20.3,62.9-36.6-11.9,49.1-65.8,85.4-115,87,1.4,1.9,5.7,2.9,8,3.5,14.4,4,28.6,4.3,43.3,1.6l14.3,12.8-13.5,45.4c15.7,29.7,29.9,60.1,43,91.1.2.7-.8.7-1.5.5-6-2-22.2-16.8-27-22-20.5-21.7-37.5-49.2-56.5-72.5-17.2-21.1-60.5-60.2-62.8-86.1-3.5-38.2,49.4-45.2,76.1-55.6s52.3-28.1,79.1-39.9c6.2-2.8,11.7-4.7,18.7-3.8Z"/>
  <path class="st0" d="M337,145.3l-36.5-36c-8.8-10.6-16.4-22.1-23.1-34.1l-233.4,55.1c4.1,12.5,10.4,24.7,15.5,37,12.1,29.8,22.6,60.2,30.7,91.3l70.9,61.1-25.5,9.5-64.9-52c-11.3-8.6-12.2-24.5-16.5-37.5C39.3,195.5,20.3,152.7,0,110.8l2.5-1.5c97.6-22.6,194.3-49.4,292.9-67.9,1.4.4,7,18.2,8.5,21.6,7.5,17.3,19.7,33.7,34.7,45.3-2,12.2-1.5,24.6-1.5,37Z"/>
  <path class="st0" d="M610,420.3c-1.3,0-2.5.3-3.7.8-48.8,21.8-95.8,47.2-142,74-10,4.5-21.3.6-31.7.2-9.7-.4-19.8,0-29.5.6-6.8,5.9-11.8,13.6-18,20-26.9,28-65.8,42.7-97.5,64.5-14.3-38.3-29.7-76.2-50.2-111.6-.1-1.6,9.4-27.8,10.9-30.7,2.8-5.3,11.1-14.8,15.3-19.7s9.6-10.5,14.5-15c-3.8,10.1-8.7,19.7-11.3,30.2s-5,24.4-3.6,33.3,10.8,18.5,13.5,23.5,6.6,12.9,9.7,19.3,7.9,21.1,12.6,29.4-.3,1.7,1.6,1.2c16.5-11.3,38.1-20,53.6-32.5,12-9.6,22.1-26.8,34.1-35.9,13.8-10.6,48.1-.5,65.1-2.9,37.5-21.3,75.6-41.8,115-59.5l-33-51.5,17.5-17.5c15.7,29,36.6,54.7,57.5,80Z"/>
  <path class="st0" d="M431,322.3l-35.9,20.5,38.9,85.5-63.5-78-28.5-23.5c29.4-4.1,59.3-4.5,89-4.5Z"/>
  <path class="st0" d="M241,259.3c-.7.8-6.5-4.3-7.5-5-36.6-29.2-71.9-60.5-106.5-92,16.3,6,32.8,11.8,48.7,18.8s27.5,11.7,32.4,16.6,29.1,47.7,32.2,56.8,1.1,3,.8,4.7Z"/>
  <path class="st0" d="M315,485.3c-1.7.2-.9-2.3-1-3.5-.8-20.7.6-41.5,1-62,.5-22.2.1-44.5,2.5-66.5l24.5,27.5,1.8,3.8-28.8,100.7Z"/>
  <path class="st0" d="M287,262.3c-1.5,0-1.7-3.5-1.9-4.6-1.9-11.2-3-24.4-4.1-35.9-3-30.1-4.1-60.4-7-90.5l33,68.6-20,62.4Z"/>
  <path class="st0" d="M222,299.3l-16.3,6.8-52.7-27.8c23.1,2,54,.2,69,21Z"/>
  <path class="st0" d="M439,201.3l-13.9-25.5c3.4-7.1,9.1-13.4,10-21.5l14.9,23.5-10.9,23.5Z"/>
  <polygon class="st0" points="321 266.8 363 238.3 321 293.3 321 266.8"/>
</svg>