<?xml version="1.0" encoding="UTF-8"?>
<svg id="Layer_1" xmlns="http://www.w3.org/2000/svg" version="1.1" viewBox="0 0 554 374">
  <!-- Generator: Adobe Illustrator 30.0.0, SVG Export Plug-In . SVG Version: 2.1.1 Build 123)  -->
  <defs>
    <style>
      .st0 {
        fill: #fff;
      }
    </style>
  </defs>
  <rect class="st0" width="200" height="374" rx="8" ry="8"/>
  <rect class="st0" x="354" width="200" height="374" rx="8" ry="8"/>
  <circle class="st0" cx="208" cy="19" r="6"/>
  <circle class="st0" cx="208" cy="47" r="6"/>
  <circle class="st0" cx="208" cy="75" r="6"/>
  <circle class="st0" cx="208" cy="103" r="6"/>
  <circle class="st0" cx="208" cy="131" r="6"/>
  <circle class="st0" cx="208" cy="159" r="6"/>
  <circle class="st0" cx="208" cy="187" r="6"/>
  <circle class="st0" cx="208" cy="215" r="6"/>
  <circle class="st0" cx="208" cy="243" r="6"/>
  <circle class="st0" cx="208" cy="271" r="6"/>
  <circle class="st0" cx="208" cy="299" r="6"/>
  <circle class="st0" cx="208" cy="327" r="6"/>
  <circle class="st0" cx="208" cy="355" r="6"/>
  <circle class="st0" cx="219" cy="22" r="5.5"/>
  <circle class="st0" cx="219" cy="52" r="5.5"/>
  <circle class="st0" cx="219" cy="82" r="5.5"/>
  <circle class="st0" cx="219" cy="112" r="5.5"/>
  <circle class="st0" cx="219" cy="142" r="5.5"/>
  <circle class="st0" cx="219" cy="172" r="5.5"/>
  <circle class="st0" cx="219" cy="202" r="5.5"/>
  <circle class="st0" cx="219" cy="232" r="5.5"/>
  <circle class="st0" cx="219" cy="262" r="5.5"/>
  <circle class="st0" cx="219" cy="292" r="5.5"/>
  <circle class="st0" cx="219" cy="322" r="5.5"/>
  <circle class="st0" cx="219" cy="352" r="5.5"/>
  <circle class="st0" cx="230" cy="27" r="5"/>
  <circle class="st0" cx="230" cy="59" r="5"/>
  <circle class="st0" cx="230" cy="91" r="5"/>
  <circle class="st0" cx="230" cy="123" r="5"/>
  <circle class="st0" cx="230" cy="155" r="5"/>
  <circle class="st0" cx="230" cy="187" r="5"/>
  <circle class="st0" cx="230" cy="219" r="5"/>
  <circle class="st0" cx="230" cy="251" r="5"/>
  <circle class="st0" cx="230" cy="283" r="5"/>
  <circle class="st0" cx="230" cy="315" r="5"/>
  <circle class="st0" cx="230" cy="347" r="5"/>
  <circle class="st0" cx="241" cy="17" r="4"/>
  <circle class="st0" cx="241" cy="51" r="4"/>
  <circle class="st0" cx="241" cy="85" r="4"/>
  <circle class="st0" cx="241" cy="119" r="4"/>
  <circle class="st0" cx="241" cy="153" r="4"/>
  <circle class="st0" cx="241" cy="187" r="4"/>
  <circle class="st0" cx="241" cy="221" r="4"/>
  <circle class="st0" cx="241" cy="255" r="4"/>
  <circle class="st0" cx="241" cy="289" r="4"/>
  <circle class="st0" cx="241" cy="323" r="4"/>
  <circle class="st0" cx="241" cy="357" r="4"/>
  <circle class="st0" cx="252" cy="35" r="3.5"/>
  <circle class="st0" cx="252" cy="73" r="3.5"/>
  <circle class="st0" cx="252" cy="111" r="3.5"/>
  <circle class="st0" cx="252" cy="149" r="3.5"/>
  <circle class="st0" cx="252" cy="187" r="3.5"/>
  <circle class="st0" cx="252" cy="225" r="3.5"/>
  <circle class="st0" cx="252" cy="263" r="3.5"/>
  <circle class="st0" cx="252" cy="301" r="3.5"/>
  <circle class="st0" cx="252" cy="339" r="3.5"/>
  <circle class="st0" cx="263" cy="40" r="3"/>
  <circle class="st0" cx="263" cy="82" r="3"/>
  <circle class="st0" cx="263" cy="124" r="3"/>
  <circle class="st0" cx="263" cy="166" r="3"/>
  <circle class="st0" cx="263" cy="208" r="3"/>
  <circle class="st0" cx="263" cy="250" r="3"/>
  <circle class="st0" cx="263" cy="292" r="3"/>
  <circle class="st0" cx="263" cy="334" r="3"/>
  <circle class="st0" cx="273" cy="37" r="2.5"/>
  <circle class="st0" cx="273" cy="87" r="2.5"/>
  <circle class="st0" cx="273" cy="137" r="2.5"/>
  <circle class="st0" cx="273" cy="187" r="2.5"/>
  <circle class="st0" cx="273" cy="237" r="2.5"/>
  <circle class="st0" cx="273" cy="287" r="2.5"/>
  <circle class="st0" cx="273" cy="337" r="2.5"/>
  <circle class="st0" cx="281" cy="37" r="2.5"/>
  <circle class="st0" cx="281" cy="87" r="2.5"/>
  <circle class="st0" cx="281" cy="137" r="2.5"/>
  <circle class="st0" cx="281" cy="187" r="2.5"/>
  <circle class="st0" cx="281" cy="237" r="2.5"/>
  <circle class="st0" cx="281" cy="287" r="2.5"/>
  <circle class="st0" cx="281" cy="337" r="2.5"/>
  <circle class="st0" cx="291" cy="40" r="3"/>
  <circle class="st0" cx="291" cy="82" r="3"/>
  <circle class="st0" cx="291" cy="124" r="3"/>
  <circle class="st0" cx="291" cy="166" r="3"/>
  <circle class="st0" cx="291" cy="208" r="3"/>
  <circle class="st0" cx="291" cy="250" r="3"/>
  <circle class="st0" cx="291" cy="292" r="3"/>
  <circle class="st0" cx="291" cy="334" r="3"/>
  <circle class="st0" cx="302" cy="35" r="3.5"/>
  <circle class="st0" cx="302" cy="73" r="3.5"/>
  <circle class="st0" cx="302" cy="111" r="3.5"/>
  <circle class="st0" cx="302" cy="149" r="3.5"/>
  <circle class="st0" cx="302" cy="187" r="3.5"/>
  <circle class="st0" cx="302" cy="225" r="3.5"/>
  <circle class="st0" cx="302" cy="263" r="3.5"/>
  <circle class="st0" cx="302" cy="301" r="3.5"/>
  <circle class="st0" cx="302" cy="339" r="3.5"/>
  <circle class="st0" cx="313" cy="17" r="4"/>
  <circle class="st0" cx="313" cy="51" r="4"/>
  <circle class="st0" cx="313" cy="85" r="4"/>
  <circle class="st0" cx="313" cy="119" r="4"/>
  <circle class="st0" cx="313" cy="153" r="4"/>
  <circle class="st0" cx="313" cy="187" r="4"/>
  <circle class="st0" cx="313" cy="221" r="4"/>
  <circle class="st0" cx="313" cy="255" r="4"/>
  <circle class="st0" cx="313" cy="289" r="4"/>
  <circle class="st0" cx="313" cy="323" r="4"/>
  <circle class="st0" cx="313" cy="357" r="4"/>
  <circle class="st0" cx="324" cy="27" r="5"/>
  <circle class="st0" cx="324" cy="59" r="5"/>
  <circle class="st0" cx="324" cy="91" r="5"/>
  <circle class="st0" cx="324" cy="123" r="5"/>
  <circle class="st0" cx="324" cy="155" r="5"/>
  <circle class="st0" cx="324" cy="187" r="5"/>
  <circle class="st0" cx="324" cy="219" r="5"/>
  <circle class="st0" cx="324" cy="251" r="5"/>
  <circle class="st0" cx="324" cy="283" r="5"/>
  <circle class="st0" cx="324" cy="315" r="5"/>
  <circle class="st0" cx="324" cy="347" r="5"/>
  <circle class="st0" cx="335" cy="22" r="5.5"/>
  <circle class="st0" cx="335" cy="52" r="5.5"/>
  <circle class="st0" cx="335" cy="82" r="5.5"/>
  <circle class="st0" cx="335" cy="112" r="5.5"/>
  <circle class="st0" cx="335" cy="142" r="5.5"/>
  <circle class="st0" cx="335" cy="172" r="5.5"/>
  <circle class="st0" cx="335" cy="202" r="5.5"/>
  <circle class="st0" cx="335" cy="232" r="5.5"/>
  <circle class="st0" cx="335" cy="262" r="5.5"/>
  <circle class="st0" cx="335" cy="292" r="5.5"/>
  <circle class="st0" cx="335" cy="322" r="5.5"/>
  <circle class="st0" cx="335" cy="352" r="5.5"/>
  <circle class="st0" cx="346" cy="19" r="6"/>
  <circle class="st0" cx="346" cy="47" r="6"/>
  <circle class="st0" cx="346" cy="75" r="6"/>
  <circle class="st0" cx="346" cy="103" r="6"/>
  <circle class="st0" cx="346" cy="131" r="6"/>
  <circle class="st0" cx="346" cy="159" r="6"/>
  <circle class="st0" cx="346" cy="187" r="6"/>
  <circle class="st0" cx="346" cy="215" r="6"/>
  <circle class="st0" cx="346" cy="243" r="6"/>
  <circle class="st0" cx="346" cy="271" r="6"/>
  <circle class="st0" cx="346" cy="299" r="6"/>
  <circle class="st0" cx="346" cy="327" r="6"/>
  <circle class="st0" cx="346" cy="355" r="6"/>
</svg>