<?xml version="1.0" encoding="UTF-8"?>
<svg xmlns="http://www.w3.org/2000/svg" viewBox="0 0 600 600"
  preserveAspectRatio="xMidYMid meet">
  <defs>
    <style>
      .st0 { fill: #fff; }
    </style>
  </defs>
  <g transform="translate(0,600) scale(0.1,-0.1)" class="st0">
    <path d="M1948 4273 l-3 -1718 -969 -3 -969 -2 40 -33 c22 -17 83 -68 134 -112 389 -331 983 -836 1404 -1194 275 -234 511 -435 525 -447 14 -12 108 -92 210 -179 102 -86 210 -178 240 -204 30 -26 144 -123 252 -215 l198 -168 187 160 c104 87 359 305 569 483 910 775 1193 1015 1414 1203 129 110 283 240 341 290 58 50 190 163 294 251 l188 160 -964 5 -964 5 -3 1718 -2 1717 -1060 0 -1060 0 -2 -1717z"/>
  </g>
</svg>