<?xml version="1.0" encoding="UTF-8"?>
<svg id="Layer_1" xmlns="http://www.w3.org/2000/svg" version="1.1" viewBox="0 0 89.5 55">
  <!-- Generator: Adobe Illustrator 30.0.0, SVG Export Plug-In . SVG Version: 2.1.1 Build 123)  -->
  <defs>
    <style>
      .st0 {
        fill: none;
        stroke: #fff;
        stroke-linecap: round;
        stroke-width: 3px;
      }

      .st1 {
        fill: #fff;
      }
    </style>
  </defs>
  <path class="st0" d="M1.6,13.4V5.4C1.6,2.7,2.9,1.4,5.6,1.4h8"/>
  <path class="st0" d="M76.1,1.4h8c2.7,0,4,1.3,4,4v8"/>
  <path class="st0" d="M1.5,41.5v8c0,2.7,1.3,4,4,4h8"/>
  <path class="st0" d="M76,53.5h8c2.7,0,4-1.3,4-4v-8"/>
  <g>
    <path class="st1" d="M22.2,27.5v19.7h45.1V7.8H22.2v19.7ZM65.1,21.8v11.7h-5.1s-5.1,0-5.1,0l-.4-1c-.6-1.6-1.5-3.5-1.9-4-.3-.4-.6-.7-.8-.6-.5.1-.9.8-1.6,2.4-.3.8-.7,1.7-.9,2.1-.2.4-.3.8-.4.9,0,.2-.1.3-.5.3-.2,0-1.2,0-2.1,0h-1.7v.3c.1.4.6,1.2,1.1,1.9.2.3,1.1,1.2,1.9,2l1.4,1.4.6.2c1.1.4,2.7.9,2.8,1s0,0-.3,0-.7,0-1,0c-.8,0-3.5.2-9.3.4-4.6.1-5.9.2-6.6.4-.7.2-1,.5-.7.7,0,0,.5.2.8.3.8.2,2.1.6,3.6,1.1l1,.3h5.6c3.1,0,6.1,0,6.8,0,3-.2,4.7-.3,5.7-.5,2.7-.5,4.1-.7,4.6-.8.3,0,1-.1,1.4-.1h.8v2.8H24.6v-1c-.1-1-.1-33.7,0-33.7s9.2,0,20.3,0h20.3v11.7ZM52.9,33.4c.4.7,1,1.1,1.9,1.4.3.1.7.3.8.3.1.1.1.1,0,.2-.3.1-3.4.3-4.8.2-2.2,0-2.3-.3-.2-.9.9-.3,1.3-.6,1.7-1.3.2-.3.3-.5.3-.5s.2.3.4.6Z"/>
    <path class="st1" d="M38.7,19.2c-.8.6-2,1.5-2.4,2-.4.4-.7,1.1-1.2,2.3-.5,1.2-1,2.1-1.8,3.1-.8,1-1,1.5-1.4,3.2-.2,1-.7,3.2-1,3.9-.3,1-.9,2.1-1.4,2.9-.4.5-.4.6-.3.7,0,0,.5.2,1.1.3,1.4.3,6.8.9,8.2.9.6,0,.7,0,.7-.2.2-.3.3-1.7.2-2.6,0-1.1-.3-1.8-1.2-3.5l-.6-1.2v-1.5c.3-1.8.3-2.1.4-1.9,0,0,.3.9.6,1.8.7,2.1.9,2.6,1.9,4,.4.6,1,1.5,1.4,2,.3.5.7,1,.9,1.2.7.7,2.2,1.6,2.7,1.6s.3-.2.3-.6,0-.4-.7-1.2c-.6-.8-.9-1.4-1.2-2.9-.3-1.5-.6-2.2-1.2-3-.8-1.1-1.2-2-1.5-4.2-.9-5.5-1.2-7-1.4-7.3-.2-.3-.6-.3-1.2.2Z"/>
    <path class="st1" d="M27.7,33.4c-.6,0-1.3,0-1.3,0h-.2v1.9c0,1.2,0,1.8,0,1.9,0,0,.3,0,.5-.2.6-.4,1-.6,1.1-.6.3,0,1.5-2.3,1.5-2.8s0-.1-.3-.1c-.1,0-.8,0-1.4,0Z"/>
  </g>
</svg>