<?xml version="1.0" encoding="UTF-8"?>
<svg id="Layer_1" xmlns="http://www.w3.org/2000/svg" version="1.1" viewBox="0 0 89.5 55">
  <!-- Generator: Adobe Illustrator 30.0.0, SVG Export Plug-In . SVG Version: 2.1.1 Build 123)  -->
  <defs>
    <style>
      .st0 {
        fill: none;
        stroke: #fff;
        stroke-linecap: round;
        stroke-width: 3px;
      }

      .st1 {
        fill: #fff;
      }
    </style>
  </defs>
  <path class="st0" d="M1.6,13.4v-8C1.6,2.7,2.9,1.4,5.6,1.4h8"/>
  <path class="st0" d="M76.1,1.4h8c2.7,0,4,1.3,4,4v8"/>
  <path class="st0" d="M1.5,41.5v8c0,2.7,1.3,4,4,4h8"/>
  <path class="st0" d="M76,53.5h8c2.7,0,4-1.3,4-4v-8"/>
  <g>
    <path class="st1" d="M22.3,6.8s0,9.2,0,20.4v20.4s22.5,0,22.5,0h22.5s0-.3,0-.3c0-.2,0-4.8,0-10.3v-10h-1.2s-1.2,0-1.2,0v1.4c0,.8,0,1.4,0,1.5,0,0,0,.1-.1.3s0,.3-.1.3c0,0-2,.5-2.1.5s-.4,0-.7-.2c-.3,0-.9-.2-1.2-.3-.3,0-.6-.2-.6-.2,0,0,0-.1,0-.2v-.2c0,0-.3,0-.3,0h-.3s-.7-.7-.7-.7c-.4-.4-.7-.8-.7-.8,0-.1,0-.5,0-.5,0,0,.1,0,.3,0,.7.2,1.2.4,1.2.4,0,0,0,0,0,0,0,0,0,0,.1-.2.2-.2.8-.9,1-1.1,0-.1.3-.3.4-.4.1-.1.2-.3.3-.3,0,0,.2,0,.7.3h.3c0,.1,0,.3,0,.3,0,.1.2.5.3.8.7,1.9.7,2.1.8,2.1,0,0,0-.5.2-.9l.2-.9v-.2c0-.4-.2-1-.2-1s.3,0,1.9,0h1.9s-.1-.2-.1-.2c0,0-.3-.5-.5-.9-.2-.4-.4-.7-.5-.7s-.1,0-.2,0c-.1,0-.4.1-.6.2s-.8.2-1.3.4-1,.3-1,.3c0,0-.3-.4-.6-.7v-.2c-.1,0,0-.3,0-.3,0-.5,0-.9,0-.9,0,0,0,0-.2.1s-.4.3-.7.5l-.6.4-.2-.2c-.1-.1-.2-.2-.3-.2,0,0,0,0,0,.2,0,.1,0,.6,0,1,0,.4,0,.9,0,1v.2s0,0,0,0c0,0-.2.2-.4.3l-.3.2h-.1c0,0-.6-.2-1.1-.3-1-.2-1-.2-1.1-.3-.4-.5-.5-.5-.5-.6,0,0,0-.3-.1-.6,0-.3-.1-.7-.2-1s0-.5-.1-.5c0,0,0-.1.7-.9.7-.8.8-1,.9-1.1s.3-.2.7-.4l.6-.3h0c0,0,.2.2.4.3l.3.2h0c0,.2,0,.3,0,.4,0,0,0,.1,0,.1s0,0,.1,0h0c0,0,0-.3,0-.3,0-.2,0-.4,0-.6,0-.2,0-.3,0-.3,0,0-1.4-.6-1.6-.7-.1,0-.3-.1-.3-.1,0,0,0,0-.3-.8,0-.2-.1-.5-.1-.5h0c0,0-.2.2-.2.2-.1.2-.4.6-.7.9-.3.3-.5.6-.5.6s0-.2.1-.5c0-.3.1-.5.1-.5,0,0-.2,0-.4.2-.2.1-.4.2-.4.2,0,0,0-.2-.4-1-.1-.3-.2-.4-.2-.3,0,0-.1.3-.3.5s-.4.7-.5,1-.4.8-.5,1c-.1.2-.2.5-.2.5,0,0-.4,0-2.3-.4-.4,0-.5,0-.4,0,0,0,0,.1,0,.2s0,.3,0,.5c0,.1,0,.3,0,.3s-.2,0-.4,0c-.2,0-.6.1-.8.2s-.5.1-.5.1c0,0,0,0-.4-.9-.2-.5-.4-1-.4-1s0-.2,0-.3c0-.3,0-.3,0-.3,0,0,0,0,0,0s0,0-.5-.2c-.3-.1-.6-.2-.7-.3s-.2,0-.2,0c0,0-.3,1.1-.3,1.3,0,0-.1.5-.2,1.1s-.3,1.1-.3,1.3v.3c0,0,0,0,0,0,0,0,.1.1.2.2h0c0,0,0,.7,0,.7,0,.3,0,.6,0,.6,0,0-.2-.2-.3-.4l-.3-.4v.5c-.2.3-.3.6-.3.8,0,.1-.1.5-.2.8s-.1.7-.2.8-.1.5-.2.9c0,.4-.2.7-.2.7s0,0-.2-.1c0,0-.1-.1-.1,0,0,0-.2.6-.5,1.2l-.5,1.2.2.3c0,.2.2.4.3.5v.2c.1,0,0,.5,0,.5,0,.5,0,.5-.3,1.1h0c0,.1-.5.4-.5.4-.5.3-.6.3-.6.3s0-.4,0-.8c0-.4,0-.8,0-.9s.5-1,1-2.1c.6-1.1,1-2,1-2.1,0,0-.6-.5-1.7-1.4-.2-.2-.5-.5-.7-.6-.1-.1-.6-.5-1-.9-1.1-1-1.2-1-1.2-1,0,0,.1-.3.6-1.3.1-.2.3-.6.3-.7.4-1,.6-1.3.7-1.5v-.2c.1,0,.6-.2.6-.2l.5-.2v-.2l.6-.6c.3-.3.6-.7.7-.7l.2-.2.3.3c.2.2.4.3.5.4h.1c0,.1.4,0,.4,0,.2,0,.4-.2.4-.2,0,0,0-.3.2-.6.2-.6.2-.6.2-.9v-.3s0,0,0,0c0,0,0,0-.1,0,0,0,0,.3,0,.6,0,.7-.2,1.1-.2,1.2,0,0,0-.1-.1-1,0-.4,0-.8,0-.8,0,0-6.3,0-6.6,0,0,0-.4.5-.5.6,0,0,0,.2.1.4s.1.4.1.4c0,0-.8,1.5-.8,1.6,0,0,0,0-.3,0-.1,0-.2,0-.3,0,0,0-.4-1.1-.4-1.3,0,0,0-.1,0-.1s0,.3,0,.6c.1.8.1.8,0,.8s-.3,0-.9-.2c0,0,0,0-.2.2,0,.1-.2.3-.2.3s0,.1-.1.2h0s-.4,0-.4,0c-.2,0-.4-.1-.4-.1,0,0,0,.1.1.2.5,1,.7,1.3.6,1.3,0,0,0,0-.1-.2-.1-.2-.5-.7-.8-1.2-.1-.2-.2-.3-.2-.3s0-.2,0-.4v-.4c0,0,.3-.3.3-.3.1-.2.3-.3.3-.3,0,0-.1-.2-.2-.4-.1-.2-.3-.4-.3-.5h0c0,0,0,0,0,0,0,0-.2.3-.3.5l-.2.4v.4c-.2.4-.2.5-.2.4,0-.1-1.1-1.4-1.1-1.4s.7,1.4.9,1.7c0,.2.2.3.2.3s0,0-.2.2-.2.2-.2.2c0,0-.7.5-1.4,1-.4.3-.7.5-.7.5,0,0,0,0,0,0s-.3-.2-.6-.4c-.3-.2-.8-.5-1-.7-.2-.2-.5-.3-.6-.4s-.2-.1-.2-.2c0,0,0,.1.3.3.4.4,1,1.1,1.1,1.2.1.1.1.1.1.3s0,.6,0,1.1v1c0,0-.2.7-.2.7-.2.4-.4.9-.5,1.2s-.2.5-.2.5c0,0-.3.1-1.8.5-1.1.3-1.4.4-1.4.4,0,0,.5.4.5.4s.6-.1,1.4-.3c.7-.2,1.3-.3,1.4-.3,0,0,.2.4.4.9l.4.9-.4.9c-.8,1.7-.9,2-1,2,0,0-2,1.2-2.4,1.5h-.1c0,0,.8,0,.8,0h.8s0,.2,0,.2v.2h.5c.3,0,.4,0,.4,0,0-.1-.3-.5-.3-.5s.3,0,.6-.1.6-.1.7-.1c0,0,0,0,.2.3,0,.1.2.3.2.3,0,0-.1,0-.3.2h-.2c0,.1-.3.2-.3.2h-.3s.2.2.2.2c.1,0,.2.2.2.2,0,0,0,0,0,.2,0,.1-.1.2-.1.2s.1,0,.3,0,.3,0,.3,0c0,0,0,.1-.2.3l-.2.3h.2c.1,0,.3,0,.4,0h.2v-.3h.2c.3,0,.3,0,.4.1,0,0,.1.3.2.5s.2.4.2.4c0,0-.3,0-.7,0s-.7,0-.7,0c0,0,.2.3.3.5v.2c.1,0,0,.5,0,.5,0,.3-.2.5-.2.5,0,.1,0,.1.3.1.2,0,.4,0,.6,0h.2s-.4.2-.4.2c-.5.3-1.9,1-1.9,1s-.2-.3-.5-.6l-.5-.6h-.3c-.2,0-.7,0-1.2,0h-.9s-.4,0-.4,0c-.6.1-.8.1-.8.2,0,0,1.2,0,2.3.2.4,0,.7,0,.8,0,0,0,2.1,2,2.1,2s-.1.3-.3.5-.3.5-.3.5,0,0,0,0c0,0,.6-.2,1.2-.4s1.2-.4,1.2-.4c0,0,.2,0,.6.3.3.1.8.4,1.2.6s.7.4.8.4h.1c0,0-.6.4-.6.4-.7.3-.5.3-1.5.4-1.1.1-2.2.2-2.5.3-.2,0-.5.1-.7.2-.2,0-.4,0-.4,0,0,0,0,0,.4,0,.1,0,.4,0,.5,0,.1,0,.3,0,.3,0,0,0,.4,0,.8,0,.4,0,.9,0,1.2,0,.4,0,1.3-.1,2.3-.2,0,0,.2,0,.2,0s-.1.2-.2.5c-.1.3-.2.5-.2.5,0,0,2.7-.8,2.8-.8,0,0,0,0-.1.2,0,0-.2.2-.3.3h-.2c0,.1.4.2.4.2.2,0,.6,0,.8.1h.4c0,0,.3-.2.3-.2.2-.1.3-.2.3-.2,0,0-.1.5-.2.7h0c0,0,.3,0,.3,0,.5,0,3.7.1,3.7.1,0,0,0-.2,0-.4,0-.2,0-.4,0-.4s.1.2.3.4l.3.4h.5c.9,0,3.5,0,5.7,0,1.9,0,2.5,0,2.6-.1,0,0,.6-.2,1.1-.4,2.7-1.1,2.6-1.1,2.7-1,.3,0,.5.2.5.2,0,0-.7.4-1.9.9-.8.3-.8.3-.7.4.4,0,4.3-.3,5.7-.5.1,0,.3,0,.4,0h.2s0-.2,0-.2c0,0,.4-.7.7-1.3.4-.6.7-1.1.7-1.1,0,0,.7.8,1.4,1.7l.4.5h.1c0,0,.2,0,.3,0h.2s-.4-.5-.4-.5c-.2-.3-.4-.5-.5-.6h0c0-.1,0-.4,0-.4,0-.2.5-1.5.6-1.8,0,0,.1-.1.6-.4.3-.2.8-.4,1-.6s.4-.2.4-.2c0,0,0,.6,0,3.4v3.4h-13.8c-9.2,0-13.8,0-13.8,0,0,0,0,0-6.4,0h-6.4v-8.9c0-4.9,0-8.9,0-8.9s0,0,0,0c0,0,.2,0,.9,0h.9l-.6-.2-.6-.2h-.4s-.4,0-.4,0v-1.3c0-.7,0-1.3,0-1.3,0,0,0,0,0,0,0,0,.4,0,.8.1.4,0,.9.1,1,.2.1,0,.2,0,.2,0,0,0-.4-.2-1.4-.5-.2,0-.4-.2-.4-.2,0,0,.2-.3.3-.5,0,0,0,0-.4-.3l-.3-.2v-14h16.8c13.4,0,16.8,0,16.8,0,0,0,0-.1,0-.2,0,0,0-.2,0-.2,0,0,.2,0,.3-.1.2,0,.5-.1.7-.2.7-.2,2.5-.8,2.5-.8,0,0,0,.4.2,1,0,.2,0,.5,0,.5h0c0,0,2.9,0,2.9,0v3.5s0,3.5,0,3.5l.3.6c.2.4.3.7.3.7s-.2,0-.3.1h-.3v3.5c0,1.9,0,3.4,0,3.4,0,0,1.3-.4,1.4-.4,0,0,0,0,.1.1,0,.1.6.9.7,1.2,0,0,0,.1,0,.1s0-4.2,0-9.4V6.7s-22.5,0-22.5,0c-16,0-22.5,0-22.5,0ZM40.7,20.8s-.2.2-.5.4c-.3.2-.6.4-.7.5-.2.1-.3.2-.3.2,0,0,0-.2-.1-.4-.1-.4-.1-.4,0-.4,0,0,.3,0,.7-.1s.7-.1.7-.2c0,0,.2,0,.2,0ZM52.2,22.5c0,0,.4,1,.7,1.8.1.3.3.8.4,1.2.1.3.3.9.4,1.2.1.3.2.6.2.6,0,0,0,.2,0,.4-.1.6-.2,1.2-.3,1.7,0,.3-.1.7-.2.9v.3c0,0-.3,0-.3,0-.1,0-.4,0-.6.1s-.6.1-.8.2c-.8.2-.8.2-.8.1,0,0-.2-.2-.4-.3-.3-.3-1.3-1.1-2.4-1.9-.4-.3-.7-.6-.8-.6,0,0,0,0,.4-1.4,0-.1.1-.3.1-.4s0-.2.1-.4c.2-.7.5-1.5.5-1.6,0,0,0-.1,0-.1,0,0,.6-.3,1.2-.6s1.4-.7,1.8-.9c.4-.2.7-.3.7-.3,0,0,0,0,0,0h0ZM39.4,22.8c-.1.1-.5.6-1.4,1.6-.3.3-.5.6-.5.6,0,0-.1,0-.6.2-.5.2-1.2.5-1.4.5,0,0-.1,0-.1,0,0,0,.2-.3.5-.6s.6-.7.7-.9l.2-.3.8-.4c.4-.2,1-.5,1.4-.7.3-.2.6-.3.6-.3s0,0,0,.1h0ZM34.9,25c0,0-.5,1.2-.6,1.5,0,.2-.1.3-.1.3,0,0-.1.1-.3.3-.1.1-.4.3-.6.5-1.2,1.1-1.3,1.1-1.3,1.1,0,0,0-.2-.2-1v-.8c-.1,0,0-.3,0-.3.4-.5.5-.6.6-.7.1,0,1.3-.5,1.9-.7.3-.1.5-.2.5-.2,0,0,0,0,0,0h0ZM38.3,27.9c.2.2.3.4.3.4,0,0,0,.1-.2.2,0,0-.3.4-.5.6-.2.2-.4.4-.4.4s0,0,0-.2c0,0,0-.5,0-.8,0-.7,0-1.1,0-1.1,0,0,0,0,.2,0h.2l.3.4h0ZM40,28.5v.6s.2.1.2.1c.1,0,.2.1.2.1,0,0,0-.2,0-.3v-.3c0,0,0,0,0,0,0,0,0,0,0,0,0,0,.2.2.5.3l.5.3h0c-.6.4-.6.4-.6.5,0,0,0,.1,0,.2,0,.3-.2.8-.2.8,0,0-1.2-1.2-1.2-1.2s0,0,.2-.1h.2c0-.1,0-.2,0-.2,0,0-.1-.3-.2-.5,0-.2-.2-.4-.2-.4s.7-.3.8-.3c0,0,0,.3,0,.6h0ZM34.5,28.2c0,0,0,.2,0,.2,0,0-.5-.3-.5-.3,0,0,.4-.1.4-.1,0,0,0,.1,0,.2ZM36.7,29c0,.2.2.3.2.4,0,0-.4-.3-.7-.5h0c0,0,.2-.1.2-.1.1,0,.2,0,.2,0,0,0,0,.2.2.3h0ZM35.4,30.1c0,.2.2.4.2.4s0,0-.1,0c0,0-.3.2-.5.3-.2.1-.4.2-.4.2,0,0,.1-.3.3-.7.2-.5.4-.7.4-.7s.1.2.2.4h0ZM38.3,30.5c.7.4.9.6,1.1.8.1.1.3.3.4.4l.2.2v.3c0,.1,0,.3,0,.3,0,0-.1,0-.5.2l-.5.2h-.7c-.4.1-.9.2-1.2.3s-.5,0-.5,0c0,0,0-.2.2-.5.1-.2.4-.9.7-1.5.3-.6.5-1,.5-1s.2,0,.3.2h0ZM57,30.4c0,0,0,.4-.1,1,0,.2,0,.6-.1.9v.6c0,0-.3.5-.3.5-.1.3-.3.7-.4.9-.1.3-.2.5-.2.5s-.3.7-.4,1v.2c0,0-.5,0-.5,0-1.7,0-2.1,0-2.1,0s0-.3,0-.6c0-.5.3-1.9.4-2.4v-.2s.2-.1.2-.1c.1,0,.3-.2.5-.3.2-.1.6-.4,1.1-.7,1.1-.7,1.4-.9,1.7-1.1.1,0,.3-.2.3-.2,0,0,0,0,0,0h0ZM64.9,31.7v.8s0,0,0,0c-.1,0-1.8,0-1.9-.1,0,0,0,0,0-.1,0-.2-.1-.8-.1-.8s.5-.1,1-.3c.5-.1,1-.3,1-.3,0,0,0,0,0,0,0,0,0,.1,0,.8ZM41.1,31.3c-.1.7-.4,2-.4,2s0,0,0,0,0-.1-.1-.2-.1-.2-.1-.2c0,0,0-.1.3-.8.2-.4.3-.8.3-.8,0,0,0,0,0,0ZM42,32.2c-.1.2-.2.4-.3.4,0,0,0,0-.2-.4,0-.2,0-.3,0-.3,0,0,.7-.1.7,0,0,0,0,.2-.2.4ZM64.9,34.7c0,1.3,0,1.6,0,1.6s-.4-.3-.7-.6c0,0-.1-.1-.2-.1,0,0,0-.3-.3-1.1,0-.3-.2-.7-.3-.9,0-.2-.1-.4-.1-.4,0,0,0,0,.8,0h.8v1.6ZM32.2,34c0,0,0,0,0,.4v.3c0,0-.6,0-.6,0-.3,0-.6,0-.6,0,0,0,0-.1,0-.3,0-.2,0-.3,0-.3s.2,0,.4-.2l.4-.2.2.2c0,0,.2.2.2.2h0ZM33.1,34.5c.2,0,.3,0,.3,0s0,.2-.1.4c0,.2-.2.4-.2.5v.2h-.3c-.2,0-.2,0-.2,0s.1-.8.2-1.1c0,0,0-.1,0-.1,0,0,.1,0,.3,0h0ZM57.8,34.9c.2.1.4.2.4.3.2.1.8.4.8.5.1,0,.5.3.7.4.1,0,.2.1.2.2s0,.2,0,.4c0,.2,0,.5,0,.7v.4s-.2.5-.2.5c-.1.3-.2.5-.2.5s0,0,0,0c0,0-1-.6-1-.7,0,0-.2-.3-.4-.7s-.4-.8-.5-1l-.2-.4v-.2c0,0,0-.4,0-.7v-.5s0,0,0,0c0,0,.3.2.5.3ZM47.5,35.5c.2.2.5.5.7.7l.2.3v.3c-.2.1-.3.5-.4.8s-.2.5-.2.6-.2.1-.4.2c-.3.2-.3.2-.3.3,0,0,0,0,0,0,0,0,.1.3.3.6.1.3.3.5.3.5s0,0,0,0c-.3,0-2.2-.4-3-.5-.2,0-.4,0-.4,0,0,0,1-.8,1.1-.9,0,0,0-.2-.2-.5-.3-.8-.5-1.3-.5-1.4s.5-.3,1.1-.6,1.1-.7,1.2-.7.2-.1.2-.1c0,0,.2.2.4.4h0ZM35.9,36.7c.8,1.8.8,1.9.8,1.9,0,0-.1,0-.3.1-.2.1-.3.1-.3,0,0,0-.6-1.6-.9-2.4l-.2-.6v-.2c0-.4,0-.4.1-.4,0,0,.3.7.7,1.5ZM40.8,36.2c0,.4,0,.9,0,1.3v.6s-.2.5-.2.5c-.1.3-.2.6-.3.6,0,0,0,.1,0,.1s0-.1-.1-.3c-.4-.9-1.1-2.9-1.1-3,0,0,1.6-.7,1.6-.7,0,0,0,.3,0,.7h0ZM37.3,36.2c.3.2.6.3,1.1.6l.5.2v.3c.2.1.2.3.2.3,0,0-.4-.1-.8-.2-.5-.2-1-.3-1.4-.5-.6-.2-.7-.3-.7-.4,0,0,.1,0,.3-.1.1,0,.3-.2.4-.2,0,0,.2,0,.2,0,0,0,.1,0,.2.1h0ZM34.5,36.7v.3c0,0,0,.6,0,.6,0,.3-.2.6-.2.7h0c0,0-.2.1-.2.1,0,0-.2,0-.3,0h-.1s0-.1,0-.1c0-.2-.2-.4-.2-.5s0-.3.2-.7c.2-.5.2-.6.3-.6,0,0,.2,0,.3,0s.2,0,.2,0,0,.1,0,.3h0ZM42.6,36.9s.2.1.4.2c.2.1.4.2.4.3h.1v.4c0,.2,0,.3,0,.3,0,0-.5,0-.5,0s0-.2-.1-.3c0-.2-.2-.4-.2-.6,0-.2,0-.3,0-.3h0ZM44.4,38.2c0,.2.2.3.2.3,0,0-.1.1-.3.2s-.4.3-.5.4c-.1,0-.2.2-.2.2,0,0,0-.1,0-.3v-.3s0,0,0,0c0,0,.2-.2.4-.4.2-.2.3-.3.3-.3,0,0,0,.1.2.3h0ZM35.4,38.4h.2c0,0,0,.4,0,.4,0,.2,0,.3,0,.3,0,0-.1,0-.3,0-.1,0-.4-.2-.5-.2s-.3-.1-.3-.1c0,0,0,0,.1-.2.2-.2.1-.2.5,0h0ZM42.5,38.6c.3.2.3.2.3.2,0,0,0,.2,0,.3v.2s-.2.2-.2.2c-.1,0-.2.2-.3.2,0,0,0,0-.1,0-.2,0-.5,0-.6,0,0,0-.2-.5-.2-.5s.1-.2.3-.4c.2-.3.3-.4.4-.4,0,0,.2,0,.4.2h0ZM37.6,38.7c0,0,0,.2-.2.4l-.2.2h-.4c-.2,0-.4,0-.5,0,0,0,0,0,0,0,0,0,1.2-.8,1.3-.9,0,0,0,0,0,.1h0ZM32.4,39.1c.3.1.6.2.7.2s1.1-.2,1.4-.3c.3,0,0,0,0,0,0,0-.4.4-.6.6h0c0,0-.3,0-.3,0-.2,0-.4-.1-.4-.1,0,0-.8.1-1,.2h-.1s-.5-.2-.5-.2c-.2-.1-.5-.3-.5-.3,0,0,.7-.3.8-.3,0,0,.3.1.6.2h0ZM40,40c.2.4.4.8.4.8,0,0-.4.2-1,.3-.5.2-1.1.3-1.2.4-1,.3-1.7.5-1.7.5,0,0,0-.2.4-1.2h0c0-.1.5-.4.5-.4.3-.1.7-.3.8-.4s.5-.3.8-.4c.2-.1.5-.2.5-.3,0,0,0,0,0,0,0,0,.2.3.4.8h0ZM45.6,39.9s-.4.2-.8.4c-1.3.7-1.5.8-1.6.8,0,0,0,0,0,0,0,0,0-.2,0-.4,0-.2,0-.4,0-.5,0-.1-.1-.1,1-.3.5,0,.9-.1,1-.2.2,0,.4,0,.3,0h0ZM34.8,40.1c0,0,.2.2.3.2,0,0,.1,0,.1,0,0,0-.5.4-.5.4s0,0-.1-.1c0,0-.2-.1-.3-.2-.1,0-.2-.1-.2-.1s.6-.3.6-.4c0,0,0,0,.2.1h0ZM36,41c.4.2.3.1.2.5,0,.2-.1.3-.1.3,0,0-.1,0-.3-.1-.2,0-.3-.2-.4-.2,0,0,0,0,0,0,0,0,.1-.2.2-.3,0-.2.2-.3.2-.3s.1,0,.3.1h0ZM50.4,41.9v.7l-.3.2c-.1,0-.5.3-.9.6-.4.2-.7.4-.7.4,0,0,0-.2.1-.5,0-.4.3-.7.5-1,.2-.2,1.2-1.1,1.2-1.1,0,0,0,.3,0,.7ZM41.2,41.3c0,0,.2.1.2.1s0,0-.2.1-.3.1-.3.2h-.1c0,0-.3-.1-.3-.1-.2,0-.3-.2-.3-.2,0,0,.7-.2.9-.2,0,0,0,0,.2.1h0Z"/>
    <path class="st1" d="M60.8,8.3c-.3.1-.9.3-1.2.4-.9.3-1,.3-1,.4,0,0,0,.3-.2.6,0,.3-.2.6-.2.6,0,0,0,.2,0,.2,0,0-.1.4-.2.7,0,.3-.2.7-.3.9-.2.5-.2.5-.2.6,0,0-.2.3-.4.6-.5.7-.5.7-.5.7,0,0,.1.2.3.3l.2.3h.2c.8.2,1.5.3,1.9.4h.4c0,0,.2-.1.2-.1,0-.1.3-.3.4-.5.2-.2,1.7-2.2,1.9-2.4h0c0,0-.1-.9-.1-.9,0-.5-.2-1.3-.3-1.9s-.2-1-.2-1c0,0,0,0-.6.2h0Z"/>
    <path class="st1" d="M40.4,10.7c-.8,0-1.4.6-1.7,1.5-.1.3-.1.6-.1.9,0,.4,0,.7.1,1,.1.4.3.7.6,1,.6.6,1.7.7,2.3,0,0,0,.2-.2.2-.2,0,0,0-.1.2.3v.3h.5v-2.4h-.9s-.9,0-.9,0h0c0,.1,0,.3,0,.4v.3h1,0c0,.7-.4,1-.9,1.1-.8.1-1.4-.7-1.3-2,0-.2,0-.4,0-.5.2-.6.5-1,1-1,.5,0,.9.3,1.1.8,0,0,0,0,0,0s.1,0,.3,0,.3,0,.4,0c0,0,0,0,0-.1,0,0,0-.2,0-.2-.3-.8-1-1.2-1.9-1.1h0Z"/>
    <path class="st1" d="M26.5,10.7h-.1s0,2.4,0,2.4v2.4s.5,0,.5,0h.4s0-2,0-2h1.7v-.4c0-.4,0-.4,0-.4,0,0-.4,0-.8,0h-.8s0-.6,0-.6v-.6h1.1s1.1,0,1.1,0v-.7h-1.4c-.8,0-1.4,0-1.5,0h0Z"/>
    <path class="st1" d="M30,12.4c0,.9,0,2,0,2.3v.7s0,0,.4,0h.4v-1.9h1.1v.3c.2.2.3.4.4.6s.2.5.3.7v.4h.6c.3,0,.5,0,.5,0s0-.2-.2-.4c-.2-.5-.6-1.6-.6-1.6s0,0,.1-.1c.4-.2.7-.7.7-1.2,0-.7-.4-1.2-1-1.3-.2,0-.3,0-1.4,0h-1.2s0,1.7,0,1.7h0ZM32.4,11.5c.2,0,.3.3.4.5,0,.2,0,.3,0,.5,0,.1-.2.2-.3.3-.1,0-.2,0-.8,0h-.7s0-1.4,0-1.4h.7c.7,0,.7,0,.8,0Z"/>
    <path class="st1" d="M35.6,10.8s0,.3-.2.5c-.7,2-1.2,3.7-1.3,3.9v.3c0,0,.3,0,.3,0h.4s.2-.6.2-.6l.2-.5h1.8v.2c0,.1.2.3.2.5s.1.3.1.4h0c0,0,.5.1.5.1.5,0,.5,0,.4-.1,0,0-.3-.9-.4-1,0,0-.1-.3-.2-.6-.3-1-.4-1.2-.7-2.1-.2-.5-.3-.9-.3-.9,0,0-1,0-1.1,0h0ZM36.3,12.2c.3,1,.5,1.4.5,1.4s-.3,0-.7,0c-.5,0-.7,0-.7,0,0,0,.1-.4.2-.8.1-.4.3-.8.3-1,0-.1,0-.2,0-.2s.1.3.2.6h0Z"/>
    <path class="st1" d="M53.3,12.2c-.2.5-.5,1.1-.9,1.8-.5.9-.6,1.2-.6,1.2,0,0,.2.2.5.4.6.4,1.1.7,1.5,1,.2.1.3.2.4.2s0,0,0,0c0,0,0-.2,0-.5,0-.2-.1-.6-.2-.8,0-.4-.2-.9-.4-2,0-.2,0-.5-.1-.6-.1-.6-.1-.8-.2-.8s0,0,0,.1h0Z"/>
    <path class="st1" d="M63.3,15.7c-.1.1-.3.4-.5.6-1.9,2.1-2,2.2-2,2.2,0,0,4.1-1.4,4.1-1.4,0,0-.1-.3-.3-.6l-.3-.6-.4-.2c-.2-.1-.4-.2-.4-.2,0,0,0,0-.2.2h0Z"/>
    <path class="st1" d="M49.9,17c0,0,0,.2-.1.3,0,0,0,.2-.1.3v.2c0,0-.5.2-.5.2-.2.1-.4.2-.4.2s.2.1.4.3c.2.1.5.4.7.5.2.1.3.2.3.2,0,0,.3-.2.6-.3l.6-.3-.5-.3c-.3-.2-.6-.4-.7-.4-.2-.1-.2-.1-.2-.2,0-.1,0-.7,0-.7,0,0,0,0,0,.1h0Z"/>
    <path class="st1" d="M35.8,17.1c0,0,0,0,0,0,0,.1,1.2,2.2,1.3,2.2s0,0,0-.1c0-.2-.3-.7-.6-1.4l-.3-.7h0s-.1,0-.2,0Z"/>
    <path class="st1" d="M54.9,17.2c0,.1-.3.6-.3.6s0,0,.1,0c0,0,.3,0,.4,0h.3s-.1-.3-.1-.3c0-.1-.1-.3-.1-.3s0,0,0,0-.1,0-.1,0c0,0,0,0,0,0h0Z"/>
    <path class="st1" d="M57.3,17.9c-.2.3-.3.5-.3.5,0,0,.4.6.4.6s1-1.5,1-1.5c0,0-.7-.1-.8-.1s0,0-.3.5h0Z"/>
    <path class="st1" d="M31.8,17.9l-.2.2.4.3c.2.2.4.3.4.3,0,0,.4-.2.4-.3s-.6-.7-.6-.8c0,0,0,0-.3.2h0Z"/>
    <path class="st1" d="M63.4,18.6c-.2.2-.5.5-.6.6l-.2.2h-.4c-.4-.2-.9-.2-1.4-.3h-.3c0,0-.3.3-.3.3-.2.3-.3.4-.3.4,0,0,.3,0,.7.1.4,0,.8.2,1,.2.2,0,.4,0,.5,0,0,0,.1,0,.2,0,0,0,.1-.1.3-.4,1.3-1.6,1.4-1.7,1.4-1.7,0,0-.1,0-.6.4h0Z"/>
    <path class="st1" d="M59.2,18.8c-.1.2-.2.4-.2.4,0,0,.2.2.3.2s.5-.8.5-.8-.2-.2-.2-.2-.1.2-.2.4h0Z"/>
    <path class="st1" d="M59.7,19.1c-.3.4-.3.4-.3.5,0,0,0,0,.3-.3.2-.2.3-.3.3-.3,0,0-.1-.1-.1-.1,0,0-.1.1-.2.3Z"/>
    <path class="st1" d="M30.8,19.2c0,0,.1.2.2.4s.2.3.2.3c0,0,0,0,.2-.2v-.2c.1,0,0,0,0,0,0,0-.2-.1-.3-.1,0,0-.2,0-.2-.1h-.1c0,0,0,0,0,0h0Z"/>
    <path class="st1" d="M28.1,20.8l-.2.2.4.3c.2.2.4.3.4.3,0,0,.1,0,.2-.2l.2-.2-.2-.2c-.1,0-.3-.2-.4-.3,0,0-.2-.1-.2-.1s-.1.1-.2.3h0Z"/>
    <path class="st1" d="M49.9,20.7s0,.6,0,.7c0,0,0,.2,0,.3v.2s.5-.5.5-.5c.3-.2.5-.5.6-.5,0,0,0,0-.6-.2-.3,0-.6-.1-.6-.1,0,0,0,0,0,0h0Z"/>
    <path class="st1" d="M62.4,21.1c0,.2.1,1.3.1,1.6,0,.1,0,.3,0,.3,0,0,.8-.5.8-.5,0,0-.2-1.2-.2-1.4,0,0,0,0-.1,0,0,0-.2,0-.3,0-.3,0-.3,0-.3.1Z"/>
    <path class="st1" d="M27.5,21.3s.7.8.7.8.2-.2.2-.2c0,0-.9-.6-.9-.6s0,0,0,0h0Z"/>
    <path class="st1" d="M27.1,21.9c0,0-.1.4-.2.7-.2.8-.3.9-.3,1,0,0-.4-.1-.9-.3-.5-.1-.8-.3-.8-.3,0,0,.3.1.6.3.3.2.8.4,1.1.6.6.3.7.4.8.4s0-.1,0-.2c0-.1.1-.5.2-.8,0-.3.2-.6.2-.7v-.2s-.3-.4-.3-.4l-.4-.4v.2Z"/>
    <path class="st1" d="M60.5,22.5l-.2.2v.3s0,.3,0,.3h.1c0,.1.1.3.1.3l.3-.2c.2-.1.3-.2.3-.2,0,0-.5-.7-.6-.7,0,0-.1,0-.2.2Z"/>
    <path class="st1" d="M26,25c0,0,.2.3.4.4.4.4.6.6.6.6,0,0,.1-.5.1-.5s-.3-.2-.6-.3l-.6-.3.2.2h0Z"/>
    <path class="st1" d="M25.8,26.4s.4.3.6.4c0,0,0,0,.2,0h0s-.3-.2-.3-.2c-.1,0-.3-.1-.4-.2,0,0-.1,0-.1,0h0Z"/>
    <path class="st1" d="M25.6,28c0,.1,0,.4,0,.5,0,.8-.1,1.6-.1,1.7h0c0,.1.1.2.1.2,0,0,.1,0,.1,0,0,0,0-.3,0-1,0-.5,0-1.1,0-1.3v-.3s0,0,0,0c0,0,0,0,0,0s0,.1,0,.3h0Z"/>
    <path class="st1" d="M26.5,28s-.2,1.2-.3,2c0,.3-.1.8-.2,1s0,.6-.1.7c0,.2,0,.4-.1.6,0,.2,0,.3,0,.3-.3.2-.6.4-.6.4,0,0,.3,0,.7,0,.5,0,.6,0,.7,0,0,0,0-.1,0-.2,0,0,.1-.5.2-.9,0-.4.2-1,.3-1.3s.2-.7.2-.8c.2-1,.3-1.5.3-1.5-.3-.1-.9-.3-.9-.3h0Z"/>
    <path class="st1" d="M27.7,34.3s0,.1,0,.3c0,.1,0,.2,0,.2,0,0,.1,0,.3,0,.2,0,.4,0,.5-.1h.2s-.3-.1-.3-.1c-.2,0-.4,0-.6-.1-.3,0-.3,0-.3,0Z"/>
  </g>
</svg>