<?xml version="1.0" encoding="UTF-8"?>
<svg id="Layer_1" xmlns="http://www.w3.org/2000/svg" version="1.1" viewBox="0 0 89.5 55">
  <!-- Generator: Adobe Illustrator 30.0.0, SVG Export Plug-In . SVG Version: 2.1.1 Build 123)  -->
  <defs>
    <style>
      .st0 {
        fill: none;
        stroke: #fff;
        stroke-linecap: round;
        stroke-width: 3px;
      }

      .st1 {
        fill: #fff;
      }
    </style>
  </defs>
  <path class="st0" d="M1.6,13.4V5.4C1.6,2.7,2.9,1.4,5.6,1.4h8"/>
  <path class="st0" d="M76.1,1.4h8c2.7,0,4,1.3,4,4v8"/>
  <path class="st0" d="M1.5,41.5v8c0,2.7,1.3,4,4,4h8"/>
  <path class="st0" d="M76,53.5h8c2.7,0,4-1.3,4-4v-8"/>
  <g>
    <path class="st1" d="M22.2,27.1v20.4h45v-13.2c0-7.3,0-16.4,0-20.4v-7.2c0,0-22.5,0-22.5,0h-22.6v20.4ZM51.9,9.9c.2.5.5,1.1.6,1.4.7,1.9.8,4.5.2,6.6-.2.9-.9,2.9-1,3.1,0,.1,0,.1,0,0,0,0,0-.4,0-.8.2-2.2,0-3.5-.6-5.2-.2-.6-.9-1.9-1.1-2.2-.1-.1,0,0,.1.4.4.7.6,1.6.8,2.9.1,1.2,0,2.2-.4,3.7-.6,2.3-.8,3.1-.8,3.6s0,.4,0,.4c0,0,0-.2,0-.5,0-3.4,0-4-.4-5.3-.2-.7-.7-1.8-1.1-2.4-.5-.7-1.4-1.5-2.1-2-.8-.5-1.1-.7-.5-.2,1.1.9,1.8,2,2.1,3.2.2,1.1-.1,2.1-1.5,4.2-.4.6-.8,1.3-1,1.9-.3.9-.4,1-.3,1.5.1,1.2,1.3,2.9,2.5,3.7.4.2.9.5,1.2.6.3,0,.6.2.7.2.3.1-1.4.2-1.8,0-.7-.2-1.8-.5-2.7-1-.5-.2-.9-.4-.9-.4,0,0,.8,1.1,1.2,1.5.3.2.8.6,1.2.8s.7.4.7.4c0,0-1.2,1-1.8,1.4-1.2.7-2.9,1.4-4,1.6-.3,0-1.2.1-2,.2-.9,0-2,.1-2.4.2h-.9c0,.1.5.2.5.2.3,0,1.2.1,2,.3s1.6.2,1.7.2c.3.1-2,1.4-3.4,2-1.6.7-4.3,1.2-6.9,1.5-1.6.1-2.5.3-2.2.3.8,0,5,.4,5,.4,0,0-1.1.6-2.6,1.2-.9.4-2.3.9-4.5,1.7l-.5.2V9h26.9l.4.8ZM64.8,10c0,1-.2,1.4-1,3.5-.6,1.4-2.7,5.2-2.7,5,0,0,.1-.4.3-.8.4-.8.7-1.8.7-2.4,0-.2,0-.4,0-.4,0,0-.2.5-.5,1.1-.4,1-.9,2.1-2.3,4.8-1.3,2.5-1.7,4.9-1.3,6.9.2,1.1.3,3.4,0,4.4,0,.3-.1.7-.1.7,0,.2,1.2-1.2,1.4-1.7.4-.8.4-1.1.4-2.7,0-2.7.4-3.6,2.5-6,1-1.1,2.5-3,2.5-3.2s0,0,0,0,0,.7,0,1.8c0,1,0,6.9,0,13v11.2h-14.2c-7.8,0-14.2,0-14.2,0,0,0,4.2-3.8,5.2-4.5,1.1-.9,2.8-2.1,4.2-2.9,1.1-.7,2.4-1.3,2.5-1.2,0,0-.2.4-.5.9-.5.7-.8,1.1-1.9,2.1-.7.7-1.8,1.7-2.4,2.4-1.1,1.1-1.3,1.4-.7,1,.2-.1,1.1-.7,2.1-1.2,1-.5,2.1-1.2,2.6-1.5,1.6-1.2,2.1-1.5,2.1-1.5s-.8,1.7-1.5,2.8c-.3.5-.5.9-.5.9,0,.1,1.2-1,2.3-2.1,1.6-1.7,2.4-2.6,3.1-3.5.5-.7,1.7-2.5,1.6-2.5s-.2.1-.5.3c-.8.6-3.4,2-3.7,2s0-.1.2-.2c1.9-1.5,3.1-2.9,3.7-4.2.4-.9.3-1-.9-1.4-1.2-.4-2.1-1.2-2.2-2.2,0-.6,0-1.6.4-2.6.1-.4.3-.8.3-.9.1-.4.2,0,.2.9,0,1.3.2,1.7.9,2.2.5.3.7.5,2.2,1,.4.1.8.4,1,.5.3.2.4.2.4,0s-.2-.6-.9-1.4c-.6-.7-.8-1.4-.9-2.2,0-.9.2-2.1.8-3l.2-.4v1.3c-.1,1.2-.1,1.3.1,1.7.1.3.4.7.6.9l.3.4v-.3c0-.1.1-.6.2-1,.2-2,.6-3.7,1.6-6.2,1.2-3.1,1.7-4.7,2-6.7.2-1,.4-2.7.3-2.9v-.6h4v.9ZM57.2,9.5c0,.7,0,2.6-.3,4.4-.2,1.3-.4,2.3-.9,4-.3,1.1-.5,1.5-.4.8.2-1.3.1-3.8-.2-5.5-.2-.9-.5-2.2-.8-3.2-.1-.4-.2-.8-.2-.8s.6,0,1.3,0h1.3v.4ZM51.2,31.8c0,.2-1.8,1.5-3.1,2.3-.7.4-.9.4-.3,0,.2-.1.8-.6,1.3-1,.9-.7,2-1.4,2.1-1.4s0,0,0,0ZM44.4,35.1c0,0-2.3,1.2-3.1,1.4s-3.7.9-3.7.8,0,0,.2,0,.7-.3,1.4-.5c1.7-.7,2.3-.9,3.7-1.3,1.3-.4,1.5-.4,1.5-.3ZM38.5,39.5c-.7.5-2.1,1.6-3.3,2.4s-2.6,1.9-3.3,2.4l-1.2.9h-6.3v-.3c0-.3,0-.3,1-.9,2-1.2,5.6-2.8,8-3.7,1.8-.7,5.3-1.6,6-1.6.1,0-.1.3-1,.9Z"/>
    <path class="st1" d="M27.1,11.1c-.8.4-1.2,1.3-1,2.2,0,.4.2.6.6,1,.8.8,2,.9,2.8.2,1.1-1,.9-2.7-.4-3.4-.6-.3-1.3-.3-1.9,0Z"/>
    <path class="st1" d="M39.7,11c-.7.3-.9.9-.8,2.2,0,1.4.4,1.8,1.4,1.9.4,0,.6,0,.8-.1s.5-.6.6-1c0-.3,0-.3-.3-.3s-.3,0-.4.3c0,.5-.3.7-.8.7-.6,0-.8-.3-.8-1.4,0-.5,0-1,0-1.2,0-.4.4-.7.8-.7s.6.2.7.6c0,.2.1.3.4.3h.3s0-.3,0-.3c0-.4-.3-.7-.6-.8-.3-.1-.9-.1-1.2,0Z"/>
    <path class="st1" d="M31.8,12.9v2h.6v-1.7h.5c.8,0,.8,0,.9.9,0,.4,0,.7.1.8,0,0,.2,0,.4,0q.3,0,.2-.3c0-.2,0-.5,0-.7,0-.5-.2-.9-.5-.9s0-.1.2-.3c.3-.3.3-.3.3-.7s0-.5-.3-.7l-.3-.3h-1.1s-1.1,0-1.1,0v2ZM33.8,11.6c0,0,.1.3.1.5,0,.5-.2.6-.9.7h-.6s0-.7,0-.7v-.7h.6c.5,0,.6.1.7.2Z"/>
    <path class="st1" d="M35.5,12.9v2h2.4v-.4h-1.8v-1.4h1.6v-.5h-1.6v-1.2h1.8v-.4h-2.4v2Z"/>
    <path class="st1" d="M29.8,31.1c0,.8-.3,1.2-1.1,1.4-.4,0-.4.1-.2.1.1,0,.4,0,.6.1.4.1.6.4.6,1.2,0,.3,0,.5,0,.5,0,0,0-.3.2-.6.2-1,.4-1.1,1.2-1.3h.3c0,0-.4-.1-.4-.1-.8-.2-.9-.3-1.1-1.2-.1-.6-.3-.7-.3-.2Z"/>
    <path class="st1" d="M62.7,28.3c0,.5-.2.9-.4,1.1s-.4.1-.7.1h-.4s.4,0,.4,0c.2,0,.5,0,.6.1.3,0,.4.5.4,1.2s0,.7.2-.2c0-.9.2-1,.9-1,.3,0,.6,0,.6-.1s-.2,0-.5-.1c-.7,0-.8-.2-.9-.9,0-.5,0-.5,0-.2Z"/>
    <path class="st1" d="M52.3,40.1c0,.7-.3,1-.8,1.1h-.4c0,0,.4.2.4.2.2,0,.4.2.5.2.2.2.3.7.3,1.1s0,.3,0,.4c0,0,0,0,0-.2,0-.4.2-1.1.5-1.3.1,0,.4-.2.5-.2h.3c0,0-.4-.1-.4-.1-.5,0-.6-.2-.9-1-.1-.3-.2-.6-.2-.6,0,0,0,.2,0,.5Z"/>
  </g>
</svg>