<?xml version="1.0" encoding="UTF-8"?>
<svg id="Layer_1" xmlns="http://www.w3.org/2000/svg" version="1.1" viewBox="0 0 89.5 55">
  <!-- Generator: Adobe Illustrator 30.0.0, SVG Export Plug-In . SVG Version: 2.1.1 Build 123)  -->
  <defs>
    <style>
      .st0 {
        fill: none;
        stroke: #fff;
        stroke-linecap: round;
        stroke-width: 3px;
      }

      .st1 {
        fill: #fff;
      }
    </style>
  </defs>
  <path class="st0" d="M1.6,13.4v-8C1.6,2.7,2.9,1.4,5.6,1.4h8"/>
  <path class="st0" d="M76.1,1.4h8c2.7,0,4,1.3,4,4v8"/>
  <path class="st0" d="M1.5,41.5v8c0,2.7,1.3,4,4,4h8"/>
  <path class="st0" d="M76,53.5h8c2.7,0,4-1.3,4-4v-8"/>
  <g>
    <path class="st1" d="M22.5,27.5v20.4h45.2V7.1H22.5v20.4ZM27.4,11.2s0,0,0,.1c0,0,0,.2.1.4,0,.2.1.3.1.4,0,0,0,0,0,.1,0,0,0,.3.1.4,0,0,0,.2.1.3,0,.1.1.4.2.6,0,.2.1.5.2.6,0,.2.1.4.1.4,0,0,0,.1,0,.2,0,0,0,0,0,0,0,0,0,0,0,0,0,0,0-.4.4-1.2,0-.3.2-.5.2-.6s0-.1,0-.2c0,0,0-.2,0-.2,0,0,0-.1,0-.1,0,0,0-.2.1-.3,0-.2,0-.3.1-.3s0,0,0,0,0,0,0,0,0,0,0-.1,0,0,0,0c0,0,0,0,0-.1s0,0,0-.1c0,0,0,0,0,0,0,0,0,0,.4,0s.4,0,.4,0c0,0-.6,1.8-1.1,3.3-.2.7-.4,1.3-.4,1.3h0c0,.1-.9.1-.9.1l-.3-1c-.2-.5-.3-1-.4-1.1,0,0,0-.2,0-.3s-.1-.4-.2-.7-.3-.8-.3-1.1c0-.3-.2-.5-.2-.5,0,0,0,0,.5,0s.5,0,.5,0h0ZM34.1,11.5v.4h-.9c-.5,0-1,0-1.1,0h-.2v.6s0,.6,0,.6h.9s.9,0,.9,0v.3s0,.4,0,.4h-.9s-.9,0-.9,0v.7s0,.7,0,.7h2.3v.8h-3.2v-4.7h3.1v.4h0ZM37.6,11.2s0,0,.1,0c.1,0,.4.2.5.3,0,0,.3.3.3.4,0,0,0,0,0,.2,0,.1,0,.2,0,.4,0,.4,0,.6-.3.9,0,.1-.3.3-.5.4,0,0-.1,0,0,0,0,0,0,0,0,.1s0,.2.1.3c0,.1,0,.3.1.3,0,.2.4.9.4,1,0,0,0,.1,0,.1s0,0,0,0c0,0,0,0-.4,0s-.5,0-.5,0,0-.2-.1-.3c0-.2-.1-.4-.2-.5,0,0,0-.2,0-.2,0,0-.2-.6-.3-.8h0c0,0-.6,0-.6,0h-.6s0,1.9,0,1.9h-.9v-4.7h1.3c.9,0,1.3,0,1.4,0h0ZM42.6,11.5v.4h-1.3v4h-.9v-2s0-2,0-2h-1.3v-.7h3.5v.4ZM65.3,17.3v.2H24.9v-.5h40.4v.2ZM31.8,19.3s.1.1.3.3.4.3.5.5c.1.1.3.3.4.4,0,0,.3.3.4.4.1.1.3.3.4.4,0,0,.2.2.4.4s.3.3.5.5c.1.1.3.2.3.2s0,0,0,0-.8,0-2.4,0h-2.7c-.1-.2-.3-.4-.5-.5-.1,0-.4-.2-.5-.3s-.3-.2-.3-.2,0,0-.1,0c0,0,0,0,0,0s-.2-.1-.4-.2-.6-.4-.9-.6c-.3-.2-.6-.4-.7-.4,0,0-.4-.3-.5-.4-.3-.2-.4-.2-.4-.3,0,0,6.4,0,6.4,0h0ZM54.5,19.3s0,0,0,0c0,0,0,0-.1.2s-.1.2-.1.2c0,0,0,0,0,0s0,.1-.1.2c0,.1-.2.2-.2.3,0,0,0,0,0,0,0,0-.2.3-.5.7,0,0-.1.2-.1.2,0,0-.3.4-.3.4,0,0,0,.1-.1.2-.1.2-.1.2-.2.3,0,0-.2.2-.2.4,0,.1-.2.3-.2.3h0c0,0-13.2,0-13.2,0h0c0-.1-.1-.3-.2-.4-.4-.6-.6-.9-.7-1,0-.1-.1-.2-.1-.2,0,0,0,0,0,0,0,0,0,0-.1-.2,0,0-.1-.2-.1-.2,0,0-.2-.3-.3-.4,0,0-.5-.7-.6-.8,0,0,0,0,0-.1,0,0,0-.1,0-.1,0,0,0,0,0,0s4.1,0,9.1,0,9.1,0,9.1,0h0ZM65.3,20.1c0,.2,0,.2,0,.3-.3.2-.5.3-.6.3,0,0-.2.1-.3.2-.6.4-1.1.7-1.3.8h-.2c0,.1-3.2.1-3.2.1-1.8,0-3.2,0-3.2,0s.4-.5,1-1l1-1h6.9v.2ZM27.5,25.3c.9.9,2,2,3.4,3.5l.3.3v2.3s0,2.3,0,2.3h-.3c-.1.1-.3.2-.3.2,0,0-.1,0-.1.2h0c0,0,.4,0,.4,0h.4v.8c0,.5,0,.8,0,.8.2,0,.2,0,.3,0,0,0,0-.4,0-.8v-.8h4.8c4.3,0,4.8,0,4.9,0,0,0,0,0,0,0,0,0,.2,0,1.1,0s1.2,0,1.2,0c.2,0,1.2-.1,1.4-.1s1.2,0,1.5.1c.1,0,2.6,0,6.6,0h6.4v1.7h.3v-1.7h1.9c1.2,0,1.9,0,1.9,0,0,0,0,0,0,0,0,0-.1,0-1.3,0h-1.3s-.5-.1-.5-.1c-.3,0-.5-.1-.5-.1,0,0,0-1,0-2.2v-2.2s.4,0,.4,0c.2,0,.6,0,.9,0,1.5,0,2.3,0,2.9.1.4,0,.8,0,.9,0h.2v.2h-.9s-.9,0-.9,0h0c0,0,0,.1,0,.1h.9s.9,0,.9,0v.4h-.4c-.3,0-.4,0-.4,0,0,0,0,2.1,0,2.2,0,0,0,0,.4,0h.4v1h-.2v.2h-.1c0,0-.2,0-.4,0-.2,0-.3,0-.3,0s0-.1-.2-.3c0-.1-.2-.3-.2-.3-.1-.2-.6-.4-.7-.4,0,0-.1.1,0,.2,0,0,0,0,0,.1,0,.2.4.8.5,1,0,0,.2.3.3.4.1.2.3.4.4.4.2.2.4.4.6.5.3.1.3,0,.3.7s0,.5,0,.5c0,0-.2,0-.3,0h-.3s-.1,0-.1,0c-.1,0-.5-.2-1.1-.4-.7-.2-.7-.2-1.3-.2s-1,0-1.2.1h-.1v.3h.1c0,0,.2.1.4.2.1,0,.4.2.6.2l.4.2h.4c.2,0,.7,0,1.2,0,.8,0,.8,0,.8,0,0,0,0,0,0-.1h0c0,0,.2,0,.2,0,0,0,.2,0,.2,0h0s0,.1,0,.1c0,.2,0,.3,0,.3h0v8.6h-20.2c-19.2,0-20.2,0-20.2,0,0-1.1,0-4.9,0-4.9,0,0,.2-.2.2-.2s0,0,0-.2h0c0-.1.4-.2.4-.2.3,0,.5,0,.6-.1.1,0,.2,0,.2,0s0,0,0,0c0,0,0,0,.1,0,.3,0,.7-.1.9,0,0,0,.2,0,.4,0,.4,0,.7-.1.7-.2s0-.4.2-.8c0,0,0-.2,0-.3,0-.2,0-.3-.1-.3,0,0,0,0,0,0,0,0,0,0,0,0s0,0-.1,0c0,0,0,0-.1,0s-.1,0-.2,0c0,0-.1,0-.2,0-.1,0-.2,0-.2,0,0,0,0,0,0,0,0,0,0,0,0,0,0,0,0,0-.2,0s-.3,0-.5,0h-.4s-.1,0-.1,0c0,0-.2,0-.2,0s-.1,0-.2,0c0,0-.2,0-.3-.1-.3-.1-.3,0,0,0,0,0,.1,0,.1,0-.1,0-.5,0-.6,0,0,0,0,0,0,.1s0,0,0,0c0,0,0-.2,0-2.1v-2.1h.7c.4,0,.7,0,.7,0,0,0,0,.2-.1.2-.1,0-.1.1,0,.2,0,0,.2.2.4.2.2,0,.5.1.7.3,0,0,.1,0,.3.1.2,0,.3.1.4.1.2,0,.2,0,.2.5v.4s0,0,0,0c0,0-.2,0-.3,0-.4,0-.4.1-.4.2,0,0,0,0-.2.2-.2.1-.2.1-.3.2,0,0,0,0,0,0s-.1,0-.2,0c-.1,0-.1,0,0,.1,0,.1,0,.2.2.2.1,0,.2,0,.2-.2,0-.2,0-.3.2-.4,0,0,.1,0,.1,0,0,0,0,0,0,0,0,0,0,0,0,0,0,0,.1,0,.1-.2,0,0,0-.1,0-.1,0,0,.2,0,.3-.1h.2c0,0,0,0,0,0,0,0,0,0,.1,0,.2,0,.2,0,.2,0,0,0,0,0,.2,0,.1,0,.4.2.6.2,0,0,.1.1.2.3,0,.2,0,.3.2.3s.1,0,.2,0c0-.1,0-.2-.1-.3,0,0-.1,0-.1-.1,0-.1,0-.1-.5-.3-.1,0-.2,0-.2-.1,0,0,.6,0,.8,0,0,0,.1,0,.2.3,0,0,0,.1.1.1.2,0,.3,0,.3-.2,0,0,0,0-.1-.1s-.1,0-.2-.1c0,0,0,0-.1-.1,0,0-.3,0-.6,0-.3,0-.6,0-.6,0,0,0,0,0,0-.1,0,0,0-.3,0-.4v-.3s0,0,0,0c0,0,.1,0,.2,0,.4,0,.5-.1.9-.3.5-.3.5-.3.6-.6,0-.2.2-.9.3-1.2,0-.4,0-.4-.5-.4-.3,0-.4,0-.7,0-.2,0-.5,0-.7,0-.4,0-.5,0-.6.2,0,.1-.2.4-.3.7,0,.1,0,.2,0,.2,0,0,0,0-.2,0-.7-.2-.7-.2-.8-.1,0,0-.1.1-.2.2h0c0,0-1.4,0-1.4,0h0c0-.1.2-.1.2-.1,0,0,.2,0,.2,0s0-.4,0-1.3v-1.3s-.2,0-.2,0h-.2s0-3.1,0-3.1v-3.1s.4,0,.4,0c.2,0,.7,0,1.1,0s.7,0,.7,0c0,0,.2.2.5.5h0ZM39.3,24.9c0,0,0,.3.2.5.2.7.4,1.1.4,1.1,0,0,.5,1.4.5,1.6,0,.1,0,.3.2.5,0,.1,0,.3,0,.3s-2,0-4.5,0h-4.5l-.2-.2c0,0-.3-.3-.5-.6-.2-.2-.6-.6-.8-.9-.2-.3-.6-.6-.8-.8-.2-.2-.4-.4-.4-.5-.1-.1-.8-.9-1-1,0,0-.1-.1-.1-.1s2,0,5.8,0h5.8q0,.1,0,.1ZM45.3,26.6v1.8s-1.8,0-1.8,0h-1.8s0,0,0,0c0,0,0,0,0,0,0,0,.7,0,1.5,0,.8,0,1.4,0,1.4,0s-.2,0-.5.1c-.3,0-.6.1-.8.2-.4,0-.5.1-1.5,0h-1s-.3-.8-.3-.8c-.1-.4-.3-.9-.3-1.1s-.1-.5-.2-.7c0-.2-.2-.6-.2-.7s-.1-.4-.2-.5,0-.2,0-.2,1.3,0,2.8,0h2.8s0,1.8,0,1.8h0ZM51.4,24.8s0,.3,0,.3c0,0,0,.1,0,.2,0,.2-.3,1-.3,1,0,0-.5,1.5-.6,1.8,0,0,0,.2,0,.2h0c0,.1-.6.1-.6.1-.3,0-.6,0-.6,0s0,0,0,0,0,0,0,0h0c0,0-1.8,0-1.8,0h-1.8s0-1.7,0-1.7c0-1,0-1.7,0-1.8,0,0,5.9,0,5.9,0h0ZM63.5,24.8s-.2.2-.4.4c-.2.2-.5.5-.8.8-.2.2-.6.6-.8.9-.2.2-.6.6-.8.9s-.6.6-.8.8l-.3.4h-1c-.6,0-1.2,0-1.5,0-.7,0-2,0-2.7-.1-.3,0-.8,0-1.1,0-.3,0-.8,0-1.1,0-1,0-1.5,0-1.5,0,0,0,0-.3.3-.9,0-.2.2-.5.2-.6,0-.3.3-1,.5-1.4,0-.2.2-.4.2-.5,0,0,0-.2,0-.2,0,0,11.6,0,11.6,0h0ZM65.3,24.9s0,.4,0,2.2v2.2h-.1c0,0-.3,0-.5,0s-.9,0-1.5,0-1.4,0-1.6,0c-.3,0-.7,0-1,0-.4,0-.5,0-.5,0s.7-.7,1.5-1.5c.2-.2.8-.8,1.5-1.5l1.2-1.2h.6c.3,0,.6,0,.6,0h0ZM47.1,28.5c.5,0,1.3,0,1.8,0,.8,0,1.3,0,1.3,0,0,0,0,0,0,0h0c0,0-4.6,0-4.6,0v-.2c0-.1,0-.2,0-.2,0,0,.4,0,1.6,0ZM45.2,28.6s0,0-.1.2h-.1c0,.1-.3.1-.3.1-.2,0-.3,0-.3,0s0,0,.1,0,.2,0,.4-.1c.4-.1.4-.1.4,0h0ZM45.3,28.7h0c0,.1,0,.1,0,.1,0,0,0,0,0,0,0,0,.2-.2.2-.2s0,0,0,.1ZM52,28.7c.6,0,1.5,0,1.9,0s.8,0,.8,0c0,0-.9,0-2.1,0-2,0-2.1,0-2.1,0,0-.1,0-.2.2-.1,0,0,.6,0,1.3,0h0ZM44.2,28.8s-.3.1-.4.1c-.1,0,0,0,.1,0,.3,0,.3,0,.3,0h0ZM40.7,29.2v.2s-.1,0-.1,0c-.1,0-.9.2-1.3.3-.2,0-.4,0-.4.1,0,0-.3,0-.6.1-.2,0-.6.1-.7.2-.2,0-.4,0-.5.1-.3,0-.3,0-.3.1,0,0,0,0,0,0,0,0,.7-.2,1-.2.2,0,.4,0,.5-.1s.3,0,.5-.1.4,0,.5-.1c.1,0,.4,0,.6-.1.2,0,.4-.1.6-.1.1,0,.2,0,.3,0h0s0,.5,0,.5h-.2c0,0-.2.2-.4.2-.1,0-.2,0-.2,0,0,0-.7.3-.8.3,0,0-.1,0-.2,0s-.4.1-.7.3c-1,.4-1.4.5-1.4.5s0,0,0,0c0,0,0,0,.2,0,0,0,.3-.1.6-.2s.6-.2.9-.3.6-.2.8-.3.4-.1.4-.1c0,0,.2,0,.4-.2.2,0,.4-.2.5-.2,0,0,.1,0,.2,0,0,0,0,.2,0,1.7v1.7h-9.1v-2.2c0-1.2,0-2.2,0-2.2s2.1,0,4.5,0h4.5s0,.2,0,.2h0ZM42.4,29s0,0,0,0-.1,0-.2,0c0,0-.2,0-.4,0-.1,0-.3,0-.5.1-.1,0-.3,0-.3,0,0,0,0-.3,0-.3,0,0,.3,0,.7,0,.5,0,.7,0,.7,0h0ZM43.4,29s-.1,0-.3.1c-.1,0-.4.1-.5.2-.2,0-.3.1-.4.2s-.3,0-.4.2-.4.1-.5.2c-.1,0-.2,0-.2,0,0,0,0,0,0-.2v-.2s0,0,0,0c0,0,.2,0,.3,0,.1,0,.5-.1.7-.2.8-.2.9-.2,1-.2,0,0,.2,0,.2,0h0ZM44.8,29s-.2.3-.9,1.2c0,.1-.2.3-.3.5,0,.1-.3.4-.4.6-.1.2-.4.5-.5.7s-.3.4-.4.6c-.3.4-.6.8-.7.9h0c0,.1-.5.1-.5.1v-1.7c0-1.3,0-1.7,0-1.7,0,0,.2,0,.7-.2.1,0,.3,0,.3-.1.2,0,1.1-.4,1.5-.5h.3c0-.1.5-.1.5-.1.3,0,.5,0,.5,0h0ZM45.3,31.2v2.2s-1.8,0-1.8,0c-1.5,0-1.8,0-1.8,0,0,0,0-.1.2-.3,0-.1.2-.3.3-.4s.1-.2.1-.2c0,0,.5-.7.7-1,0-.1.2-.2.2-.2.2-.2.4-.5.4-.6,0-.1.7-1,1.1-1.5.2-.3.2-.3.5-.3h0s0,2.2,0,2.2h0ZM50.1,31.2v2.2s-4.6,0-4.6,0v-2.2c0-1.2,0-2.2,0-2.2s1,0,2.3,0h2.3v2.2s0,0,0,0ZM59.2,29h.3s0,2.2,0,2.2v2.2s-9.1,0-9.1,0v-2.2c0-1.2,0-2.2,0-2.2,0,0,8.4,0,8.7,0h0ZM65.3,31.1v1h-.8c0-.2,0-.7,0-1.1v-.9h.8v1h0ZM65.3,33.7c0,0,0,0-.2,0,0,0-.2,0-.3,0s-.2,0-.3,0c-.1,0-.1,0-.1,0,0,0,0,0,.2,0,.2,0,.5,0,.6,0,0,0,0,0,0,0h0ZM26.9,33.8c.1,0,.3,0,.3,0,0,0-.6,0-.6,0,0,0,0-.2,0-.2s.1,0,.3,0ZM27.5,34s0,0,0,.1h0c0,0-.1,0-.1,0,0,0-.3,0-.5,0-.4,0-.4,0-.3-.1h0c0,0,.5,0,.5,0,.3,0,.5,0,.5,0h0ZM65.3,34.2c0,.1,0,.2,0,.2,0,0-.5,0-.6,0,0,0-.1-.2-.2-.3h0c0,0,.8,0,.8,0v.2h0Z"/>
    <path class="st1" d="M35.8,11.8s0,.3,0,.7v.7h.6c.5,0,.7,0,.8,0,.4,0,.5-.3.6-.6,0-.2,0-.2,0-.3,0-.2-.2-.3-.3-.3h-.1c0,0-.7,0-.7,0-.4,0-.7,0-.7,0h0Z"/>
    <path class="st1" d="M27.2,30.4s0,.2,0,.8v.8s1.4,0,1.4,0c1,0,1.5,0,1.5,0,0,0,0-1.5,0-1.6s-.4,0-1.5,0-1.4,0-1.5,0h0ZM30,31.1v.7h-2.7v-1.4h2.7v.7Z"/>
    <path class="st1" d="M25.4,31.2s0,.3,0,1.3,0,1.3,0,1.3c0,0,.8,0,.9-.1,0,0,0-.2,0-1.2s0-1.2,0-1.2c0,0-.8,0-.9,0h0ZM26.2,31.5h0c0,.1-.3.1-.3.1h-.3s0-.1,0-.1c0,0,0-.1,0-.1,0,0,.2,0,.3,0h.3q0,.1,0,.1ZM26.2,31.9h0c0,.1-.1.1-.1.1,0,0-.2,0-.3,0h-.2c0-.2,0-.2,0-.2,0,0,.2,0,.3,0h.3q0,.1,0,.1ZM25.9,33s0,0,0,.1c0,0-.1,0,0-.1s0,0,0,0Z"/>
    <path class="st1" d="M60.7,31.9s0,.4,0,.8c0,.6,0,.7,0,.8,0,0,.1,0,.2,0,.3,0,.4,0,.4,0s0,0-.2,0-.2,0-.2,0c0,0,0,.1,0,.1,0,0,.3,0,.5,0,.5,0,.8,0,.9,0,0,0,0,0,0,0,0,0,0,0-.1,0-.2,0-.3,0-.3,0,0,0,0,0,.3,0,.2,0,.4,0,.5,0h.1s0-.8,0-.8v-.8s0,0,0,0c0,0-.6,0-1.2,0-.9,0-1.1,0-1.1,0h0ZM62,32.1h.4v.6c0,.3,0,.6,0,.6,0,0-.3,0-.7,0-.4,0-.7,0-.7,0,0,0,0,0,0-.5v-.5h.3c.2,0,.5,0,.7,0h0Z"/>
    <path class="st1" d="M44.6,34c-.7,0-1.2.1-1.3.2,0,0-.1,0-.2,0-.1,0-.5,0-1,0-.3,0-.7,0-.9,0-.4,0-1.3,0-2,0-.2,0-.3,0-.4,0-.2,0-.3.2-.4.3,0,.1-.1.4-.1.5s.1.7.2,1.2c0,.2,0,.2,0,.3,0,0-.1.1-.2.2,0,0-.1.1-.1.2,0,0,0,0,0,0,0,0,0,.1-.1.2-.1.2-.2.3-.2.4,0,.3.2.5.7.7.1,0,.3.1.3.2,0,0,0,.2.1.5s0,.5.1.5,0,.1,0,.2c0,.1,0,.2.1.2,0,0,0,0,.2.6,0,0,0,0,0,.1,0,0,.4,0,.5,0,.1,0,.2-.1.2-.4h0c0-.1,1.7-.1,1.7-.1,1,0,3.4,0,5.4,0h3.6s0,.1,0,.1c0,0,0,.2,0,.2,0,0,0,.1.1.2,0,0,0,0,.3,0s.2,0,.3,0c0,0,0,0,.2-.5,0-.1,0-.2,0-.2.1,0,.3-.1.3-.2,0,0,0,0,.1,0,0,0,0,.2.1.3,0,.2,0,.2,0,.2s0,0-.1,0c0,0,0,0,0,.2,0,0,0,.2,0,.3,0,0,0,.2,0,.2,0,0,0,0,0,0,0,0,.2,0,.3,0,.1,0,.2,0,.2,0s.2,0,.4,0c.2,0,.5,0,.5,0,.1,0,.3,0,.4,0,.2,0,.3,0,.1,0,0,0,0,0,0,0s0,0,0,0c0,0,0,0,0-.2,0,0,0-.1,0-.2,0-.2,0-.3,0-.3,0,0,0,0,0,0,0,0,0,0,0,0,0,0,0,0-.1,0s-.1,0-.1-.1c0,0,0-.1,0,0,0,0,0,0,0,0,0-.1,0-.2-.1-.2s0,0,0,0,0-.2-.1-.4c-.4-1.1-.4-1.1-.3-1.1,0,0,0-.2,0-.3s0-.3,0-.3c0,0,0,0-.1-.1-.1-.1,0-.1-.2-.3-.2-.3-.3-.4-.3-.4,0,0,0,0,0-.7,0-.5,0-.6,0-.9,0-.4-.1-.6-.3-.7,0,0-.1,0-2.1,0-2,0-2.2,0-2.3,0,0,0-.1,0-.1,0,0,0,0,0-.1,0,0,0-.1,0-.3,0-.2,0-.5,0-1,0-.6,0-1.3-.1-1.4-.1,0,0-.3,0-.5,0h0ZM52.5,40.7h0c0,.1-.2.2-.2.2,0,0-.2,0-.2,0,0,0,0-.2,0-.3,0-.1.1,0,.2,0h0Z"/>
    <path class="st1" d="M56.5,34.9c-.4,0-.5.2-.5.4s0,.1,0,.1.2,0,.5,0c.5,0,1.4.2,1.8.2.2,0,.3,0,.4,0,.2,0,.7-.2.7-.2,0,0,0-.2,0-.2,0,0-.2-.1-.5-.2-.5,0-1.4-.2-1.7-.2-.2,0-.3,0-.5,0h0Z"/>
    <path class="st1" d="M55.9,35.5s0,.1,0,.2c0,0,0,0,0,0,0,0,0,.5,0,.5,0,0,0,0,0,.1,0,0,0,.1.1.1,0,0,.1,0,.2,0,0,0,0,0,.1,0,0,0,0,0,.2,0,.7,0,1.3.2,1.4.2.1,0,.1,0,.1,0,0,0,0,0,0,.1s.1,0,.2,0c.2,0,.2,0,.2-.1s0,0,0,0c0,0,.1,0,.1,0,0,0,0,0,.2,0,.1,0,.2,0,.2,0,0,0,0,0,0-.1s0,0,0-.1c0,0,0-.1,0-.3,0-.1,0-.2,0-.2,0,0,0,0,0,0,0,0,0-.2,0-.2s-.2,0-.4,0c-.2,0-.4.1-.5.1,0,0-.9,0-1.9-.2-.5,0-.6,0-.6,0h0Z"/>
    <path class="st1" d="M33.4,35.5c-.1,0-.3.1-.4.2,0,0-.3.5-.4.7h0c0,.1,0,.3,0,.3,0,.1.2.3.4.3,0,0,.2,0,.4,0,.3,0,.3,0,.4,0,0,0,.3-.4.3-.5,0,0,0,0,0,0,0,0,0,0,0,0,0-.1,0-.2,0-.2,0,0,0-.1,0-.2,0,0,0-.1-.2-.2,0,0-.2-.2-.3-.2-.1,0-.4,0-.6,0Z"/>
    <path class="st1" d="M35.7,36.4c0,0-.2.1-.3.2,0,0-.2.1-.3.2,0,0-.2.1-.3.2s-.2.1-.3.2c0,0-.1,0-.1,0,0,0-.6.3-1.1.7-.3.2-.6.4-.7.4-.2.1-.2.1-.2.2h0c0,0,2.9,0,2.9,0,2.6,0,2.9,0,2.8,0-.6-.3-.7-.5-.7-.8,0-.2.1-.4.4-.7,0-.1.2-.3.3-.4.1-.1.1-.2.1-.2h0c0,0-2.3,0-2.3,0h-.1Z"/>
    <path class="st1" d="M52.7,36.4s0,0,0,.1c0,0,0,.1.1.2s0,.1.1.2c.2.2.4.6.5.7,0,.2,0,.4,0,.6h0c0,.1,0,.3,0,.3,0,.1,0,.2,0,.2s1.1,0,2.4,0h2.4,0c0,0,0-.1,0-.2-.1,0-.6-.4-.6-.4,0,0,0,0,0,0,0,0-.9-.5-1.5-.9,0,0-.3-.2-.4-.3-.2-.1-.3-.2-.4-.3,0,0-.2-.1-.2-.1h-.1c0,0-2.2,0-2.2,0h0q0,0,0,0Z"/>
    <path class="st1" d="M60.8,36.4s0,.1,0,.2,0,.3,0,.4c0,.3,0,.3,0,.4,0,0,0,.1,0,.2,0,0,0,.1.1.2,0,0,.3,0,.4,0,0,0,0,0,.1,0,0,0,.2.1.4.2.3.1.3.2.3.3s.1.2.2.2c0,0,.1,0,.2,0h.1s0-.1,0-.1h0c0-.1.6-.1.6-.1h.6s0,0,0,0c0,0,0,0,.1.1,0,0,.1,0,.2,0,0,0,.1,0,.1,0,0,0,0,0,0-.1,0,0,0-.2,0-.2,0,0,0,0,0-.3,0-.2,0-.3,0-.3,0,0,0,0,0-.1,0,0,0-.3,0-.3,0,0-.1,0-.4,0-.2,0-.7,0-1.1,0h-.8s-.3,0-.3,0c-.1,0-.4-.2-.6-.2-.2,0-.4-.2-.5-.2-.1,0-.2,0-.3,0,0,0,0,0,0,0h0Z"/>
  </g>
</svg>