<?xml version="1.0" encoding="UTF-8"?>
<svg id="Layer_1" xmlns="http://www.w3.org/2000/svg" version="1.1" viewBox="0 0 89.5 55">
  <!-- Generator: Adobe Illustrator 30.0.0, SVG Export Plug-In . SVG Version: 2.1.1 Build 123)  -->
  <defs>
    <style>
      .st0 {
        fill: none;
        stroke: #fff;
        stroke-linecap: round;
        stroke-width: 3px;
      }

      .st1 {
        fill: #fff;
      }
    </style>
  </defs>
  <path class="st0" d="M1.5,13.5V5.5C1.5,2.8,2.8,1.5,5.5,1.5h8"/>
  <path class="st0" d="M76,1.5h8c2.7,0,4,1.3,4,4v8"/>
  <path class="st0" d="M1.5,41.5v8c0,2.7,1.3,4,4,4h8"/>
  <path class="st0" d="M76,53.5h8c2.7,0,4-1.3,4-4v-8"/>
  <path class="st1" d="M25.9,22.7h5.7l10.1-8.6v26.9l-10.1-8.6h-5.7c-1,0-1.4-.5-1.4-1.4v-6.7c0-1,.5-1.4,1.4-1.4Z"/>
  <path class="st0" d="M46,22c1.9,1.7,2.9,3.5,2.9,5.5s-1,3.9-2.9,5.5"/>
  <path class="st0" d="M51.7,16.9c3.1,3.1,4.7,6.6,4.7,10.6s-1.6,7.4-4.7,10.6"/>
  <path class="st0" d="M57.5,11.9c4.3,4.5,6.5,9.7,6.5,15.6s-2.2,11-6.5,15.6"/>
</svg>