<?xml version="1.0" encoding="UTF-8"?>
<svg id="Capa_1" xmlns="http://www.w3.org/2000/svg" version="1.1" viewBox="0 0 577.6 800">
  <!-- Generator: Adobe Illustrator 30.3.0, SVG Export Plug-In . SVG Version: 2.1.3 Build 182)  -->
  <defs>
    <style>
      .st0 {
        fill: #fff;
      }
    </style>
  </defs>
  <path class="st0" d="M352.5,600.2c43.2,14.8,81.3,24.2,136,41-21,265.8-272.3,160.2-136-41ZM576.9,356c-2.8-79.8-16.9-184.5-128.8-168.1-52.5,13.7-91.3,71.3-109.5,170.8-10,54.7-4.2,131.4,7.6,177.4,10.8,32.4,7.1,30.4,18.7,36.6,44.9,10.1,89.3,21.3,134.5,32.7,46-32.5,83.7-204.8,77.5-249.4ZM231.4,349.9c11.8-46,17.6-122.8,7.6-177.4C220.8,73,182,15.4,129.5,1.7,17.6-14.7,3.5,90,.7,169.8c-6.3,44.6,31.5,217,77.5,249.4,45.2-11.4,89.7-22.6,134.6-32.7,11.6-6.2,7.9-4.2,18.7-36.6ZM89,454.9c21,265.8,272.3,160.2,136-41-43.2,14.8-81.3,24.2-136,41Z"/>
</svg>