<?xml version="1.0" encoding="UTF-8"?>
<svg id="Layer_1" xmlns="http://www.w3.org/2000/svg" version="1.1" viewBox="0 0 1906.7 1727.5">
  <!-- Generator: Adobe Illustrator 30.0.0, SVG Export Plug-In . SVG Version: 2.1.1 Build 123)  -->
  <defs>
    <style>
      .st0 {
        fill: #fff;
      }
    </style>
  </defs>
  <path class="st0" d="M.2,1c-.2.6-.2,389.2-.2,863.6l.3,862.5,952.7.2,952.7.2.3-14.7c.2-8.1.4-204.6.3-436.7v-422l-49.2-.3-49.3-.2v60.8c0,33.4-.4,61.2-.9,61.8-.5.5-2.5,6.1-4.6,12.4s-4.2,12-4.9,12.6c-1.8,1.8-84.1,21.4-89.8,21.4s-14.9-3.1-29.6-6.9c-14.7-3.9-38.4-9.9-52.7-13.6-14.3-3.6-26.3-6.9-26.6-7.3-.4-.4-2-4.8-3.6-9.7l-3-9-10.6-.5-10.7-.5-30-30.8c-16.5-16.9-30.2-31.8-30.4-33-1.1-5.2-2.8-19.9-2.3-20.3.2-.3,5.8,1.4,12.3,3.7,27.9,9.7,50.6,17.1,51,16.7.2-.3,0-1.9-.7-3.7-1.1-3-.9-3.4,5.4-10.4,9-10,33.5-36.6,42.6-46.2,4.2-4.4,12-13,17.5-19,5.4-6.1,10.2-11.1,10.6-11.3.8-.3,9.7,3.3,30,12.2l12.4,5.4,3.4,9.4c1.9,5.1,6.9,19.4,11.2,31.8,28.8,82.6,31.6,90.3,32.4,87,.4-1.4,4-19.3,8.1-39.9l7.5-37.3-1.5-9.2c-2.5-15.6-6.5-42.8-6.5-44.2s14.2-1.4,81.4-1.6l81.5-.3-4.6-7.5c-2.6-4.1-12.9-21.2-23-38-10.2-16.8-18.7-30.8-19.1-31.2s-4.5.5-9.2,1.8c-4.7,1.4-15.5,4.4-24,6.8s-33.7,9.6-56,16.1-41,11.8-41.6,11.9c-1.1,0-13.4-15.8-24.2-31.4l-5.1-7.5.9-13.5c1.7-22.4,2.7-37.5,2.6-37.7,0,0-3.5,2.4-7.6,5.5s-18.4,12.5-31.7,20.8l-24.2,15.2-9.3-8.1c-5.1-4.5-10.2-8.9-11.2-9.7-1.8-1.4-1.8-1.1-1.2,9.5.3,6.1,1.3,25.8,2.1,44,.8,18.1,1.7,36.6,2,41l.5,8-4.6,3.9c-2.6,2.2-9.6,7.9-15.5,12.8l-10.9,8.9-5.7-1.5c-3.2-.8-24.6-5.1-47.6-9.6-41.7-8.1-41.9-8.1-44.6-11.3-17-19.4-19.1-22.1-19.7-25.6-.3-2-2.3-12.8-4.4-24.1-2.2-11.3-5.8-30.2-8-42s-4.2-22.1-4.5-22.8c-.5-1.4,1.7-4.3,28.5-38.7,28-36,33.5-42.8,36.5-46.1s12-7.7,30.3-16.9l27.4-13.7,2.7,2c1.5,1.1,8.8,6.3,16.2,11.6l13.4,9.7.7,5.2c.3,2.9.6,7.6.7,10.4,0,2.9.4,5.3.7,5.3s2.2-1.4,4.3-3l3.8-3.1,1.2-11.7c.7-6.4,1.9-17,2.8-23.5.8-6.5,1.4-11.9,1.2-12.1-.9-.6-60.4-27.3-69.5-31.2-5.6-2.3-11.5-4.9-13.2-5.8-3.4-1.8-3.5-2.1-12.2-32.1-2.8-9.9-5.7-19.7-6.3-21.8l-1.2-3.7-9.7,12.7c-5.4,7.1-18.7,24.6-29.5,39-10.9,14.4-20.1,26.3-20.4,26.3s2.3-9.3,5.8-20.6c3.5-11.4,6.3-20.7,6.1-20.9-.2,0-7.7,4.2-16.8,9.6-9,5.4-16.7,9.6-17.1,9.1-.6-.7-3.6-7.8-18.5-43-6.1-14.3-7-16-8.2-14.5-.7,1-6.1,11-11.9,22.3s-16.1,31.1-22.8,44-16.6,32-22,42.5c-5.4,10.4-10.1,19.3-10.4,19.7-.6.7-18.4-2.8-97.9-19-16.5-3.4-19.2-3.7-18.8-2.3.3.9,1,5.2,1.6,9.6s1.9,13.2,2.9,19.5c1.1,6.3,1.8,11.6,1.6,11.8s-7.2,2.1-15.7,4.2c-8.4,2.1-23.6,6.1-33.8,8.8s-19.7,5.2-21.1,5.6c-2.7.6-2.7.5-18.8-39.8-8.8-22.2-16.1-40.9-16.1-41.5s1.7-7.1,3.7-14.2c3.5-12.4,3.6-12.9,1.9-14.8-2-2.2-1.4-4.1,1.2-4.1s-.8-1.9-21.3-10c-11.5-4.5-24.3-9.5-28.4-11.1s-7.5-2.8-7.7-2.7c-.2.3-10.6,45.6-12.4,54.3-.4,2.2-5.1,22.9-10.3,46s-10.7,47.2-12.1,53.5l-2.5,11.5,4.2,3.5c2.3,1.9,6.1,5.3,8.4,7.5l4.2,4,2.6,23.8c1.5,13.2,2.4,24.1,2.2,24.3-.3.3-6.7-7.5-14.3-17.3l-13.8-17.7-4.8,21.4c-2.6,11.8-5.9,26.4-7.3,32.5-1.3,6-4.9,22-7.9,35.5s-6.3,28.1-7.4,32.5-4.8,20.9-8.3,36.7c-3.4,15.9-6.6,28.8-7,28.8s-3.4-2.3-6.6-5.1c-3.7-3.2-5.9-4.6-6.1-3.7-.3.7-9.6,24.4-20.8,52.7l-20.4,51.3,7,13.7c3.9,7.5,9.1,17.7,11.6,22.7l4.5,9-1.5,20.5c-1.6,22-1.8,22.5-12.5,47.4l-2.2,5-21.5,11.5c-22.3,11.9-24.4,12.8-24.4,11.1s-1.8-16.5-4-35.5c-2.2-18.9-4-35.6-4-37s19.4-41.4,43-88.7c23.7-47.4,42.9-86.5,42.8-86.9-.5-1.2-24.5-22-70.3-61-10.4-8.9-23-19.6-28-23.8-4.9-4.3-24.1-20.5-42.5-36.2-48.5-41.1-48.8-41.4-48.9-42.2,0-.6,5.6-13.3,24.4-54.3,4.8-10.5,11.1-24.2,14-30.5,18.5-40.4,26-56.6,30.2-65l4.8-9.5,21-8.1,21-8v-9l23.5-24.5c12.9-13.4,26.6-27.6,30.3-31.5l6.8-7.2,14.7,11.7c8.1,6.4,17.4,13.8,20.7,16.4l6,4.6,17-6.5c9.3-3.5,17-6.6,17.1-6.7.2-.1,3.5-11.9,7.4-26.2,6.5-24.1,7.1-27,7.7-39.3l.6-13.2h-4.1c-3,0-4.2.5-4.6,1.7-.3,1-1.9,12.1-3.6,24.8-3.9,29.6-6.7,48.6-7.3,49.1-.6.7-1.3-5-4.7-42.6-1.7-17.8-3.4-32.8-3.9-33.3-1.9-1.9-268.7.9-277.8,2.8-1.7.4-18.6,20.7-22.6,27.1-.3.6,1.8,8.5,4.8,17.5s5.5,16.9,5.5,17.6c0,1-32.3,64.3-35.5,69.4-.9,1.5-2,1.5-11.4.3-5.7-.8-10.5-1.5-10.6-1.6-.3-.4-15.5-47.4-17.3-53.6-.8-2.9-1.6-5.1-1.8-4.9s1.4,10.9,3.5,23.8c5.8,35.2,5.6,32.9,3.1,32.9s-11.6-1.8-36.2-6.6c-2.4-.5-3.2.3-8.7,8.3-3.4,4.8-7.6,10.8-9.4,13.3s-3.9,5.5-4.7,6.7l-1.6,2.1-18.4-5.3c-10.2-2.9-18.6-5.2-18.8-5.1,0,.2,2,4.5,4.6,9.7,21.8,42.2,28.2,54.9,27.5,54.9-.4,0-3.1-3.5-6-7.8-5.6-8.3-21.5-30.7-35.5-50.1-4.9-6.6-8.8-12.6-8.8-13.4s1.8-9.1,4-18.5l4-17.2,10.6-13.2c5.8-7.3,10.8-13.8,11.1-14.4.2-.7-4.3-8.8-10-18-5.7-9.3-11.2-18.4-12.1-20.3l-1.8-3.4-3,5.4c-1.6,3-6.7,12.6-11.3,21.4l-8.4,16-3.6,18c-3.3,16.7-4.1,19.5-4.8,18.4-3.3-5.1-46.6-60.9-47.2-60.9s29.5,58.9,36.1,71.2c4.1,7.6,7.4,14,7.4,14.2s-4.1,3.4-9.1,7.1-9.7,7.1-10.3,7.6c-2.2,1.9-29.5,21.5-58.1,41.7-15.9,11.2-29.9,21.3-31.1,22.3-1.1,1.1-2.6,1.9-3.2,1.9s-12.1-7.7-25.5-17.2c-13.3-9.4-31.8-22.6-41.2-29.2-9.3-6.5-20.4-14.4-24.5-17.5s-8.1-6-9-6.5c-.8-.5,4.1,5.1,11,12.5,16.6,17.7,41.3,44.7,47.3,51.6,4.4,5.1,4.7,5.8,4.7,11.1s1.1,24.6,2.5,47.7l2.5,42.1-12.3,29.5c-6.8,16.2-16.1,38.6-20.7,49.9s-8.7,20.9-9.1,21.3c-.6.8-14.8,5-75.9,22.7-45.4,13.1-59.6,17.3-60.7,17.9-1.3.7,19.7,15.1,22,15.1s26.6-6.3,57.6-14c31.1-7.7,56.8-13.7,57.2-13.3.4.5,8.1,18.2,17.3,39.4l16.6,38.7-17.9,37.8c-34.8,73.8-40.2,84.9-41.9,86.5-1.4,1.4-84.7,51.6-102.7,62l-6,3.4,35.4.5,35.5.5,4,6.7,4.1,6.8h15.9c12.5,0,15.6-.3,14.9-1.3-3.8-4.7-14.4-19.9-14.1-20.2s12-2.8,26.3-5.9,26.7-5.9,27.7-6.2c1.2-.3,3.6,2.5,9.3,10.7,4.2,6.1,7.4,11.6,7.2,12.3-.3.6-5.1,3.8-10.8,7.1l-10.4,6-11.3.5-11.3.5,7.7,6.5c4.3,3.6,8.4,7,9.2,7.6,1.2.9.7,2.5-3.2,10.2-2.5,5-4.6,9.3-4.6,9.5s4.8,0,10.7-.5,10.9-.6,11-.4c.2.2-3.5,5.3-8.2,11.5l-8.6,11.1,9.3-.5c5.1-.3,13-.8,17.6-1.1l8.2-.6v-10.8h9.9c12.4,0,14.4.7,16.4,5.9.9,2.2,5.3,12.4,9.8,22.6s8,18.8,7.8,18.9c-.2.2-13.2-.2-28.9-.9s-28.6-1.2-28.8-1.1c-.4.4,7.8,11.7,14,19.3l5.9,7.2-7.6,19.3c-4.2,10.6-8.2,20.8-9,22.6-2.8,6.2-2.9,6.2,12.3,6.3,7.5,0,18.2.4,23.7.8l10,.6-16.5,8.6c-21,11-81.3,41.4-82.1,41.4s-9.5-10.6-20.3-23.7l-19.8-23.6-12.1-.6c-6.7-.4-29.3-1.1-50.2-1.7l-38-1-16,3.1c-24.4,4.6-32.5,6.3-32.3,6.6.3.3,51.1,4.2,97.3,7.5,16.5,1.2,31,2.6,32.2,3.3,2.7,1.4,88.3,85.5,88.3,86.8s-5.6,10.9-12.5,23.2-12.5,22.7-12.5,23.1.8.5,1.7.2c1-.3,23.6-7.1,50.3-15.2s49.4-14.9,50.5-15.2c1.3-.3,10.4,3.8,24.5,11,12.4,6.3,35.1,17.8,50.5,25.5s30,15.2,32.5,16.6l4.4,2.5-25.4,12.5c-28.9,14-22.5,12.4-65,16.6-48,4.8-92.4,10.3-105.5,13.1-7.7,1.6-21.4,4.5-30.5,6.4-9.1,2-16.9,3.7-17.5,3.9-1.7.7,3.7.6,15-.3,6.1-.5,15.3-1.2,20.5-1.6,5.2-.3,11.1-.8,13-1,1.9-.3,16.6-1.4,32.5-2.5,16-1.1,39.1-2.9,51.5-4,18.5-1.6,56.6-4.5,97.8-7.5,3.9-.2,7.2-.3,7.2,0s-4.5,9.2-10.1,20c-5.5,10.8-9.8,19.6-9.5,19.6,1,0,114.6-32.1,118.3-33.5,3.3-1.2.6,1.8-5.9,6.6-4,3-10.5,7.9-14.5,11l-7.1,5.5,16.6,2.3c9.2,1.2,23.8,3.3,32.4,4.7l15.8,2.6,11.2-10.6c6.8-6.3,11.4-10,11.6-9.2.3,1.2-6,20.5-9.6,29.7l-1.1,2.7,10.7.6c23,1.3,155.3,5.9,155.7,5.3,0,0-1.2-7.3-3-16-1.8-8.6-2.9-15.7-2.5-15.7s5.4,7.1,11.3,15.9l10.6,15.9,22.8.7c39.6,1.3,149.4-.3,240.3-3.5,80.3-2.8,104.5-4.1,109-5.7,2.5-.9,23.6-9.4,47-19,115.2-47.2,108.9-44.7,112.9-43.6,14.4,4.2,22,6.9,21.8,7.7-.3.8-31.5,15-80.2,36.6-32.1,14.1-33.5,14.8-30,14.9,17.9.4,183.8-14.8,243-22.4,6.1-.7,14-1.7,17.6-2l6.5-.6,4.2-7.2c2.4-4,16.6-28.3,31.7-54.2,15-25.8,27.8-47.1,28.3-47.3,1-.3,30.1,35.2,58.7,71.6l16,20.2,4.5-.6c2.5-.4,9.1-1.4,14.7-2.3l10.2-1.6-17-21c-9.3-11.6-18.7-23.1-20.9-25.6l-3.9-4.7,3.4-10.3c2.7-8.2,20-63.5,23.4-74.9.6-2,6-5.5,25.2-16.3,13.4-7.7,32.3-18.4,41.9-23.8s18-9.9,18.7-9.9c1.1,0,1.3,24.8,1.1,142l-.2,142h-584.3c-389.1,0-583.8.7-584.3,2,0,2-.7,2-271,2H96.8v-378c0-207.9.2-378,.4-378s2,.7,3.9,1.5c3,1.2,9.8,1.5,39.9,1.4h36.3l-23.5-8.7-23.5-8.7-16.7.3-16.8.3v-55.5c0-30.6.2-55.6.4-55.6.3,0,1.6.4,3,1,1.5.5,17.6,3.3,35.9,6.1,18.2,2.8,37.6,5.9,43.1,7,5.4,1.1,10,1.8,10.2,1.7.3-.4-17.3-7.2-57.4-22.3-8.9-3.4-16.5-6.5-16.8-6.8-.5-.5,7-14.3,10.9-20.1,2.5-3.5,3.4-2.8-15.5-13.4l-13.8-7.7V101.6h710.4c567.1,0,710.6-.3,711.4-1.3.5-.6,2-4.6,3.2-8.7,1.3-4.1,2.8-8.1,3.4-8.8.7-.6,6.6-2.8,13.1-4.7,6.6-1.9,20.1-6.2,30-9.5,28.4-9.4,105.9-33.9,106.3-33.6.3.4,2.9,16.7,6.7,43.1,1.4,9.9,2.8,19.2,3.1,20.7l.6,2.8h122.8l-.2,146.7-.3,146.8,14.7,27.5c8.1,15.1,14.4,27.8,14,28.2s-7,2.9-14.7,5.5l-14,4.8v144.7c0,79.5.2,144.9.5,145.2.6.5,56.8-15.5,58.9-16.8.6-.4,2.5,1.7,4.4,4.6,3.9,6,25.2,40.2,30.5,49,1.9,3.2,3.8,5.8,4.1,5.8s.5-178.5.4-396.7V.1c0,0-952.8-.1-952.8-.1C277,0,.5.3.2,1ZM781.8,596c0,.2-8.9,7.1-19.7,15.2-10.9,8.2-24.6,18.6-30.6,23.1-6.7,5.2-10.9,7.8-11.2,7.1-.2-.7-2.4-8.2-4.8-16.6-4.4-15-4.4-15.2-2.3-15.7,1.1-.2,14.7-3,30.1-6.1s29.6-6,31.5-6.4c4.2-.9,7-1.1,7-.6ZM1270.4,669.6c1.5,3.9,15.9,42.9,28.2,76.5,4.4,12.1,12.5,34.1,18,49,5.5,14.8,13.7,37.1,18.2,49.5,4.6,12.4,8.3,23.6,8.2,24.9,0,1.4-1.5,9.3-3.2,17.5-4.8,25.1-9.7,50.9-14,74.1-2.2,12.1-5.2,28.5-6.8,36.4l-2.9,14.5-9.9,2.1c-5.4,1.2-16.9,3.6-25.4,5.4s-24.5,5.2-35.5,7.6c-34.7,7.5-31.9,7.1-35.3,4.4-1.6-1.3-8.7-7.2-15.8-13-14.5-12-55.2-45.3-99.9-81.7-16.5-13.5-30.8-25.3-31.9-26.2-2-1.9-2.1-1.5,16.1-60,2-6.3,4.4-14.2,5.4-17.5s3.1-10.3,4.7-15.5c9.7-31,19.4-63.1,20.4-66.9.8-3.1,2-4.8,4.2-6.2,1.7-1.1,24-12.5,49.6-25.4s59.6-30.2,75.5-38.3c16-8.2,29.4-14.8,29.9-14.8.5,0,1.5,1.7,2.2,3.6h0ZM725.7,680.8c-4.5,5.3-20.3,23.7-57.8,67.2-11.3,13.1-21,24.4-21.6,25.1-1.7,2-4.9,3.4-24.3,10.5-20.1,7.4-52.3,19.5-61.1,22.9-2.9,1.2-5.6,2-5.8,1.7-.3-.3,8.4-12.1,19.3-26.3s23.9-31.3,28.8-38l9.1-12.1,32-15.2c17.6-8.3,43.9-21.1,58.5-28.4,14.6-7.4,26.7-13.2,26.9-13s-1.6,2.7-4,5.6h0ZM536.5,773.8c-.9,2.5-20.9,50.4-26.2,62.8-2.9,6.9-5.6,13.5-5.9,14.7-.4,1.2-5.3,6.1-10.9,10.9-5.6,4.9-16.2,14.1-23.4,20.6-50.7,45.1-54.3,48.2-54.9,47.5-1-1-2.2-7.4-7.8-43l-5.6-34.9,9.7-12.6c17.2-22.5,20.9-26.7,25-28.1,5.5-2,56.5-22,79.3-31.2,10.7-4.3,19.9-7.8,20.4-7.9.4,0,.6.6.3,1.2h0ZM678.2,896.3c7.1,9.8,13.1,18.3,13.3,19,.2.6-2.6,4.4-6.4,8.5-3.8,4-14.2,15.5-23.2,25.5-9,10.1-16.7,18.3-17.3,18.3s-.8-2.6-.4-7.3c.3-3.9,1.1-19.8,1.6-35.2,1-29.4,1.9-44.5,2.7-45.8.2-.4,4.1-.7,8.6-.7h8.3l12.8,17.7h0ZM752.5,920.5l-.7,27,9.1,5.1c5,2.8,9.2,5,9.3,4.8.2-.2-.8-6.7-2.1-14.6l-2.4-14.4,3.3-3.8c1.8-2.1,3.6-3.9,3.9-3.9.4,0,10.4,6.4,22.3,14.4l21.6,14.4-3.7,2.4c-23.6,14.5-26.4,16.4-26.7,18.2-.2,1.1-1.2,5.8-2.1,10.5-2.4,12.4-7.7,32.1-8.5,31.8-1-.4-51-52.2-51-52.9s3.3-2.4,7.4-4.7l7.5-4.3-2.9-6.2c-1.5-3.4-6-12.9-9.9-21.2-3.9-8.2-7.1-15.4-7.1-16s29.8-13.2,32.4-13.4c.5,0,.6,10.9.3,26.8h0ZM520.3,907.8c.9,4.2,1.4,8.1,1.1,8.7-.6.9-19.8-11.1-20.4-12.8-.4-1.3,16.2-5.9,16.9-4.7.4.6,1.4,4.6,2.4,8.8ZM612.6,945.2c4,8.1,7.1,14.8,6.8,15.1-.4.5-19-14.2-29-22.9l-4-3.5,9-1.5c4.9-.8,9.1-1.6,9.4-1.7.3,0,3.8,6.5,7.8,14.5h0ZM555.3,989.4c4.1,8.9,7.5,16.3,7.5,16.5s-2.8,2.1-6.2,4.2c-3.5,2.1-13.8,8.5-23,14.3-9.2,5.7-17.2,10.2-17.6,10-.5,0,6.1-14.4,14.6-31.7,9.7-19.8,15.7-31,16.3-30.4s4.3,8.2,8.4,17.1h0ZM680,1007.3c29.8,18.5,37.9,24.6,46.9,35,4.6,5.4,11.9,13.5,16.1,18l7.8,8.2v10.8c0,5.9-.3,11.7-.6,12.9-.4,1.7-4.9,3.9-20.7,10.4l-20.2,8.3-30,3.8c-16.5,2.2-39.9,5.2-52,6.8s-22.2,2.7-22.4,2.5c-.3-.3,3.7-8.9,8.9-19.2,5.1-10.3,18.9-38.2,30.7-62,11.7-23.7,21.8-43.2,22.3-43.2s6.5,3.4,13.2,7.7h0ZM1472.5,1003.8c-.6,3.5-2.5,16.9-5.7,40.3-1.1,7.7-3.3,24.9-5,38.1l-3,24.1-8.9,20.4c-4.9,11.2-12.7,29.1-17.5,39.7-4.7,10.6-8.6,19.4-8.6,19.7s-12.7,28.8-18.7,41.6l-3.5,7.6-18.6.6c-71.2,2.4-88.3,2.9-88.6,2.6s1.3-11,3.5-23.9c3.4-20.7,13-81.3,16.1-101.8l1.1-7.4,8.6-5.7c4.7-3.2,14.4-9.7,21.4-14.5,7.1-4.8,27.1-18.2,44.5-29.8,45.2-30.1,59.3-39.6,70.7-47.6,5.5-3.9,10.6-7.1,11.4-7.1,1,0,1.2.8.8,3.1h0ZM1807.6,1059.4l.2,33.2h-2.3c-5.5,0-78.3-4.1-79.4-4.5-.6-.2-1.6-2.5-2.1-5.2-1.6-7.2-5.4-34.4-5-34.8s19.3-5.2,42.3-11c23.1-5.9,42.2-10.9,42.5-11.1.2-.3,1.1-.3,2-.2,1.3.3,1.5,4.5,1.8,33.6ZM798.5,1039.8c-4.7,27.9-14.9,83.3-15.3,83.7s-1-.2-1.5-1.1-2.9-4.3-5.4-7.5-5.2-6.7-6.1-7.9c-1.3-2-.5-4.3,12.2-34,7.5-17.5,14-32.9,14.5-34.2,1.3-3.3,2.2-2.7,1.6,1ZM838.8,1081.2c-5.6,9.3-10.5,17-10.9,17.2-1,.3-1.9-1.9-7-17.7-2.2-6.9-3.8-12.7-3.5-13,.9-1,29.9-4.8,30.7-4.1.4.4-3.8,8.3-9.3,17.6ZM1807.8,1186.1c0,56.4-.2,68.5-1.3,68.5s-16.5-11.9-31.2-24.3c-3.3-2.8-6.3-5.3-6.7-5.6-.8-.7-4.2-12.3-14.3-48.6-3.7-13.2-8.6-31.1-11.1-39.7-2.4-8.7-4.4-16.4-4.4-17.3,0-1.3,4.1-1.5,34.5-1.5h34.5v68.5ZM423.2,1154.8c1.4,2.2,1.4,3.5-.7,15.2l-2.2,12.9-24.4-.7c-13.5-.4-24.6-.8-24.8-.9-.1-.2,1.3-6.3,3.2-13.7,1.9-7.3,3.5-13.5,3.5-13.7s6.9-3.8,15.3-7.9l15.2-7.5,6.7,7c3.6,3.8,7.3,8,8.2,9.3h0ZM459.3,1175c9.3,1.9,11,2.5,10.7,4s-2.8,8.1-5.9,15.9c-3,7.8-6.8,17.9-8.5,22.4l-3,8.3h-7.9c-7.2,0-7.9-.2-7.9-2s5.6-33.5,8.1-45.8c.6-2.8,1.6-5.2,2.2-5.2.7,0,6.2,1.1,12.2,2.4h0ZM1507.8,1193.4c9.1,5.2,17.4,10,18.5,10.6,8.4,4.8,32.2,18.4,34.3,19.7,5.4,3.4,20,11.9,28.9,17.1,5.3,3,9.3,6,9.3,6.8s-.7,7.6-1.4,15c-.8,7.4-2,20.2-2.6,28.5l-1.3,15-8.8,21.9c-4.9,12.1-8.9,22.6-8.9,23.3s-.5,1.3-1.1,1.3c-2.2,0-42.2-26.5-44.4-29.5-1.3-1.6-8.4-14.5-15.8-28.5s-17.6-33.1-22.6-42.3l-9-16.8.3-7.7c.2-4.2.4-16.9.5-28v-20.4c0,0,3.9,2.2,3.9,2.2,2,1.3,11.1,6.6,20.2,11.8ZM1069.3,1219.8c9.9,10.1,22.7,23.1,28.3,28.9l10.4,10.6-4.5,11.4c-2.5,6.3-8.2,21.3-12.7,33.4s-8.9,22.7-9.8,23.6-8.4,5.5-16.5,10.3c-12.7,7.6-14.7,9.1-14.1,10.8.3,1.1.7,3,.9,4.1,0,1.2,5,11.9,10.9,23.8,5.8,11.9,10.6,22.2,10.6,22.9s-1,1-2.7.6c-11.2-2.3-93.3-15.2-125.5-19.7-8.7-1.2-15.8-2.6-15.8-3,0-.6,43.6-33.8,47.9-36.6.2,0-3.5-9.1-8.1-20-14.3-33.4-23.2-56.3-22.2-57.3s20.7-12.5,44.9-26.8,47.4-28,51.5-30.5,7.7-4.6,8-4.6c.3,0,8.6,8.1,18.5,18.1h0ZM580.3,1269.1c35.1,77.2,35.6,78.5,35,79.6-.3.4-5.3,3.3-11.1,6.3-10.2,5.2-10.6,5.3-11.3,3.2-1-2.7-24-66-36.2-99.6l-9.2-25.5,1.2-9.5c1.8-15.1,2.3-17.2,3.1-16.3.5.4,13.3,28.2,28.5,61.8ZM786,1249.2c.4,15.3,1.2,39.9,1.7,54.5l1.1,26.6-9.3,20.9c-5.1,11.5-10.4,23.7-11.7,27.1-1.4,3.5-2.7,6.3-3.1,6.3s-2.4-4.8-4.7-10.8c-15.2-40.1-45.3-122.5-45.6-125,0-1.3,67.8-28.3,69.9-27.8.6.2,1.3,11,1.7,28.2h0ZM637.3,1248.1c14.4,9.2,24.7,14.7,45.4,24.4l20.4,9.6,4.8,11.5c2.6,6.3,4.4,11.6,4,11.8-.4,0-15.4-4.3-33.3-9.8-22.7-7-40.3-13.2-58.3-20.5-25.6-10.4-29.8-12.6-29.3-15.2.2-.8,5.3-3.5,11.3-6.1,6.1-2.7,14.2-6.4,18-8.3,3.9-1.9,7.5-3.2,8-3,.6.3,4.6,2.8,9,5.6h0ZM519.3,1268l3.4,12.6-6.9,24.8c-3.8,13.6-7.3,26.6-7.9,28.8l-1.1,4.2-6.8.6c-3.7.4-8.8.9-11.4,1.2l-4.7.6-2.9-5.9c-4.2-8.3-8.2-18.8-8.2-21.3s4.2-13.6,9.3-27.6c8.3-22.9,9.4-25.5,11.7-26,1.4-.3,6.8-1.6,12-2.9s9.6-2.2,9.8-2,1.8,6,3.7,12.9h0ZM861.8,1278.1c1.6.8,8.6,5.2,15.7,9.8,7,4.6,14.9,9.6,17.6,11.1l4.7,2.8v14.3c0,7.9-.3,14.6-.7,14.8-1,.5-20-1.7-20.7-2.4s-3-6.8-6-14.4c-3-7.7-7.5-18.9-10-24.9-3.9-9.2-4.1-12.9-.6-11.1h0ZM937.6,1331.6c4,7.2,7.1,13.4,6.7,14-.3.5-6.1,4.7-12.8,9.3s-16.6,11.4-22,15.2c-5.4,3.7-10,6.5-10.1,6.4-.2-.2-.9-5.8-1.6-12.3l-1.2-11.9,3.9-3.9c2.1-2.1,9.4-9.6,16.3-16.7,6.9-7,12.7-12.9,13-12.9.3,0,3.8,5.7,7.8,12.8h0ZM555.4,1343.7l9.1,2.9,3,13.5c1.6,7.4,2.8,13.7,2.6,13.9-.3.3-5.1-1.5-10.6-3.8-5.6-2.4-15.3-6.5-21.5-9.1s-11.2-5.1-11-5.6c.2-.4,3-4.2,6.3-8.4,6.9-8.8,5.7-8.6,22.1-3.4h0ZM859.4,1350.7c13.5,7.2,13.6,7.3,12.9,10.3-.3,1.7-.9,7.5-1.2,12.9l-.6,9.7-8.6,7.7c-4.7,4.2-9.6,8.6-10.9,9.7-1.5,1.4-3.4,1.9-6,1.8-10-.6-23.3-2-23.8-2.4-.8-.9-6.4-21.1-6.4-23.3s6.2-9.3,13.7-18.3c10.4-12.4,14.1-16.2,15.5-15.9,1,.3,7.9,3.8,15.4,7.8h0ZM648.8,1354.7c0,4-2.7,9.4-8,16.3l-8,10.2-17.2,1.8c-9.5,1-18.1,2-19.2,2.3-1,.3-1.7,0-1.5-.5.4-.9,51.7-35.8,53.2-36.1.4,0,.7,2.6.7,6h0ZM432,1373.1c13.7,5.8,26.2,10.5,27.8,10.5s47.1-8.8,58.8-11.5c11.7-2.7,2.2-.2,2,.3-.3.8-16.9,15.6-26.4,23.6l-3.5,2.9-14.4-6.2c-8-3.4-15.9-6.1-17.7-6.1-3.3,0-32.2,5.7-42.3,8.4l-5.4,1.4-19.1-10.7c-10.5-5.8-19.1-11-19.1-11.5,0-1,29.2-11.3,32.5-11.5,1,0,13,4.6,26.8,10.4h0ZM753.8,1409.3c8.8,18,15.7,33,15.3,33.4-.5.4-19,6.4-41.3,13.4-22.3,6.9-44.5,13.9-49.5,15.5-42.1,13.5-70.7,22.2-71.2,21.6-.5-.4,2.9-10.1,18.1-52.9l2.1-5.8,21.5-11.1c11.8-6.1,27.6-14.3,35-18.3s22.1-11.6,32.5-17c10.5-5.3,19.4-10.1,20-10.6.5-.5,1-.9,1.1-.9.2,0,7.5,14.7,16.4,32.7h0ZM987.8,1404.7c-.8.5-16.1,8.8-34,18.3-55.2,29.3-65.5,34.8-66.8,35.9-.7.5-1.4.8-1.6.6-.3-.2.2-7.4.9-15.9.8-8.5,1.6-17.7,1.7-20.5.4-5.9-5.3-4.4,43.3-11.5,19.3-2.7,38.6-5.6,43-6.4,9.9-1.7,15.6-1.9,13.5-.5h0ZM531.1,1415.9c4,3.4,9.1,7.6,11.4,9.2,2.4,1.7,4.3,3.3,4.3,3.6,0,.7-19.8,15.9-20.9,15.9s-2.7-2.1-5.1-4.6c-2.9-2.9-8-6.3-14.2-9.5-5.4-2.7-9.8-5.3-9.8-5.8s25.2-14.8,26.8-15c.2,0,3.6,2.7,7.5,6.2h0ZM581.2,1454c15.3,8.3,14.3,5.8,9,22.1-2.5,7.7-4.9,14.3-5.3,14.8-.4.4-6.3-1.9-13.2-5.2-6.8-3.2-14.1-6.6-16.3-7.5-3.6-1.5-3.8-1.7-2.4-3.8.8-1.3,4.7-7.6,8.7-14.1,4-6.4,7.8-11.7,8.3-11.7s5.6,2.5,11.2,5.4h0ZM1191.8,1488.8v31.3l-10.7,6.5c-5.8,3.6-23.3,14.4-38.7,24.1-15.5,9.7-28.3,17.5-28.4,17.4-.2-.2,1.8-10,4.4-21.9,3.7-16.5,11.2-30.7,22.5-42.4,10-10.3,48.9-46.1,50.2-46.2.4,0,.7,14.1.7,31.2ZM802.6,1464.6c4,2.8,7.2,5.4,7.2,5.8s-4,2.8-8.8,5.4-10.7,5.9-13.2,7.3l-4.6,2.6-13.7-7.7c-7.5-4.2-13.7-8-13.7-8.4,0-.7,30.8-8.5,39.1-9.9.3,0,3.8,2.2,7.7,4.9h0Z"/>
  <path class="st0" d="M1634.3,66.7c-13.2,4.4-36.8,12-52.5,17-38.5,12.2-41.2,13.2-42.1,14.9-.5.8-4.2,12.3-8.4,25.5-4.2,13.2-8.1,25.3-8.7,27-.5,1.6-2,6.4-3.3,10.5-1.2,4.1-5.3,16.9-9,28.5-3.6,11.5-8.9,28.2-11.6,37-7.3,23.2-7.1,22.7-9.3,26-1.1,1.6-9.2,12.6-18,24.3-23.3,31-21.9,28.9-20.4,31,.7,1,5.6,7.4,10.9,14.2l9.7,12.5,8.8,1.7c34.5,6.5,65.5,12.6,80.7,15.8l17.8,3.7,7.2-9.5c4-5.1,11-14.4,15.7-20.6,7.4-9.5,70-92.5,78.4-103.6l2.9-3.9-5.3-36.3c-2.8-20-8.1-55.6-11.6-79.2s-6.4-43.3-6.4-43.7c0-1.3.3-1.4-25.5,7.2h0Z"/>
  <path class="st0" d="M769.1,167.8c-34.3,2.4-61.1,25.4-72.9,62.6-4.3,13.4-5.7,23.7-5.8,40.2,0,17.8,1.3,27.6,5.6,41,5.8,18.2,12.8,30.2,24.8,42.1,26.2,26.1,72.5,27.8,97.8,3.5,3.5-3.3,7.1-7.4,8-9.1,1.8-3.5,1-4.7,7.3,11.7l4,10.8h17.9v-103l-38.7.2-38.6.3v4c0,2.2,0,8.8.2,14.7v10.8h42.1l-.6,4.7c-2.9,24-15.6,38.2-36.9,41.3-35.5,5.3-57.6-29.8-53.6-85,.6-7.4,1.7-16.1,2.5-19.2,6.7-25,22.1-40.4,41.7-41.6,22.1-1.3,39,11,44.9,32.7.6,2.2,1.4,4.1,1.8,4.1s6.1-1.1,12.7-2.4,13.7-2.7,15.8-3.1c3.9-.6,3.9-.7,3.2-4.3-.4-2-1.8-6.4-3.1-9.7-13.3-32.8-42.5-50-80.1-47.3h0Z"/>
  <path class="st0" d="M180,170.4l-5.2.3.2,99.7.3,99.7,18.8.3,18.7.2v-84h72v-15.5c0-15.4,0-15.5-2.2-15.5-1.3-.1-17.5,0-36,0h-33.8c0,.1,0-27,0-27v-27l44.8-.2,44.7-.3v-30.9h-58.5c-32.2-.1-60.9,0-63.8.2h0Z"/>
  <path class="st0" d="M327.8,240.9c-.1,39.2-.1,83.6-.1,98.7v29.2c.1,1.7,1.7,1.8,18.6,1.8h18.5v-82h48.5l5.2,13.3c2.8,7.2,7.3,18.6,9.8,25.2s7.3,19.1,10.7,27.7l6.2,15.8h19.3c11.2,0,19.3-.4,19.3-.9s-3-8.1-6.6-16.8c-9.1-21.8-27.4-68.1-27.4-69.2s2.8-2.5,6.3-4.3c17.7-9.3,27.9-27.8,28.1-51.3.2-28.2-16.2-49-43.9-55.6-8.2-1.9-12.3-2.1-60.7-2.4l-51.8-.3v71.1h0ZM429.3,202.4c9.2,4.2,14.7,11.1,16.4,20.5,1.3,7,.1,14-3.7,21-2.8,5.2-6.9,8.7-14,12-4.4,2-6.5,2.2-33.9,2.5l-29.3.4v-59.3l29.8.3c28.5.3,29.9.4,34.7,2.6Z"/>
  <path class="st0" d="M566.9,171.1c-.4.5-4.1,10.7-8.1,22.5-28.3,83.9-52.4,155.3-55.8,165.3l-4.1,11.7,16.7-.2,16.6-.3,7.5-23.3,7.6-23.2h78.1l2.6,7.7c1.5,4.3,4.5,13,6.8,19.3s4.7,13.3,5.4,15.5l1.2,4,19.7.3c21.5.3,20.9.4,18.6-5.5-1.1-2.7-13.3-37.4-14.9-42.3-.4-1.4-4.5-13.1-9-26-14.7-42.4-18.1-52.1-30.6-88.9-6.8-20-12.6-36.6-13-37-1.1-1.1-44.4-.8-45.3.4h0ZM594.6,231.6c14.8,43.5,20.2,59.6,20.2,60.5s-10.7.9-28.2.8c-22.4-.2-28.3-.5-28.2-1.5,0-.7,4.6-15.3,10.2-32.3,5.5-17.1,11.5-35.8,13.4-41.7,1.8-5.8,3.6-10.3,3.9-10s4.3,11.3,8.7,24.2h0Z"/>
  <path class="st0" d="M1317.5,231.4c-8.9,19.2-22,46.5-36.7,76.7-19.1,39.2-24.1,49.8-23.8,50.6.2.5,10.2,7.5,22.3,15.7,26.5,17.8,46.2,31.2,65.2,44.4,7.9,5.4,14.7,9.8,15.3,9.8s.8-1,.5-2.3c-.3-1.2-2.1-10.3-3.9-20.2-1.9-9.9-5.1-25.9-7.1-35.5-3.2-15.8-8.1-40.2-16.6-84-1.7-8.5-3.9-20.2-4.9-26-4.3-24.3-6.2-33.5-6.9-34.2s-1.9,1.8-3.4,5h0Z"/>
  <path class="st0" d="M1741.3,381.3c-4.4,4.7-14.7,15.9-23,24.8-81.6,87.6-85.1,91.5-83.9,91.5,2.4.1,174.4-57.6,174.3-58.5,0-.5-6-12-13.2-25.5l-13.2-24.5-16.4-8.2c-9.1-4.6-16.5-8.3-16.5-8.3,0,0-3.7,3.9-8.1,8.7h0Z"/>
  <path class="st0" d="M1172.6,434.2c-1.5,3.2-3.5,8.1-4.6,10.9-1.1,2.7-3.6,8.5-5.5,12.7l-3.6,7.8-16.5,8.2c-9.1,4.4-16.6,8.4-16.6,8.8s7.1,5.6,15.8,11.7c8.6,6.2,21.8,15.5,29.2,20.8,7.4,5.2,14,9.4,14.6,9.3.6-.2,11.9-6.4,25.1-13.8l24.1-13.5-21.1-12.5c-11.7-6.9-25.6-15-31-18-8.8-5-9.7-5.7-9.3-8,1-4.9,2.8-27.8,2.4-29-.2-.7-1.6,1.4-3,4.6h0Z"/>
  <path class="st0" d="M576,438.3c-2.4.2-4.2.7-4,1.1,2.7,6.1,52.5,91.2,53.4,91.2s-.6-2.1-1.9-4.8c-4.1-8-13.1-29.5-25.1-59.2l-11.4-28.5h-3.4c-1.8-.2-5.2,0-7.6.2Z"/>
  <path class="st0" d="M1385.5,442.3c-2.6,4.4-14.7,26.4-14.7,26.7s2.8.2,6.3,0c3.4-.2,11.4-.7,17.8-1l11.7-.6-4.9-11.3c-2.7-6.2-4.9-11.8-4.9-12.4s-1.5-1.1-3.2-1.1-4.3-.3-5.4-.6c-1.2-.3-2.4-.2-2.7.3h0Z"/>
  <path class="st0" d="M1486.5,473.6c-6.5,11.6-11.7,21.3-11.7,21.6,0,.8,16.4,24.3,17,24.3s42.1-62.2,41.6-62.6c-.5-.5-29.2-4.3-32.7-4.3s-3.7,2-14.2,21h0Z"/>
  <path class="st0" d="M406.1,471.4l-10.3,9.7,15.1,13c8.3,7.1,15.5,13.1,15.9,13.3,1,.4,18-9.8,18-10.9s-23.4-29.3-27.4-33.6c-.8-.9-3.6,1.1-11.3,8.5h0Z"/>
  <path class="st0" d="M1742.3,504.3c-10.4,10.3-22.4,22-26.6,26.1l-7.6,7.3-16.9-3c-19-3.5-36.1-6.7-57.4-10.9l-14.5-2.8-12.7,16.8c-10.3,13.4-12.4,16.8-11,17.2.9.3,14.1,3,29.2,6.1,15.1,3,34,6.9,42,8.5,8,1.7,16.8,3.5,19.5,4.1,2.8.5,5.7,1.2,6.6,1.4,1.1.4,5.5-4.3,14.7-15.2,56.6-68.1,60.3-72.6,59-73.4-3.3-2.2-5.9-.3-24.3,17.8h0Z"/>
  <path class="st0" d="M1564.3,510.3c-5.5,8.6-10.1,16.2-10.3,16.8-.3,1.2,9.3,10.5,10.7,10.5s19.1-33.2,19.1-34.7-8.2-8.3-9.2-8.3-4.8,7.1-10.3,15.7h0Z"/>
  <path class="st0" d="M1584.8,525.2c-11.3,16.2-12.3,18-11.2,19.9.6,1.2,3.8-1.6,14-12.4,7.3-7.7,13.2-14.3,13.2-14.8,0-.9-5.2-6.3-6.1-6.3-.2.1-4.7,6.2-9.9,13.6Z"/>
  <path class="st0" d="M362.2,526.7c1.5,2.4,5.9,9.8,9.8,16.4s7.4,12.4,7.8,12.8c.4.5,3.5-2.7,6.9-7.2l6.1-8-6.7-3.7c-3.8-2-8.6-4.7-10.8-6-2.2-1.2-6.7-3.7-9.9-5.4l-5.9-3.2,2.7,4.3h0Z"/>
  <path class="st0" d="M246.2,598.2l-10.2,10.5,16.2,11.6c8.8,6.4,16.6,12,17.2,12.4.6.5,4.6-2.8,10.2-8.4l9.2-9.2-8.7-7.5c-4.8-4.1-12-10.3-16-13.8-4-3.4-7.3-6.2-7.5-6.2s-4.9,4.8-10.4,10.6h0Z"/>
  <path class="st0" d="M1170.8,592.7c0,2,2.5,23.4,3.6,31.4.3,2.2.9,7,1.3,10.7l.6,6.8,22.5-19.1c12.4-10.5,23.3-19.6,24.2-20.2,1.4-.9-3.4-2.2-24.5-6.4-14.4-2.9-26.5-5.2-26.9-5.3-.5,0-.8.9-.8,2.1h0Z"/>
  <path class="st0" d="M1703.2,610.8c.9,8.6,4.3,53.9,5.2,67,.4,6,.8,10.8,1,10.8,1.9,0,32.3-19.7,33-21.3.4-1.1-7.2-49.1-9.1-57.2-.4-1.8-1.3-2.1-6.2-2.2-3.2,0-9.1-.9-13.1-1.8-11.8-2.4-11.5-2.6-10.8,4.7Z"/>
  <path class="st0" d="M221,618.5c.5,1.4,30.1,33.1,30.9,33.1s8.3-8.9,7.8-9.4c-1.7-1.6-37.4-24.6-38.1-24.6s-.8.4-.6.9h0Z"/>
  <path class="st0" d="M203.9,642.3c-1.1,3.8-4.7,16.7-8.1,28.8-9.8,35.4-11.2,40-11.9,40.8-.4.4-16.7-4.4-36.1-10.8-19.4-6.3-35.5-11.3-35.7-11.2,0,.2,10.8,6.3,24.5,13.7,13.6,7.3,35.1,19,47.7,26,25.3,14,31.5,17.3,32,16.8s1.5-4.6,2.8-9.8c1.4-5.3,5.6-20.3,9.2-33.5,3.7-13.2,7.5-27,8.5-30.7l1.9-6.7-16.4-15.1-16.4-15-2,6.7Z"/>
  <path class="st0" d="M1622.7,667.3l-7.6,7.8.6,11.1.6,11.2,5.2,5.4,5.1,5.5,14.4-9.4c7.9-5.2,14.5-9.6,14.6-9.8.6-.6-23-29-24.2-29.3-.6,0-4.6,3.2-8.7,7.5Z"/>
  <path class="st0" d="M158.9,776.3c3.6,3.7,10.3,11.1,14.9,16.3,16.5,18.8,24.4,27,25.1,26.3.5-.7,5.9-21.2,5.9-22.8s-11.8-6.4-26.2-13.6l-26.3-13.1,6.6,6.9h0Z"/>
  <path class="st0" d="M149.8,835.1c0,.3,16.5,12.4,23.7,17.4,3.2,2.2,3.3,2.2,6.8.3l3.6-1.8-10.8-4.8c-5.9-2.7-13.6-6.3-17-8.1-3.5-1.8-6.3-3.1-6.3-3h0Z"/>
  <path class="st0" d="M141.4,903.3c-.3,6-1.1,15.5-1.6,21.3-3.1,32.1-6,66.7-6,71.3v5.3l5.3,1.4c2.8.7,5.7,1.5,6.3,1.7.8.3,1.3-12,1.8-41.9.3-23.3.9-48,1.3-54.9l.6-12.6-3.3-1.2c-1.8-.6-3.4-1.1-3.5-1.1s-.5,4.8-.9,10.7h0Z"/>
  <path class="st0" d="M178.8,901.5c0,.5-9,52.4-14.5,83.1-2.4,13.5-5.8,32.6-7.5,42.5s-4.2,24.1-5.5,31.5c-1.4,7.4-3.4,18.9-4.5,25.5-1.2,6.6-2.2,12-2.3,12.1-11.1,6.6-26.8,16.9-26.1,17,.5.2,13.2,1,28.3,1.9,21.5,1.4,27.5,1.5,28.1.5.4-.7,1.5-4.7,2.3-8.9.9-4.2,4.6-21.6,8.2-38.6,3.6-17.1,9-42.7,12-57s6.4-30.3,7.5-35.5c9-41.1,13.1-61.5,12.3-61.7-14.2-5-38.3-12.8-38.3-12.4h0Z"/>
  <path class="st0" d="M230.8,1167.6c.5,1,2.4,5.8,4.1,10.7,1.8,4.8,3.3,8.9,3.3,9,.1,0,6.2-1.1,13.6-2.7,7.4-1.6,17.5-3.7,22.4-4.8l8.9-1.8-11.9-2.7c-6.5-1.4-18.5-4.2-26.6-6-13-3-14.6-3.2-13.8-1.7Z"/>
</svg>