<?xml version="1.0" encoding="UTF-8"?>
<svg id="Layer_1" xmlns="http://www.w3.org/2000/svg" version="1.1" viewBox="0 0 1843 988.2">
  <!-- Generator: Adobe Illustrator 30.0.0, SVG Export Plug-In . SVG Version: 2.1.1 Build 123)  -->
  <defs>
    <style>
      .st0 {
        fill: #fff;
      }
    </style>
  </defs>
  <path class="st0" d="M1275.4.7c-24.2,2.4-46.1,5.6-78.5,11.5-35.4,6.5-77.2,13.2-99,15.9-6.3.8-16.7,2.1-23,3-12.1,1.6-40.9,4.7-59.5,6.5-16.7,1.5-65.7,4.4-102,6-66.7,2.9-98.9,8.5-128.8,22.2-10,4.6-30.1,16-37.9,21.4-2.6,1.9-7.2,5.1-10,7.1-2.9,2-6.6,4.6-8.3,5.7-1.6,1.2-3.5,2.6-4.1,3.1-1.4,1.4-42,31.3-70.7,52.2-30.7,22.4-78.8,54.5-106.7,71.4-38.5,23.1-95.9,53.9-126,67.4-4.7,2.1-11.4,5.1-15,6.8-8.6,3.9-19.4,8.4-25.5,10.7-2.7,1-9.3,3.8-14.5,6.3-5.2,2.4-12,5.5-15,6.8-12.4,5.2-39,20.2-55.1,31-18.9,12.6-45.3,37.3-63,58.8-10.4,12.8-32.7,42.3-39.4,52.2-2.7,4.1-8.8,12.8-13.5,19.4s-9.2,12.9-10,14.2c-.8,1.2-4.2,6.1-7.5,11-6,8.8-37.2,50.7-48.1,64.5-11.6,14.7-30,37.5-37.9,46.9-4.4,5.3-12.7,15.4-18.5,22.4-11.9,14.6-20.5,24.8-32.3,38.4-18.8,21.7-21.7,26.3-24.2,38.2-3.7,17.5.1,44.6,10.5,75.4,20.9,61.6,59.5,113.6,111.5,150.2,10.9,7.7,14.4,9.7,31.1,18.4,22.6,11.7,43.9,18.8,64.8,21.5,24.5,3.2,32.8-.7,45.1-21.3,3.3-5.4,8-13,10.5-16.8,2.6-3.9,10-15.7,16.4-26.4,26.9-44.4,53.9-83.8,71-103.6,8.3-9.6,10.2-11.4,18.3-17.6,17.4-13.1,24.6-14.2,53.8-8,37.9,8,41.4,8.7,61,11.5,26.6,3.9,65.8,4.6,92.5,1.6,16.4-1.8,34.4-4.1,36-4.5s6.9-1.4,13.5-2.5c23-4,52.9-11.5,85.5-21.6,14.4-4.5,46.8-15.1,49.5-16.3,5.2-2.3,12.9-5.1,13.9-5.1s2.2-.6,3.6-1.3,4.8-2.1,7.5-3.1c9.5-3.5,27-11,29.4-12.5s2.2-1.6-5.5-2.8c-4.3-.7-12.6-1.9-18.4-2.8-24.1-3.4-42.4-8.6-51-14.4-6.7-4.4-12.5-11.9-14.5-18.5-2.2-7.3-1.9-18.9.6-26.7,4.9-14.5,19.4-29.2,39.2-39.4,3.6-1.9,3.7-2,1.5-2.7-1.3-.3-4.5-.7-7.3-.7-29-.7-48.2-19.7-44.5-44,1.7-10.7,4.7-18.3,11.2-28.1,18.4-28.1,56.6-52.2,102.8-65,2.5-.7,5.6-1.6,7-2.1,2.7-.9,15.3-3.6,23.5-5,27.7-4.9,72.3-5.7,101-2,9.4,1.3,21.7,3.1,27.4,4.2,11.8,2.1,16.9,2.3,22.3.9,9.1-2.6,26.5-17.4,46.3-39.5,4.9-5.5,11.9-13.1,15.5-16.8,7.3-7.7,8.6-9.5,7.4-10.7-.5-.4-5.4-3.2-10.9-6-5.5-2.9-12.5-6.8-15.6-8.6-3.1-1.9-6.5-3.4-7.5-3.4s-7.1,1.4-13.4,3.1c-21.1,5.7-44,9.9-65,11.9-22.4,2.2-57.2.3-101.8-5.5-18.9-2.5-29.3-2-45.1,2-14.5,3.6-20.9,5.9-33.6,12.1-29.7,14.5-59.6,44.1-85.8,85.1-8.7,13.7-33.3,50.8-38.3,57.8-14.4,20.3-46.1,54.1-64.4,68.8-32.3,25.9-68.4,43.6-103.4,50.8-13.8,2.8-42.2,5.9-54.1,5.9s-43-3.4-52.6-6c-17.1-4.4-19.6-5.2-24.6-7.5-2.9-1.3-5.3-2.9-5.3-3.4,0-.8,9.6-1.1,29.9-1.1s32.7-.4,45.2-2c44.7-6,83.2-19.9,114.7-41.7,16.3-11.3,22.6-16.5,40-33.7,13.5-13.2,18.5-18.8,30.5-34,5.9-7.4,19.7-27.2,19.7-28.2s.9-1.7,1.9-2.8c1.7-1.8,24-36.8,30.4-47.6,3.7-6.1,19.8-28.1,27.2-37,26-31.1,60-54.7,95.8-66.5,32.2-10.6,52.3-11.7,94.2-5.4,19,2.9,23.3,3.2,46,3.3,50.1.2,90.5-7.8,130.2-25.8,16-7.2,23.5-11.6,40.3-23.3,15.1-10.5,34.9-30.7,40.3-41,4.2-8,5.2-15.1,2.8-19.6-3.4-6.4-19.3-8.2-60.1-6.6-31.1,1.2-86.8.7-107.5-1.1-30.1-2.5-59.6-6.3-77.5-10.1-43-9-56.3-10.9-76.8-10.9s-33.5,1.6-99.7,23c-29.5,9.6-36.4,11.5-59.5,16.6-33.9,7.4-57.7,10.7-93.4,12.8-27.1,1.6-44.8.5-47.6-2.9-1.7-2.1,4.3-3.8,31-8.5,35.5-6.3,62.8-12,79-16.5,17-4.7,35.3-10.2,48.5-14.7,15.6-5.3,47.8-17,53-19.4,6-2.6,18.2-7.2,26.5-9.8,4.7-1.5,9.4-3.1,10.5-3.6,2.9-1.3,23.9-5.9,32-7,10.6-1.5,34.3-1.2,49,.6,12.4,1.5,30.1,4.7,61.5,11.3,24.2,5.2,67.4,10.5,68.9,8.5,1.2-1.7,16-10.9,23.6-14.6,2.8-1.4,5.9-3,7-3.6,3.5-2,22.9-10.9,25.5-11.7,1.4-.4,4.3-1.6,6.5-2.5,5.7-2.5,17.2-6.7,22.5-8.1,2.5-.6,8.8-2.4,14-3.9,12-3.5,23.3-6.3,63.5-15.5,8.8-2,20.5-4.7,26-6s18.3-4,28.5-6,21.2-4.2,24.5-5c22.8-5.3,58-10.7,80-12.4,27.5-2.1,96.3-4.4,182-6.1,104.5-2,125.9-3,157.5-7.1,75.6-9.8,152.5-42.7,178.8-76.6,6.8-8.7,8.2-17.8,3.7-23.2-6-7-21.3-9.1-69-9.1s-39.5-.4-53.5-1c-14-.5-38.8-1.4-55-2-42-1.4-88.3-4.3-138-8.4-9.6-.9-24.9-2-34-2.6-9.1-.5-23.9-1.5-33-2-9.1-.6-28-1.9-42-3s-35.2-2.7-47-3.6c-24.8-1.9-80.3-2.7-93.5-1.3Z"/>
  <path class="st0" d="M1093.9,223.3c-6.2,1.1-26.4,7.5-35.4,11.1-10.2,4.3-11.3,4.8-10.4,5.8,1.4,1.3,77.1,0,82.7-1.6,2.2-.5,1.9-1-4.1-4.2-18.7-10.3-25.1-12.5-32.8-11.1Z"/>
  <path class="st0" d="M1194,271.8c3.4,17.8-3.9,39.1-20.2,58.9-15.7,19.2-42.8,40.5-65.8,51.9-5,2.5-9.1,4.8-9.1,5.1,0,.5,18.6,11.9,19.5,11.9s5.4-3.1,11.4-6.9c26.7-17,61.1-30.1,79.3-30.1s10.5,2.6-3.8,9.9c-33.1,17.1-61.3,41.5-106.4,92.1-35.5,39.8-49.3,50.7-71.9,56.6-6.2,1.6-18.7,1.8-27.6.5-36.9-5.6-42.2-6.1-71.5-6.1s-51.4,1.9-74,8.1c-35.8,9.6-61.1,23-80.2,42.3-11.5,11.6-17,24.8-12.9,30.6,3.4,4.8,7.9,5.2,57.1,6,25,.5,47.1,1.1,49,1.4s9.6,1.3,17,2.1c30.8,3.5,60.4,9.2,95.5,18.5,32.7,8.7,48.2,10.5,66,7.6,21.1-3.5,36.8-11.1,62.5-30.5,6.9-5.2,12.7-9.7,13-10s3.7-3.3,7.5-6.6c3.9-3.3,13.8-12.1,22.1-19.5,13.9-12.5,29.9-26.1,40.1-34.2,2.3-1.8,10.6-8.5,18.5-14.9,7.9-6.3,18.4-14.6,23.3-18.4,5-3.8,9.2-7.2,9.5-7.5s9.5-7.7,20.5-16.5c21.5-17.2,36.4-31.2,43.9-41.5,9.2-12.5,15.6-28.1,17.2-41.9,1.3-11.3-3.1-29-10.3-42-5.8-10.4-21-24.9-37.3-35.5-7.4-4.9-15.3-10.1-17.5-11.6-8.1-5.5-62.1-34-64.5-34s-.4,1.9.1,4.2Z"/>
  <path class="st0" d="M1268.7,504.4c-17.1,13.7-80,68.9-100.6,88.2-25.4,24-40,36.3-55.1,46.4-17.6,11.9-37.9,21.3-54.8,25.2-10.3,2.5-13.8,2.8-27.8,2.8s-21.5-.7-39-4.6c-10.3-2.2-29.1-7-31-7.8-1.1-.5-4.7-1.5-8-2.3s-10.5-2.7-16-4.1c-10.9-2.8-35.8-7.1-47.2-8.2-13.5-1.2-47.3,2.8-68.7,8.2-10.1,2.6-25.3,8.5-31.6,12.2-1.9,1.2-5.1,3-7,4.1-3.7,2.1-11.6,9.9-14.2,14.1-.8,1.4-2,4.7-2.6,7.3-.9,4.6-.8,5,1.9,8.2,5.5,6.3,17.5,9.2,60.4,15,30,4,76.9,13.9,108.5,22.9,13.7,3.8,33,10.1,59.7,19.4,36,12.5,54.6,10.8,88.9-8.1,6.7-3.7,13.4-8.2,13.4-9s.5-.7,1.1-.7,3.2-1.6,5.7-3.5c11.7-8.9,30.8-23.8,41.8-32.7,15.1-12.3,32.8-26.1,39.9-31.3,3-2.2,10.1-7.4,15.8-11.6,5.6-4.2,17.9-13.1,27.2-19.8,23.3-16.7,30.5-22.5,41.1-33.3,10-10.2,17.9-21.8,21.1-31.3,6.1-17.8,3.9-41.5-5.3-58.4-3.9-7.2-8.2-13.1-9.5-13.1s-4.1,2.6-8.1,5.8Z"/>
</svg>