<?xml version="1.0" encoding="UTF-8"?>
<svg id="Layer_1" xmlns="http://www.w3.org/2000/svg" version="1.1" viewBox="0 0 1842.5 988.2">
  <!-- Generator: Adobe Illustrator 30.0.0, SVG Export Plug-In . SVG Version: 2.1.1 Build 123)  -->
  <defs>
    <style>
      .st0 {
        fill: #fff;
      }
    </style>
  </defs>
  <path class="st0" d="M490.2,1.1c-16.6,1.3-25.7,2-69,5-11.5.8-27.1,1.9-34.5,2.5-7.4.5-21.4,1.4-31,2s-31.4,2.2-48.5,3.6c-17,1.3-38.9,2.9-48.5,3.4-36,2.1-72,3.9-88.5,4.5-9.3.3-29.8,1-45.5,1.6s-44,1.2-63,1.4c-45.7.3-55.1,2-59.9,10.6-8.9,15.8,16.1,40.8,63.9,63.7,29.1,13.9,42.2,18.3,78.8,26.7,38,8.7,74.7,11.7,160.7,13.5,26.4.5,65.6,1.7,87,2.5,21.5.8,55.4,1.9,75.5,2.5,39.1,1.1,58.2,2.2,78,4.6,12.5,1.5,39,5.7,46.5,7.4,2.2.5,14.8,3,28,5.6,13.2,2.5,33,6.8,44,9.5s28.8,7,39.5,9.4c31.4,7.2,67.1,16.9,74.9,20.3,2,.8,5,2.1,6.6,2.8,1.7.7,6.4,2.8,10.5,4.5,16.1,6.8,31.6,15,48.4,25.7,3.8,2.4,4.4,2.5,14.9,1.8,16.1-1,34.1-3.8,72.7-11.5,19-3.8,38.6-7.5,43.5-8.2,11.8-1.8,44.7-1.8,54-.1,22.4,4.3,25.6,5.1,37,9.2,5,1.8,11.4,3.9,14.3,4.8,2.8.8,5.2,1.9,5.2,2.4s.6.8,1.3.8,7.2,2.3,14.3,5.1c22.2,8.7,24.3,9.5,48.9,17.7,13.2,4.5,28.4,9.2,33.8,10.6,5.3,1.4,14,3.7,19.2,5.1,12,3.2,37.3,8.3,67.5,13.5,12.9,2.3,24.9,4.5,26.5,5,1.7.4,4.3,1.2,5.9,1.7,1.6.4,3.1,1.3,3.3,1.9,1.7,5.2-45.1,5.6-86.7.9-14.6-1.7-38.9-5.7-48.5-8.1-27.6-6.8-50.7-12.9-56.3-14.9-3.7-1.3-12.5-4.1-19.7-6.4-7.1-2.2-17.9-5.6-24-7.5-34.5-10.9-46.8-13-71.5-12.3-19.8.5-28.5,1.9-63.9,9.7-48.3,10.7-98.6,14.1-177.9,12.2-57.8-1.4-66.7-.7-73.3,5.9s-2.6,10-.3,15.5c7.5,17.9,32.8,41.7,61.1,57.4,43,23.9,77.5,33.4,134.8,37.1,19.2,1.3,38.7.4,61-2.6,23.8-3.3,29.5-3.7,48.5-3.2,16.6.4,21.1.9,30,3.1,11,2.8,19.1,5.2,22.5,6.6,1.1.5,3.1,1.2,4.5,1.6,7.4,2,31.7,15.5,45,25,19.7,14.1,43.2,39.1,61.1,64.9,10.5,15,14.4,21,17.3,26,1.6,2.7,4.8,7.9,7.1,11.5s6.1,9.6,8.4,13.5c2.3,3.8,5.7,9.1,7.5,11.7,1.8,2.5,6.3,8.8,9.9,14,3.6,5.1,7.4,10.4,8.6,11.7s2.1,2.7,2.1,3c.1,1.8,31.1,35,39.6,42.2,16.6,14.3,25.8,21.5,36.4,28.2,6.2,4,19.1,10.7,20.6,10.7s1.4.3,1.4.8,2.1,1.7,4.8,2.9c11.9,5.3,14.2,6.2,16.8,6.9,1.6.4,3.4.9,3.9,1.3,2.1,1.2,11.1,4,13.1,4.1,1.1,0,2.4.4,3,.8.5.5,3.4,1.4,6.4,2.1,3,.6,7.4,1.6,9.8,2.1,10.8,2.5,13.2,2.9,21.2,3.9,20.9,2.6,30.4,3.2,53.2,3.1,13.3-.1,25.3-.1,26.6,0,3.1,0,2.8,2.5-.5,3.8-23.2,8.9-50.1,13.5-78.8,13.5s-49.7-3.3-66-7.9c-3.3-.9-7.2-1.9-8.8-2.1-1.5-.3-3-.9-3.3-1.4s-1.2-.9-2-.9c-2.2,0-19-6.7-27.8-11.1s-32.6-18.6-33.6-19.8c-.3-.4-3.6-2.9-7.4-5.5-9.6-6.9-29.4-24.5-40.2-35.9-9.9-10.4-24.6-28.3-36-43.7-6.6-8.9-28.4-41.3-29.3-43.5-.6-1.4-15.5-23.8-19.9-30-12.1-16.8-27.6-34-39.2-43.6-3.6-3-6.7-5.7-7-6-1.7-2.1-21.9-14.2-29.5-17.7-10.7-4.9-30.1-10.7-40.5-12.2-11.2-1.6-25.7-1.5-42.5.4-8.2,1-22.7,2.6-32.1,3.7-40.5,4.6-87.7.6-125.6-10.6-6.5-1.9-12.5-3.5-13.5-3.5-3.1,0-35.7,17.3-36.1,19.2-.1.7,1.7,3.4,4.1,5.8,2.4,2.5,7,7.4,10.2,11,9.6,10.7,34.7,36.2,39.5,40.1,7.4,6,14,8.9,21.7,9.6,6.3.5,10.5,0,35.8-4.3,23.5-3.9,68.8-4.6,95.3-1.4,16.2,2,24.8,3.6,36.2,6.7,11.4,3.2,15.6,4.4,17.2,5.4,1,.5,2.5.9,3.4.9,3.5,0,31.3,11.8,42.4,18.1,3.9,2.2,11.7,7.7,20.6,14.6,7.8,6,27.4,25.6,27.4,27.3s1.4,2.9,3,5.4c8.9,13.2,11.4,33.9,5.4,45.4-.7,1.4-3.4,4.9-6,7.9-5.8,6.8-18.1,13.3-25.3,13.4-2.6,0-7.9.6-11.9,1.2l-7.3,1.2,5.3,2.8c13.4,7.1,17.1,9.9,25.5,19.7,11.1,12.9,15.1,25.2,13.2,40-2,14.8-10,23.4-27.9,29.7-13.7,4.9-26.7,7.7-50,10.8-15.5,2.1-16.4,2.4-12.5,3.9,1.7.7,6.6,2.9,11,5,11.5,5.4,17.6,7.8,30,12.1,2.8.9,5.8,2.1,6.7,2.6,1,.5,2.5.9,3.3.9s2.3.4,3.3,1c1.8,1,29.8,10.3,50.7,16.8,44.9,13.9,85.3,22.9,119.5,26.6,58.6,6.3,96.6,4.1,158.5-9.3,38.9-8.5,42.6-8.2,61.7,4.6,7,4.7,21.5,19.4,27.3,27.7,1.6,2.4,7.7,10.8,13.4,18.7,18.2,25.4,31.8,46,52.9,80.6,30.8,50.2,34.7,55.7,41.5,58.2,13.2,5,35.3,2.8,62-6,8-2.7,35.3-15.2,36.7-16.8.3-.4,1.8-1.2,3.5-2,4-1.7,29.3-18.8,37.7-25.5,11.7-9.2,31.8-29.1,40.3-40,1.7-2.1,4.6-5.8,6.6-8.1s4.7-6,5.9-8.1c1.3-2.2,2.6-4.1,3-4.4.6-.6,8.3-12,9-13.5.3-.6,1.7-2.9,3.2-5.1,5.3-8.2,19.8-37.9,19.8-40.6s.4-1.8.9-2.4c1.5-1.5,11.7-33.3,13.5-41.9,1-4.4,2.2-9.9,2.7-12.3.5-2.3,1.2-10.4,1.5-18,1-22.8-1.4-29.6-17.5-48.7-5.6-6.6-14.5-17.2-19.9-23.5-5.3-6.3-10.6-12.6-11.7-14.1-1.1-1.4-4.3-5.3-7.2-8.5-12.2-13.8-34.9-41.4-49.8-60.4-5.9-7.4-12.5-15.8-14.8-18.7-4.3-5.3-5.4-6.8-9.7-12.8-1.4-2-4.5-6.3-7-9.5-2.5-3.3-5.4-7.2-6.5-8.7s-5.6-7.8-10-13.8c-4.4-6.1-9.2-12.9-10.8-15.1-1.5-2.2-3.6-5-4.7-6.2s-2-2.4-2-2.7-2.8-4.5-6.2-9.3c-3.5-4.8-7.6-10.5-9.1-12.7s-5.7-8.1-9.2-13c-3.6-5-8.8-12.4-11.7-16.5-2.8-4.1-7.6-10.7-10.7-14.5-11.4-14.5-16.6-21-17.1-21.5s-3-3.4-6.1-7c-20-23.1-49.4-46.7-79.4-63.8-11.5-6.5-56.8-28.2-58.9-28.2s-18.4-7.7-21-9.2c-1-.5-5.3-2.5-9.5-4.3-8.5-3.7-14.1-6.2-32.1-14.7-17.9-8.5-37.5-18.6-53-27.3-4.7-2.6-11.2-6.3-14.5-8.1-8.2-4.4-17.7-10.1-19.1-11.3-.6-.5-3.1-1.9-5.5-3.1-5.9-3-26.6-15.6-41.1-24.9-23.5-15.3-26.4-17.2-34.3-22.7-4.4-3-8.8-6-9.9-6.7-1-.7-3.7-2.6-6-4.3-2.2-1.6-9.2-6.6-15.5-11-6.2-4.3-13.6-9.6-16.5-11.7-2.8-2-7.4-5.4-10.2-7.5-2.8-2-12.3-9.1-21-15.7-13.8-10.4-32.9-24.4-51.9-38-33.6-24.1-67.7-37.6-107-42.4-30.8-3.8-41.5-4.5-82.5-6.1-14.6-.6-32.8-1.5-40.5-2-7.7-.6-23.9-1.7-36-2.5-28-1.9-31.6-2.3-91.5-10.1-25.1-3.2-73.6-10.9-84.6-13.4-9.9-2.3-58.4-10.1-74.9-12.1-22.7-2.7-68.4-3.4-94-1.4Z"/>
  <path class="st0" d="M737.2,224.5c-2.8,1-5.9,2.2-7,2.8s-5.4,2.7-9.5,4.8c-7.4,3.8-10.8,6.1-9.9,6.9.8.8,55.7,2.8,69.2,2.4,12.9-.3,16.3-1,12.7-2.8-9.6-4.9-26.4-10.7-40-14-10.1-2.4-9.3-2.4-15.5-.1Z"/>
  <path class="st0" d="M641.7,270.8c-3,1.6-8.9,4.7-13,6.9-4.1,2.1-10.4,5.5-14,7.5-3.6,1.9-9.4,5.2-13,7.1-3.6,2-10.5,6.1-15.5,9.1-4.9,3-12.4,7.5-16.5,10-19.3,11.7-34.4,26.2-41.1,39.5-8.7,17.2-10.6,26.9-8.5,42.8,2.4,17.4,8.1,30.3,19.4,43.6,8,9.3,23,23.3,37.7,35,9.5,7.5,15.3,12,19,14.7,2.2,1.7,4.2,3.3,4.5,3.6.3.4,6.1,4.9,13,10.1,21.9,16.6,30.8,23.6,34,26.9.8.9,3.5,3.1,6,5s7.9,6.4,12,10,7.9,6.8,8.5,7.3c2.3,1.7,6.3,5.1,10.6,9,2.5,2.3,8.6,7.8,13.5,12.3s11.8,10.5,15.4,13.5c3.6,2.9,7,5.8,7.5,6.5,2.4,2.7,23.8,19.4,25,19.4s3.3,1.8,6.5,4c3.3,2.2,6.9,4.5,8.2,5,1.3.6,3,1.4,3.8,1.9,7.3,4.2,19.6,8.2,32.5,10.7,16.6,3.1,35,.9,72.5-8.7,10.7-2.8,21.3-5.4,23.5-5.9,54.4-11.8,92-15.7,141-14.8,39.4.8,50.4-1.4,50.5-10.2,0-6.4-10.2-22.5-19.6-30.8-2.7-2.4-5.6-4.9-6.4-5.6-11.8-10.6-49.6-27.8-74-33.6-34.7-8.4-79.1-9.3-126.5-2.5-28.2,4-29.2,4.1-40,1.6-22.2-5.1-37.9-16.4-65.9-47.6-13.5-15.1-14.9-16.6-31.7-34.4-15.6-16.6-20.3-21.1-33.4-32.7-13-11.5-18-15.6-21-17.1-1.6-.9-5.6-3.4-8.8-5.5-6-4.1-24.5-14.8-25.6-14.8-.3-.1-1.9-1.2-3.6-2.5-4.3-3.6-2.1-4.7,8-4.1,21.5,1.3,56.6,15.5,83,33.5,4.1,2.9,5.7,2.7,13.3-1.7,3.6-2,8-4.2,9.6-4.8l3-1-7.5-4c-20.4-11.1-44.9-29.3-58.4-43.6-15.6-16.5-21.6-25.7-27.8-42.8-2.8-7.7-3.1-9.5-3-19.8.1-6.1-.1-11.2-.5-11.1-.4,0-3.2,1.4-6.2,3.1Z"/>
  <path class="st0" d="M562.4,501.8c-3.8,5.1-9.3,16.5-11.9,24.8-1.9,6.3-2.3,9.7-2.3,21s.7,18.3,5.7,29c4.9,10.7,9.6,17,20.6,27.7,5.8,5.7,10.8,10.3,11.2,10.3s1.6.8,2.8,1.7c7.2,6.2,23.6,18.4,37.3,27.8,9,6.2,30.7,21.9,33.4,24.2.6.5,2.6,1.9,4.5,3.3,3,2.1,10.5,8.1,23,18.2,1.9,1.6,4,3.2,4.5,3.6.6.4,5.2,4.2,10.3,8.5,5,4.2,11.6,9.4,14.5,11.6,2.8,2.1,6.1,4.7,7.2,5.8,1.1,1,7,5.3,13,9.5,6.1,4.3,11.5,8.1,12,8.5,1.8,1.4,14.8,8.9,20.5,11.8,20,10.2,43.3,12.9,64.6,7.5,3.9-1,15-4.8,24.5-8.4,9.6-3.5,22.8-8.1,29.4-10.1s14.2-4.3,17-5.1c11.3-3.6,48.3-12.4,66.5-15.9,10.7-2,21.1-4.1,23-4.6,1.9-.4,10.3-1.8,18.5-2.9,21.7-3,40.5-6,44.5-7,1.9-.5,5.7-1.4,8.3-2.1,2.6-.6,6.6-2.5,8.7-4,3.7-2.7,4-3.3,4-7.5s-2-10.1-7.7-16.4c-4.7-5.3-19.1-14.8-25.8-17.1-2.2-.7-4.5-1.6-5-2.1-1.5-1-21.7-6.4-30.7-8.2-10.9-2.2-34.3-4.6-44.4-4.6-18.6.1-43,3.7-64.4,9.6-3,.9-7.1,1.9-9,2.4s-7.5,2.1-12.3,3.5c-10.5,3.1-23.8,6-36.2,8-4.9.9-11.2,2-13.8,2.5-15.2,3.1-47.9-1.5-66.2-9.5-14.1-6.1-23.9-11.6-34.5-19.4-20.1-14.7-27.5-20.9-56.7-48.1-28.1-26.2-48.3-44.1-66-58.7-2.1-1.7-11.6-9.7-21.1-17.7s-17.7-14.6-18.2-14.6-2,1.5-3.3,3.2Z"/>
</svg>