<?xml version="1.0" encoding="UTF-8"?>
<svg xmlns="http://www.w3.org/2000/svg" viewBox="0 0 600 600"
  preserveAspectRatio="xMidYMid meet">
  <defs>
    <style>
      .st0 { fill: #fff; }
    </style>
  </defs>
  <g transform="translate(0,600) scale(0.1,-0.1)" class="st0">
    <path d="M2544 5983 c-7 -10 -72 -88 -145 -174 -74 -86 -206 -241 -294 -345 -88 -103 -214 -251 -280 -328 -66 -78 -273 -321 -460 -541 -186 -220 -368 -434 -404 -475 -35 -41 -73 -86 -85 -100 -12 -14 -111 -131 -221 -260 -463 -543 -640 -753 -640 -760 0 -7 177 -217 640 -760 110 -129 209 -246 221 -260 12 -14 50 -59 85 -100 36 -41 218 -255 404 -475 187 -220 394 -463 460 -541 66 -77 192 -225 280 -329 88 -104 190 -223 226 -264 36 -42 102 -120 147 -174 l82 -97 0 970 0 970 1720 0 1720 0 0 1060 0 1060 -1720 0 -1720 0 -2 970 c-2 727 -6 966 -14 953z"/>
  </g>
</svg>