<?xml version="1.0" encoding="UTF-8"?>
<svg id="Layer_1" xmlns="http://www.w3.org/2000/svg" version="1.1" viewBox="0 0 2308.4 1558.3">
  <!-- Generator: Adobe Illustrator 30.0.0, SVG Export Plug-In . SVG Version: 2.1.1 Build 123)  -->
  <defs>
    <style>
      .st0 {
        fill: #fff;
      }
    </style>
  </defs>
  <path class="st0" d="M22.1,1.8C12.5,5.2,5.2,12.6,1.8,22.3-.1,27.7-.1,42.4,0,781l.3,753.3,3,5.9c3.3,6.5,9.8,12.8,16.5,16l4.5,2.1h784l5.6-2.6c7.2-3.4,13.4-9.6,16.8-16.8l2.6-5.6.3-79.5.3-79.5-4.8-3.7c-2.6-2-9.5-7.2-15.3-11.4-5.8-4.3-15.7-12.4-22-18-15.7-13.8-51.3-49.9-59.7-60.5-3.7-4.7-10.2-12.8-14.4-18-8.1-10.1-22.5-30.4-30-42.1-2.6-4-6.7-10.5-9.2-14.4-2.6-3.9-5-7.9-5.4-9-.4-1-1.7-3.4-2.9-5.1-1.2-1.8-4.7-8.3-7.8-14.5-3.2-6.2-6.3-12.4-7.1-13.8-3.7-6.7-10.5-21.3-10.5-22.3s-.9-3.1-2-5.2c-1.2-2.2-3.2-7.4-4.6-11.5-1.3-4.1-3.1-8.9-3.9-10.5-1.4-3-5.8-16.1-9.6-29-1.2-3.9-2.8-9-3.6-11.5-4.7-14.5-15.3-63-15.3-70.1s-.5-5-1-6.9c-7-23.5-7-135.7,0-159,.5-1.9,1-5.3,1-7.4,0-4.9,1.2-11.6,5.7-31.6,6-26.3,14.3-57,16.1-59.3.5-.7,1.9-5,3.2-9.7,1.2-4.7,2.8-9.6,3.6-11s2.5-6.1,4-10.4c1.4-4.3,3.1-8.8,3.9-10,.7-1.2,1.6-3.2,2-4.6.8-2.8,8.8-20.1,11-24,.8-1.4,2.2-4.1,3.1-6s2.2-4.2,2.9-5,2.3-3.9,3.4-6.8c1.2-3,3.2-6.8,4.5-8.5,1.3-1.8,4.2-6.6,6.5-10.7s5.5-9.5,7.1-12,3.4-5.5,3.9-6.7c.9-2,7.1-10.7,24.5-34.7,3.6-4.9,9.8-12.8,13.9-17.5,4-4.8,9-10.9,11-13.6,2-2.8,15.1-16.3,29-30,22.4-22.2,30.3-29.2,47.7-43,2.5-1.9,6.1-4.8,8-6.3s5.6-4.3,8.3-6.2l4.7-3.3v-60.9l-2.7,1.7c-1.6,1-6.4,4.4-10.9,7.5-4.4,3.2-9.2,6.3-10.5,7-3,1.6-20,14.2-25.5,19-2.2,1.9-6.4,5.3-9.3,7.5-9.1,6.9-18.3,14.8-25.6,22-3.9,3.9-12.5,12.2-19,18.7-13.7,13.2-25.1,25.4-29.3,31.3-1.6,2.2-3.9,4.9-5.2,6-1.2,1.1-4.1,4.4-6.3,7.4-2.2,2.9-6,7.7-8.6,10.6-2.5,2.9-8.5,10.8-13.3,17.6q-28.7,40.6-50.8,54.5c-1.9,1.2-9.5,3.6-16.8,5.4-11.9,2.9-14.7,3.2-27.5,3.2-12.9-.1-15.4-.4-26.7-3.4-13.3-3.6-13.3-3.7-29.4-16.3-7.2-5.7-10.5-9.2-17.3-18.8-9.4-13.2-9.6-13.6-13-26.2-1.9-7.1-2.6-12.4-3-25.2-.5-14.6-.3-17.1,1.7-25.5,2.5-9.9,5.2-16.3,10.2-24.3,7.3-11.5,15-22.7,19-27.8,2.4-3,8.4-11,13.5-17.8,14.4-19.4,17.2-22.9,27.3-34.4,5.2-5.9,10.6-12.1,12-13.8,5.2-6.7,28.7-31.6,36.9-39.1,4.7-4.4,14.7-13.6,22.1-20.6,15.2-14.3,21.4-19.7,29-25.5,2.9-2.2,8.5-6.7,12.4-10,3.9-3.4,10.3-8.3,14.1-11,3.9-2.7,9.4-6.9,12.3-9.2,2.9-2.4,6.6-5,8.2-5.8s10.6-6.9,20-13.5c9.5-6.6,19.4-13.3,22.1-14.8,20-10.9,27.6-15.2,35.9-20.2,3.6-2.2,9.3-5.3,12.7-7,3.4-1.6,6.4-3.4,6.8-3.9.3-.6,3.6-2,7.2-3.1,3.7-1.1,7.4-2.7,8.3-3.4.8-.7,5.5-3.3,10.3-5.6l8.8-4.2-.3-81.2-.3-81.1-2.3-4.9c-3.7-8-8.5-13.2-16-16.8l-6.7-3.3L417.9,0C36.5-.1,27.3-.1,22.1,1.8Z"/>
  <path class="st0" d="M1497.7,1.7c-10.1,4-15.6,9.1-20.1,18.8l-2.2,4.8-.3,77.8-.3,77.7,2.8,1.1c1.5.6,5.1,2.2,8,3.5,2.8,1.3,5.6,2.4,6.1,2.4s2,.9,3.4,2c1.4,1,4.9,2.9,7.9,4,3,1.2,6.1,2.8,7,3.6s4.3,2.4,7.5,3.5,6.6,2.7,7.4,3.4,3.9,2.3,6.8,3.4c2.9,1.2,6.5,2.9,8,4,5.8,3.9,15.9,10,19.2,11.5,1.9.9,6.4,3.4,10,5.6,3.6,2.1,8.6,5,11.2,6.4s10.1,6.4,16.7,11c6.6,4.7,13,9,14.2,9.7,3,1.5,28.3,19.4,33.2,23.3,2.1,1.7,7.3,6,11.6,9.6s10.2,8.3,13.1,10.5,7.9,6.2,11.1,8.9c5.2,4.2,6.2,4.6,7.7,3.5,3.9-3,11.3-9.7,20.7-18.9,15.1-14.6,22-19.1,34.2-21.9l10-2.4,9.4,2.3c15.5,3.7,26.3,13.1,29.6,25.8,3,11.3,5.3,23.7,5.3,28s.6,7,1.4,10.1c.7,3.1,1.4,10.7,1.5,16.9,0,6.3.5,13,1,15,.6,2.1,1.2,9.8,1.5,17.2.5,15.1,2.1,30.3,3.3,32.2.4.7,1.1,7.8,1.5,15.8.9,18.5,2.4,36.1,3.2,38,.3.8,1.1,7.6,1.7,15,1.1,13.6,1.7,20,3.9,41,1.1,10.8,1,12.1-1.1,21.4-2,8.3-3,10.8-6.9,15.9-6.7,8.9-13.4,13.1-25.3,15.8l-9.9,2.3-11.1-2.7c-6.8-1.7-14-2.7-18.2-2.7s-11.1-1.1-20.2-3.5c-7.3-1.9-15.3-3.5-17.8-3.5s-7.4-.6-10.8-1.4c-7.1-1.6-14.2-3-24.2-4.6-3.8-.6-9.5-1.5-12.5-2.1s-8.1-1.4-11.2-2c-3.2-.5-8.6-1.4-12-1.9-3.5-.6-9-1.5-12.3-2s-10.3-1.8-15.5-2.9c-5.2-1-12.3-2.2-15.7-2.4l-6.2-.5,2.1,2.9c1.2,1.5,2.7,3,3.3,3.3,1.2.4,3.9,4,25.1,32.6,9,12.1,15.7,21.7,19.2,27.5.6,1.1,2.8,4.7,4.8,8,1.9,3.3,5.3,8.7,7.5,12,2.1,3.3,6.8,11.8,10.5,19,3.6,7.1,7.2,14.1,7.9,15.5,3.1,5.4,10.5,21.9,10.5,23.2s.9,2.7,2,4.5c1,1.8,3.1,6.7,4.5,11s3.2,8.9,3.9,10.3c.8,1.4,2.1,5,3,8,1.9,7,7.3,23.4,9.1,28,1.8,4.4,11.8,45.2,13.3,54,.6,3.6,1.6,9.6,2.3,13.5.6,3.8,1.6,8.6,2.1,10.5,1,3.7,2.2,15.6,4,39,2.2,29.4,1.3,78.4-2.1,115-.5,5.8-1.4,12.1-1.9,14s-1.4,6.5-2.1,10.2c-.6,3.8-1.6,9.8-2.3,13.5-2.4,14.6-12,50.8-18.3,69.8-3.7,11-7,20.4-7.4,21-.4.5-2,4.6-3.4,9s-3.5,9.8-4.7,12c-1.1,2.1-2,4.5-2,5.2,0,1.1-7.2,16.3-10.6,22.3-.7,1.4-2.3,4.5-3.4,7s-2.6,5.6-3.4,7-2.9,5.2-4.5,8.5c-1.7,3.3-5.2,9.4-7.8,13.6-2.7,4.1-6.8,10.9-9.3,15-8.6,14.3-39,56-47.4,64.9-2.3,2.5-5.5,6.2-7,8.3-3.9,5.3-43.2,44.3-55.1,54.6-11.1,9.7-13.3,11.3-26,20.6-4.9,3.6-12.8,9.4-17.5,12.9l-8.5,6.3v150.8l2.3,4.9c3.7,8,8.5,13.2,16,16.8l6.7,3.3h784l4.5-2.1c6.8-3.2,13.5-9.8,16.7-16.2l2.8-5.7V24.3l-2.2-4.7c-2.8-6.1-10.4-13.7-16.8-16.8l-5-2.5-391-.2c-377.2-.2-391.2-.1-395.7,1.6Z"/>
  <path class="st0" d="M1136.4,161.5c-20.4,1-44.4,2.5-51.5,3.4-29,3.6-51.2,6.9-64,9.6-4.1.8-8.6,1.8-10,2-14.6,2.7-43.5,9.8-64,15.9-16.4,4.9-20.6,6.3-33.5,10.8-18.9,6.8-31.9,11.8-32.9,12.7-.6.5-1.6.9-2.3.9s-3.2.9-5.6,1.9c-2.3,1.1-10,4.5-17.2,7.6-84,36.6-166.8,94.5-233.7,163.3-40.3,41.6-88.5,104.3-93.8,122.1-2.2,7.6-2.7,20-.9,26.6,6.7,25,33.3,41.9,56.9,36.2,16.3-3.9,23.7-9.8,37.5-29.9,23-33.3,45-60.1,73.5-89.2,36.6-37.4,74.8-68.3,118.5-95.8,43-27.1,94-51.2,141.5-66.8,25.6-8.4,29.5-9.5,52-14.9,25.3-6.1,40.8-9.1,64.5-12.6,52.1-7.6,117.7-8.2,170-1.5,4.4.6,11.6,1.5,16,2,7.6.9,13.8,2,32,5.6,17.5,3.4,22.1,4.5,42.5,9.9,15.3,4.1,53.8,16.6,61.9,20.1,2.9,1.3,5.7,2.4,6.2,2.4,2.3,0,43.1,18.2,56.9,25.4,5.2,2.7,10.9,5.6,12.5,6.4,20.7,10.5,65.1,38.7,84.5,53.6,25.1,19.3,57.4,46.9,58.7,50.2.3.8-2.4,4.1-6.9,8.2-7.7,7.2-50.6,46.9-52.2,48.3-1.9,1.7,1.6,3.6,7.7,4.3,3.4.3,11.8,1.6,18.7,2.7s15,2.4,18.1,2.8c3.1.5,7.1,1.4,9,2s5.2,1.3,7.4,1.5,8.3,1.1,13.5,1.9c5.2.9,10.9,1.8,12.5,2,1.7.3,9.3,1.7,17,3.2,7.7,1.4,16.7,3,20,3.5s8.5,1.3,11.5,1.9,11.3,2,18.4,3.1,13.3,2.3,13.8,2.6c.4.3,3.8.9,7.6,1.4,9.6,1.3,26,3.9,31.2,5,2.5.5,6.2,1.2,8.3,1.6l3.7.6v-4.8c-.1-5.5-2.1-28.2-4.9-55.4-.5-5.8-1.7-18.8-2.6-29s-2-21.2-2.5-24.5c-.4-3.3-.9-7.4-.9-9-.1-1.7-.6-7.7-1.1-13.5-.6-5.8-1.4-16.1-2-23-.5-6.9-1.2-13.6-1.5-15-.4-2.3-3.5-37.4-3.8-44.5-.3-5.3,0-5.5-22.2,15-6.5,6-18.8,17.4-27.1,25.2-8.4,7.9-16,14.3-16.8,14.3s-8.1-5.9-15.9-13.1c-12.7-11.7-20.2-18.2-39.6-33.9-26.3-21.3-71.5-51.7-99.1-66.7-3-1.6-9.7-5.3-14.8-8.2-10.1-5.6-37.2-18.9-49.2-24.1-8.9-3.8-15.7-6.8-18.5-8-1.1-.4-3.6-1.5-5.5-2.3s-5.5-2.2-8-3-6.5-2.4-9-3.5c-6.4-2.7-31.9-11.4-49.5-16.7-74.6-22.7-164.9-34.2-241-30.8Z"/>
  <path class="st0" d="M1123.9,399.8c-17.9,1.3-40.2,4.1-58.5,7.4-24.3,4.4-68.7,16.8-88,24.6-1.6.7-3.9,1.6-5,2-5.7,2.2-13.6,5.5-18,7.5-2.7,1.2-7.9,3.5-11.5,5.1-9.2,4-25.1,12.2-41.9,21.6-5.8,3.3-30.3,18.9-37.1,23.7-42,29.5-76.7,62.3-109.5,103.1-10.2,12.8-11.7,14.8-24.4,33.5-23,34-42.1,71.6-57.2,112.6-2.1,5.9-3.9,11.2-3.9,11.8s-.4,1.9-.9,2.9c-2.5,4.5-11.7,39.1-15.4,58.2-3.6,18.1-4.1,21.7-7.7,49.7-1.7,13.1-3,50.5-2.4,68.3,1.6,48.5,9.1,94.3,22.7,138.5s12.9,37.7,17.3,47.3c1.3,2.9,2.4,5.4,2.4,5.7,0,1.5,19,40.1,21.9,44.5.9,1.4,3,4.9,4.5,7.9,6.1,11.5,26.9,43,35.8,54.1,1.5,1.9,5.8,7.3,9.5,12,32.6,41.3,80.5,84.1,127.4,113.7,8.7,5.5,12.6,7.8,22.2,13.2,2,1.1,5.4,3.1,7.5,4.3,6.4,3.6,37.6,18.8,38.7,18.8s2.8,1.1,5.7,2.4c14,6.2,44.4,17.1,59.7,21.2,11.4,3.1,23.8,6.2,31.6,7.8,4.4,1,9.8,2.1,12,2.6,15.9,3.5,50.8,7.6,73.3,8.6,7.8.4,14.2,1,14.2,1.3s5.2.6,11.5.6,11.5-.3,11.5-.6,6.4-.9,14.3-1.3c22.2-1,58.3-5.2,73.2-8.5,2.2-.5,6.7-1.5,10-2.2,20.2-4.1,58.4-15.3,76.5-22.6,3.6-1.4,7.4-2.9,8.5-3.3s4.2-1.8,6.9-3,7.2-3,10-4.1c2.8-1.2,6.7-2.9,8.6-3.9s7.6-3.8,12.5-6.3c10.7-5.2,21.6-11.1,26.7-14.4,2.1-1.2,4-2.3,4.2-2.3,1.6,0,43.4-27.9,48.9-32.6,1.2-1.1,6.3-5,11.2-8.9,30.1-23.4,65.7-59.9,90.7-93,12.2-16.2,35.8-51.9,35.8-54.1s.8-1.8,1.9-3.2c4.6-6.7,22.7-44.1,29.9-62.2,12.6-31.3,25-74.9,29.2-102.8,6.8-43.9,8.7-75.1,7-114.5-.6-13.3-1.2-24.9-1.5-25.7-.2-.8-.9-5.8-1.5-11-2.5-22.5-5-36.8-10.6-61-3.3-13.9-12.9-45.9-16.2-54-.6-1.4-2.5-6.3-4.2-11-15.9-42.7-42.3-89.5-73.5-130.2-39.4-51.3-97.3-101.7-152.5-132.6-25.3-14.2-47.3-24.7-69.5-33.2-1.1-.4-3.8-1.5-6-2.3-5.4-2.2-21.3-7.6-25-8.7-1.6-.4-7.5-2.1-13-3.8-27.2-8.1-50.9-12.7-94.5-18.2-11-1.4-70.6-2.1-86-1ZM1185.2,497.3c11.7.8,22.1,2.1,24,2.8,3.3,1.4,13.3,12,22.3,23.7,16.9,21.8,32.8,52.7,48.4,94,1.8,4.7,3.6,9.6,4,11,.5,1.4,2.5,7.7,4.5,14,3.3,10.3,5.6,18.5,9.9,34.5,3.2,11.9,9.3,39.6,12,54,3,16.5,7.6,46.4,8.2,53.5.2,3,.9,8.2,1.4,11.5s1.6,14.3,2.5,24.5c.8,10.2,2,23.2,2.4,29,1.2,13.7,1.2,121.4,0,135-3,35.2-4,46.3-4.9,52.5-.5,3.8-1.4,11.3-2,16.5s-1.8,13.5-2.6,18.5c-.8,4.9-1.9,11.9-2.5,15.5-2,13.1-6.6,35.6-11.5,56.5-3.3,13.9-4.9,20-10.5,39-2.5,8.5-8.1,25.4-10.4,31.5-.9,2.5-2.6,7-3.7,10-1.2,3-3.2,7.9-4.5,10.8-1.2,2.9-2.3,5.4-2.3,5.7,0,1.3-14.1,30.3-18.8,38.6-3.4,6.1-12.3,20.2-16,25.4-4.7,6.5-17,21.1-21.4,25.2-4.3,4.1-7.9,4.8-34.8,6.3-17.1,1-24.2.9-42.5-.3-12.1-.9-23.2-2-24.6-2.6-3.1-1.1-15.6-14.6-23.8-25.7-10.9-14.5-28-45.2-36-64.4-1.3-3-2.9-6.9-3.6-8.5-2.1-5-12.2-32.5-15-41-2.3-6.8-9.3-31.7-11.1-39-.8-3.3-2.4-9.5-3.5-13.8-4.9-19.7-12.1-59.7-15.4-85.2-.9-6.6-2-15.2-2.5-19-.5-3.9-1.4-12.6-2-19.5-.5-6.9-1.5-18.6-2.2-26-.9-9.2-1.3-33.1-1.3-75.5s.2-64.4,2.3-87.5c1.2-14,2.7-28.7,3.2-32.5.5-3.9,1.4-10.8,2-15.5s1.8-12.8,2.6-18,1.9-12.4,2.5-16c.5-3.6,1.4-8.8,2-11.5.5-2.8,2.3-11.8,3.9-20,1.6-8.3,4.7-22,6.9-30.5,11.9-46.8,22.9-78.2,39.6-112.5,8.1-16.7,23.9-43.5,27.4-46.5.3-.3,2.2-2.5,4-5,8.5-11.1,17.4-20,21-21.1,3.7-1.1,33.3-3.6,45.1-3.8,3.6,0,15.8.6,27.3,1.4ZM1016.2,529.5c-15,26.7-31.5,67.8-44.2,110-2.3,7.3-10.5,39.4-12,46.8-7.1,33.7-6.1,28.5-10.5,54.5-2.8,16.3-3.4,20.5-6.5,47-2.2,19.2-4,37.4-4.6,48-4.4,77-2.6,154.8,5,214,.9,6.9,2,15.9,2.5,20s2.1,14.5,3.6,23,3,17.5,3.4,20c1.3,7.5,2.8,15.1,4.5,22.5.8,3.8,1.9,9,2.4,11.5,1.1,5.1,6.2,25.7,8.5,34,5.9,21.6,10.1,35.4,11.7,38.2.5,1,.9,2.4.9,3.2s.9,3.5,2,6.2c1,2.7,3.6,9.4,5.6,14.9s4.7,12.4,6,15.3,2.4,5.5,2.4,5.7c0,1.4,16.1,34.9,19.9,41.3,3.7,6.3,3.9,7.6.9,6.7-10.6-3.2-45.6-18.9-59.3-26.7-2.2-1.3-6.7-3.9-10-5.7-9.3-5.3-28.8-18.5-41.1-27.7-82.4-62.1-139.5-153.2-159.4-254.4-1.7-8.8-2.4-13.4-5-32.3-2.2-16.1-3.1-47.5-2-69.5s1.5-24.4,2-27.7,1.4-9.6,2-14c4.6-33.4,17.6-78.4,31.2-107.3,2.2-4.8,4.8-10.6,5.8-12.8,1.6-3.7,9.5-18.5,15.8-29.5,16.2-28.6,43.3-63.1,69.8-88.9,24.7-24,56.5-48.1,83.4-63.2,2.5-1.4,6.3-3.5,8.5-4.8,10.6-6,26.1-13.3,43.6-20.6,13-5.4,16.3-6.4,16.7-5.3.2.4-1.4,3.8-3.5,7.6ZM1314.4,525.7c4.4,1.8,9.4,3.8,11,4.6,1.7.7,6.2,2.7,10,4.5,11.7,5.2,25.8,12.6,37.6,19.7,6.2,3.8,12.4,7.5,13.8,8.3,9.8,5.7,38.8,27.5,51.1,38.4,5.8,5.2,33.5,32.9,38.1,38.1,31.7,36.2,57.9,79.1,75.2,123,7.7,19.6,15.4,43.9,18.7,59.5,2.5,11.5,5,24.5,5.9,31.5.7,4.4,1.6,11,2.1,14.6s1.5,16.3,2.1,28.1c1.1,21.8.1,54.5-2.1,69.8-.5,3.6-1.4,10.1-2,14.5-1.2,8.3-3.3,20-5,27-13.6,58.4-33.8,104.1-66.8,151.4-6.5,9.4-23.3,30.7-28.9,36.6-1.5,1.6-6,6.6-9.8,10.9-7.6,8.5-28.7,27.8-43.7,39.8-31.6,25.3-69.3,47.1-107.3,62.1-9.8,3.8-13.5,5-13.5,4.4s4-8.2,8.8-17.8c9.8-19.5,13.3-27.2,19.9-43.9,10.3-26.4,20.6-58.7,26.8-84.5,1.4-6.1,3-12.6,3.5-14.5s1.6-6.9,2.5-11,2-9.3,2.5-11.5,1.3-6.7,1.9-10,1.7-9.4,2.5-13.5c2.7-13.8,5.6-34.2,8.5-59.5,6.1-53.3,7.4-79.1,6.8-139.5-.7-65.8-3.5-102.4-12.2-160.5-4.8-32.3-15.5-79.9-24.6-110-1.1-3.9-2.4-8.4-2.9-10-3-10.4-14.5-42.1-18.6-51.3-1.3-2.9-2.4-5.5-2.4-5.7s-1.2-3-2.6-6.2c-7.3-16-11.9-25.3-16-32.4-2.4-4.3-4.4-8.3-4.4-8.8,0-1.2,2.9-.4,13.5,3.8Z"/>
  <path class="st0" d="M830.2,736.6c-1.8,2.7-3.3,5.6-3.3,6.3s-1.6,3.9-3.5,6.9-3.5,5.9-3.5,6.4-2.2,5.6-5,11.2c-5,10.3-8.9,20.6-14,36.9-1.6,4.9-3.3,10.3-3.9,12-1.5,4.3-5.8,23.8-7.1,32-.6,3.8-1.6,9.5-2.1,12.5-2.6,13.4-3.3,25.7-3.3,57s.5,40.3,3.3,55c.6,3,1.5,8.9,2.2,13,1.4,9.6,5.6,28.5,7.4,33,.8,1.9,2.3,6.9,3.5,11,1.1,4.1,2.5,8.2,3,9.1s2,5.2,3.5,9.5c1.4,4.4,4.8,12.4,7.4,17.9,2.7,5.5,5.2,11.1,5.6,12.4.4,1.2,1.8,3.9,3.1,5.8s2.6,4.4,3,5.6c.3,1.2,2.1,4.4,3.8,7.1l3.1,4.9.3-92.7c.1-50.9.1-134.3,0-185.2l-.3-92.7-3.2,5.1Z"/>
  <path class="st0" d="M1474.9,916.5v206.8c.1,0,2.5-3,2.5-3,1.4-1.7,2.5-3.5,2.5-4.1s1.3-2.9,2.8-5,3.8-5.9,5.1-8.4,3.6-6.8,5-9.5c1.4-2.8,3.4-6.1,4.3-7.5,1-1.4,2.3-4.1,2.9-6s3.3-8,6-13.5,6-13.5,7.4-17.9c1.5-4.3,3-8.6,3.5-9.5,3.3-6.3,11.8-38.6,13.9-53.1.7-4.1,1.6-10,2.2-13,2.6-13.3,3.3-25.5,3.3-56s-.7-42.7-3.3-56c-.6-3-1.6-8.9-2.2-13-1.4-9.2-5.7-28.6-7.1-32-.5-1.4-2.3-6.6-3.8-11.5-5.2-16.7-9-27-13.9-37-2.7-5.5-5.4-11.4-6.1-13.2-.6-1.7-2.3-4.6-3.6-6.4s-2.4-4-2.4-4.8c-.1-.9-2.3-5.2-5-9.6s-6.8-11.5-9-15.8c-2.2-4.2-4.2-7.7-4.5-7.7s-.5,93-.5,206.7Z"/>
</svg>