<?xml version="1.0" encoding="UTF-8"?>
<svg id="Layer_1" xmlns="http://www.w3.org/2000/svg" version="1.1" viewBox="0 0 569.3 877.5">
  <!-- Generator: Adobe Illustrator 29.4.0, SVG Export Plug-In . SVG Version: 2.1.0 Build 152)  -->
  <defs>
    <style>
      .st0 {
        fill: none;
      }

      .st1 {
        fill: #fff;
      }
    </style>
  </defs>
  <path class="st1" d="M422.4,593c25-21,46.3-46.3,66.5-72-2.9,32.8-18.9,60.4-42.5,82.5-42,39.4-131,96.7-145.1,152.9s-5,37.4-.4,55.6c2.8,11.1,12.4,26.8,13.4,36.6,1.6,14.3-20.1,21.4-30.9,23.9-45,10.6-123.1,7.2-146.9-40.2-12.5-24.9-12.6-56.2-18.6-83.4-13.4-60.6-47.9-103.4-55.4-166.6-5.9-49.2-4.2-86.4-25.9-133.1s-28.2-43.6-33.5-67.5c-5.2-23.6,2-49.1,1.4-73.4S-1.3,261.1.3,237.5c.7-10.4,1.6-21,15.1-17,11.5,3.4,9.8,21.3,11,30,5.6,42.4,18.1,86.2,38,124,.2,1.8,0,1.5-1.5,1.5-4.8,0-9.4,0-14.2-.8s-1.2,0-1.3,1.8c13.7,2.8,27.1,13.9,36.5,24,23.5,25.2,36.9,62.6,61.5,84.5,27,24.1,70,45.4,49.2,91.2-13.4,29.3-28.4,45.5-31.1,80.9s-.7,2.7,1.9,2.4c.7-15,8.7-30.6,16.2-43.3,33.3-56.2,93.9-89.9,150.4-118.6,29.9-15.2,56.5-24.6,82.4-47.6,28.4-25.3,55.2-69.2,99-61.5-7-7.7-20.2-8.7-30-7.5,5.1-18.5,16.4-34.3,22.7-52.3,9.1-25.5,13.6-60.6,15.3-87.7.8-13.3-1.3-33.3,2.2-45.8,2.7-9.3,10.8-13.1,15.9-3.5,7,12.9,9.2,37.8,13.3,52.7,6.8,24.5,20.5,40.1,15.2,67.2-2.7,14-8.7,27.7-10.6,42.4-4,30.4,4.8,49.7-14.7,77.3-23.2,32.8-55.5,63-77.8,97.2l-42.6,63.9Z"/>
  <path class="st1" d="M509.4,235.3c0,129.9-105.3,235.3-235.3,235.3S38.8,365.2,38.8,235.3,144.1,0,274.1,0s235.3,105.3,235.3,235.3ZM488.5,233.2c0-118.4-96-214.4-214.4-214.4S59.6,114.8,59.6,233.2s96,214.4,214.4,214.4,214.4-96,214.4-214.4Z"/>
  <path class="st0" d="M488.5,233.2c0,118.4-96,214.4-214.4,214.4S59.6,351.7,59.6,233.2,155.6,18.8,274.1,18.8s214.4,96,214.4,214.4ZM443.4,237c-30.6-2.5-63.2-4.2-93.2-11.3-46.5-11-55.6-24.7-64.3-70.7-6.5-34.4-8.6-70.2-11-105-2,0-1.3,14.5-1.5,16.5-2.4,29.9-5.1,62.2-10.3,91.7-8.2,46.6-20,61.3-67.5,69.5-31.7,5.5-65.4,5.9-97.2,10.8,24.6,3.3,49.7,4.3,74.4,7.6,59.6,8,80.3,22.8,92.2,82.8,6.1,31,6.4,62.8,10,94,2.9-34.2,4.6-69.7,11.8-103.2,13.3-62,39.6-65.6,96.4-74.6l60.3-8.2ZM218.4,197l8.9-5.7c.9-3.7-16-22.7-19.9-25.8l-33-26.5c15.5,18,36.8,34.6,44,58ZM359.4,149l-20.3,13.2c-10.1,6.9-17.2,17.2-23.5,27.5l5.4,6.3c9.4-18.3,24.6-32.2,38.5-47ZM182.4,336c4.8-1.9,10.3-5.8,14.5-9,11.4-8.7,22.8-19.7,29.5-32.5l-4-7.5-19,28.5-21,20.5ZM361.4,330c-15.4-11.5-29.2-24.7-41-40-2.3,5.3,2.6,11.4,6,15.5,8.6,10.6,22.6,19,35,24.5Z"/>
  <path class="st1" d="M443.4,237l-60.3,8.2c-56.8,9-83,12.7-96.4,74.6-7.2,33.5-8.9,69-11.8,103.2-3.6-31.3-3.9-63.1-10-94-11.8-60.1-32.5-74.8-92.2-82.8-24.6-3.3-49.7-4.3-74.4-7.6,31.8-4.9,65.6-5.3,97.2-10.8,47.5-8.3,59.3-22.9,67.5-69.5,5.2-29.5,7.9-61.8,10.3-91.7s-.5-16.5,1.5-16.5c2.4,34.8,4.5,70.7,11,105,8.7,46,17.8,59.7,64.3,70.7s62.6,8.8,93.2,11.3ZM335.4,238c-36.9.2-56.2-34.6-60.5-67-4,28.2-18,57.8-47.9,65.1s-16.7,2.4-16.6,3.4c40.5.1,60.8,31.6,63,69,0,1.3-.9,4.2,1.5,3.5s1.3-12.6,1.8-15.2c6.3-32.5,24.9-49.3,56.1-56.9s2.4-.4,2.6-1.9Z"/>
  <path class="st1" d="M218.4,197c-7.2-23.4-28.5-40-44-58l33,26.5c3.9,3.1,20.8,22.1,19.9,25.8l-8.9,5.7Z"/>
  <path class="st1" d="M359.4,149c-13.9,14.8-29.1,28.7-38.5,47l-5.4-6.3c6.3-10.3,13.5-20.6,23.5-27.5l20.3-13.2Z"/>
  <path class="st1" d="M182.4,336l21-20.5,19-28.5,4,7.5c-6.7,12.8-18.1,23.7-29.5,32.5-4.2,3.2-9.7,7.1-14.5,9Z"/>
  <path class="st1" d="M361.4,330c-12.4-5.5-26.3-13.9-35-24.5s-8.3-10.2-6-15.5c11.8,15.2,25.5,28.5,41,40Z"/>
  <path class="st0" d="M335.4,238c-.2,1.5-1.4,1.6-2.6,1.9-31.3,7.6-49.8,24.4-56.1,56.9-.5,2.6-1.1,15-1.8,15.2-2.3.7-1.4-2.2-1.5-3.5-2.2-37.4-22.5-68.9-63-69,0-.9,14.4-2.8,16.6-3.4,29.9-7.4,43.9-36.9,47.9-65.1,4.3,32.5,23.6,67.2,60.5,67Z"/>
</svg>