<?xml version="1.0" encoding="UTF-8"?>
<svg id="Layer_1" xmlns="http://www.w3.org/2000/svg" version="1.1" viewBox="0 0 713.9 814.2">
  <!-- Generator: Adobe Illustrator 29.4.0, SVG Export Plug-In . SVG Version: 2.1.0 Build 152)  -->
  <defs>
    <style>
      .st0 {
        fill: #fff;
      }
    </style>
  </defs>
  <path class="st0" d="M599,548l2-.5c.2-1.2-.4-2.2-.8-3.2-6.2-16-25.6-41.1-34.8-58.2-12.3-23.1-22.4-47.3-33.5-71,30.4,8.3,57.8,21.8,69.7,52.7,9,23.4,13.3,48.6,26.1,70.9,2.4,4.2,5.9,12.8,11.5,11.2l2.6-3.1c-8.1-17-17.7-34.1-24.3-51.7s-6.4-15.5-5.5-24c3.1-3.1,19.2,13.2,21.5,16,12.8,15,25.4,45.5,31.5,64.5,9.5,29.6-2.4,65.5-5.9,96.2-6.6,58.2,6.2,101.7,46.5,144.3,3,3.2,12.3,7.4,6.4,12.6s-37.7,9.1-45.4,9.6c-13.7.8-57.1-.7-67.9-8.2-4-2.8-18.7-27.5-23.3-33.7-36.8-50.6-88.8-79.2-119.6-134.4-30.9-55.6-26.8-113.1-74.3-162.7-4.2-4.3-21.4-14.7-12.5-20.4,7.9-5.1,27.8.9,36.2,4.7,51.8,24.1,53.5,100.7,89.2,135.8,14,13.7,18.2,2.8,21.2-11.8,10.3-48.8-10.1-108.5-33.2-151.2-19.5-36.1-52-64-69.4-100.6s-12.9-31.4-8-45.2l5.4.8c33.7,51.2,87,87,116.9,141,16.3,29.3,23.2,61.4,44.5,88.5,8.6,10.9,20.5,19.2,27,31.5Z"/>
  <path class="st0" d="M559,0v235h-28V28H30.5c-.3,0-.8-1.2-1.5-.6l-1,3v407.1s1,20.5,1,20.5h304l1,29H0V0h559Z"/>
  <path class="st0" d="M292.8,375.8c-2.2,2.8-14-3.8-16.7-5.3-8.6-4.9-18.6-12.7-24.5-20.5-11.7-15.5-32.1-43.5-39.4-60.6s-9.6-30.6-15.2-45.3c-1.5.5-1.8,5-2,6.5-1.3,10.3-4.4,33.2-.9,41.8s9.8,16.9,13.3,25.7c8.1,19.8,9.1,41.5,2.4,61.8-1.6,1-26.1-.5-30.4-.9-19.9-1.6-43.2-4.1-62.9-7.1-7.4-1.1-21.5-3.4-28.1-5.9s-3.1-1.1-3.4-2.6,10.6-16.5,12.2-19.5c14.2-26,17.5-52.8,24.1-80.9s14-26.4,26.4-45.6,14.2-36.6,24.8-50.2,32-28.9,38.4-30.6,5-1.1,7,0c3.9,2.2,8.5,31.2,9.7,37.3,5.6,30,8.2,76,23.9,101.1,2.8,4.5,6.5,8.3,9.2,12.8,12,20.3,8.7,42.7,22.6,63.4s14.4,13.3,9.4,24.6Z"/>
  <path class="st0" d="M399,334c-5.5-2.7-10.8-6-15-10.5-4.3-4.6-6-10-10-14.5-3.9,12.4-10.8,19.3-22.7,23.8s-15.8,2.7-21.2,7.7c0,2,13,3.4,15.4,3.5,19.5,1.2,39.1-1.7,58.6-.6,8.7,15.4,18.7,30,30,43.5-13.8-1.6-36.3-4.5-37.8,14.8-1,12.7,8.9,21,18.5,27l30.3,13.2c-15.5-.9-32.2,1.2-47.5,0s-13.1-3.1-18.9-3.1-11.7,2.6-17,3.1c-44.6,3.5-93.9-2.7-139,0-20.5-7.6-43.3-11.3-63.7-18.3s-8.9-2.2-5.9-6.3c6.1-8,43.4-7,53.6-7.4,25.2-1.1,50.7-2.2,75.9-3.1s84.5-1,87.5-5c-1-2.1-3-3.5-5-4.5-8.7-4.3-22.4-5.9-30.7-10.3s-30.2-27.6-36.3-34.7-19.5-26.1-19-34l49-2c2.5-1.5,19-46.1,22.1-52.9s13.2-29.9,23.7-19,18.3,34,18.1,38.7-1.9,6.2-2,10.1c-.4,13.4,4.8,28,9,40.5Z"/>
  <polygon class="st0" points="513 317 513 383 452 317 513 317"/>
  <path class="st0" d="M48,318c1.1-1.8,25.2-.8,29.5-1s4.6-.9,6.9-1.1,3.5-.8,3.5,1.5c0,3.4-2.5,10-3.9,13.2s-12,21.1-13.4,22.1-3.1.3-4.4,1c-3.5,2-12.6,9.1-15.2,9.8s-3.1,0-3.1-1.1v-44.5Z"/>
  <path class="st0" d="M475,437c-2.2,1.8-47.3-16.8-52.7-19.8s-14.6-8.9-12.4-16.5c3.3-5,28.4,1,34.1,2.8,19.1,6.1,24.8,14.9,31,33.5Z"/>
  <polygon class="st0" points="559 264 559 293 531 292 531 265 559 264"/>
  <path class="st0" d="M559,322v27c-9.3-1.4-18.6-1-28-1v-26h28Z"/>
  <path class="st0" d="M467.8,459.2c2.8-.1,21.4,1.7,22.8,2.7,2.2,2.1,4.8,18,4,19.1-9.5,4.5-40-4.9-35.4-18.4,1.3-2.3,6.2-3.3,8.7-3.4Z"/>
</svg>