<?xml version="1.0" encoding="UTF-8"?>
<svg id="Layer_1" xmlns="http://www.w3.org/2000/svg" version="1.1" viewBox="0 0 714.5 814.1">
  <!-- Generator: Adobe Illustrator 30.0.0, SVG Export Plug-In . SVG Version: 2.1.1 Build 123)  -->
  <defs>
    <style>
      .st0 {
        fill: #fff;
      }
    </style>
  </defs>
  <path class="st0" d="M0,243.5v243.5h333.5v-29H29.5v-8.3c0-4.5-.2-101.2-.5-215l-.5-206.7h503v207h28V0H0v243.5Z"/>
  <path class="st0" d="M228,44.6c-6.1.9-18.1,2.4-23,2.9-7.8.9-22.5,5.1-34.8,9.9-11.9,4.7-28.9,12.3-29.7,13.4-.3.4-5.7,4.2-12,8.4-22.2,14.8-41.9,35.5-52,54.3-1.8,3.3-4.3,7.8-5.5,10-3.4,5.9-12.6,28.2-14.1,34-.7,2.7-2.6,10.2-4.2,16.5-4.9,19-6.5,33.4-5.9,53.3.4,12.9,1.2,19.9,3,28.2,2.9,13.2,7.7,29.4,10.9,36.7,4.8,11.2,16.8,32.5,24.3,43.1,12.1,17.2,34.5,38.7,51.5,49.4,8.5,5.3,27.2,15,33.5,17.2,39.8,14.4,45.8,15.6,76.5,15.6,17.9-.1,25.8-.5,33-1.8,16-3,34.1-7.8,43.8-11.8,5-2,9.2-3.5,9.2-3.3,0,1.1,15.7-7.6,25.8-14.4,20.5-13.8,39.8-33.4,50.2-51.2l3.2-5.5-2.8-5.2-2.8-5.2-7.4,10.7c-33.3,47.8-53.9,65.9-87.2,76.7-18.5,5.9-25.8,6.9-51.5,7-24.7,0-32.2-.9-51.5-6.1-23.8-6.4-45.8-15.5-64-26.4-36-21.5-49.9-34.3-54.9-50.5-1.7-5.5-1.9-8.1-1.4-18.2,1-20.3-1.9-34.8-13.7-67.8-3.8-10.7-8-24.2-9.3-30l-2.3-10.6-4.1,16.3c-2.5,9.8-4.2,14.9-4.2,12.8-.1-4,5.6-26.5,9.7-38.5,2.1-6.1,3.8-9.1,7.3-12.8,4.3-4.4,4.8-4.7,9.7-4.7,7.9,0,10.9,3.3,19.2,20.5,3.7,7.8,7.2,14.5,7.7,14.8.6.4,1.6,0,2.3-.8,1-1.2.6-3.9-1.9-14-3.4-13.5-6.1-33.7-6.1-45s3.3-27.5,8-32c8.7-8.3,12.9,6.8,23,82.5,1.2,8.5,2.4,16.8,2.8,18.5q.8,2.9,4.8-4l4-7-1.4-9.5c-2.6-18.7-1.2-24.2,12.5-46.8,19.2-32,27.7-42.2,35-42.2s7.1,5.8,7.8,10c.4,2.2,1,4,1.3,4s3.4-1.4,6.6-3c3.2-1.7,6.7-3,7.8-3s3.8-.9,6.1-1.9c7-3.2,9.5-3.5,11.7-1.6,1.8,1.6,2.1,1.4,8.6-5.5,10.7-11.3,16.6-13.4,22.9-7.9l3.5,3.1,4.4-4c4.8-4.4,9.5-7.2,12.2-7.2s9.8,8.1,14.9,17c2.6,4.4,5,8,5.4,8s2.9-1.9,5.6-4.2c11.8-9.8,17.4-11.8,21.2-7.6,6.6,7.2,13.3,29.6,13.3,44.7v6.6l3.7-4.5c7.2-8.9,17.1-18.2,18.9-17.8,4.3.8,7.4,10,7.4,22.2s-4.6,34.7-12.8,51.5l-3.9,7.9,3.8-2c13.7-7.1,25.4,3.3,28.1,25,.7,5.1,1.5,9.2,1.9,9.2,1,0,1.5-10.6.8-16.5-.4-2.8-1.4-9.2-2.4-14.4-2.7-15.2-.5-23,7.9-27,5.2-2.6,9-2,14,2,4.3,3.6,9.2,13.4,10.6,20.9,1.3,7.5,3.1,35.5,2.9,45-.1,7.2.1,8.1,3.1,12.5,1.7,2.5,3.4,4.4,3.7,4.2.8-.9,4.1-17,5.7-28.2,4.3-30.8,2.5-52.3-7.7-96.5-3.4-14.4-15-37.5-27.4-54.4-11.8-16.2-29.7-32.1-48.9-43.4-3.8-2.3-7.5-4.6-8.2-5.2s-3.4-2-6-3.1-5.6-2.4-6.7-2.9c-13.5-6.2-40.7-15.2-46.7-15.4-1.6-.1-2.8-.5-2.8-1s-.8-.6-1.8-.4c-1,.3-5.4-.1-9.8-.8-7.9-1.4-38.3-2.6-43.9-1.8Z"/>
  <path class="st0" d="M278.5,118.6c-3.4,2.3-10,8.6-10,9.6s1,2.5,2.3,4.6c1.3,2,3.4,6.4,4.7,9.7s2.7,6.4,3.1,6.9,2-1.6,3.5-4.5c1.5-3,4.2-7.8,6-10.7,3.9-6.1,3.8-8-.7-13.6-3.4-4-5.2-4.4-8.9-2Z"/>
  <path class="st0" d="M254.6,122.1c-5.1,2-20.4,17-18.8,18.5.2.3,3.3-2,6.7-5,8-7.2,9.5-7.3,8.6-.7-.7,5.2,1.2,19.4,2.4,18.6.4-.2,1-2.9,1.4-5.9.3-3,1.1-6.7,1.7-8.3l1.1-2.8,1.4,2.8c1.9,3.5,3.8,18.6,3.2,25.2l-.5,5,1.5-3.5c1.9-4.4,2.7-18.4,1.4-23.3-.6-2-.7-3.7-.2-3.7,1.5,0,7.2,5.3,10.1,9.4,1.6,2.1,2.9,3.6,2.9,3.3s-1.6-4.3-3.5-8.9c-3.9-9.3-9.5-17.9-13-20.2-2.7-1.8-3.1-1.8-6.4-.5Z"/>
  <path class="st0" d="M320.5,130.1c-2.9,1.7-10.8,8-16.7,13.3-1.3,1.2-5.3,22.6-5.3,28.3s-.4,3.3-.9,3.3c-1.2,0-2.5-17.7-1.8-25.2.6-7.1-.4-6.7-3.8,1.8-1.3,3.2-2.8,5.9-3.2,5.9s-1.2-1.5-1.8-3.3c-.5-1.7-1.2-3.2-1.6-3.2-1.5,0-4.1,8.9-4.6,15.7-.7,9.3,1,9.7,5.1,1.2,5.1-11,7.6-9.1,7.6,5.8s.4,11.4,2.7,17.5c1.4,4,2.9,8.6,3.3,10.3.6,3,3.9-6.1,18.6-50.8,2.1-6.4,4.1-11.7,4.5-11.7,1.2,0,3.9,11.6,3.9,16.6s-2.8,16.5-7.5,27.4c-4.6,10.5-7,17.4-9.5,26.7-2.7,9.8-2.5,10.3,1.3,4.7,1.9-2.7,3.8-4.9,4.3-4.9s1.4-.4,2.1-.8,1.3,0,1.5,1c.3,1.2,2-1.3,4.7-6.7l4.3-8.5-4.3,4.2c-4.3,4.3-6.9,5.4-6.9,3.1s2.7-9.3,5.9-19.3c3.3-9.9,6.7-21.5,7.6-25.9,1.2-5.2,2-7.4,2.6-6.5.7,1.1,1.1,1,2.4-.6,2.8-3.7,2.8-6.1-.1-12.1-1.5-3.3-3.4-6.7-4.2-7.7-2-2.3-5.9-2.2-10.2.4Z"/>
  <path class="st0" d="M184.4,136.8c-2.5,2.2-3.8,5.1-7,15.7-2.1,7.2-3.9,13.3-3.9,13.8s2.9-1.7,6.3-4.6c3.5-3,9.2-7.4,12.5-9.8,4.1-2.8,6.1-4.8,5.8-5.8-.3-.9-.7-3-1.1-4.7-.8-4.1-4-7.4-7-7.4s-3.9,1.2-5.6,2.8Z"/>
  <path class="st0" d="M222.7,139c-6.6,3-21.1,13.3-27.7,19.7-12.1,11.6-27.8,35.8-30,46.3-.4,1.9-2,6.8-3.6,10.8-3.3,8.1-3.3,8.2-2,8.2,2.4,0,6.1-4.9,6.7-8.8.6-3.8.8-4,2-2.5,1.2,1.6,1.3,1.4,1.4-2.2,0-5.2,2.2-14.2,4.3-18l1.6-3v4c.1,0,.2,4,.2,4l1.4-4c.8-2.2,1.9-4.1,2.5-4.3,1.8-.6,4-7.1,3.4-10.2-.5-2.5,0-3.5,3.2-6.6,3.7-3.4,10.2-7.4,12.3-7.4s-.2,3.4-1.5,7.5c-1.3,4.2-2.4,8.3-2.4,9.3.1,1.6.2,1.6,1.4-.1.7-.9,1.5-1.7,1.8-1.7.5,0-1.4,9.9-2.6,13.8-.5,1.3-.3,2.2.3,2.2s1.1-.5,1.1-1.1,2.9-6.5,6.5-13.2l6.5-12.2-.7,6.6c-.8,8.7.4,10.9,5.7,10.9s5,1.3,3,6.6c-1.8,4.6-.3,3.8,2.4-1.3,1.3-2.6,4.6-7,7.2-9.7,2.6-2.8,5.8-7.3,7.1-10l2.5-5.1-.6,5c-.4,2.7-2,7.8-3.6,11.3l-2.9,6.3,3.1-1.8c3.1-1.8,6.7-8.1,6.8-11.8,0-1.7.2-1.7,1-.5.5.8,1,5.3,1.1,10,.1,7.6.2,8.1,1.2,5.1,1.9-5.9-.7-26.5-4.9-39-5.4-16.1-6.4-17.1-15.2-13.1Z"/>
  <path class="st0" d="M356.4,168.2c-4,4.6-8.4,9.5-9.7,10.9-1.8,2-2.6,4.5-3.3,10-.5,4.1-1.1,8.7-1.5,10.4l-.5,3,3.6-4c9.5-10.3,13.9-14.7,16.3-16.3l2.5-1.6-.7,2.9c-2.5,9.9-6.7,17.8-16.9,31.8-2.7,3.7-4.7,7-4.5,7.3,1,.9,15-14.9,19.9-22.3,4.9-7.6,9.9-20.8,9.9-26.4s-1.4-3.9-2.4-1.4c-1.4,3.7-2.6,1.1-2.6-5.5s-.3-7-1.4-7-4.7,3.7-8.7,8.2Z"/>
  <path class="st0" d="M268.5,178c-8.6,5.3-16.2,14.7-24.1,29.7l-5.2,9.8,3.4-3,3.4-3-3.7,4c-3.5,3.8-7.8,12.1-7.8,15s-.9,3.5-2.1,6.2c-2,4.7-7.2,26.4-6.4,27.1.2.2,1.3-.2,2.5-.8,2.5-1.3,3.9-.5,2.2,1.2s-1.2,2.6,2.5.7c7-3.6,15.2-2.1,21.6,3.9,2.9,2.8,3.2,2.4,1.8-2.6-1.4-4.9.3-3.9,5.6,3.3,2.6,3.5,5,6.5,5.3,6.5.8,0,.2-24.8-1.1-38.8-.6-7.3-.9-13.5-.6-13.8.7-.7,5.7,14.9,5.7,17.6s.3,2.7.7,3.7c.6,1.4.9,1.1,1.4-1.7l.6-3.5,1.2,3c1.9,4.4.8,18.4-2.2,28-1.4,4.4-2.3,8.3-2,8.8.2.4,3.2,2.1,6.6,3.8,9.2,4.6,13.6,9.4,13.8,15.1,0,1.5,1.5-.7,4.3-6.3,4-8,4.3-9.4,5.6-22.2,1.7-18.1.8-47.5-1.9-60.5-2.8-13.4-6.5-22.4-11.5-27.9s-4.6-4.7-10.2-5c-4.7-.3-6.6,0-9.4,1.7ZM292.4,255c1.8,3.8,2.7,7.7,2.9,12.8.4,6.5.1,7.7-2.1,11.1-1.4,2.1-3.9,4.4-5.6,5.1-2.7,1.1-3.7,1-7.2-.5-2.2-1-4.2-2.2-4.4-2.6-.3-.4,1.1-4.1,3-8.2,4.1-9,6.5-17.4,6.5-23.7v-4.5c.1,0,2.2,2.5,2.2,2.5,1.1,1.4,3.2,5,4.7,8Z"/>
  <path class="st0" d="M243.7,197.3c-.9,1.2-3.2,10.8-3.2,13,.1,1.1,4-6.2,6-11s-1.2-4-2.8-2Z"/>
  <path class="st0" d="M76.9,199.4c-6.6,2.9-11.4,12.6-11.4,23.1s1.9,16.7,3.1,16.3c.4-.2,4.1-4,8.3-8.5,8.1-8.8,12.2-15.7,13.2-22.2.6-3.6.3-4.3-2.4-7.1-3.3-3.3-6-3.7-10.8-1.6Z"/>
  <path class="st0" d="M160.9,203.8c-.6.9-4.8,8.9-9.4,17.7-8.4,16.2-17.3,30.6-21,34-1.6,1.4-2,3.1-2,7.7s.3,5.8.8,5.7c1.4-.1,16.7-25.5,23.7-39.4,7.6-15.1,11.3-25.1,9.8-26.6s-1.3-.1-1.9.9Z"/>
  <path class="st0" d="M330.6,208.8c-.6,1.2-.2,3.3,1.4,7.2,3.3,7.8,4.1,16.2,2.1,24-1.8,7.1-7.5,18.3-12.4,24.8-5.5,7.2-2.9,5.8,3.8-2,3.5-4,7.5-9.8,8.8-12.8,4.1-9,4.1-25,.2-39.3-1.2-4-2.4-4.7-3.9-1.9Z"/>
  <path class="st0" d="M115.2,227.2c-11.2,17-17.6,25.6-27.6,37.3l-7.4,8.7,1.6,6.1c5.7,21.5,6.8,25.9,7.7,32.5.5,4,1,10.2,1,13.6,0,6.1.2,6.6,5.7,14.4,5.2,7.3,5.9,7.9,7.4,6.6,4.3-3.9,12.6-24,18.6-45.4,4.5-16.1,5.5-33.5,2.9-54.7-1.7-13.6-1.7-13.9.3-19.7,2.5-6.9,2.7-10.9.7-12.5-1.2-1-3.1,1.3-10.9,13.1Z"/>
  <path class="st0" d="M399,213.9c-2.8,1.2-6.2,5.1-7.4,8.4-1.6,4.2-1.3,10.4.9,21.9,2.4,12.3,2.6,22.5.5,27.4-1.1,2.7-1.3,5.5-.9,10.5.7,7,1.8,8.1,2.9,3,.3-1.5,2-4.1,3.6-5.7,2.7-2.6,3.7-2.9,9.4-2.9s6.7.3,9.2,2.7c1.6,1.6,3.2,2.8,3.5,2.8,3,0,3.3-18.1.7-41-1.1-10.1-6-21.2-10.9-24.8-3.5-2.6-8.5-3.6-11.5-2.3Z"/>
  <path class="st0" d="M319.8,222.7c-4.6,5.5-5.4,6.9-8.1,14.1l-2,5.2,3-2.1c3.2-2.3,4.4-1.8,5,2.1.2,1.8,1,.5,2.7-5,2.4-7,2.5-7.3,3.3-4.5,1.2,4.1.3,14.1-1.7,19-1,2.2-3.7,7.9-6.1,12.7-2.4,4.9-4,8.8-3.6,8.8,1,0,10.7-15.5,13.3-21.5,3.9-8.6,3.4-31.9-.7-33.2-.6-.2-2.9,1.8-5.1,4.4Z"/>
  <path class="st0" d="M363.9,237.4c-4.6,2-11.2,8.3-13.7,13-1.9,3.6-2.2,5.7-2.2,16.1s.1,12.3,3.8,21c6.2,14.4,7.8,19.6,8.4,26.5.5,6.3-.8,21.4-2.3,25.5-.5,1.4-.4,1.7.3,1,1-.9,4-9.6,6-17.5l1-3.5,1.2,5.5c.7,3,1.5,9,1.8,13.2.3,4.3.8,7.8,1,7.8,1.3,0,11.8-8.8,17.7-14.8l6.9-7-1.2-17.1c-1.3-18.9-3.5-39.2-5.2-49.1-3-16.9-12.7-25.3-23.5-20.6Z"/>
  <path class="st0" d="M142.8,251.8l-4.3,7.6,2,17c3.3,27.4,8.2,55,10.1,56.2.4.2,1.7-1.2,2.8-3.3,1.8-3.7,1.9-5.1,1-31.3-.8-23.3-1.4-29.4-3.6-40-1.4-6.9-2.9-12.8-3.2-13.2-.3-.3-2.5,2.8-4.8,7Z"/>
  <path class="st0" d="M535.8,264.7l-4.3.4v26.6l5.3.7c2.8.3,9.1.6,14,.6h8.7v-29l-9.7.2c-5.4.1-11.7.3-14,.5Z"/>
  <path class="st0" d="M340.1,274.2l-4.8,7.9.7,6.7c1.3,12.3,5.7,32.2,7.2,32.2s9.7-6.7,12.2-9.4c2.4-2.5,2.4-2.7.9-7.8-.9-2.9-3.3-9.3-5.3-14.2-2.1-4.9-4.2-12.2-4.9-16.1l-1.1-7.3-4.9,8Z"/>
  <path class="st0" d="M329.1,272.9c-2.4,2.6-3.9,8.7-3.1,12.8.5,2.6.1,4.4-1.6,7.1-16.8,28.4-21.9,41-24.4,60.9l-.7,5.2,4.8,2.3c6.7,3.1,11.8,8.5,13.4,14.2,1.2,4.5,1,16-.5,19.7-.5,1.4.3,1.6,6.7,1.2,5.6-.3,8.8-1.2,13.8-3.6,8.7-4.3,11.2-9,11.8-21.9.6-13-.7-20.2-9.9-54.3-2.8-10.6-5-23.9-5.8-34.9-.3-5.6-1.1-10.1-1.7-10.3s-1.8.5-2.8,1.6Z"/>
  <path class="st0" d="M404.4,288.7c-.7,1.7-.8,5.7-.5,9.9,2,22.8,15.4,47.9,46.2,86.4,25.2,31.7,36.3,50.6,50.8,87.2,11.5,28.9,16.3,50.1,17.3,75.3.9,23.9-2.7,45.1-8.8,51.6-2.4,2.6-3,2.8-5.7,1.8-4-1.4-13.9-11.8-19.5-20.4-5.9-9.2-8.9-15.4-20.3-41.3-16-36.4-24.3-50.8-36.7-63.9-11.2-11.7-23.2-18.5-39-21.7-12.2-2.5-21.7-.3-21.7,5.2s5.8,7.5,12.9,14.7c27.2,27.4,37.1,47,54.6,108,8.5,29.8,16.6,48.1,30.4,69.2,15.1,23,29.7,39,59.9,65.6,25.9,22.8,42.4,41.7,61.5,70.7,14.3,21.6,12.6,20.2,27.9,23.4,26.4,5.5,61.7,4.7,86.8-1.8,9.7-2.5,14-4.8,14-7.3s-3.9-5.7-8.8-10.7c-28.8-29.9-45.3-65.5-47-101.4-1-20.7.1-35.5,5.7-72.6,5.5-36.3,6.1-47.2,3.6-57.1-2-7.6-15.5-41.5-20.7-52-5.6-11.1-11.3-18.8-20.1-27.2-9.1-8.6-12.9-10.9-14.7-8.8-2.9,3.5,5.7,27,22,59.5,3.9,7.8,7,15.2,6.8,16.3-.2,1.5-1.1,2.3-3,2.5-2.3.3-3.2-.4-5.8-4.5-8.1-12.7-15.5-30.7-24-58.8-7.1-23.3-12.4-34.1-20.9-42.6-7.6-7.7-17.8-14.5-29.5-19.9-9.7-4.5-23.1-9.4-24.4-8.9-1.1.5,14.2,35,25.1,56.6,9.9,19.7,15.4,29.4,30,53.3,6.6,10.7,12.2,20.2,12.5,21.2.6,2.6-1.3,2.2-2.5-.5-.6-1.2-6.6-8.1-13.3-15.2-19.2-20.4-27.8-34.6-42-69-18.5-44.7-31.8-63.1-87.1-120.8-21.4-22.3-27.3-29.2-41.8-49-4.9-6.7-8.4-7.7-10.2-3Z"/>
  <path class="st0" d="M175,304.6c-4.6,2.4-8.3,6.3-13.3,13.8-4.4,6.8-18.2,33.5-18.2,35.2s3.5,2.2,7.8,3.8c10.4,3.9,19,7.7,36.1,16.1l14.4,7.1,5.2-5.1c2.9-2.8,7.3-6.5,9.9-8.1l4.7-2.9-.6-6c-1-9.7-5.2-24.2-9.2-31.7-9.3-17.7-26-27.8-36.8-22.2Z"/>
  <path class="st0" d="M394.6,315.5c-.1,6.3,0,6.8,1.5,5.4,1.3-1.4,1.4-2.2,0-7l-1.4-5.4v7Z"/>
  <path class="st0" d="M351,317.8c-7.6,5.9-7.7,6.2-5.5,14.2l1.2,4.4,2.9-3.4c6.5-7.8,9-12.7,8.7-16.7l-.3-3.9-7,5.4Z"/>
  <path class="st0" d="M531.5,335.2v13.6h14c0,.1,14,.3,14,.3v-27.6h-28v13.7Z"/>
  <path class="st0" d="M294,346.6c-7.3,9.2-7.3,9.7-.7,10.9,3.9.7,5.1-.4,5.2-4.5,0-1.4.7-5.2,1.4-8.5.8-3.3,1.3-6.1,1.1-6.3-.1-.2-3.3,3.6-7,8.4Z"/>
  <path class="st0" d="M121.5,356.2c-6.8,3.7-9.3,8-8.8,15,.5,6.9,1.8,8.6,10.9,13.8,22.3,13.1,60.9,25.4,101.4,32.5,5,.9,10,1.8,11.3,2.1,3.1.6,2.9-1.9-.8-8.3-6.7-11.7-21.4-22.7-48.6-36.1-24.7-12.3-45.4-20.3-53.9-20.9-6-.4-7.6-.1-11.5,1.9Z"/>
  <path class="st0" d="M246.6,357.5c-16.2,3.7-27.2,9-36.9,18l-6.7,6.2,4.1,2.1c4.9,2.5,19,13,22.3,16.5,2.2,2.4,2.6,2.5,5,1.3,1.4-.8,5.8-1.9,9.6-2.5,13.8-2.3,22,2.4,16.9,9.7-.8,1.2-1.3,2.2-1.1,2.2s3.3-1.3,6.9-2.9c9.3-4.3,22.6-7.9,36.3-9.9l12-1.7,1.4-6.4c1.9-9,.3-15.8-5-21.6-4.1-4.5-9.6-7.2-20.4-10.1-8.5-2.3-35.8-2.9-44.4-.9Z"/>
  <path class="st0" d="M411.2,400.4c-2.2,2.3-2.1,3.6.6,7.7,3,4.6,9.4,8.7,21.8,14.1,9.6,4.2,38.9,14.8,40.9,14.8s-7.7-20.7-12.1-24.4c-8-6.8-25-12.4-39.9-13.3-8.2-.5-9.8-.3-11.3,1.1Z"/>
  <path class="st0" d="M463.7,459.7c-1.2.2-2.9,1.5-3.8,2.8-1.3,2-1.3,2.7-.1,5.8,3.2,7.5,13.3,12.5,26.9,13.4q8.8.6,8.8-1.8c-.1-4.8-2.7-16.1-4.1-17.4-.8-.8-5.6-1.8-11.8-2.4-10.5-1.1-11.9-1.2-15.9-.4Z"/>
</svg>