<?xml version="1.0" encoding="UTF-8"?>
<svg id="Layer_1" xmlns="http://www.w3.org/2000/svg" version="1.1" viewBox="0 0 714.1 814.3">
  <!-- Generator: Adobe Illustrator 29.4.0, SVG Export Plug-In . SVG Version: 2.1.0 Build 152)  -->
  <defs>
    <style>
      .st0 {
        fill: #fff;
      }
    </style>
  </defs>
  <path class="st0" d="M599,548l2-.5c.3-4-21.1-35.8-24.8-42.2-16.8-29.1-30.6-59.7-44.2-90.3,27.6,6.9,56.9,21.5,68.5,49,8.2,19.6,12.3,42.1,21,62,1.7,3.8,10.5,21.3,12.9,23.1,3.8,2.8,7.5.8,6.4-4.3-1.2-5.9-10.9-21.1-14-28.1-2.7-6.1-19.1-41.9-14.8-45.7,7.7.7,16.5,10.2,21.5,16,12.7,14.8,24.2,42.8,30.5,61.5,10.7,31.7,0,60.2-3.9,92.2s-4.4,45.7.3,69.4c6.8,33.8,28.1,65.8,53,89l.5,2.4c-.4,4.8-17.6,8.2-22,9.1-24.3,5-54.7,5.1-79,0-6.6-1.4-13.1-2.2-17.4-7.6-6-7.7-12-19.2-18.2-27.8-11.7-16.3-24.9-32.8-39.4-46.6-31.7-30.1-58.6-49.2-81.2-88.8-25.6-45-27.9-98.7-56.4-141.6-9.9-14.8-23.4-25.2-34.5-38.6,1.4-8.6,14.7-7.2,21.3-6.2,70.8,11.1,68.9,114.1,112.3,145.7,11,8,14.2-7.5,16-16,11.3-52.5-14.5-123.9-43.1-167.9-21.6-33.4-70.9-79.6-69.5-121.6.2-5.7,2.3-10.2,8.1-6.1,33.7,50.9,86.6,86.7,116.4,140.6,16.6,30.1,23.4,61.6,45.5,89.5,8.4,10.5,19.7,18.7,26,30.5Z"/>
  <path class="st0" d="M559,0v235h-28V28H30.5c-.4,0-.8-1.6-1.5-.5l-1,1c0,.4,1,.7,1,1v428.5h304l1,29H0V0h559Z"/>
  <path class="st0" d="M196,177v148.5c0,1.5.9,8.8,1.2,10.8,1.2,6.7,9.8,16.1,16.5,17.5,11.6,2.3,28.9-3.8,39-9.6s6.9-4.9,9.9-7.1c3.2,2.4,13.2,9.4,10.4,13.5s-18,18-23.3,21.7c-26.4,18.6-67,26.8-90.2-1.2-5.8-7-12.5-23.5-12.5-32.5v-161.5h-39c-1-3.9-2.2-16.9,0-19.6,32.4-10.1,53.5-33.3,65.8-64.2s.9-7.6,3.8-10.2h17c1.4.9,1.4,2,1.6,3.4,1.8,15.5.4,41.7,0,58.1s-2.1,7.5.5,7.5h62l1.5,1.5v21c0,.2-2.3,2.5-2.5,2.5h-61.5Z"/>
  <path class="st0" d="M334.3,85.3c7.6-7.2,20.5-2.3,21.7,8.2v283c-2.4,14.8-21.6,15.3-25,1l.5-287.6c1-1.3,1.8-3.6,2.8-4.7Z"/>
  <path class="st0" d="M475,437c-14.2-4.8-55.5-16-63.5-28s22.8-8.4,30.2-6.2c20.5,6,26.6,14.3,33.2,34.3Z"/>
  <polygon class="st0" points="559 264 559 293 531 292 531 265 559 264"/>
  <path class="st0" d="M559,322v27c-9.3-1.4-18.6-1-28-1v-26h28Z"/>
  <path class="st0" d="M495,482c-10.9.8-29.4-1.5-35-12.4-8-15.7,22.7-8.9,30.1-8.1,3.5,1.7,4.6,16.4,5,20.5Z"/>
</svg>