<?xml version="1.0" encoding="UTF-8"?>
<svg id="Layer_1" xmlns="http://www.w3.org/2000/svg" version="1.1" viewBox="0 0 704.9 805.2">
  <!-- Generator: Adobe Illustrator 29.4.0, SVG Export Plug-In . SVG Version: 2.1.0 Build 152)  -->
  <defs>
    <style>
      .st0 {
        fill: none;
      }

      .st1 {
        fill: #fff;
      }
    </style>
  </defs>
  <g>
    <path class="st1" d="M590,539l2-.5c.2-1.2-.4-2.2-.8-3.2-6.2-16-25.6-41.1-34.8-58.2-12.3-23.1-22.4-47.3-33.5-71,30.4,8.3,57.8,21.8,69.7,52.7,9,23.4,13.3,48.6,26.1,70.9,2.4,4.2,5.9,12.8,11.5,11.2l2.6-3.1c-8.1-17-17.7-34.1-24.3-51.7s-6.4-15.5-5.5-24c3.1-3.1,19.2,13.2,21.5,16,12.8,15,25.4,45.5,31.5,64.5,9.5,29.6-2.4,65.5-5.9,96.2-6.6,58.2,6.2,101.7,46.5,144.3,3,3.2,12.3,7.4,6.4,12.6s-37.7,9.1-45.4,9.6c-13.7.8-57.1-.7-67.9-8.2-4-2.8-18.7-27.5-23.3-33.7-36.8-50.6-88.8-79.2-119.6-134.4-30.9-55.6-26.8-113.1-74.3-162.7-4.2-4.3-21.4-14.7-12.5-20.4,7.9-5.1,27.8.9,36.2,4.7,51.8,24.1,53.5,100.7,89.2,135.8,14,13.7,18.2,2.8,21.2-11.8,10.3-48.8-10.1-108.5-33.2-151.2-19.5-36.1-52-64-69.4-100.6-6.1-12.9-12.9-31.4-8-45.2l5.4.8c33.7,51.2,87,87,116.9,141,16.3,29.3,23.2,61.4,44.5,88.5,8.6,10.9,20.5,19.2,27,31.5Z"/>
    <path class="st1" d="M466,428c-2.2,1.8-47.3-16.8-52.7-19.8s-14.6-8.9-12.4-16.5c3.3-5,28.4,1,34.1,2.8,19.1,6.1,24.8,14.9,31,33.5Z"/>
    <path class="st1" d="M458.8,450.2c2.8-.1,21.4,1.7,22.8,2.7,2.2,2.1,4.8,18,4,19.1-9.5,4.5-40-4.9-35.4-18.4,1.3-2.3,6.2-3.3,8.7-3.4Z"/>
    <path class="st1" d="M432.5,443c7.5,7.5,1.1,18.8,8.5,26.5-3.8,1.4-7.7-6.6-10.5-9.5-5.8-6.2-12-11.6-18.5-17h20.5Z"/>
  </g>
  <g>
    <path class="st1" d="M520,0v394c-2.3.6-1.6-.4-2.3-1.3-3.6-4.7-25.2-31.7-25.7-34.3s-.1-7.7,0-10.9c1.3-59.5.9-120,2-180,.2-8.3-.9-16.4,0-24.5-2.4-.5-1.6.4-2.2,1.3-5.4,7.9-10.7,15.8-16.8,23.2-17.8,21.7-38.3,36.3-41,67-.9,10.2,1,21.7-.1,31.9s-4.4,18.6-6.4,21.6-1,.8-2,0-9-12.5-9.3-13.7c-1.1-4.2,1.2-11.3.7-16.8-.6-7.2-3.8-16-4.7-23.3-6.4-51.1,33.3-92,46.8-138.2,1.7-.3,1,2.4,1,3.5,0,12.4-8.7,24.8-12,36.5l19.5-33c5.3-10.2,24.5-49.2,24.5-58.5v-17.5h-46c-.3,31-7.1,61.4-17,90.5-6.6,19.6-16.3,39.4-21.8,59.2-4.9,17.7-6.1,36.1-8.3,54.2-16.2-12.1-13.4-30-12-48l-4.5,6.9c-7.8,16.8-11.1,34.4-.9,51,1.9,3.1,17.8,20.5,15.4,23.1s-3.6.6-4,.5c-1-.4-2.7-3.2-4.7-4.2-10.6-5.7-32.4-8.4-39.7-19.3s-4.5-10.4-4.5-11.5v-20.5c-2.9-.5-1.6.7-2.3,2.2-8.7,21.4-16.9,48.8,8.9,61.7,4.3,2.1,19,5,20.2,8.8,2.6,8.7-14.9,29.3-20.3,36.3l-27.5,24,11.4-4.1,36.6-19.8c-7.7,11.3-13.7,23.6-22,34.5s-24.3,28.4-35.9,40.1-12.5,12.1-19.5,17.5l23.5-42.5c.2-.7-.8-.7-1.5-.5-6.2,2-23.1,17.1-30.2,21.8l-51.3,29.2c6.8-8.6,14.6-16.4,22.5-24,10.7-10.4,23.4-19.6,33-31,3-3.6,12-15.7,13.5-19.5s-2.6-1.1-3.7-.7c-11.5,4.4-25.7,14-36.2,20.8-35.2,22.7-66.6,50.9-97.1,79.4h179c-4.2,12.6,3.2,18.9,11,27H0V0h520ZM336.5,27H27v374c29.7-10.8,60.2-20.4,88-35.5l-46.5-3.5-13.5-2c39.6-3.6,81-6.7,117.4-24.2,10.3-4.9,19.5-11.8,29.6-16.9l-.5-2-39-4-9.5-2c15-2.6,30.3-1.6,45.5-3,30.8-2.8,60.7-15.6,83.5-36.5-15.6-6.6-28.7-16.4-37-31.5,12.6,5.3,24.9,12,38.4,15.1s16.6,1.5,26.6.9l-15.7-5.8c-14.7-7-30.5-25.5-34.8-41.2-7.7-27.5,26.4-53.9,32-80s-12.2-41.7-27.5-54c2.2,0,4,1.6,5.7,2.8,22.5,14.7,37,32.4,42.8,59.2,4.4,20.3,2.2,40.5,4,61,1.7-1.2,1.4-2.7,1.5-4.5,2.6-26.2,15-52,13.9-78-.6-13.4-3.8-28.2-9-40.5,18.2,26,20.9,58.2,17,89l9.5-27c11.2-36.4,8.3-78-13-110ZM403,28h-31c2.6,12.4,7.2,24.4,9.7,36.8,3.6,17.8,6.1,40.7,5.3,58.8s-2.3,12.4-1.5,18.5c12-36.6,19.6-75.4,17.5-114ZM291,320c10.7-4.7,22.6-11.5,31.9-18.6s13.5-10.9,12.1-12.4c-16.3,7.7-29.5,20.5-44,31ZM256,327l-32,8.5-47,18.5c22.2-3.7,43-8.6,63.4-18.1s11.5-5.1,15.6-8.8ZM27,443h72.5l102.5-74c.3-1.3-.4-1-1.5-1-6.6.1-20.5,3.8-27.5,5.5-41,9.9-86,28.8-123,49s-18.7,9.9-21.4,12.6-1.5,4.5-1.6,7.9Z"/>
    <path class="st1" d="M366,400c-4.1-.3-8.2.6-11.6,3l-5.4,14-4-14.3-10-4.7c3.6.2,7.6-.5,10-3.5l5-14.5c.9,5.6,2.1,15.4,8.2,17.3s6.7-.2,7.8,2.6Z"/>
    <path class="st1" d="M466,271.5c0-.6-2.1-5.2-2.7-5.6l-13.3-2.9c13.7,1.8,17.9-3.9,17-17l1.4,10.1c1.9,7.1,7.2,6.5,13.1,6.9s4.2-.9,3.5,1.5-11.6-1-15.1,3-1.6,9.1-2.1,12.9-.4,5.5-1.9,5.6c-.5-4.5.6-10.1,0-14.5Z"/>
    <path class="st1" d="M394,331l2.5,7.1-8.4,21.3-3.1.6c-1.1-1,5.5-24.4,6.9-27.6s-.5-1.8,2.1-1.4Z"/>
    <path class="st0" d="M27,443c0-3.3-.9-5.3,1.6-7.9s17-10.2,21.4-12.6c37-20.2,82-39.1,123-49,7-1.7,20.9-5.4,27.5-5.5s1.8-.3,1.5,1l-102.5,74H27Z"/>
    <path class="st0" d="M403,28c2.1,38.6-5.5,77.4-17.5,114-.8-6.1,1.3-12.5,1.5-18.5.8-18.1-1.7-41-5.3-58.8-2.5-12.4-7.2-24.4-9.7-36.8h31Z"/>
    <path class="st0" d="M256,327c-4.1,3.7-10.5,6.4-15.6,8.8-20.4,9.6-41.2,14.4-63.4,18.1l47-18.5,32-8.5Z"/>
    <path class="st0" d="M291,320c14.5-10.5,27.7-23.3,44-31,1.4,1.5-10.5,11.2-12.1,12.4-9.3,7.1-21.2,13.9-31.9,18.6Z"/>
    <g>
      <path class="st0" d="M336.5,27c21.3,32,24.2,73.6,13,110l-9.5,27c3.9-30.8,1.2-63-17-89,5.2,12.3,8.4,27.1,9,40.5,1.1,26-11.3,51.8-13.9,78s.2,3.3-1.5,4.5c-1.8-20.5.4-40.7-4-61-5.8-26.8-20.3-44.5-42.8-59.2-1.7-1.1-3.5-2.9-5.7-2.8,15.3,12.3,32.1,32.9,27.5,54s-39.7,52.5-32,80,20.1,34.1,34.8,41.2l15.7,5.8c-10,.7-16.7,1.4-26.6-.9s-25.7-9.8-38.4-15.1c8.3,15.1,21.3,24.9,37,31.5-22.8,20.9-52.7,33.7-83.5,36.5-15.2,1.4-30.5.5-45.5,3l9.5,2,39,4,.5,2c-10.2,5.1-19.4,11.9-29.6,16.9-36.3,17.5-77.7,20.5-117.4,24.2l13.5,2,46.5,3.5c-27.8,15.1-58.3,24.7-88,35.5V27h309.5ZM91.8,71.4c0-13.1-10.6-23.8-23.8-23.8s-23.8,10.6-23.8,23.8,10.6,23.8,23.8,23.8,23.8-10.6,23.8-23.8ZM224,63c2-17.6-23.9-20.8-30.2-5.7s-2.8,23.4.2,30.2c6.8,15.6,32.7,9.6,31-8.5h-7c-.4,8.6-2.9,13.8-12.5,12-8.1-1.6-7.3-22.2-6.4-28.4,1.8-13.3,17.1-13.3,18.8,0l6.1.4ZM133.5,49c-6.4-1.1-15.7.8-22.5,0v46h7v-20c19.5-2.1,15.8,3.6,18.5,19l7.5,1c-4.4-7.3,2.1-20.5-9-22,1.9-2.4,5.5-3.6,6.5-6.9,2-6.5-.5-15.7-8.1-17.1ZM182,49h-28v46h28v-5h-21v-16h19v-6h-19v-14h21v-5ZM94.3,293.7c-3.4-3.4-2.2-13.5-6.3-16.7,1.3,12.6-3.7,20.8-17,21l13.5,4c2.9,5.5,3.7,11.9,3.5,18l6.5-17.9c3.7-3.4,8.8-3.1,13.4-4.1l-13.7-4.3Z"/>
      <circle class="st1" cx="68" cy="71.4" r="23.8"/>
      <polygon class="st1" points="182 49 182 54 161 54 161 68 180 68 180 74 161 74 161 90 182 90 182 95 154 95 154 49 182 49"/>
      <path class="st1" d="M224,63l-6.1-.4c-1.7-13.2-17-13.3-18.8,0-.8,6.2-1.7,26.8,6.4,28.4,9.6,1.9,12.1-3.4,12.5-11.9h7c1.7,18.1-24.2,24.1-31,8.5s-3-23.4-.2-30.2c6.3-15.1,32.2-11.9,30.2,5.7Z"/>
      <path class="st1" d="M94.3,293.7l13.7,4.3c-4.6,1-9.8.6-13.4,4.1l-6.5,17.9c.2-6.1-.7-12.5-3.5-18l-13.5-4c13.3-.3,18.3-8.4,17-21,4,3.2,2.9,13.3,6.3,16.7Z"/>
      <g>
        <path class="st1" d="M133.5,49c7.6,1.3,10.1,10.5,8.1,17.1s-4.6,4.5-6.5,6.9c11.1,1.5,4.6,14.7,9,22l-7.5-1c-2.7-15.4,1.1-21.1-18.5-19v20h-7v-46c6.8.8,16.1-1.1,22.5,0ZM118,70c6.6,0,16.7,1.4,17.1-7.5s-9.3-8.2-17.1-8.5v16Z"/>
        <path class="st0" d="M118,70v-16c7.8.3,17.6-2.4,17.1,8.5s-10.5,7.5-17.1,7.5Z"/>
      </g>
    </g>
  </g>
</svg>