<?xml version="1.0" encoding="UTF-8"?>
<svg id="Layer_1" xmlns="http://www.w3.org/2000/svg" version="1.1" viewBox="0 0 39 40">
  <!-- Generator: Adobe Illustrator 30.0.0, SVG Export Plug-In . SVG Version: 2.1.1 Build 123)  -->
  <defs>
    <style>
      .st0 {
        fill: none;
        isolation: isolate;
        opacity: .5;
        stroke: #fff;
        stroke-width: 1.5px;
      }

      .st1 {
        fill: #fff;
      }
    </style>
  </defs>
  <path class="st1" d="M34.5,40h-7c-2.5,0-4.5-2-4.5-4.5h0c0-2.5,2-4.5,4.5-4.5h7c2.5,0,4.5,2,4.5,4.5h0c0,2.5-2,4.5-4.5,4.5Z"/>
  <path class="st1" d="M11.5,30h-7c-2.5,0-4.5-2-4.5-4.5h0c0-2.5,2-4.5,4.5-4.5h7c2.5,0,4.5,2,4.5,4.5h0c0,2.5-2,4.5-4.5,4.5Z"/>
  <path class="st1" d="M28.5,9h-13c-2.5,0-4.5-2-4.5-4.5h0c0-2.5,2-4.5,4.5-4.5h13c2.5,0,4.5,2,4.5,4.5h0c0,2.5-2,4.5-4.5,4.5Z"/>
  <line class="st0" x1="29" y1="31" x2="22" y2="9"/>
  <line class="st0" x1="8" y1="21" x2="16" y2="9"/>
</svg>