<?xml version="1.0" encoding="UTF-8"?>
<svg id="Layer_1" xmlns="http://www.w3.org/2000/svg" version="1.1" viewBox="0 0 435.7 223.2">
  <!-- Generator: Adobe Illustrator 30.0.0, SVG Export Plug-In . SVG Version: 2.1.1 Build 123)  -->
  <defs>
    <style>
      .st0 {
        fill: #fff;
      }
    </style>
  </defs>
  <path class="st0" d="M0,52.2V5h82.1v216.4H29.3V52.2H0Z"/>
  <path class="st0" d="M124.1,173.4c19.4-16,34.6-29.1,45.8-39.4,11.2-10.3,20.6-21,28.3-32.3s11.6-22.2,11.6-32.9-1.9-14.4-5.6-19-9.4-6.8-16.9-6.8-13.4,2.8-17.6,8.4-6.4,13.6-6.4,23.9h-48.9c.4-16.8,4-30.8,10.8-42.1s15.8-19.6,27-24.9C163.3,3,175.7.3,189.4.3c23.5,0,41.2,6,53.2,18.1s17.9,27.8,17.9,47.1-7.2,40.8-21.6,58.8-32.8,35.7-55.1,52.9h80v41.2H115v-37.6c6.7-5.3,9.8-7.8,9.2-7.4Z"/>
  <path class="st0" d="M361.6,0c14.8,0,27.5,2.6,38.1,7.7s18.6,12.2,24,21c5.4,8.9,8.2,18.9,8.2,29.9s-3.3,23.7-9.8,31.9-14.1,13.8-22.8,16.7v1.2c11.3,3.8,20.2,10,26.7,18.7s9.8,19.9,9.8,33.5-2.8,23.1-8.4,32.5c-5.6,9.4-13.8,16.7-24.6,22.1s-23.6,8-38.4,8c-23.7,0-42.6-5.8-56.8-17.5-14.1-11.7-21.6-29.2-22.4-52.8h49.2c.2,8.7,2.7,15.6,7.4,20.6s11.7,7.6,20.7,7.6,13.7-2.2,17.9-6.7,6.4-10.3,6.4-17.6-3-16.4-9-20.6-15.7-6.4-28.9-6.4h-9.5v-41.2h9.5c10.1,0,18.2-1.7,24.5-5.2s9.3-9.6,9.3-18.5-2-12.6-5.9-16.6-9.4-5.9-16.3-5.9-13.1,2.3-16.7,6.8-5.8,10.2-6.4,16.9h-49.5c.8-21.1,7.7-37.4,20.7-48.9S339.3,0,361.6,0Z"/>
</svg>