<?xml version="1.0" encoding="UTF-8"?>
<svg id="Layer_1" xmlns="http://www.w3.org/2000/svg" version="1.1" viewBox="0 0 1189 1645.4">
  <!-- Generator: Adobe Illustrator 30.0.0, SVG Export Plug-In . SVG Version: 2.1.1 Build 123)  -->
  <defs>
    <style>
      .st0 {
        fill: #fff;
      }
    </style>
  </defs>
  <path class="st0" d="M499.5,1c-14.7,2.2-47.9,11.7-72.5,20.9-4.7,1.7-14.8,5.3-22.5,8-14.2,4.9-27.3,9.6-40,14.5-3.8,1.4-9.4,3.5-12.2,4.5-5.5,2-22.6,9-47.3,19.3-8,3.3-23.5,10.6-34.5,16.2-33.2,16.8-48.5,27.2-66.3,45.3-11.9,12.1-17.8,19.3-42.8,53.2-19.4,26.3-27.2,36.4-35.9,47-23.9,29-32.5,38.2-72.6,78-20.7,20.6-38.9,39.4-40.4,41.7-2.3,3.6-2.7,5.1-2.2,8.9.9,8.5,9.2,14.3,26.7,18.6,15.3,3.7,39.8,2.8,60.4-2.4,23.4-5.8,59.6-24.5,85.6-44.2,14.9-11.2,33.3-27,47.5-40.5,46.1-44.2,67.1-59.1,97-69,5-1.6,16.9-5,26.5-7.5,9.6-2.4,20.2-5.2,23.5-6.1,11.1-3,53.9-11.7,65-13.2,15.3-2.1,31.3-.6,41.3,3.7,1.2.6,3.4,1.6,5,2.2,6.4,2.9,15.5,14.2,27.9,34.4,6.7,10.9,13.3,22,14.6,24.5,1.4,2.5,3.7,6.4,5.1,8.7s2.6,4.4,2.6,4.7,1.5,2.9,3.3,5.8,3.6,5.9,4,6.7,1.8,3.3,3.1,5.5c1.4,2.2,4.4,7.4,6.7,11.5s5,8.6,5.9,10,3,5,4.7,8c3.3,5.9,6.4,11.6,10.8,19.5,1.6,2.7,5.1,9,7.8,14,8.1,14.9,9.9,18,10.7,19,.6.9,7.4,13.5,13,24.5,4.1,7.8,8.1,17.1,12,27.5,2.3,6,4.8,12.3,5.5,14,.7,1.6,1.5,3.9,1.8,5s2.2,7.6,4.2,14.5c8.9,30.3,11.7,44.9,14.5,76.3,2.6,27.9-1.1,66.3-9.1,95.7-2.7,9.6-6.8,22.7-8.4,26.5-.7,1.6-4,9.7-7.5,18-6.1,14.8-20.9,44.5-23.6,47.6-.8.8-1.4,1.9-1.4,2.3,0,1.8-21.2,32.2-30.4,43.6-37.8,46.8-80.1,65.2-121.6,53-8.9-2.6-23.9-10.3-30.8-15.7-12.2-9.7-15.4-12.4-20.7-17.8-21.3-21.7-42.1-50.1-61.7-84-2.3-4-17-33.7-19.8-40-1.3-2.8-4.5-9.7-7.1-15.4-2.7-5.7-4.9-10.5-4.9-10.7s-2.3-5.2-5-11c-2.8-5.8-5-10.8-5-11.2,0-1.7-23.2-48.6-24.2-49s-.8-.7-.8-1.1c0-.7-2.6-5.5-11.1-20-.8-1.4-2.2-3.4-3.1-4.5-1-1.1-1.8-2.6-1.8-3.3s-.4-1.3-1-1.3-1-.4-1-1-1.4-2.9-3-5.2c-1.7-2.4-4.1-5.9-5.4-7.8-9.9-14.6-20.4-26.9-37.6-44-15.5-15.5-15.7-15.6-29.5-25.9-16.7-12.5-37.5-23.6-55.5-29.6-4.7-1.5-9.4-3.2-10.5-3.6-7.1-2.8-29.6-7.5-48-9.9-25-3.2-45.3,1.5-53.7,12.6-5.4,7.1-5.2,10,1.6,18.3,6,7.4,23.8,26.3,48.6,51.6,25.6,26,34.6,35.9,45.6,49.6,12.6,15.7,25.9,35.8,35.2,52.9,1.6,3,5.2,9.3,7.8,14,4.4,7.6,7.5,13.9,18.3,37,2.7,6,5.2,12,12.5,30,1.5,3.6,3.1,7.4,3.6,8.5,1.4,3,12.1,32.9,15.1,42,.7,2.2,1.6,4.4,2,5,.4.5,1,2.6,1.4,4.5s1.1,4.1,1.5,5c.4.8,1.8,4.9,3,9s3,10,4,13c2.8,8.7,14.4,46.7,16,52.5,1.6,5.6,6.2,21,7,23,.4,1.1,1.4,4.5,2.3,7.5,3.1,10.4,10.9,35.5,11.7,37.5.4,1.1,1.6,4.7,2.5,8s2.6,8.5,3.7,11.5,2.3,6.8,2.8,8.5c.4,1.6,1.6,5,2.5,7.5s3.5,9.7,5.7,16,4.6,12.8,5.3,14.5c.8,1.6,3.7,8.9,6.4,16.2,2.8,7.2,6.4,16.1,8.1,19.7,1.6,3.7,3,6.8,3,7.1,0,2.6,18.9,39.9,30,59.3,3.6,6.2,7.1,12.5,7.9,14,1.5,2.9,17.5,27.6,19.1,29.5.6.7,2.9,4.1,5.3,7.7,2.3,3.6,4.5,6.7,4.9,7,.3.3,2.8,3.6,5.4,7.5,2.6,3.8,7.7,10.7,11.3,15.3,3.6,4.5,8,10,9.6,12.1,10.5,13.4,16.5,20.3,37.7,43.1,21.8,23.5,52.6,53.8,74.8,73.5,3,2.7,8.7,7.9,12.5,11.5,8.3,7.7,12.8,11.7,25.5,23,5.2,4.7,10,8.9,10.6,9.5.6.5,4.8,4.4,9.4,8.5,4.5,4.1,10.2,9.3,12.5,11.5,2.4,2.2,9.6,8.9,16.1,15,12,11.2,38.2,37.1,46.4,46.1,5.5,5.9,20.5,22.6,24.1,26.8,19.1,22.1,35.5,42.3,45.6,56,4.5,6.1,10.1,13.6,12.6,16.6,8.2,10.3,26.4,35.9,34.9,49.3,2.3,3.6,16.4,26.6,17.7,29,3.2,5.6,9.2,14.9,10.2,15.7.3.3,1.2,1.6,1.9,3s3.5,5.5,6.2,9.1c2.6,3.7,4.8,7,4.8,7.4,0,1,4.2,6,11.2,13.2,4.2,4.3,8.1,7.2,13.4,9.7,4,2,8,3.6,8.7,3.6s1.7.3,2.1.7c.8.8,8.1,3,14.1,4.2,2.2.5,9.7,2,16.7,3.5,16.7,3.4,29.6,5.3,54.8,8.1,61.3,6.9,137.5,4.9,196.5-5,23.6-4,24.8-4.2,27.8-5.4,1.6-.6,3.9-1.1,5.2-1.1s4.5-.6,7.1-1.4c2.7-.8,9.6-2.8,15.4-4.5,18.4-5.2,27.6-9.3,34.3-15.3,3.4-3.1,3.7-3.8,3.7-8.6v-5.3l-15.2-15.2c-19.4-19.3-32.6-33.5-44.1-47.6-2-2.5-4.2-5.2-4.9-6-.6-.7-3.3-4.1-6-7.5-2.7-3.3-5.6-6.9-6.4-8-3.5-4.2-17.4-23.4-17.4-24.1s-1-2-2.2-3.5c-2.7-3.2-2.9-3.5-11.1-16-11.2-17.1-23.8-39-33.7-58.6-2-4-4.1-7.8-4.7-8.5-.6-.8-1.6-3.3-2.2-5.7-.7-2.3-1.6-4.2-2.1-4.2s-1-.7-1-1.6c0-1.4-3-8.9-5-12.6-.6-1-1-2.7-1-3.8s-.4-2-.8-2-1.4-2.1-2.1-4.7c-.7-2.7-1.9-6.2-2.7-7.9-.8-1.8-2.8-7.4-4.4-12.5-1.7-5.2-3.5-10.2-4.1-11.1-.5-1-.9-2.5-.9-3.3s-.4-2.3-.9-3.3c-1.4-2.9-3.1-8.7-3.1-11s-.4-2.3-.9-2.6-1.1-2.3-1.4-4.3c-.3-2.1-1-6.1-1.7-8.8-.6-2.8-1.6-7.5-2.1-10.5l-2-10c-4.1-20.6-6.3-35-8.1-55-1.6-18-1.6-73.6,0-92.5,2.1-24.5,3-33.5,4.2-43,.6-5,1.5-12.6,2-17,2.1-19.4,3.1-27.7,4.5-37.5,2.1-14.1,3.4-22.5,4.5-28.5.5-2.8,1.4-8.4,2-12.5.7-4.1,1.5-8.4,2-9.5.4-1.1,1.3-5.4,2-9.5s1.9-11.1,2.7-15.5c1.4-7.8,2.4-14.1,4.2-26.8,1.3-8.5,3.1-20,4.2-27.2,1.3-7.9,2.1-13.5,6.2-42,3.4-23.4,4-28.6,7.3-56.5,2.9-25.2,15.2-100.8,21-128.5,2.3-11.4,6.2-40,7.5-55,2.9-35.4-3-71.8-16.1-98.5-5.8-11.9-10.5-20.3-14.9-27-2.3-3.4-4.1-6.3-4.1-6.6s-3.5-5-7.7-10.5c-4.3-5.6-8.7-11.3-9.8-12.8-2.2-3-10.8-13.8-12.7-16.1-7.5-8.9-20.7-25.3-26.3-32.5-3.8-5-9.2-11.7-12-15.1-2.7-3.4-6.7-8.5-8.8-11.5s-9.7-13.7-16.8-23.9-15.1-21.4-17.7-25c-2.6-3.5-6.3-9-8.2-12-1.9-3.1-4.1-6.5-4.7-7.6-.7-1-2.3-3.6-3.5-5.8-2.7-4.6-3.7-6.2-6.2-9.9-1.1-1.6-2.7-4.1-3.5-5.6-1.9-3.2-12.8-21-15.3-24.9-1-1.5-2.1-3.4-2.5-4.2s-2.1-3.5-3.7-6c-1.7-2.5-3.8-5.8-4.6-7.3-5.9-11-35.3-56.6-48.4-75.2-6.7-9.5-19.6-26.3-22.7-29.5-.8-.8-3.9-4.4-6.9-7.9-6.6-7.7-27.3-26.7-31.4-28.8-1.6-.8-3.7-2.3-4.8-3.2-3.2-3.1-19.1-10.8-27.3-13.4-7.7-2.4-19-4.1-34.2-5.1-5.6-.4-7.3-.2-7.3.8s.7,1.9,1.5,2.6c.8.6,4.2,5.5,7.5,10.8,3.3,5.4,7.3,11.5,8.9,13.7,3.8,5.2,18,27.2,26.3,40.5,3.5,5.8,8.7,14,11.4,18.3,2.7,4.2,5.6,9,6.5,10.6.8,1.6,4.7,8,8.6,14.2,8.6,13.9,19.3,31.8,19.3,32.4s2.8,5.1,6.3,10.7c3.4,5.7,7.3,12.4,8.7,15,1.4,2.7,2.8,4.8,3.2,4.8s.8.4.8.9,1.9,4,4.1,7.7c2.3,3.8,5.2,8.7,6.4,10.9,4.7,8.4,16.4,28.3,21.3,36.3,2.9,4.6,5.2,8.6,5.2,8.8,0,.3,1.6,3.1,3.7,6.2,4.4,6.9,14.9,24.3,15.4,25.7.3.8,14.8,23.3,20.4,31.7,6.5,9.7,13.6,19.6,21,29.3,5,6.5,11,14.6,13.5,18,4.7,6.5,6.1,8.5,14.6,19.4,12,15.7,28.6,41.5,34.1,53.1,7.9,16.9,13.2,35.6,15.4,54.8,1.8,14.9-1.1,36.2-4.8,36.2s-1.6-.3-3.3-8.5c-4.6-23.5-12.5-49.1-18.9-61-1.2-2.2-2.1-4.5-2.1-5.2s-.4-1.3-.8-1.3-1.3-1.2-1.9-2.8c-1.5-3.6-4.6-8.6-5.5-9-.5-.2-.8-.8-.8-1.2,0-1.2-8.5-13.6-13.1-19.2-2.2-2.6-3.9-5-3.9-5.4s-1.1-1.7-2.5-3-2.5-2.7-2.5-3.1-2-3.1-4.6-5.8c-2.5-2.8-6.2-7-8.2-9.5s-6.2-7.4-9.2-11c-17.1-19.8-28-33.6-45.6-57.5-6.4-8.7-37-54.4-45-67.3-2.1-3.5-5.6-9.1-7.8-12.5-2.1-3.4-4.2-7.1-4.7-8.2s-3.2-5.4-5.9-9.5-6.3-10-8.1-13c-1.7-3-5.1-8.4-7.4-12s-4.5-7.2-4.9-8-1.2-2.4-1.9-3.5-5.2-8.8-10.1-17c-4.9-8.3-9.9-16.6-11.1-18.5s-5.1-8.5-8.7-14.5c-3.6-6.1-10.7-17.8-15.8-26-5.2-8.3-13-20.9-17.4-28.2-4.5-7.2-9.3-14.9-10.7-17s-8.4-12.5-15.5-23.1c-17.9-26.9-17.6-26.5-35.3-49.2-38.2-49.1-65.6-70.8-98.8-78.4-7.8-1.7-26.3-2-36.8-.5Z"/>
  <path class="st0" d="M480.4,261.6c-21.5,17.6-57.7,52.9-68.5,66.8-19.6,25.2-25.1,42.4-26.9,84-2.8,64.8-3.2,71.3-7,109.5-.9,9.1-3.9,31.5-6.4,47-2.1,13.3-3.9,35.7-3.2,38.8,1,4.3,3.9,9.2,5.8,9.8,1,.3,1.8.9,1.8,1.3,0,1.6,9.1,3.4,14.2,2.8,6.1-.8,22.9-8.7,30.5-14.4,17.2-12.9,35.2-33.8,45.2-52.3,1.4-2.5,2.7-4.7,3-5,.7-.5,6.3-12,10.1-20.4,3.8-8.5,11-31.5,15.5-49.2,4-15.9,5.7-22.1,10.6-38.4,4.2-13.6,13.5-25.2,28.4-35.3,17.8-12,28.5-20.2,28.5-21.9s-2.9-7.8-8-16.3c-1.6-2.8-3.8-6.6-4.7-8.5-1-1.9-2.1-3.7-2.5-3.8-.5-.2-.8-.8-.8-1.4s-1.7-4-3.9-7.6c-2.1-3.7-5.8-10.3-8.1-14.7-2.4-4.4-4.8-8.9-5.4-10s-1.3-2.2-1.6-2.5c-.7-.7-2.4-3.7-7.1-12.8-2.2-4.2-4.4-8.4-4.9-9.2-.6-.8-3.3-5.8-6.1-11-8.3-15.3-9.6-17.5-12.5-22.1-3.6-5.7-6.5-8.9-7.9-8.9s-4.2,2.6-8.1,5.7Z"/>
  <path class="st0" d="M571.3,417.1c-4.8,3.9-9.2,6.8-10.1,6.8s-1.5.7-2.3,1.6c-.7.8-2.9,2.4-4.9,3.4-5.8,2.9-15.4,13.1-18.2,19.1s-3.5,8.3-4.7,11.9-2.6,7.4-3,8.5c-.5,1.1-1.8,6.3-3.1,11.5-1.2,5.2-2.6,10.3-3.1,11.2-.5,1-.9,2.9-.9,4.2s-.4,2.8-1,3.1c-.5.3-1,1.4-1,2.3,0,1.6-6.3,22.8-8,26.7-.5,1.1-1.6,4.2-2.6,7-3.1,9.1-7.4,18.4-15.4,33-5.9,10.9-7.6,13.5-16.4,24.9-4.2,5.4-7.6,10.5-7.6,11.2,0,2.3,7.9,7.2,13.5,8.5,3.2.7,9.2,1,15.2.7,15.6-.9,29.4-6.3,48.8-19.2,20.5-13.6,59.8-58.3,63.7-72.2,1-3.8.6-10.4-1.3-20.4-1.6-8.2-5.9-26.2-6.9-28.5-.4-1.1-2.2-6.1-4-11-1.8-5-4.1-11-5.2-13.5-9.7-22.3-15.4-33-17.5-33s-2.4,1-4,2.2Z"/>
</svg>