<?xml version="1.0" encoding="UTF-8"?>
<svg id="Layer_1" xmlns="http://www.w3.org/2000/svg" version="1.1" viewBox="0 0 559 487">
  <!-- Generator: Adobe Illustrator 30.0.0, SVG Export Plug-In . SVG Version: 2.1.1 Build 123)  -->
  <defs>
    <style>
      .st0 {
        fill: #fff;
      }
    </style>
  </defs>
  <path class="st0" d="M0,243.5v243.5h559V0H0v243.5ZM491,28.8c0,.9-.4,3.2-1,5-.5,1.9-1,5.8-1.1,8.8-.2,5.6-.8,6.4-2.8,4-1.9-2.3-5-2.6-6.1-.6-.6,1-1,5.5-1,9.9,0,7.9-.1,8.1-2.4,8.1-4.1,0-7.4,1.7-12.5,6.5-5.4,5-9.6,13.3-8.7,17,.3,1.3,2.2,4.2,4.2,6.6,4.8,5.8,10.4,16.9,8.5,16.9s-2.5-1.3-4.5-2.9-5.1-3.3-6.9-3.7c-1.8-.3-4.5-1.3-6.1-2.1-3.4-1.7-4.9-.4-3.9,3.5.8,3.1-1.9,5.8-7.8,7.7-2.8,1-5.4,2.6-6,3.8-3.8,7-16.6,16.7-22.1,16.7s-6.8,4.8-6.8,6.6-2.1,1.9-4.7,2.9c-2.7,1-5.7,2.6-6.9,3.6-1.8,1.7-2.6,1.8-8,.8-3.2-.7-7.7-1.7-9.9-2.4-5.5-1.7-10.6.2-16.4,6-2.4,2.5-6.5,5.2-9,6.1-2.5,1-7.6,3-11.3,4.6-3.6,1.5-7.7,2.8-9,2.8-1.6.1-4.7,2.7-10.2,8.7l-8,8.5,5.5-.6c3.5-.5,9-2.5,15.5-5.7,6.8-3.4,11.1-5,13-4.7,2.8.3,2.8.4-2.9,4.2-4.1,2.8-5.4,4.2-4.5,4.8,1.6,1,5.3.3,14.6-2.8,4.6-1.6,8.1-2.2,9.5-1.8,1.2.4,9,.7,17.2.6,9.4-.2,14.4.1,13.5.7-.8.5-8.2,2.3-16.5,3.9-17.1,3.5-24.5,5.3-47,11.2-31.2,8.3-40,10.1-58.3,12-5.7.6-11.4,1.5-12.5,1.9-2,.8-1.9,1,1.4,2.4,5.8,2.4,9.5,2.9,13.4,1.8,3-.8,4.2-.7,6.1.5,2.1,1.5,2.6,1.4,5.1-.4,1.5-1.1,4.2-2.6,5.9-3.5,3.1-1.6,3.3-1.6,9.8,2.4,7.5,4.5,6.1,4.8,18.9-3.4l7.8-4.9,7.6.7c6.9.6,8.2,1.1,13,4.7,5,3.8,15.3,8.1,39,16.3l8.2,2.8,5.8-4c7.5-5.2,14.1-8.5,15.4-7.7.6.3,6.1,2.1,12.2,4l11.1,3.4,8.2-4.2,8.3-4.2,4.1,1.9c2.4,1.1,7.4,4.1,11.3,6.8,5.3,3.6,7.2,4.5,7.9,3.5.5-.9,0-1.8-1.5-2.8-3.1-2.1-6.7-5.7-6.7-6.8s3-2.7,6.7-4.8c4.7-2.8,7.9-5.6,11-9.8,2.4-3.2,4.3-6.2,4.3-6.6,0-1.4-3.8-1.8-11.6-1-4.4.5-8.1.6-8.3.4-.2-.1-.1-1.4.3-2.7.7-3.1,4.7-7.2,10.8-11.4,2.6-1.7,5.4-4.6,6.3-6.2l1.6-3.1h-3.1c-1.7,0-4.5-.7-6.1-1.6-2.5-1.3-3-2-2.5-3.9.5-2.1,0-2.8-3.3-4.5-4.7-2.3-6.1-1.3-2.6,2,1.7,1.6,2.5,3.4,2.5,5.6s.6,3.7,3,4.9c1.7.9,3,1.9,3,2.4,0,2.2-21.4,5.5-32,4.9l-5.5-.3,6.5-4.5c6.1-4.2,6.4-4.5,4-5.1-4.6-1.3-16.2-.9-25.1.8-7.3,1.4-9.3,1.5-11.6.4-2.6-1.2-2.7-1.4-1-2.6,1-.7,4.6-1.6,8-2,9.1-1,9.4-1.1,12.1-7.1,1.4-2.9,2.9-5.4,3.3-5.4s1.9,1.2,3.2,2.5c1.3,1.4,2.7,2.5,3.3,2.5,1.1,0,5.8-4.9,5.8-6.1,0-1.9,3.4-.8,6.7,2.1,4.1,3.7,6.6,3.8,9,.5,1-1.4,5.2-4,9.3-5.8,11.8-5.2,15.6-7.4,18.4-10.7,3.1-3.8,3.3-5.6.6-6.5s-3.1.2-5.6,2.4c-3.6,3.2-10.2,4.5-9.1,1.8.3-.6.8-1.9,1.2-2.8.4-1.2-.4-2.3-2.9-3.9-2-1.2-3.3-2.6-3-3.2.4-.6,3-2.1,5.8-3.3,6.3-2.8,11.1-6.7,13.2-10.8,1.5-2.8,1.5-3-.2-2.2-2.6,1-10.4,1.9-10.4,1.1s2.5-4.3,5.5-8.8c6.6-9.8,6.9-11.1,1.9-10.2-3.6.7-3.7.6-3-1.9.3-1.4,2.2-5.2,4.1-8.4,3.3-5.5,5-11.1,7.6-24.6.6-3.1,1.4-5.5,1.9-5.2.4.3,1.5,3.9,2.5,8,.9,4.1,2.8,9.6,4.1,12.2,2.3,4.2,2.4,4.8,1,5.9-2,1.4-2.1,4.8,0,6.4,1.8,1.6,5.8,8.3,7.3,12.3.7,1.9,0,2.6-2.4,2.1-1.9-.3-3.5-.4-3.5,0,0,2.3,3.6,8.6,5.2,9.2,1.8.5,7.8,8.7,7.8,10.6s-6.3,1-9.4-.2c-3.6-1.3-3.2,0,1,4.1,5.8,5.5,6,6.6,1.9,8.6-4.2,2-4.4,3.5-.9,6.2,2,1.6,3.1,1.8,4.5,1.1,1.3-.8,2.9-.6,5.4.4l3.5,1.5v21.2l-3.5-2.7c-2-1.5-3.8-2.4-4.1-2.1-.6.6,2.9,7.8,5.7,11.9,2.3,3.2,2.6,8.8.4,8.8s-3.2-.7-5.2-1.5c-1.9-.8-3.7-1.5-3.9-1.5s0,1.4.6,3c1.1,4,4.2,8.9,7.4,11.9l2.6,2.4v266.7h-19.5c-13,0-19.5-.4-19.5-1.1s1.4-2.4,3-4.2c3.5-3.7,9-14.4,9-17.6v-2.2l-3,2.3c-1.7,1.2-5,4.7-7.4,7.8-4.2,5.3-4.8,5.7-12.7,7.9-4.6,1.3-9.6,3.2-11.1,4.2-1.9,1.3-4.3,1.9-8,1.8-4.9-.1-5-.2-1.9-.9,1.8-.4,3.7-1.4,4.2-2.2,1.3-1.9,1.1-6.6-.3-7.4-2.1-1.3-11-.3-14.9,1.7-2.1,1-8.2,3.5-13.6,5.4l-9.8,3.5h-33.3c-27,0-33.8-.3-36.1-1.4-2.1-1.1-3.8-3.8-6.8-10.8-2.3-5.1-4.4-10.9-4.8-12.8l-.8-3.5,6.6,6.1c6.3,5.9,16.1,11.6,22.2,12.9,2.7.6,2.4.1-3.6-5.7-8.5-8.1-10.3-11.1-13.8-24.4-1.6-6-3.4-12.2-4-13.8s-1-3.1-.8-3.3c.7-.7,9.4,8.9,13.8,15.2,2.3,3.3,6.4,8.1,9.1,10.6,5.1,4.8,18.7,12.4,20.8,11.7.8-.2-2.4-4.3-7.4-9.5-4.7-5-8.6-9.6-8.6-10.2s1.3-.5,3.5.6c4.4,2.1,5.5,1.1,2.7-2.6-2.3-3.2-5.5-10.2-4.8-10.8.2-.2,3.1.9,6.5,2.6,10,5.1,10.8,3.8,2.8-4.3-5.3-5.3-15.3-22.4-14.5-24.8s2.6,1.7,5.2,5.1c2.7,3.4,5,6.1,5.2,5.9.1-.2-.4-3.4-1.3-7.2-1.1-4.9-1.2-7.1-.4-7.9s1.1-.8,1.1,0,1.2,1.6,2.8,2.2c1.5.6,3.6,2.5,4.7,4.2,2.2,3.3,10.3,9.5,11.2,8.5.8-.8-5.4-10-11.6-16.9-2.8-3.2-5.1-6.4-5.1-7.2s-1.4-5-3.2-9.4c-1.7-4.5-2.8-8.4-2.4-8.8.3-.4,2.9,1.5,5.7,4.3l5.1,4.9-.6-3.9-.7-3.8,5,4.3c2.8,2.4,6.5,6.3,8.3,8.6,1.7,2.4,3.5,4.3,4,4.3,2.2,0,.3-6.9-4.2-15.3-4.6-8.6-9.5-20.6-8.7-21.4s1.6,1.4,3,3.4l2.7,3.8v-3c.1-2.7.3-2.5,2,1.9,3.9,10,4.2,8.5,3.4-18.9-.4-14.3-.4-25.7,0-25.4.4.4,2,3.9,3.5,7.9,1.8,4.4,3.1,6.8,3.6,6,1.2-2,2.5.9,2.5,5.8s.7,7.2,1.7,10.6c1.6,6.1,1.6,6.6-.5,14.9-1.2,4.7-2.2,9.2-2.2,9.9s3.5-2.2,7.8-6.5,8.1-7.7,8.5-7.7c1.5,0-3.3,7.7-9.3,14.8-3.4,4.1-6,7.6-5.7,7.8.2.3,4.2-1.3,8.7-3.6,4.6-2.2,8.5-3.9,8.7-3.7.6.6-3.6,11.8-5.7,15.3-1.5,2.3-4.4,4.5-9.7,7.1-9.9,4.9-10.4,6.3-2.2,6.3s6.8-.4,9.6-2.6c4.1-3.1,4.2-2,.2,3.5-1.7,2.4-2.8,4.6-2.4,4.9.3.3,3.2-.4,6.5-1.6s6-1.9,6-1.6-1.3,2.5-3,4.9c-2.2,3.2-3.8,4.4-6.4,4.9-3.9.7-9.6,5.5-9.6,8.1s.5,1.5,2.3,1c4.1-1.3,13.2-6.7,19.7-11.9,7.4-6,12-9.1,12-8.2s-2.3,5.2-5,10.8c-4.5,9.2-6,11.2-14.3,19l-9.2,8.7h5.4c4.5.1,5.2.3,4.1,1.5-.6.8-3.8,2.5-7.1,3.8-6,2.3-8.1,4.4-5.3,5.5,1.5.5,14.6-4,17.2-6,1.8-1.4,1.5-.1-1,4.3-1.6,2.8-3.4,4.3-5.8,5.1-9.4,3.1-18.8,9.9-13.6,9.9s7.3-2.2,14.5-4.9c14.2-5.4,26.3-12.5,28.9-17,.9-1.6,3.6-4,6.1-5.3,12.3-6.4,13.4-7.4,16-13.3,1.3-3.1,4.2-6.9,7.6-10,4.8-4.4,5.6-5.7,6.9-11.2.8-3.5,1.1-6.3.6-6.3-.8,0-4.8,4.4-11.3,12.3-3.9,4.9-9,8.2-10.8,7.2-.5-.4-1.5-2-2.2-3.7l-1.3-3.1-3.1,3.2c-3.8,3.8-5.3,3.9-5.3.5s-1.8-6.4-4.3-6.4c-3.6,0-5-1.5-4.2-4.1s7.8-9.4,16.5-17.9c15.4-15.1,16-15.8,21-26,2.8-5.8,4.6-10.6,4-10.8-1-.4-11.2,7.9-14,11.3-1.9,2.2-8.6,1.9-11-.5s-2-2.6-2-3.4-1.6-2.3-3.5-3.5c-1.9-1.1-3.5-2.4-3.5-2.8,0-1.8,4-6.5,11.3-13.3,4.2-3.9,7.7-7.8,7.7-8.5s-2.1-1.4-6.6-1.7c-5.1-.3-7-.9-8-2.3-.8-1.1-1.3-2.4-1.1-3,.2-.5,3.4-2.7,7-4.7,6.7-3.6,15.4-10.6,17.1-13.5.7-1.4.3-1.5-3.1-1-2.2.4-4.3.4-4.6.1-1-1,1.2-4.4,7.5-11.7,5.9-6.9,11.2-15.9,10.6-17.9-.2-.6-1.9.4-3.8,2.1-4.9,4.4-7,4.7-13.6,1.7-3.1-1.4-5.8-2.6-5.9-2.6-.9,0-1.4,5.5-.6,6.3.8.8.6,1.6-.6,2.9-1.6,1.8-1.6,1.9.5,2.5,2.7.7,2.7,1.3.1,5.7l-2.1,3.5,2.6.7c3.5.8,3.5,5.2.1,11-2.8,4.7-4.9,5.8-9.2,4.8-4.4-1.1-4.4-1.2.3-5.9,4.6-4.7,5.4-6.5,2.9-6.5s-7.5-2.9-7.5-4,1.3-1,2.8-1,3.7-.9,4.6-1.9c1.7-1.9,1.7-2-2.6-3.1-7.4-1.9-7.6-2-5.3-3.2,3.2-1.7,6.5-5,5.9-5.9-.3-.5-2.1-.9-4-.9s-3.4-.5-3.4-1.5-1.1-1.7-2.5-2.1c-3.1-.8-4-2.4-4.8-8.4l-.7-4.5,1.8,3.5c2,4.1,8.8,8,13.9,8s3.3-.4,4.3-4c.8-2.9,2.1-4.7,4.8-6.4,2-1.3,5.5-3.9,7.7-5.9,4.4-3.8,4.2-4.7-1.4-8-3.4-2-3.2-2.2-5.1,5.1l-1.1,4.2-2.2-2.6-2.3-2.7-5.2,5.9c-4.8,5.4-5.3,5.7-5.8,3.6-.7-2.5-2.4-3-2.4-.7,0,3.5-1.8,1.1-2.9-4-.7-3-1.5-5.5-1.7-5.5-1.2,0-6.4,6.3-6.4,7.8-.1,1.5-.2,1.5-1.5-.2-1.5-2-2-1.5-2.7,2.7-.5,2.8-2,2.5-4.4-1-2.1-3.2-2.2-3.2-2.9-1-.5,1.4-.9,1.5-1.2.2-1-3.9-2.2-3.7-3.4.6-.9,3.2-1.4,3.8-1.7,2.4-.4-2-7.1-9.5-8.4-9.5s-1.1,1.2-1.4,2.7c-.6,2.3-.8,2.4-1.9.9-1.2-1.5-1.3-1.5-1.9,0-.3.8-.6,2.4-.6,3.5s-.9,2.7-2,3.6c-1.1,1-2,2.5-2,3.4,0,2.9-2.9,3.1-3.6.3-.9-3.7-2.7-2.4-3.8,2.7l-.9,4.4-1.6-3.6c-1.4-3.3-1.8-3.6-3.6-2.5-2.8,1.5-3.5,2.7-3.5,5.6s-.9,4.2-2,6.3c-1.1,2-2,5.2-2,7.1,0,6.1-1,7.1-3.3,3.4l-2-3.3-1.6,4.5-1.5,4.5-.9-4.5c-.5-2.5-1.5-7-2.2-10l-1.2-5.5-1.1,4c-.7,2.2-1.5,6.9-1.8,10.5-.5,4.6-1.2,6.9-2.5,8-1.4,1.1-2.1,3.4-2.6,8.2-.3,4.2-1,6.5-1.6,6.1-.5-.3-1.6.2-2.3,1.1-.8,1.2-2.3,1.6-4.5,1.4-2.8-.3-3.4-.8-4.7-4.6-1.6-4.9-2.3-4.7-3.7,1.1-.7,2.5-1.7,4.2-2.5,4.2-1.7,0-2.3,2.7-4.6,19.9-1.8,13.4-3.2,14.7-3.3,3.1-.1-3.3-.6-6.7-1.1-7.5-.7-1.1-1-1.2-1-.2s-.7,1.1-2,.7c-1.1-.4-2-.2-2,.4s-.4,1.1-1,1.1-1-.7-1-1.5-.4-1.5-1-1.5-1,.6-1,1.4-.6,1.6-1.4,1.9-1.7,1.9-2.1,3.5c-.3,1.7-1.4,3.2-2.4,3.5-1.1.3-2.2,2.1-2.9,4.9-1.3,5.2-3.8,8-4.8,5.4s-.9-1.2-2.6,1c-1.5,1.8-2.4,2.2-3.1,1.5-1.6-1.6-2.5-1.3-3.2,1-.7,2-.7,1.9-3.3-.6-2.7-2.7-4.2-2.1-4.2,1.9s-1.6,1-2.2-1.9c-.3-1.6-.8-1.3-2.5,1.9l-2,3.9-.8-2.9-.8-2.9-1.2,2.9c-.7,1.8-1.5,2.4-1.9,1.7-1.1-1.7-2.3-1.3-3.1,1.1-.6,2-.8,2-1.2.6-.7-2.8-1.9-2.1-3.6,1.9l-1.5,3.8-.7-3.3c-.9-3.7-2.5-4.3-2.5-1s-.5,3-1,3.8c-.9,1.3-1,1.3-1-.1s-.6-2.3-1.3-3.3c-1.2-1.7-1.5-1.4-2.9,3-1.3,4-1.7,4.5-2.3,2.9-2-5.9-1.9-5.8-4.2-1.5l-2.1,4.1-1.2-3.3-1.2-3.3-1.8,4c-1,2.2-1.9,3.5-1.9,3-.1-.6-1-2.1-2-3.5l-1.9-2.4-1.2,4.4-1.3,4.5-1.1-2.7c-1-2.4-1.3-2.5-2.3-1-1,1.6-1.2,1.6-2.6-.2-1.4-1.9-1.5-1.8-2.2,1.2-.9,4.1-2,4.1-3.5-.1l-1.1-3.2-2.1,5c-2.7,6.3-2.6,6.2-4.1,4.2-1.5-2.1-4.9-1.6-5.7.9-.7,1.8-.8,1.8-1.4-.4-.9-2.6-2.6-2.9-2.6-.5s-.4,2.5-1,3.3c-.7,1.1-1.1.9-1.9-1.3-1.2-3-3.1-2.8-3.1.4s-.4,1.9-1,1.9-1-1.1-1-2.4c0-3.6-1.7-4.1-2.5-.7l-.6,2.9-4.4-2.9c-6.7-4.5-10.6-8.8-13-14.4l-2.2-5-.7,3.5c-1.6,7.9-2,8-7.5,2.9-2.3-2.1-2.3-2.3-.5-3,1.7-.6,1.5-.8-1.1-1.9l-3-1.2,2.5-1.2c1.4-.6,3.7-1.9,5-2.9l2.5-1.9-5,.6c-2.7.3-7.1.8-9.7,1.2-3.7.5-4.8.3-4.8-.7s-.6-2.6-1.4-4c-1.3-2.5-1.2-2.8,1-3.8,3.1-1.4,3.1-3.1,0-3.1s-4.3-2-1.5-4.1c2-1.6,2.2-2,.9-2.9-.8-.5-2.2-1-3-1-1.1-.1-.9-.6.7-1.9,2.5-2.1,2.1-3.1-1.6-3.2h-2.6c0-.1,2.5-.8,2.5-.8,2-.6,2.4-1.3,2.2-3.7-.2-1.6-1-3.4-1.8-4-.7-.6-1.4-2.5-1.4-4.3s-.4-3.1-1-3.1-1,.6-1,1.4-.7,2.2-1.6,3.1c-1.3,1.2-1.4,1.9-.5,2.8,1.5,1.5,1.4,2.7-.4,2.7s-2,1.6-.2,2.3c.8.3.6,1-.8,2.1-1.9,1.5-1.8,1.7.5,2,2.4.3,1.2,2-1.8,2.8-2.9.8-3.2,1.1-2.1,2.4.8,1,2.1,1.3,3.6.9,1.9-.4,2.3-.1,2.3,1.8s-.5,2.8-1.1,3.4-.5,1.3,1,1.8c2.7.8,2.7,3.1.1,4.5-2.9,1.5-2.5,3,.8,3s3.6.6,4.6,1.3c1.6,1.2,1.3,1.5-3,3.6-6.1,3.1-8,2.1-7.6-4,.3-5.6-.5-8.9-2.1-8.9s-1.8-1.7-2.4-3.8l-1-3.7-1.1,2.7c-1.2,2.9-3.2,3.8-3.2,1.5s-11.3-12.1-15.6-14.7c-2.9-1.8-3-2.7-.4-3.5,1.5-.5,3.1.2,5.6,2.4,1.9,1.7,4,3.1,4.7,3.1s0-1.1-1.5-2.4c-2.9-2.6-2.2-3.6,2.4-3.6s1.8-.3.8-1.5c-.7-.8-1.8-1.5-2.6-1.5s-2.9-1.4-4.8-3.1l-3.5-3-3,3.3c-1.7,1.8-3.1,4.1-3.1,5.1s-.8,2.1-1.8,2.4c-1.3.3-1.8,1.1-1.5,2.6s-2.7,4.6-8.8,7.5c-.3.1-1.8-.7-3.3-1.9-2.4-1.9-2.6-2.3-1.2-3.8.8-.9,2-3.9,2.6-6.6,1.1-4.8,1-5.1-1.6-7.2-2.5-2-2.6-2.3-1-2.9,2.2-.9.8-1.9-4.8-3.5l-3.8-1,2.3-2.6c1.3-1.3,3.2-2.9,4.2-3.5,1.7-.9,1.8-.7,1.3,2-.6,2.6-.2,3.2,3.3,5.5,2.2,1.5,4.5,2.7,5,2.7,2.1,0,2.2,2.3.2,5.1-2.8,3.7-2.7,4.7.6,6,2,.8,2.9.7,3.2-.2s1.2-2,2.2-3,1.4-2.1.8-2.4c-1.5-1-.2-2.2,3.2-2.9,2.7-.5,3-.8,1.9-2.1-1-1.2-1-1.5.1-1.5s1-.3.2-1.1-3.2-1.1-5.7-1.1c-2.6-.1-5.1-.7-5.7-1.5-.6-.7-1.8-1.3-2.5-1.3s-1.4-1.1-1.4-2.9c0-3.9-.9-6.1-2.6-6.1s-1.4-1.1-1.4-2.9c0-7.2-4-11-7.2-6.9-1.6,2.2-1.6,2.4,0,3.6,1.5,1.1,1.5,1.4.2,2.2-.8.5-2.4,1-3.5,1-2.4,0-4.5,1.8-4.5,3.7s1.1,1.3,2.4,1.3c2.9,0,5.6.9,5.6,2s-11.1,6-12.9,6-1.3,1.5,1.2,3.8c1.7,1.6,3.7,2.2,8.7,2.4l6.5.3-3.5,1.9-3.5,2,4.3.9c3.6.7,4.1,1.1,3.2,2.2-1.7,2.1-7.7,2.9-10.7,1.6-1.4-.7-2.8-.9-3.2-.6-1.3,1.4,4.3,4.5,9.1,5.1,4.6.6,4.9.8,3.3,2-1.1.8-3.9,1.4-6.4,1.4-5.4,0-8.6,1.5-5.8,2.6,1,.3,4.3,1.2,7.3,1.8s5.5,1.5,5.5,2.1c0,1.7-14,2.6-19.7,1.4l-5.1-1.1-1.4-6.1c-1.8-7.6-4.6-10.1-10.5-9.1-4,.6-4.1.7-5.2,6.3-.7,3.2-1.2,9.9-1.2,15,0,7.8.3,9.8,2.1,12.2,1.1,1.6,2.6,2.9,3.3,2.9,1.7,0,7-5.8,9.1-10,1.6-3.1,1.9-3.3,2.6-1.5.4,1.1.8,4,.8,6.5,0,2.9,1.3,7,3.6,12,2.4,5,5.5,8.1,9.4,9.3,3.2,1,8.3,3.3,11.2,5.1,3,1.7,8.1,4.3,11.3,5.6l5.9,2.4,3.9-2.3c4.9-2.8,5.3-2,4.5,10.2-.9,13.2,1.8,26.5,6.1,31,1.8,1.8,3.2,4.1,3.2,5,0,2.8,24.9,14.1,26.8,12.2s-6.5-6.5-10.8-6.5-8-4.9-8-6.3,2.1.1,4.7.9c2.5.8,5.5,1.4,6.7,1.4,1.7,0,1.6-.4-1.4-3.5-3.6-3.7-3.2-4.4,1-2,2.7,1.5,15,2.1,15,.6s-2.8-1.6-6.2-2.6c-8.7-2.4-12-4.7-15.1-10.4-1.5-2.7-2.7-5.1-2.7-5.4s4.4,1,9.8,2.8l9.7,3.4-5-4.2c-6.8-5.7-12.7-11.8-12.1-12.4s4,1.8,8.1,4.7c4.2,2.8,7.8,5,8,4.8.3-.2-.5-3.2-1.7-6.6-1.9-5.8-2-6.3-.4-10.2.9-2.2,1.6-5.5,1.6-7.4,0-3.8.8-5,2.5-3.6.9.7,1.7-.1,3-3,1-2.2,2.5-4.6,3.3-5.3,1.3-1.1,1.4.8.8,16.1-.8,18.4-.5,19.4,3.5,12.8,1.5-2.4,1.9-2.7,1.9-1.2s.4,1.6,3-.9c1.7-1.6,3-2.6,3-2.2,0,1.5-5.2,10.1-9.4,15.5-6.3,7.9-6.1,12.6.2,6.6,1.5-1.4,4.4-3.4,6.4-4.5,2-1,3.9-2.3,4.3-2.9,1.1-1.8,2.7-1.1,2,1-.8,2.6-.4,2.5,5.2-.9,2.6-1.7,4.9-2.8,5.1-2.7.8.9-7.5,15.6-9.3,16.4-2.6,1.2-13.5,11.1-13.5,12.2s7.2-1.9,10-4.5c2.6-2.4,10-5.9,10.8-5.1.2.3-.3,2.5-1.1,5-.9,2.6-1.3,4.6-1,4.6s2.3-1.6,4.6-3.5c4.1-3.5,6.5-4.6,5.1-2.3-3.1,5.1-10,13-12.7,14.7-3.9,2.4-7.5,6.1-5.9,6.1s4.1-1.1,7.7-2.4,6.5-2,6.5-1.6-1.6,2.7-3.5,5c-2,2.4-3.4,4.4-3.2,4.6s2-.1,4.1-.7,4-.8,4.3-.5c.3.2-2.6,2.5-6.3,5-9,5.9-10.9,7.4-10.1,8.2s11.2-2.8,17.9-6.2c2.5-1.3,7.3-4.8,10.5-7.7,6.3-5.9,14.4-11.9,15-11.3s-.5,1.9-1.5,3.7c-1.1,1.9-2.8,5.8-3.7,8.8-2.1,6.6-6.9,12-14.2,16.1-3,1.7-5.3,3.4-5,3.7,1.6,1.5,19.4-5.5,27.6-10.9,3.3-2.1,3.4-2.1,2.7-.3-.4,1.1-2.6,5.2-4.9,9.2l-4.2,7.2h-37.7c-25,.1-37.8-.2-37.8-.9s-1.1-.8-2.5-.4c-2.8.7-3,0-1-3.6,2.3-4.1,1.9-5.7-.9-3.1-3.6,3.4-5.2,1.8-2.6-2.6,2.3-4,2.1-5-.8-3.4-2.5,1.3-6.2,1.4-6.2.2s1.4-2.5,3-4.6c2.2-2.8,3-4.8,3-7.8s-.1-3.9-1.5-2.1c-1.3,1.7-1.4,1.6-.8-1.8.6-3.8-.3-4.8-2.4-2.7s-1.7.1-2.8-8.3c-.9-6.9-2.5-7-2.5-.2s-.1,5.5-1.7,4.3c-1.5-1.3-1.6-1.1-.9,1.4.3,1.5.9,4.7,1.3,7.2.7,5.2-.5,5.8-3.6,1.7-2.6-3.5-2.7-1.1-.1,4.7,2.7,5.8,2.6,6-1.5,2.1-2.3-2.2-3.5-2.9-3.5-1.9s1.2,2.6,2.6,4c2.8,2.6,6.9,8.8,6.2,9.4-.2.2-2.6-1.4-5.3-3.5s-5.1-3.7-5.3-3.5,1,2.8,2.7,5.8,3.1,5.9,3.1,6.4-1.4.7-3.2.5c-2.6-.4-3-.2-2.5,1.2.5,1.2,0,1.6-1.8,1.6s-2.5-.4-2.5-4.5-.3-4.3-1.6-3.8c-1.4.5-1.6.2-1-2.2,1.8-7.1,1.9-8.8.6-8-.9.6-1,.1-.5-1.6.3-1.3.9-3.2,1.1-4.2.3-.9,0-1.7-.5-1.7s-1.1.4-1.1,1-.4,1-.9,1-1.2-2.4-1.5-5.3c-1.1-11.2-1.8-14.3-2.7-12.2-.4,1.1-.8,4.5-.9,7.5,0,5.2,0,5.4-1.6,3.5s-1.6-1.6-1,3.8c.5,4.3.3,5.7-.5,5.1-1.2-.7-1,.8.7,5.1.5,1.3,0,1.4-1.4.1l-2.1-1.9.5,5c.5,3.9.2,5.8-1.5,9.1l-2.1,4.2h-8.6c-7.8,0-8.5-.2-7.9-1.7,2.7-6.2,4.8-13.3,4.2-13.9s-3.9.7-7.8,2.4c-6.6,2.9-7.1,3-6.6,1.2.7-2.7-.5-2.5-3.3.5-2.4,2.5-6.3,3.2-8.8,1.6-2.3-1.4,12.9-14.1,17.1-14.1s1.7-.5,1.7-1-.5-1-1.1-1c-1.2,0-1.1-1.1,1.5-10.4.9-3.3,1.3-6.2,1.1-6.5-.3-.3-3,2.1-5.9,5.2-5.5,6-9.5,7.7-8.1,3.4,1.4-4.4,2-11.3,1.5-16.7l-.5-5.5-1.9,3.5c-1,1.9-4.6,5.7-8,8.4-5.9,4.7-21.8,13.1-23.6,12.4-2-.7,6.9-10.3,15.8-17,9.6-7,21.2-17.5,21.2-19s-.7-.8-1.5-.8c-1.6,0-2.1-2.5-.6-3.5,1.4-.8,6.2-9.7,5.6-10.3-.2-.3-2.6,1.5-5.3,4-3.4,3.2-6.5,5-10.4,6.2-3.1.9-8.6,3-12.3,4.6-6.3,2.8-16.6,4.2-16.5,2.2,0-1.3,8.8-7.1,16.2-10.7,8.8-4.3,13-8.2,15.7-14.6,3-6.9,10-29.9,9.1-29.9s-3.3,3-6.5,6.7c-3.1,3.8-8,8.7-10.8,11-5.2,4.3-23.3,14.1-24.2,13.1-1.1-1.1,3.9-6,8.6-8.3,3.7-1.9,5.3-3.5,6.7-6.7,1.1-2.4,1.8-4.4,1.7-4.5,0-.2-3,1.3-6.6,3.2-7.3,3.9-7.9,4.1-7.9,2s1.4-2.4,3.1-3.3c4.4-2.4,7.9-5.2,7.9-6.3s-1.7-.6-4-.3c-2.2.4-4,.4-4,.1,0-.5,5.3-7.1,9.4-11.7.7-.8,2-2.9,2.9-4.5,2-3.5,8.8-22.7,8.3-23.2s-3.6,3.1-7.7,7.3c-7.2,7.4-14.3,13.4-16.1,13.4s-.8-.9-.8-2c0-2.3,4.8-7,7.2-7s2.7-1.9,4.4-5.1c1.4-2.8,2.4-5.3,2.1-5.5-.2-.2-2.2.6-4.5,1.8-2.2,1.3-4.3,2-4.6,1.7s.6-2.7,1.9-5.4c2.9-5.7,2.5-6.9-.9-3.2-1.9,2.1-3.5,2.7-6.5,2.7s-4.2-.4-4.5-.8c-.3-.5,1.8-2.4,4.7-4.3,2.8-1.9,6.1-4.8,7.3-6.6,2.3-3.5,6.1-16,5.1-16.9-.3-.4-3.3,1.2-6.7,3.5-3.3,2.3-6,3.8-6,3.5s2-3.9,4.5-7.8c4.5-7.3,8.1-15.6,6.6-15.6s-3.2,3.4-6.1,7.5-5.4,7.4-5.6,7.3c0-.2.5-3.7,1.3-7.8,1-5.1,1.2-9.6.7-14-.4-3.6-1-9.7-1.3-13.5-.4-4.7-1-6.9-1.8-6.8-2.2.5-3.3-7-3.3-22.2v-15l4.5-1.1c2.5-.6,4.5-.7,4.5-.4s-1.3,2.6-3,4.8c-3.6,4.9-3.6,5.2-1,5.2s2.5,1.4-1,4.7c-1.6,1.5-3,3.4-3,4.2,0,2.4,5.3,11.2,6.6,10.7.8-.3,1.5,2.4,2.3,8.7.7,5,1.3,9.3,1.5,9.4.2.2,2-2.2,4-5.3l3.8-5.6-3.6-3.7c-2-2-3.6-4.1-3.6-4.6s2.9-2.5,6.5-4.4l6.5-3.3-3-2.8c-3.7-3.4-3.8-5.2-.5-7,3.3-1.7,3.2-2.3-.8-3.9l-3.2-1.2,2.5-1c3.6-1.4,3.6-1.6.6-4.4-2.1-2-2.6-3.2-2.2-5.1.5-2,.2-2.6-1.8-3.4-2.6-.9-3.6-4.2-3.4-10.5,0-4.6-1.4-13.7-2.2-12.8-1.1,1.4-3,10.5-3.4,16.6-.2,3.2-1,6.4-1.6,7.2-1,1.2-1,1.5,0,1.5,1.4.1-3.9,5-5.3,5s-.8-3-.8-6.6c0-5.8.2-6.5,1.5-5.4,2.3,1.9,2.9.5,1-2.4-1.7-2.5-1.7-2.6.4-2.6s2.7-1.8-.4-3.2l-2.5-1.1V50.1l3.2,1.1c1.8.6,6.2,4.2,9.8,7.9,8,8.1,11.1,9.1,21,6.6,5.2-1.4,7.3-1.5,10.5-.6,5.7,1.6,10.4,5.5,12.7,10.6,2.7,6.1,2.5,11-.6,17.1-2.4,4.7-3.4,10.1-2,11.4.3.3,2.2.2,4.2-.3s7.9-.6,12.9-.3l9.3.6-2,2.6c-2,2.5-2.7,8.6-1.1,9.6.5.3,3.3-.5,6.1-1.8,8.6-4,17.2-5.9,22.5-5.2,3.7.6,5.6,1.7,9.3,5.4s5.6,6,6.7,7.6c1.4,1.9,3,2.3,4.8,1.1,3.4-2.2,9.3-2.3,13.4-.2,1.7.9,5.1,3.9,7.6,6.7l4.5,5h8.4c4.5,0,11.5.7,15.3,1.6,9.5,2.2,10.9,2.2,11.3.2.4-2.2-5.3-8.5-10-10.9-2.9-1.5-5.6-2-9.6-1.8-5.5.2-5.9,0-9.9-4.1-2.4-2.3-4.3-5-4.3-5.9-.1-2.5-3.6-9.7-6-12.1s-1.9-2.4-1.7-2.7c.3-.2,2.9.3,5.8,1.1,6.3,1.9,17.4,2.1,20.9.3,1.4-.7,3.7-3.5,5.2-6.2,3.8-7.1,7.3-9.8,11.6-9.2,1.8.4,4.9,1.8,6.8,3.2,3,2.3,3.9,2.5,6.5,1.6,2.4-.8,3.7-.7,6.1.5,2.7,1.4,3.2,1.4,5.5-.3,7.6-5.5,12.1-6.5,17.2-3.9,3.4,1.8,8.1,7,11.6,12.9l2.5,4.4,7-.5c7.8-.5,15,1.3,21.4,5.5l3.8,2.5,4.8-2.6c4.7-2.6,9-3.4,9-1.8s-1.2,1.9-2.6,3.3c-1.4,1.3-3.2,3.6-4,5.1-1.2,2.3-2.1,2.8-5.3,2.8-5.5,0-10.6,2.4-15.7,7.5s-5.4,6.8-3.5,7.9c.5.3,5.7,1,11.7,1.5,10.4.9,10.8.9,13.8-1.4,6-4.4,13.6-5.4,22.3-2.9,2,.5,2.5,0,4.2-3.9,2.8-6.5,5.7-8.1,13.1-7.3,3.3.4,6,.3,6-.2,0-2,6.1-9.9,9.1-11.6,4-2.4,13.2-4.6,15.9-3.9,1.3.3,2.2,0,2.7-1.2,1.5-4.1-10-9.3-17.6-8l-4.1.7v-4.9c.1-9.2,6-17.3,12.8-17.3s4.6-1.2,5.5-5.1c1-3.9,4.9-9.1,8.7-11.6,7.6-4.8,7.3-4.4,6.1-8.9-1.2-4.6-4.4-7.9-8.3-8.9-2.3-.6-2.8-1.3-2.8-3.9s-.3-4.1-.6-5.4l-.6-2.2h52.1c49,0,52.1.1,52.1,1.8Z"/>
  <path class="st0" d="M63.5,156.6c-.4,2.7-1.6,6.1-2.7,7.7-1.9,2.7-1.9,2.9-.3,4.1s1.5,1.9,1.1,3.4c-.7,2-1.9,2.6-5.3,2.5-2-.1-1.5,1.4,1.8,5.1,3.5,4,3.3,5.1-1.3,6l-3.2.6,4.4,4.5c3.8,3.9,4.1,4.5,2.3,4.5-2.7,0-4,1.8-1.9,2.6,2.5.9,1.9,2.2-2.2,5.1-2.1,1.6-3.9,3.2-4,3.8-.2.5,1.8,1.2,4.4,1.5l4.6.5-2.4,3.5c-1.3,1.9-3.9,4.5-5.8,5.7s-4.6,3-5.9,3.9l-2.4,1.8,3,1.4c2.8,1.3,3.7,1.3,8-.1,2.6-.9,5-1.3,5.3-1.1.5.6-2.7,3.5-9.1,8.5-1.9,1.5-3.1,3-2.7,3.4s3.2.1,6.3-.8c4.8-1.4,5.5-1.4,5.5-.1,0,2.1-2.3,6.2-5.9,10.8-2.1,2.6-3.1,5-3.1,7.3s.2,3.4,2.3,2.8c2.2-.7,5.6-3.9,7.6-7.2,1-1.7,1.2-1.7,2.3.2,4,6.8,17.4,14.2,27.5,15.1,5.3.5,7.2.3,7.8-.7.5-.8.3-1.5-.5-1.7-2.7-.9-6.9-5.9-7.7-9.2-.6-2.3-2-4.2-4.2-5.5-1.7-1.1-5.5-3.8-8.3-5.9l-5.1-3.9,5.2-2.6c3.5-1.8,4.5-3.3,3.2-4.5-3-2.7-3.6-5.4-1.6-7.6,1.5-1.7,1.4-1.9-2.9-4-4.7-2.2-9.6-7.1-9.6-9.6s1.2-1.4,3.8-1.4c8.8,0,10.7-2.6,4.2-5.5-5.6-2.5-6.6-3.9-3.5-5.3,3.3-1.5,3.1-2.3-.7-4.5l-3.2-1.9,2.3-1.8,2.4-1.8-2.3-1.2-2.3-1.3,2.7-1.1,2.8-1.1-3.1-2.3c-3.8-2.7-3.8-3.5-.6-5s3.2-3.2,0-6.2c-1.5-1.4-2.9-4.3-3.6-7.9-1.8-8.3-2.5-9-3.4-3.5h0Z"/>
  <path class="st0" d="M113.2,169c-2.8,1.7-4.3,1.9-10.2,1.4-5.2-.5-7.8-.3-11,1-3.6,1.4-4.4,1.5-7.6.1-5.1-2.1-8.3-2-7.7.3.2,1-.3,2.4-1.1,3.1-2.3,1.9-2,2.8,1,3.5l2.7.7-2.4,2.5c-2,2.1-2.1,2.7-.9,3.4.8.5,1.9,1,2.4,1s.2.8-.7,1.8c-2.7,3-2,3.5,4.1,2.8,20.3-2.2,22.1-2.1,30.7,1.7,4.4,1.9,11,4.4,14.7,5.7,3.7,1.2,7,2.5,7.3,3,.7,1.1-5.7,6-7.9,6s-4.8-1.6-8.7-3.6c-6.6-3.3-23.8-8.4-33.6-9.9-3.9-.6-4.4-.4-5.4,1.9-1.1,2.2-.9,2.8,1.2,4.5,1.3,1.1,3.2,2.3,4.2,2.6.9.4,1.7,1,1.7,1.5,0,1-6.3,6.6-8.2,7.2-1.9.8-.5,1.8,4.5,3.3l4.5,1.3.7-3.6.7-3.7,1.5,2.8c1.8,3.5,2.5,2.9,3.3-2.6l.6-4.2,1.8,4.2c1,2.4,2.2,4.1,2.6,3.8.5-.3,1.5.2,2.4,1,1.3,1.3,2.3,1.4,5.3.6,7.2-2,12.6-1.4,20.1,2.5l7,3.6,5.9-3.6c5.1-3.1,6.9-3.7,15.4-4.4,6.3-.6,11.2-1.6,14.1-3.1,2.4-1.1,5.8-2.1,7.4-2.1,3,0,13.2-2.5,14.2-3.4.3-.3-1-1.2-2.8-1.9-2.5-1.1-2.9-1.5-1.5-2.1.9-.3,3-.6,4.6-.6,5,0,3.2-1.5-4.3-3.5-3.9-1-9-2.8-11.2-4-2.3-1.2-6.5-3-9.4-3.9-2.9-1-6.6-2.9-8.1-4.2-1.6-1.3-5-2.8-7.6-3.3s-5.8-2-7.3-3.3c-4.6-4.3-7.5-5.8-11-5.8s-5-.9-7.2-2c-4.9-2.5-6.7-2.5-10.8,0h0Z"/>
  <path class="st0" d="M46.8,176.2c-1.7,5.6-1.6,6.8.8,6.8s1.3-.6.9-2c-.5-1.7-.2-2,2-2s2.6-.3,1.9-1.8c-.4-.9-.8-2.7-.8-4-.2-4.3-3.1-2.4-4.8,3Z"/>
  <path class="st0" d="M323,205.5c-.6.7-3.8,3-7,5.1-3.3,2.1-6,4.2-6,4.6,0,1.4,3.4.9,7.2-1l3.6-1.9-.5,3.4c-.6,3.3-.5,3.4,2.3,2.7s3.6-1.3,4.5-2c.8-.8,1.8-1.4,2.1-1.4s1.4,3.1,2.3,7c1.7,6.9,3.5,9.3,3.5,4.6s.5-2.8,1-3.1c.6-.3,1-.1,1,.6,0,1,14.8,15.9,15.8,15.9s-.7-1.8-1.8-4-3.8-5.2-5.9-6.6c-2.2-1.4-4.6-4-5.5-5.7-1.9-4.1-5.6-12.8-5.6-13.2s2.6,2.3,5.7,5.7c3.2,3.3,5.9,5.5,6.1,4.9s3.3,1.4,7,4.4c3.6,3,6.9,5.5,7.4,5.5s-1.5-3.2-4.4-7c-2.8-3.9-4.8-7.3-4.5-7.6s3.4,2.1,6.8,5.4c10.2,9.3,15.3,12.2,10.3,5.7l-2.6-3.5,5.8,2c3.2,1.1,6.7,2.8,7.7,3.8,1.9,1.6,2,1.6,1.4-.1-.5-1.4,0-1.7,3.5-1.7,5.5,0,4.1-1.3-4.7-4.4-20.5-7.3-29-10.8-34.2-14.5-5.3-3.7-6.5-4.1-13.5-4.5-5.7-.3-8-.1-8.8.9h0Z"/>
  <path class="st0" d="M211.2,206.7c-.7.3-2.2,2.4-3.4,4.6-2.3,4.6-5.8,9.5-5.8,8.1s.7-3.1,1.5-5.7c1.8-5.9.6-6.8-5.2-3.7-3.2,1.6-4.6,1.9-6.7,1-5.8-2.2-6.8-.6-4.4,7.1.9,3.2.8,4.6-.5,8.1-.9,2.3-1.4,4.4-1.1,4.7.4.3.9,0,1.2-.8.2-.7,1.3-2.2,2.3-3.2s1.9-3.3,1.9-5.6v-3.7l3.3,3.1c1.7,1.7,4.2,3.6,5.4,4.2,1.9,1,2.1,1.5,1.3,3.7-1.8,4.7-1,4.8,3.5.4,2.9-2.9,4.5-5.3,4.5-7,.1-1.4.7-3.9,1.5-5.5l1.3-3v3.7c.2,4-1.2,8.2-3.7,11.2s-1.4,1.8,1.9,1.1c5.7-1.2,11.5-4.7,11.8-7.3.2-1.3,1.5-4,2.9-6l2.5-3.7-.7,4c-.4,2.2-.9,4.8-1.2,5.8-.4,1.6-.2,1.7,1.5.8,1.1-.6,2.2-1.6,2.4-2.2.2-.7,1.7-.3,4.1,1.1,4.7,2.8,5.9,2,1.8-1.1-3.8-2.8-4-4.9-.5-4.9s3.6,1.1,5.2,3l2.6,2.9,1.1-2.2c.9-1.7,1.9-2.1,4.4-1.9,2.8.2,10.1-2.9,10.1-4.4s-7.4-3.3-8.8-2.5c-1,.4-3.7.9-6,1-2.4,0-4.8.3-5.3.7-.5.3-2.4-.7-4.3-2.1-3-2.3-3.6-2.4-4.9-1.1-1.2,1.3-2.2,1.3-6.8.2-3-.7-6.3-1.7-7.4-2.3s-2.6-.8-3.3-.6h0Z"/>
  <path class="st0" d="M177,209.9c-3,.4-7.1,1.4-9,2.3s-7.5,1.9-12.5,2.3c-5.6.5-10.3,1.5-12.5,2.6-6.5,3.4-9.6,6.8-4.4,4.9,3.4-1.3,3.3-1.3,2.6,1.2-.3,1.5.2,1.7,1.6.4,1.2-1.1,2.2-1.6,2.2-1.1s.7.2,1.5-.5c1.3-1.1,1.5-.8,1.5,1.4,0,3.5,1.5,3.3,3-.4,1.3-3.1,3-3.2,3-.1s.9,2.9,2,4.2l2,2.4-.6-2.9c-.6-2.7-.6-2.8,1.5-1.6,1.3.6,2.9,2.7,3.7,4.7l1.5,3.5,3.5-6.8c2.9-5.9,4-5.7,1.7.3-.6,1.6-.5,1.6,1,.4,2.1-1.7,2.1-.6.2,4.9-2,5.8-1.9,7.1.5,3.5,1.1-1.7,4.8-5.5,8.2-8.6,5.2-4.6,6.1-5.9,5.1-7.1-.9-1-1-2.4-.2-5.1,1-3.6.6-5.9-.9-5.5-.4.1-3.2.4-6.2.7h0Z"/>
  <path class="st0" d="M288.6,211.3l-2.9,2.4,5.9,4.5c3.2,2.5,10.4,9.3,15.9,15,13.8,14.4,25.9,23.9,36.3,28.3,4.6,2,8.6,3.4,8.9,3.1.3-.2-4.2-3.2-9.9-6.5-11.5-6.8-17.4-11.8-23.9-20.5-2.4-3.3-5.9-7.9-7.7-10.3-2.9-3.9-3-4.3-1.2-4.3s5,1.1,8.6,2.5c13.2,5,7.5.9-14.8-10.5-6.4-3.3-11.8-6-12-6s-1.6,1.1-3.2,2.3h0Z"/>
  <path class="st0" d="M93.9,213.5c0,1.1-.3,2.4-.4,3-.2.5-.3,1.4-.4,1.9,0,.4-1.2.1-2.5-.8-1.9-1.2-2.7-1.3-3.2-.4-.4.7-.2,1.4.4,1.6,2,.6,1.3,2.2-1.5,3.3-2.2.8-2.4,1.2-1.3,1.9,2.5,1.6,5.9,1.1,11.8-1.6,3.1-1.4,5.9-2.8,6.1-3,.7-.7-4.3-4.2-5.4-3.7-.7.2-1.7-.6-2.3-1.9-1-2.2-1.1-2.2-1.3-.3Z"/>
  <path class="st0" d="M267.8,214c-6.3,1.4-10.6,3.4-22.1,10.3-16.1,9.7-19.1,11-30.3,12.7-10.5,1.7-11.6,3-2.5,3s9.6-.8,18.9-3.9c6.4-2.1,14.3-5.1,17.6-6.5l5.8-2.6-.7,3.6c-.3,2-1.9,6.9-3.5,11-1.5,4.1-2.5,7.4-2.2,7.4.4-.1,2.1-2,3.8-4.3s5.2-5.7,7.7-7.5c4.2-2.9,4.6-3.1,5.2-1.4.3,1.1-.5,3.7-2,6.3-3.2,5.6-3.1,6.5.3,4.1,1.5-1.1,4.2-2.7,5.9-3.6,3.2-1.6,3.3-1.6,7,1.7,4.9,4.4,19.8,14.3,18.8,12.6-1.6-2.7-10.3-13.4-12.9-15.8-2.5-2.3-5.7-10.4-5.6-14,.1-.9,1.3.7,2.8,3.5,3.7,6.9,8.2,12.5,8.2,10.1s-.7-3.4-1.5-5.4c-.8-1.9-1.5-3.9-1.5-4.3s3.3,1,7.3,3.1c6,3.1,7.8,4.7,11,9.6,4.3,6.5,4.2,5.4-.6-6.2-2.7-6.5-4.1-8.5-7.7-11.3-2.5-1.8-7.5-5.6-11.3-8.5-3.7-2.9-7.1-5.3-7.5-5.4-.4,0-4.2.7-8.4,1.7h0Z"/>
  <path class="st0" d="M409.5,218.2c-4.9,2.6-14.7,9.9-14.1,10.5.2.3,2.9-.2,5.9-1.1,7.7-2.2,8.1-2.1,5.3,2.1-1.4,2-2.4,3.9-2.2,4.1s2.9-1.3,6.1-3.3c8.7-5.6,11.7-6.6,15.6-5.4,4.9,1.5,16.1,1.1,20.4-.7,3.6-1.5,3.7-1.5,3,.7-.8,2.4-.3,2.2,4.8-1.5,2.4-1.8,3.2-1.9,7-.9,2.3.7,5.1,1.5,6.2,1.9,1.8.7,1.9.6.5-1-1.8-2.3-11-7.6-13.1-7.6s-5,1.8-9.1,4l-7.5,4-5.9-1.6c-3.2-.8-8.1-2.3-10.9-3.4-2.7-1-5.7-2.1-6.5-2.4s-3.3.4-5.5,1.6h0Z"/>
  <path class="st0" d="M97.4,225.5c-1.2.8-2.4,1.1-2.8.8-.3-.3-.6.1-.6,1,0,1.3-.5,1.5-2.3.8-1.4-.6-2.9-.5-3.8,0-1.1.8-.9,1.4,1.5,3.5,1.5,1.4,2.6,2.7,2.4,2.9-.2.3-2.9.9-5.9,1.3-3.5.6-4.4,1.3-2.6,2,3.5,1.5,7.4,1.5,8.2.2.3-.6,1-1,1.5-1,1,0,3.2,9,3,12.2-.4,3.9,0,4.4,3.6,6.2,4,1.9,5.4,1.5,3.4-1-1.2-1.3-1.1-1.7,0-2.5.8-.5,1.7-.9,2.2-.9s.7-.5.7-1-1.6-1-3.5-1c-4.6,0-5.8-2.5-2.4-5.1,2.2-1.8,2.3-2,.7-3-2.2-1.3-2.3-2.9-.2-2.9s2.5-.5,3.6-1.1c1.7-.9,1.8-1.3.7-2-.8-.5-2.6-.9-4-.9-2.5,0-5.8-2.5-4.7-3.6.3-.2,1.7,0,3.2.5,2.8,1.1,3.7-.2,1.1-1.7-1.3-.7-1.1-1,1-2,2.8-1.3,2.6-3.2-.3-3.2s-2.7.7-3.8,1.5h0Z"/>
  <path class="st0" d="M117.3,228.5c-1.8.8-3.3,1.6-3.3,1.9s2.5.2,5.5-.1c3.6-.4,5.5-.2,5.5.5s-.4,1.3-1,1.7c-1.5,1-5.2,6.5-4.3,6.5s3.5-1.6,6.8-3.5c3.2-2,5.9-3.4,6-3.3,1.8,2.1,8.5,13.5,8.5,14.5s.5,1.3,1,1.3,1-1.8,1-4,.5-4,1.1-4,5.4,2.3,10.6,5.2c5.3,2.8,9.3,4.6,8.9,4-1-1.6-23.7-16.7-27.8-18.5-8.9-4-13.3-4.5-18.5-2.2h0Z"/>
  <path class="st0" d="M130.7,246.9c-.3,3-1.3,6.1-2.2,7.1-2,2.2-1.9,3,.3,3,1.4.1,1.4.3-.5,1.9-3,2.5-2.9,3.4.2,2.9,1.4-.3,2.5-.2,2.5.1-.1,1.7-1.9,3-5.7,4-2.4.7-4.3,1.5-4.3,2s2.4,1.1,5.2,1.4c2.9.4,5.4,1.1,5.6,1.7.5,1.3,8.9,1.3,9.7,0,.4-.6-1.1-1.8-3.4-2.7-4.5-1.7-5.6-3.9-1.6-2.9,3.4.9,3.2-.5-.5-3.2-2.9-2.2-4-5.7-2.1-6.4.5-.2.1-3.5-.8-7.3l-1.8-7-.6,5.4h0Z"/>
  <path class="st0" d="M188.9,246.3c-9,6.2-9.9,6.6-22,9.8l-10.9,2.9-7.9-2c-4.4-1.1-8.6-2.3-9.4-2.6-.9-.3-1.7.3-2,1.8-.5,1.7.2,2.9,2.9,5.1,2.7,2.3,3.2,3.2,2.3,4.3-2,2.4,3.4,3.6,10.1,2.3,3.2-.6,6.3-1,6.9-.8.7.3-1.1,3-3.9,6.2-2.9,3.1-4.8,5.7-4.3,5.7s5.3-2.8,10.8-6.1c5.5-3.4,12.6-7.8,15.9-9.7l5.9-3.6,5.3,6.1c3,3.3,10.4,10.3,16.6,15.4,14.9,12.4,14.8,12.4,14.8,11s-3.5-4.8-7.9-9.4c-8.8-9.3-11.1-13-10.4-17,.6-3.3,1.4-3.4,3.9-.6,2.3,2.6,10.3,7.3,11,6.6s0-1.5-.6-2.7c-1.8-3.4-.5-3.5,6.2-.7,3.4,1.5,6.3,2.5,6.5,2.3.5-.4-27-24.6-30.6-26.9-1.9-1.1-4.9-.3-9.2,2.6h0Z"/>
  <path class="st0" d="M61,253.2c0,.7-.7,9.8-1.5,20.3-1.8,23.3-1.8,21.5,0,21.5s1.6-1.8,2.1-6.3c.4-3.4.9-5.6,1.1-5,.6,1.8,16,13.3,19.4,14.5,3.1,1.1,7.9.4,7.9-1.2s-1-1.5-2.2-2.1c-1.3-.7-4.1-2.3-6.2-3.7l-3.9-2.4,2.4-1.9,2.4-1.9-3.7-3.2c-3.3-2.8-7.9-10.8-6.3-10.8s2.9,1.2,5.7,2.6c5.6,2.9,8.8,2.6,12.6-.8,3.1-3,2.8-3.8-1.2-2.7-3.9,1.1-8.6-.3-8.6-2.4s-1.2-2.4-2.6-3.8c-3.2-3-9.2-3.2-13.1-.3l-2.8,2.1v-6.4c.2-3.5,0-6.6-.6-6.9s-.9.1-.9.8h0Z"/>
  <path class="st0" d="M109.3,253.7c-3.3.6-3.1,4.3.2,4.3s2.5.5,2.5,2.5c0,3.3,2.6,9.5,3.9,9.5s1-.3,1-.8c-.4-2.1.3-3,2.6-3.6,1.8-.5,2.5-1.3,2.5-3.2s.7-2.7,1.5-3c.9-.4,1.5-1.9,1.5-3.5v-2.9h-6.7c-3.8.2-7.8.5-9,.7Z"/>
  <path class="st0" d="M276.4,271.9c-5.1,3.7-12.9,11.9-12.2,12.6s12.6-9.3,16.2-13.4c2.7-3,.6-2.6-4,.8Z"/>
  <path class="st0" d="M285,270.8c0,.5,2.6,3.8,5.8,7.3,6,6.6,15.2,18.7,15.2,20.1s-2.2.4-5,.1-5-.2-5,.3c0,1.5,29.6,15.8,30.9,15,.6-.4,1.1-2,1.1-3.6,0-2.4-2-4.8-10.7-13.3-13.2-12.7-19.8-18.6-25.5-22.4-6.1-4.2-6.8-4.5-6.8-3.5Z"/>
  <path class="st0" d="M126.7,275.7c-3.8,2.7-4.7,4.3-2.4,4.3s3.2,1.6,5.6,3.5c3.5,2.8,5.3,3.5,8.7,3.5s4.4-.4,4.4-.9c0-1.2-5.4-5.1-6.9-5.1s-1.2-2,1-2.9c2-.7,1.9-.9-1.5-2.9-4.6-2.7-4.4-2.7-8.9.5Z"/>
</svg>