<?xml version="1.0" encoding="UTF-8"?>
<svg id="Layer_1" xmlns="http://www.w3.org/2000/svg" version="1.1" viewBox="0 0 48 30">
  <!-- Generator: Adobe Illustrator 30.3.0, SVG Export Plug-In . SVG Version: 2.1.3 Build 182)  -->
  <defs>
    <style>
      .st0 {
        fill: #fff;
      }
    </style>
  </defs>
  <path class="st0" d="M26,10c0-.6-.2-1.1-.5-1.5-.4-.4-.9-.5-1.5-.5s-1,.2-1.4.5c-.4.4-.6.9-.6,1.5s.2,1.1.6,1.5c.4.4.8.5,1.4.5s1-.2,1.5-.5c.4-.4.5-.9.5-1.5M34,18c0-.8-.3-1.5-.8-2.1-.6-.6-1.3-.9-2.2-.9s-1.5.3-2.1.9c-.6.6-.9,1.3-.9,2.1s.3,1.6.9,2.2c.6.5,1.3.8,2.1.8s1.6-.3,2.2-.8c.5-.6.8-1.3.8-2.2M36,12c0-.6-.2-1.1-.6-1.5-.4-.4-.8-.5-1.4-.5s-1,.2-1.4.5c-.4.4-.6.9-.6,1.5s.2,1,.6,1.4c.4.4.8.6,1.4.6s1-.2,1.4-.6c.4-.4.6-.9.6-1.4M40,16c0-.6-.2-1.1-.6-1.5-.4-.4-.8-.5-1.4-.5s-1,.2-1.4.5c-.4.4-.6.9-.6,1.5s.2,1,.6,1.4c.4.4.8.6,1.4.6s1-.2,1.4-.6c.4-.4.6-.9.6-1.4M44,12c0-.6-.2-1.1-.6-1.5-.4-.4-.8-.5-1.4-.5s-1,.2-1.4.5c-.4.4-.6.9-.6,1.5s.2,1,.6,1.4c.4.4.8.6,1.4.6s1-.2,1.4-.6c.4-.4.6-.9.6-1.4M40,8c0-.6-.2-1.1-.6-1.5-.4-.4-.8-.5-1.4-.5s-1,.2-1.4.5c-.4.4-.6.9-.6,1.5s.2,1,.6,1.4c.4.4.8.6,1.4.6s1-.2,1.4-.6c.4-.4.6-.9.6-1.4M32,4l2.2-2.1c.2-.4.5-.7,1-.9,0-.5,1-.9,2.8-1,1.8.1,2.7.4,2.8,1,.5.2.8.5,1,.9l.5,2.4c1.4.9,2.4,2,2.9,3.4l.5,1.5h0c0,0,0,.2,0,.2h0c0,0,.7,3.8.7,3.8l1.5,10.6c.3,1.7,0,3.2-.9,4.2-1.2,1.4-2.6,2.1-4.1,2-1.9,0-3.3-.6-4.1-1.9l-3.6-6.2c-1.2,1.1-2.6,1.7-4.1,1.7-1.5-.2-2.6-.7-3.3-1.5-.6-.6-1.1-1.3-1.5-2h-4.5l-1.5,2c-.8.8-1.9,1.3-3.3,1.5-1.5,0-2.9-.6-4.1-1.7l-3.6,6.2c-.8,1.3-2.2,1.9-4.1,1.9-1.6,0-2.9-.6-4.2-2-.8-1.1-1.1-2.5-.8-4.2l1.4-10.6c.4-3,.9-4.8,1.2-5.4.5-1.4,1.5-2.5,2.9-3.4l.6-2.4c.2-.4.5-.7,1-.9,0-.5,1-.9,2.8-1,1.8.1,2.7.4,2.8,1,.5.2.8.5,1,.9l2.1,2.1h16M8,7v2l2,2,2-2v-2h-4M8,17h4v-2l-2-2-2,2v2M5,10v4h2l2-2-2-2h-2M15,10h-2l-2,2,2,2h2v-4M20,18c0-.8-.3-1.5-.8-2.1-.6-.6-1.3-.9-2.2-.9s-1.5.3-2.1.9c-.6.6-.9,1.3-.9,2.1s.3,1.6.9,2.2c.6.5,1.3.8,2.1.8s1.6-.3,2.2-.8c.5-.6.8-1.3.8-2.2"/>
</svg>