<?xml version="1.0" encoding="UTF-8"?>
<svg id="Layer_1" xmlns="http://www.w3.org/2000/svg" version="1.1" viewBox="0 0 48 32">
  <!-- Generator: Adobe Illustrator 30.3.0, SVG Export Plug-In . SVG Version: 2.1.3 Build 182)  -->
  <defs>
    <style>
      .st0 {
        fill: #fff;
      }
    </style>
  </defs>
  <path class="st0" d="M31.5,4.5c.4-1.7-.3-2.5-2.1-2.5h-10.6c-1.8,0-2.5.8-2.2,2.5l1.1,4.9c.2,1.1,1,1.6,2.4,1.6h8c1.3,0,2.1-.5,2.3-1.6l1.1-4.9M34,16c0-.8-.3-1.6-.8-2.1-.6-.6-1.3-.9-2.2-.9s-1.5.3-2.1.9c-.6.6-.9,1.3-.9,2.1s.3,1.6.9,2.2c.6.5,1.3.8,2.1.8s1.6-.3,2.2-.8c.5-.6.8-1.3.8-2.2M37,10.5c0-.4-.1-.8-.5-1.1-.3-.3-.6-.4-1-.4s-.8.1-1,.4c-.3.3-.5.7-.5,1.1s.1.8.5,1c.3.3.6.5,1,.5l1-.5c.3-.3.5-.6.5-1M40,13.5c0-.4-.1-.8-.5-1.1-.3-.3-.6-.4-1-.4s-.8.1-1,.4c-.3.3-.5.7-.5,1.1s.1.8.5,1c.3.3.6.5,1,.5l1-.5.5-1M43,10.5c0-.4-.1-.8-.5-1.1-.3-.3-.6-.4-1-.4s-.8.1-1,.4c-.3.3-.5.7-.5,1.1s.1.8.5,1c.3.3.6.5,1,.5s.8-.1,1-.5l.5-1M40,7.5c0-.4-.1-.8-.5-1.1-.3-.3-.6-.4-1-.4s-.8.1-1,.4c-.3.3-.5.7-.5,1.1s.1.8.5,1c.3.3.6.5,1,.5l1-.5.5-1M24,.4l11.2.8h.5c0-.1.1-1,.1-1l3-.2c1.2.2,2.2.6,3.2,1.2l.2,1,.8.2c1.6,3.2,2.8,6.5,3.8,10,.6,2.5,1,5.1,1.2,7.8.2,2.5,0,5-.5,7.4-.2,1.5-1,2.8-2.5,3.7l-3.5.6c-.3,0-.6-.4-.9-.9l-1.9-4.6c-.6-1.7-1.4-3.4-2.5-4.9-.5-.6-1.3-1-2.6-1l-1,.2h0l-3,.2h-11l-3-.2h0l-1-.2c-1.3,0-2.1.4-2.6,1-1.1,1.5-1.9,3.1-2.5,4.9l-1.9,4.6c-.2.5-.5.8-.8.9l-3.4-.6c-1.5-.9-2.4-2.1-2.6-3.7C0,25.3-.1,22.8.1,20.3c.2-2.7.6-5.3,1.2-7.8.9-3.5,2.2-6.9,3.8-10l.8-.2v-1c1.1-.6,2.2-1,3.4-1.2l2.9.2v.9c.1,0,.7.1.7.1l11.1-.8M15,8h-2l-2,2,2,2h2v-4M8,5v2l2,2,2-2v-2h-4M20,16c0-.8-.3-1.6-.8-2.1-.6-.6-1.3-.9-2.2-.9s-1.5.3-2.1.9-.9,1.3-.9,2.1.3,1.6.9,2.2c.6.5,1.3.8,2.1.8s1.6-.3,2.2-.8c.5-.6.8-1.3.8-2.2M8,15h4v-2l-2-2-2,2v2M5,8v4h2l2-2-2-2h-2"/>
</svg>