<?xml version="1.0" encoding="UTF-8"?>
<svg id="Layer_1" xmlns="http://www.w3.org/2000/svg" version="1.1" viewBox="0 0 48 48">
  <!-- Generator: Adobe Illustrator 30.3.0, SVG Export Plug-In . SVG Version: 2.1.3 Build 182)  -->
  <defs>
    <style>
      .st0 {
        fill: #fff;
      }
    </style>
  </defs>
  <path class="st0" d="M3,24c0,5.8,2.1,10.8,6.1,14.8,4.1,4.1,9,6.2,14.9,6.2s10.8-2,14.8-6.2c4.1-4.1,6.2-9,6.2-14.8s-2-10.8-6.2-14.9c-4.1-4.1-9-6.1-14.8-6.1s-10.8,2.1-14.9,6.1c-4.1,4.1-6.1,9-6.1,14.9M14.8,12l9.2,9.2,9.2-9.2,2.8,2.8-9.2,9.2,9.2,9.2-2.8,2.8-9.2-9.2-9.2,9.2-2.8-2.8,9.2-9.2-9.2-9.2,2.8-2.8M48,24c0,6.7-2.4,12.3-7,17-4.6,4.7-10.3,7-17,7s-12.3-2.4-17-7C2.3,36.3,0,30.7,0,24S2.3,11.7,7,7C11.7,2.3,17.4,0,24,0s12.3,2.3,17,7c4.7,4.7,7,10.4,7,17"/>
</svg>