<?xml version="1.0" encoding="UTF-8"?>
<svg id="Layer_1" xmlns="http://www.w3.org/2000/svg" version="1.1" viewBox="0 0 48 48">
  <!-- Generator: Adobe Illustrator 30.3.0, SVG Export Plug-In . SVG Version: 2.1.3 Build 182)  -->
  <defs>
    <style>
      .st0 {
        fill: #fff;
      }
    </style>
  </defs>
  <path class="st0" d="M24,3c-5.8,0-10.8,2.1-14.9,6.1-4.1,4.1-6.1,9-6.1,14.9s2.1,10.8,6.1,14.8c4.1,4.1,9,6.2,14.9,6.2s10.8-2,14.8-6.2c4.1-4.1,6.2-9,6.2-14.8s-2-10.8-6.2-14.9c-4.1-4.1-9-6.1-14.8-6.1M48,24c0,6.7-2.4,12.3-7,17-4.6,4.7-10.3,7-17,7s-12.3-2.4-17-7C2.3,36.3,0,30.7,0,24S2.3,11.7,7,7C11.7,2.3,17.4,0,24,0s12.3,2.3,17,7c4.7,4.7,7,10.4,7,17M29.7,18.4c-1.6-1.6-3.5-2.4-5.7-2.4s-4.1.8-5.6,2.4h0c-1.6,1.6-2.4,3.5-2.4,5.6s.8,4.1,2.4,5.7h0c1.5,1.6,3.4,2.3,5.6,2.3s4.1-.8,5.7-2.3c1.5-1.6,2.3-3.5,2.3-5.7s-.8-4.1-2.3-5.6M36,24c0,3.3-1.2,6.2-3.5,8.5s-5.2,3.5-8.5,3.5-6.1-1.2-8.5-3.5c-2.4-2.3-3.5-5.2-3.5-8.5s1.2-6.2,3.5-8.5c2.3-2.3,5.1-3.5,8.5-3.5s6.2,1.2,8.5,3.5,3.5,5.2,3.5,8.5"/>
</svg>