<?xml version="1.0" encoding="UTF-8"?>
<svg id="Layer_1" xmlns="http://www.w3.org/2000/svg" version="1.1" viewBox="0 0 16 19.2">
  <!-- Generator: Adobe Illustrator 30.3.0, SVG Export Plug-In . SVG Version: 2.1.3 Build 182)  -->
  <defs>
    <style>
      .st0 {
        fill: #fff;
      }
    </style>
  </defs>
  <path class="st0" d="M9.5.6l6,6c.4.4.5.8.5,1.4v9.2c0,.6-.2,1-.5,1.5-.4.4-.9.5-1.5.5H2c-.6,0-1-.2-1.4-.5-.4-.4-.6-.9-.6-1.5v-9.2c0-.6.2-1,.6-1.4L6.6.6c.4-.4.8-.6,1.4-.6s1,.2,1.5.6M3,8.5v7.7h10v-7.8l-5-5-5,5"/>
</svg>