<?xml version="1.0" encoding="UTF-8"?>
<svg id="Layer_1" xmlns="http://www.w3.org/2000/svg" version="1.1" viewBox="0 0 19.2 16">
  <!-- Generator: Adobe Illustrator 30.3.0, SVG Export Plug-In . SVG Version: 2.1.3 Build 182)  -->
  <defs>
    <style>
      .st0 {
        fill: #fff;
      }
    </style>
  </defs>
  <path class="st0" d="M19.2,2v12c0,.6-.2,1-.5,1.5-.4.4-.9.5-1.5.5h-9.2c-.6,0-1-.2-1.4-.5L.6,9.5c-.4-.4-.6-.9-.6-1.5s.2-1,.6-1.4L6.6.6c.4-.4.8-.6,1.4-.6h9.2c.6,0,1,.2,1.5.6.4.4.5.8.5,1.4M8.5,3l-5,5,5,5h7.8V3h-7.7"/>
</svg>