<?xml version="1.0" encoding="UTF-8"?>
<svg id="Layer_1" xmlns="http://www.w3.org/2000/svg" version="1.1" viewBox="0 0 48 40">
  <!-- Generator: Adobe Illustrator 30.3.0, SVG Export Plug-In . SVG Version: 2.1.3 Build 182)  -->
  <defs>
    <style>
      .st0 {
        fill: #fff;
      }
    </style>
  </defs>
  <path class="st0" d="M34,11v17h-4v-7h0v-5h-3v-2l3-3h4M48,8v20c0,3.3-2.3,6.1-7,8.5-4.7,2.3-10.4,3.5-17,3.5s-12.3-1.2-16.9-3.5c-4.7-2.4-7.1-5.2-7.1-8.5V8C0,2.7,2.7,0,8,0h32c5.3,0,8,2.7,8,8M8,3c-3.3,0-5,1.7-5,5v20c.2,2.2,2,4.1,5.4,5.8,4.3,2.1,9.5,3.2,15.6,3.2s11.3-1,15.7-3.2h0c3.4-1.7,5.1-3.7,5.3-5.8V8c0-3.3-1.7-5-5-5H8M14,11h4v13h8v4h-12V11"/>
</svg>