<?xml version="1.0" encoding="UTF-8"?>
<svg id="Layer_1" xmlns="http://www.w3.org/2000/svg" version="1.1" viewBox="0 0 20 46">
  <!-- Generator: Adobe Illustrator 30.3.0, SVG Export Plug-In . SVG Version: 2.1.3 Build 182)  -->
  <defs>
    <style>
      .st0 {
        fill: #fff;
      }
    </style>
  </defs>
  <path class="st0" d="M13.8,16.2c2.2.6,3.9,2,5,4,1.2,2,1.5,4.2.9,6.4l-3.4,13.1c-.6,2.3-1.9,4-3.9,5.1-2,1.2-4,1.5-6.2.9-2.3-.6-4-1.9-5.1-4C0,39.7-.3,37.5.3,35.3l3.5-13c.6-2.3,1.9-4,3.8-5.2,2-1.1,4.1-1.4,6.3-.8M6,0h12v2H6V0M6,4h12v2H6v-2M6,8h12v2H6v-2M13,19.1c-1.4-.4-2.7-.2-3.9.5-1.3.8-2.1,1.9-2.5,3.4l-3.4,13c-.4,1.4-.2,2.8.5,4.1h0c.7,1.3,1.8,2.2,3.2,2.5h0c1.3.4,2.6.2,3.8-.5h.1c1.3-.8,2.1-1.9,2.5-3.3l3.4-13.1c.4-1.5.2-2.8-.5-4.1-.7-1.3-1.8-2.1-3.2-2.6"/>
</svg>