<?xml version="1.0" encoding="UTF-8"?>
<svg id="Layer_1" xmlns="http://www.w3.org/2000/svg" version="1.1" viewBox="0 0 48 40">
  <!-- Generator: Adobe Illustrator 30.3.0, SVG Export Plug-In . SVG Version: 2.1.3 Build 182)  -->
  <defs>
    <style>
      .st0 {
        fill: #fff;
      }
    </style>
  </defs>
  <path class="st0" d="M8,37h32c3.3,0,5-1.7,5-5V12c-.2-2.2-2-4.1-5.3-5.8h0c-4.4-2.1-9.6-3.2-15.7-3.2s-11.3,1.1-15.6,3.2c-3.4,1.7-5.2,3.6-5.4,5.8v20c0,3.3,1.7,5,5,5M33.5,16.4c-.3-.3-.6-.4-1-.4h-1.7l-.5.3c-.2.2-.3.4-.3.7h-4v-1c.3-.9.7-1.8,1.4-2.5h0c.9-1,2-1.5,3.3-1.5h1.7c1.5,0,2.8.5,3.8,1.6h0s1,1.4,1,1.4c.8,2.2.5,4.1-1,5.5l-4.5,4.5h6v4h-12v-4l7-6.5c.8-.9,1-1.6.5-2.1M17,16h-3v4h3c.5,0,1-.2,1.4-.5h.1c.4-.5.5-.9.5-1.5s-.2-1-.6-1.4c-.4-.4-.9-.6-1.4-.6M10,12h7c1.7,0,3.1.6,4.2,1.8s1.8,2.6,1.8,4.2-.6,3-1.8,4.2h0s-.8.7-.8.7l3,6.1h-4l-2.5-5h-3v5h-4V12M48,32c0,5.3-2.7,8-8,8H8c-5.3,0-8-2.7-8-8V12c0-3.3,2.3-6.1,7.1-8.5C11.7,1.2,17.4,0,24,0s12.3,1.2,17,3.5c4.7,2.4,7,5.2,7,8.5v20"/>
</svg>