<?xml version="1.0" encoding="UTF-8"?>
<svg id="Layer_1" xmlns="http://www.w3.org/2000/svg" version="1.1" viewBox="0 0 48 48">
  <!-- Generator: Adobe Illustrator 30.3.0, SVG Export Plug-In . SVG Version: 2.1.3 Build 182)  -->
  <defs>
    <style>
      .st0 {
        fill: #fff;
      }
    </style>
  </defs>
  <path class="st0" d="M24,4c-5.5,0-10.2,1.9-14.1,5.9-3.9,3.9-5.9,8.6-5.9,14.1s1.9,10.2,5.9,14.1h0c3.9,4,8.6,5.9,14.1,5.9s10.2-2,14.1-5.8h0c3.9-3.9,5.8-8.6,5.8-14.2s-2-10.2-5.8-14.1h0c-3.9-3.9-8.6-5.9-14.1-5.9M12.7,12.7c3.1-3.1,6.9-4.7,11.3-4.7s8.2,1.6,11.2,4.6l.4.4c2.9,3.1,4.3,6.7,4.3,11s-1.5,8.2-4.7,11.2h0c-3.1,3.2-6.8,4.8-11.2,4.8s-7.9-1.5-11-4.3l-.4-.4c-3.1-3.1-4.6-6.8-4.6-11.2s1.6-8.2,4.7-11.3h0,0c0,0,0,0,0,0M48,24c0,6.7-2.4,12.3-7,17-4.6,4.7-10.3,7-17,7s-12.3-2.4-17-7C2.3,36.3,0,30.7,0,24S2.3,11.7,7,7C11.7,2.3,17.4,0,24,0s12.3,2.3,17,7c4.7,4.7,7,10.4,7,17M18,16v16h4v-4h4l2,4h4l-2.9-5.7h.1c0,0,0-.1,0-.1,1.2-1.2,1.8-2.6,1.8-4.2s-.6-3.1-1.8-4.2h0s-1.2-1-1.2-1c-.8-.5-1.8-.8-2.8-.8h-7.2M25,20c.5,0,1,.2,1.4.6h0c.4.4.5.8.5,1.4s-.2,1-.5,1.4h-.1c-.4.5-.8.6-1.3.6h-3v-4h3"/>
</svg>