<?xml version="1.0" encoding="UTF-8"?>
<svg id="Layer_1" xmlns="http://www.w3.org/2000/svg" version="1.1" viewBox="0 0 48 32">
  <!-- Generator: Adobe Illustrator 30.3.0, SVG Export Plug-In . SVG Version: 2.1.3 Build 182)  -->
  <defs>
    <style>
      .st0 {
        fill: #fff;
      }
    </style>
  </defs>
  <path class="st0" d="M44.8,5.1h-.2c-.6-.4-2-.7-4.1-1h0c-10.9-1.5-21.8-1.5-32.7,0l-4.1.8h-.2c0,.1-.2.3-.2.3v.5c0,0,0-.1,0-.1l6.3,22.6h0s.4.5.4.5h0s.8.2.8.2h27l.9-.2.2-.4,6.3-22.7h0c0,.1,0-.4,0-.4h-.2M37.5,32H10.5c-1,0-1.8-.3-2.6-.8-.8-.5-1.3-1.2-1.6-2L.1,6.5c-.2-.8-.2-1.6.1-2.3.3-.7.8-1.3,1.6-1.7.7-.5,2.5-.9,5.4-1.3C18.4-.4,29.6-.4,40.8,1.2c2.9.4,4.7.8,5.5,1.3.7.4,1.2,1,1.5,1.7.3.7.3,1.5,0,2.3l-6.3,22.7c-.2.8-.7,1.5-1.5,2-.8.6-1.6.8-2.6.8"/>
</svg>