<?xml version="1.0" encoding="UTF-8"?>
<svg id="Layer_1" xmlns="http://www.w3.org/2000/svg" version="1.1" viewBox="0 0 560.1 396.2">
  <!-- Generator: Adobe Illustrator 29.4.0, SVG Export Plug-In . SVG Version: 2.1.0 Build 152)  -->
  <defs>
    <style>
      .st0 {
        fill: #fff;
      }
    </style>
  </defs>
  <path d="M390.4,50.4c.8,1.7,4.4,1.4.3,4.8s-36.5,2-44.3,2.3c-109.2,4-225.6,24.6-297.6,83.1C-42.1,214.5,2.5,316,112.9,367.3c22,10.3,63.4,24.7,89.4,28.5,2.2.4,2.7.5,2.4-1.2-51.6-15.5-92-44-115.2-78.3-58.7-86.8,14-179.4,142.4-210.9,42.7-10.5,102.7-17.6,147.7-12.2,22.3,2.7,9.3,12.7.6,20.4-15.6,13.8-36,24-54,36.2l1.6.4c26.7-10.1,52.8-21,79.8-30.7,47.5-17.1,97.3-34.5,152.4-36.7.2-1.9,0-1.2-1.6-1.4-85.8-13.1-144.3-49-216.8-78.1-1.7-.7-8.8-4-10.3-3.2,18.7,15.5,49.1,31,59.1,50.3Z"/>
  <path class="st0" d="M341.6,3.3c72.5,29.1,131,65,216.8,78.1,1.6.3,1.8-.4,1.6,1.4-55.2,2.1-104.9,19.5-152.5,36.9-27,9.7-53.1,20.6-79.8,30.7l-1.6-.4c18-12.2,38.4-22.5,54-36.2,8.7-7.7,21.8-17.7-.6-20.4-45-5.4-105,1.7-147.7,12.2-128.3,31.5-201.1,124-142.4,210.9,23.2,34.3,63.6,62.8,115.2,78.3.3,1.6-.2,1.5-2.4,1.2-26-3.9-67.4-18.3-89.4-28.5C2.4,316.1-42.2,214.7,48.7,140.8,120.7,82.2,237.1,61.7,346.3,57.7c7.8-.2,40.2,1.2,44.3-2.3,1.9-1.6.5-3.2-.3-4.8-9.9-19.5-40.3-35-59-50.5,1.5-.7-62.2-25.9,10.3,3.2Z"/>
</svg>