<?xml version="1.0" encoding="UTF-8"?>
<svg id="Layer_1" xmlns="http://www.w3.org/2000/svg" version="1.1" viewBox="0 0 600.1 778.9">
  <!-- Generator: Adobe Illustrator 29.7.1, SVG Export Plug-In . SVG Version: 2.1.1 Build 8)  -->
  <defs>
    <style>
      .st0 {
        fill: #fff;
      }
    </style>
  </defs>
  <path class="st0" d="M496,229c2.3-.7,1.7.7,2.3,1.3,27.6,28.1,64.5,80.2,80.9,116,11.4,24.8.3,47-6.5,71.9-12.2,44.9-29.1,90.6-39.4,135.6-16.5,71.6,3.4,119.9,44.3,177.1,6.7,9.4,15,18.1,21.4,27.6s1.4,1,1,2.5c-5.1,2.5-10.1,5.1-15.5,7-31.1,11.3-98.9,17.7-127.4-.6-17.2-11-21.9-42.8-30.9-61.1-8.8-18.1-24.9-36.6-38.7-51.3-16.9-17.9-39.7-34.6-52.9-55.1-39.1-60.5-18.2-122.9-21.5-189.5s-26.5-103.4-40.8-157.2c-3.3-12.3-10.8-34-1.3-43.8,5.6-2.3,28.4,16.7,33,21,41.6,39,41.8,96.8,60.2,146.8,10.2,27.7,28,60.9,50.7,80.3,4.3,3.7,16.7,13.1,22.4,11.4l1.6-2.4c-2.9-3.3-6.7-6.2-9.5-9.5s-8.6-9.8-7-13,18.6-9.6,22.4-12.6c21.6-17,41.8-54.3,48.2-80.8,7.5-30.9,2.9-63.8,2.8-95.2,0-8.3,2.9-18.1,0-26.4Z"/>
  <path class="st0" d="M476,122v200h-110c-8.2-47.5-30.7-93.7-71.7-120.8-9.5-6.3-21.7-12.5-33-6.4-19.7,10.6-9.6,47.1-4.8,64.2s15.3,42.3,20.5,64H91V123l385-1Z"/>
  <path class="st0" d="M414,0v98h-29V28H30v197c8.2-.2,16.4.3,24.5,0s10.6-3.1,14.5.5v28.5l-69,1V.5l414-.5Z"/>
  <path class="st0" d="M284,344c5.5,18.2,9,37,11,56-9.3,1.7-19.2,4.8-28.6,5.9s-22.8,1.5-29.9-4.9c-12.4-11,12.7-23.7,19.5-29.5,8.3-7,18.4-18,25.7-26.2s0-1.9,2.3-1.3Z"/>
  <path class="st0" d="M374,352c17.3,8.2,34.5,16.2,53,21.5,11.5,3.3,23.9,4.8,35,9,.1,1.6-15.2,22.4-17.6,25.4s-4.6,6.3-5.8,6.1c-13.5-15.4-32.7-21.4-52.1-26l-12.5-36Z"/>
  <path class="st0" d="M294.9,480.9c-10.5,3.7-25.7.3-24.9-13.3s19.8-28.1,27-36.5l-2.1,49.9Z"/>
  <polygon class="st0" points="478 341 471 363 465.6 357.9 455 341 478 341"/>
</svg>