<?xml version="1.0" encoding="UTF-8"?>
<svg xmlns="http://www.w3.org/2000/svg" viewBox="0 0 600 600"
  preserveAspectRatio="xMidYMid meet">
  <defs>
    <style>
      .st0 { fill: #fff; }
    </style>
  </defs>
  <g transform="translate(0,600) scale(0.1,-0.1)" class="st0">
    <path d="M3448 5034 l-3 -969 -1717 -3 -1718 -2 0 -1060 0 -1060 1718 -2 1717 -3 3 -969 2 -969 33 40 c33 42 61 75 387 458 108 127 351 412 541 635 189 223 601 706 914 1074 314 368 594 698 623 733 l52 63 -52 63 c-29 35 -309 365 -623 733 -313 368 -725 851 -914 1074 -190 223 -433 509 -541 635 -326 383 -354 416 -387 458 l-33 40 -2 -969z"/>
  </g>
</svg>