<?xml version="1.0" encoding="UTF-8"?>
<svg id="Layer_1" xmlns="http://www.w3.org/2000/svg" version="1.1" viewBox="0 0 348.1 528.5">
  <!-- Generator: Adobe Illustrator 29.5.0, SVG Export Plug-In . SVG Version: 2.1.0 Build 137)  -->
  <defs>
    <style>
      .st0 {
        fill: #fff;
      }
    </style>
  </defs>
  <path class="st0" d="M233.2,262.1l2-.5c.3-4-21.1-35.8-24.8-42.2-16.8-29.1-30.6-59.7-44.2-90.3,27.6,6.9,56.9,21.5,68.5,49,8.2,19.6,12.3,42.1,21,62,1.7,3.8,10.5,21.3,12.9,23.1,3.8,2.8,7.5.8,6.4-4.3-1.2-5.9-10.9-21.1-14-28.1-2.7-6.1-19.1-41.9-14.8-45.7,7.7.7,16.5,10.2,21.5,16,12.7,14.8,24.2,42.8,30.5,61.5,10.7,31.7,0,60.2-3.9,92.2s-4.4,45.7.3,69.4c6.8,33.8,28.1,65.8,53,89l.5,2.4c-.4,4.8-17.6,8.2-22,9.1-24.3,5-54.7,5.1-79,0-6.6-1.4-13.1-2.2-17.4-7.6-6-7.7-12-19.2-18.2-27.8-11.7-16.3-24.9-32.8-39.4-46.6-31.7-30.1-58.6-49.2-81.2-88.8-25.6-45-27.9-98.7-56.4-141.6-9.9-14.8-23.4-25.2-34.5-38.6,1.4-8.6,14.7-7.2,21.3-6.2,70.8,11.1,68.9,114.1,112.3,145.7,11,8,14.2-7.5,16-16,11.3-52.5-14.5-123.9-43.1-167.9C84.9,95.9,35.6,49.7,37,7.7c.2-5.7,2.3-10.2,8.1-6.1,33.7,50.9,86.6,86.7,116.4,140.6,16.6,30.1,23.4,61.6,45.5,89.5,8.4,10.5,19.7,18.7,26,30.5h.2Z"/>
  <path class="st0" d="M109.2,151.1c-14.2-4.8-55.5-16-63.5-28s22.8-8.4,30.2-6.2c20.5,6,26.6,14.3,33.2,34.3h0Z"/>
  <path class="st0" d="M129.2,196.1c-10.9.8-29.4-1.5-35-12.4-8-15.7,22.7-8.9,30.1-8.1,3.5,1.7,4.6,16.4,5,20.5h-.1Z"/>
</svg>