<?xml version="1.0" encoding="UTF-8"?>
<svg id="Layer_1" xmlns="http://www.w3.org/2000/svg" version="1.1" viewBox="0 0 518.4 518.4">
  <!-- Generator: Adobe Illustrator 29.4.0, SVG Export Plug-In . SVG Version: 2.1.0 Build 152)  -->
  <defs>
    <style>
      .st0 {
        fill: none;
      }

      .st1 {
        fill: #fff;
      }
    </style>
  </defs>
  <path class="st0" d="M33.6,0h484.8v518.4h-81.6c-14.5-16.2-24.7-35.9-26.9-57.8-2.8-28.6,11.8-60.4,4.7-86.7-3.7-13.7-14.1-36.9-25.1-46s-4.9-4-7.9-3.8c-1.9,1.3,3.6,14.8,4.5,17.2,3,7.5,6.5,13.6,10.1,20.6s6.4,10.9.9,10.6-4.5-4.9-5.6-6.9c-15.2-26.8-8.9-54-41-69.9s-11.8-4.7-17.9-6.3c8.3,19.1,16.8,38.3,27.4,56.3,2.6,4.4,5.6,8.5,8.3,12.9s7.3,11.7,6.5,12.4c-.5,0-1,0-1.4-.2s-4.4-6.3-5.5-7.5c-3.3-3.7-7.2-6.9-10.3-10.8-13.2-16.4-18-37.3-28.1-55.4-14.3-25.8-37.2-44.3-56.2-66.2-6.5-7.5-11.4-15.2-18.5-21.8s-7.2-10.1-7.2-14l.9-.4c-3.8-7.1-5.1-16.2-4.6-24.3-5.2-5.9-9.5-15.3-14.6-20.9s-1.3-1.2-2.7-1.7c-5.5-2-13.6-1.8-18.8-3.8s-18.9-13-20.5-14.5-1.3-1.7-1.9-2.9c-3.8-7-6.5-14.8-10.3-21.9-5.9-5.5-15.8-5.3-20.3-12.4s-3-9.1-4.2-13.8c4.3,2,10.3.6,14.6,1.5s1.8,1.4,3.4,1.5c6.1.2,8.9-3,16.3-1.9s7.7,4.1,11.8,5,3.8,0,5.8.5,4.7,2.9,7,4,5.9,1.7,8.5,3c4.2,2.2,5.7,6.8,10.5,9.2s6.3,1.9,7.9,3.2,1.8,3.2,2.6,4.1c1.4,1.6,8.1,8.2,9.9,8.4s1.3-.4,1.8-.3c3,.4,5.1,3.7,6.4,4.1s5.7,0,7.8.6c.2-1.5-.4-.8-1.2-1-1.9-.5-4.1-.2-5.6-.7s-4.1-3.1-5.9-3.7-4-.5-5.1-1.1c-1.9-1-5.6-6.6-7-8.3-4.4-5.2-11.1-5.7-16.3-10.6s-2.7-3.6-4.1-4.5-13.3-4.4-13.4-5.8,2.8-.2,3.5-.3c5.3-.8,6.9-3.1,10.2-6.2s4.5-3.1,7.7-3.4,3.5.4,4.6.2c1.7-.3,3.3-2.3,4.7-2.9,2.1-.8,5.4-.6,7.3-1.3s1-1.1,2-1.3c2-.4,7.6.8,9.8,1.2s1.6.6,1.5-.3c-2.9-.4-9-2.5-11.7-1.8s-1.4,1-2.2,1.2c-2.1.5-5,.6-6.9,1.2s-3.4,2.3-5,2.6c-2.9.6-6.2-.7-9.1.5s-3.6,2.7-4,3.2c-1.2,1-1.5,2.4-3,3.2-4.7,2.6-15.1,2.7-20,.6s-2.8-2.3-4.2-3c-2.6-1.3-12.8-3-15.1-1.9s-4.5,2-7.3,1.8-2.8-1.3-4.4-1.4c-4.8-.6-11.1-.1-15.5-2.7s-3.9-3.8-5.8-5.2c-5.3-3.8-10.1-3.5-15.8-4.8s-5.9-1.8-6.2-2c-.6-.4-1.2-2.6-2.2-3.6s-2.1-.9-2.9-1.4-1.5-1.9-2.2-2.2c-1.4-.6-3.4-.4-5-1.6s-.2-1.4-.5-2-5.1-3.4-6.3-4.8c-3.2-3.6-5.8-11.9-8.6-14.4s-7.7-3-10.3-5-3.2-3.9-5.1-5.5c-3.2-2.7-12.5-9.3-16.1-11.3s-6.2-1.5-8.6-3.4-4.9-6.4-6-6.9-.8-.1-.7.2c2.3,2,4.1,5.7,6.5,7.4s5.6,2.1,8.1,3.4,10.1,6.9,13.1,9.5,5.6,6.7,8.1,8.7,7.2,3,8.9,4.6.7,3.4,2.9,3.6l-.4,1.9c-.8-.3-1.5-.7-2.3-.9-5.4-.8-10.6.8-15.8,1.8s-4.9.4-7.2,1.4l-9.8-6.5c-1.4-.7-4.7.3-5.7-.3s-2.3-2.9-2.6-3.4c-3.6-5.4-1.3-9.6-6.4-15.2s-5.3-3.5-5.9-4.6-.7-3.4-1.3-5c-1-2.6-2.5-5.2-3.6-7.7ZM262.1,72.5h-2.9s0,.5,0,.5h2.9s0-.5,0-.5Z"/>
  <path class="st0" d="M27.8,0c1.8,2,3.6,4.6,4.6,7.2s1,5.9,2.4,8.1,5.6,3.7,7.3,6.6,1.7,6.5,2.9,9.6,5.7,9.4,7.7,10,5.4.2,7.8,1.3,8.9,8.2,10.1,10.1,4.2,9.9,4.8,12c1.3,4.9,1.3,10.6,1.4,15.7-5.7.4-13.4-1.3-18-4.8s-4.2-7.4-11.2-9.5-3.3-1-3.5-.1c3.8.9,6.8,1.5,9.6,4.6s2.5,4.2,4.1,5.5c4.6,3.8,13.1,5.3,18.9,4.9,1,5.8,3.9,12,8.5,15.8s2.7,1.3,3.6,2.3,4,8.9,4.2,9.6c.7,2.9-1.5,12-1.4,15.7s3.9,8.8,3.9,12.5-2.8,5.2-2.9,8.4c-.5.5-3.4-2.8-4.2-3.3-4.7-3.4-7.6-3.1-12.7-4.1s-4.3-2.8-6.7-2.4c1.9.6,3.9,2.4,5.7,2.9s3,0,4.5.3c4,.7,9.5,4.4,12.2,7.4-.3,1.4-.5,2.8-.4,4.3.3,4.6,1.8,4.9-1.2,9.3s-6.1,7.1-5.9,9.4c.7,1.6,1.2,3.3,1.7,4.9,1.2,3.5,3.3,6.5,3.9,10.5s-2.1,6.2-1.9,9.5,2.8,6.5,3.4,9.1l-4.8,4.1,5.3-2.9c.3.5-.4,4.5-.7,5.3-.5,1.5-1.7,2.3-2.2,3.6-1.3,3.2-1,6.4-1.5,9.6s-1.5,5.8-1.1,7.4-.1,1.3,1.1,1.1c-1.1-2.6.5-5.8.9-8.4s.3-6.5,1.6-9.4,1.8-1.6,2.4-3.3c.9-2.5.3-6.1,1.3-8.1,1.2.2,1.4-.9,1.9-1.4,2.3-1.5,4-3.7,6.5-4.7s5.9-1.1,8.8-2.7c5.1-2.9,5.8-9.8,12.4-11.1s10-.9,14.8-2.1c2.8,0,5.2,6.4,5.5,8.9l1.9,3.6c-.7-4.7-2.3-9.2-5.3-12.9,4-2.1,7.9-5.2,11.5-8,7.9-6.2,12.4-11.2,22.6-14.4s.9-.3,1.5-.2c.8,3.9,1.5,8.5,2.9,12.3s5,8.7,5.3,11.1-4.8,19-6.2,21.1c-2.9,4.4-11.7,10.6-12.4,15.9s.6,9-3.4,14.4-4.1,3.5-5.2,5.4-1.3,3.9-2.4,5.8c-1.6,2.8-4.4,4.8-4.8,8.1s.1,2.8,0,4.2c-.7,4.8-7.5,9-8.1,14.2l8.4-12c1-2.2.5-4.7.8-6.9s6-10.2,7-11.7c3.4-5.2,7.8-6.5,9.6-13.5s.4-4.9.7-7.4c.6-3.9,10-11.2,12.6-14.7s2.4-5.8,3.6-8.8-.4-.9,1-.7c1.6,3.7,2.8,9.2,5.1,12.4s10,8.7,11.4,11.7.8,6,1.6,8.5,2.6,4.4,3.4,6.7c1.3,4.1.4,8.7,2.4,12.5,1,1,.9.3.5-.5-1.8-4.3-1-7.1-1.8-11.1s-3.9-6.5-4.2-11.6-.3-2.3.5-2.2c0,2.7,2.4,4.4,3.6,6.3,1.9,2.9,3.7,6.5,6.3,9.1s3.3,2.1,4,3.2c1.7,2.5,4,10.2,5.6,13.6s3.4,4.3,3.9,7.1c.9,4.2-.7,6.5-1.2,10.1-.9,6.3-1,12.7-2.7,18.9s-1.3,4.4-1.4,4.6c-.4.5-1.8.3-2.2.7s-.4,1.9-.9,2.7-1.2,1.1-1.6,1.7c-2.6,4,.5,4.3.5,7.7s-2.2,10.4-2.4,14.4.8,3.2,1,4.9,0,4.3.5,6.4l.9-5.1c-2.7-7.4,2-15.1,1-23s-1-1.3-1-2.4,2.6-4.7,3.1-5.5c1.8-2.6,2.7-2,3.8-6.2,2-7.5,2.1-15.4,4-22.9l.8-5.5c3.1,5.1,9.7,6.8,13.1,11.2,0,3.5-7.3,8.8-9,11.7s-1.1,4.6-1.9,6.7-3,4-3.9,6.4c4.7-2.6,4.4-8.7,6.3-12.2s8.4-7.1,9.5-11.6h.7c4,.6,4.8,3.3,7.3,5.6s4.2,3.8,7,7.4,4.7,3.8,5,4.6c.6,1.2.1,3.2.5,4.8,1.1,5,5.4,8.9,5.1,14.4.8,0,.5-1.6.5-2.2-.3-5.4-4.5-10.3-4.3-16.1,1.5.6,6.4,2.1,7,3.4s.1,2.9.4,4.4c1.7,7.5,7.9,15.4,10.9,22.2s.4,2.6,1,3.8c1.8,3.7,7.8,6.6,10.7,9s3,3,3.1,3.2c.4.7,1.3,3.9,1.4,4.8.2,2.5-.8,4.2.3,6.9s3.4,2.8,4.7,4.4c2,2.4,2.1,6.5,3.9,8.6s2.3,1.5,3.3,2.4c4.1,3.9,5.6,10,7,15.4.9,0,.5-2,.4-2.5-.7-2.9-3.3-9.4-5.2-11.6s-4.1-3.3-5-4.6-1.4-4.2-2.3-5.9c-1.3-2.5-2.7-3.1-4.3-4.9-2.9-3.2-.8-9.7-2.9-13.7,1.5.4,2.3,1.9,3.4,2.6,4.1,2.6,8.9,4.3,13.2,6.5s5,5.4,5.8,9.5c2.6,12.7,3,29-.5,41.5-3.1,11.2-8.2,8.1-14.5,1.3-21.7-23.4-22.6-74.5-59.1-84s-16.1-3.8-17.7,2.9c5.3,7,12.6,12.6,18,19.4,19.9,25,21.8,61.7,36.9,89.8,13.5,25,32.5,37.9,51.9,57,10.4,10.3,20.3,22.7,27.8,35.3H0V0h27.8ZM88.8,237.6c0-1.7.3-4.2-1.4-5.3l1.4,5.3ZM219,334h-.7c0,0,.6,4.5.6,4.5h.7c0,0-.6-4.5-.6-4.5ZM219.8,348.5c0-1.5,0-3,0-4.5s.7-1.3.7-1.9-.4-3-1.2-3.1c.7,2.8-.1,5.1,0,7.9s-.4,1.8.5,1.7Z"/>
  <path class="st0" d="M93.6,202.1c-.5,0-.6-.4-.9-.8-.4-.8-2.9-7-3-7.6-.3-2.4,1.8-4.9,1.9-7.7s-.5-7.5-3.1-8.9l-2.6-8.5c1.2-2.1,2.2-4.3,3.8-6.1s1.5-1,3-4.2,1.1-1.1,1.3-1.7c.5-1.6-2-7.9-.9-8.8.8.3,1.5.6,2.3.8,6.8,1.4,14.1,2.5,20.9,4.1s12.2,8.1,13.5,10.5,1.1,3.6,2.3,5.4,2.8,2.8,3.4,3.8c1,1.7.7,3.9,1.8,5.6l-17.5,3.4c-4.2,2.7-6.7,9.5-11.1,11.5-7.1,3.1-7.2,1.4-13.2,7.7-.7.5-1.2,0-1.9,1.4Z"/>
  <path class="st1" d="M33.6,0c1.1,2.5,2.6,5.1,3.6,7.7s.5,3.6,1.3,5,4.6,3.2,5.9,4.6c5.2,5.6,2.8,9.8,6.4,15.2s2.4,3.3,2.6,3.4c1,.6,4.3-.4,5.7.3l9.8,6.5c2.3-1,4.8-1,7.2-1.4,5.2-1,10.4-2.6,15.8-1.8s1.5.6,2.3.9l.4-1.9c-2.1-.3-1.7-2.5-2.9-3.6s-6.6-2.9-8.9-4.6-5.4-6.2-8.1-8.7-9.7-7.7-13.1-9.5-5.7-1.7-8.1-3.4-4.1-5.5-6.5-7.4c0-.4.5-.3.7-.2,1.1.5,4.4,5.7,6,6.9,2.4,1.9,5.9,2,8.6,3.4s12.9,8.5,16.1,11.3,3.5,4.3,5.1,5.5c2.6,2.1,7.9,2.9,10.3,5s5.5,10.9,8.6,14.4,6.1,4.4,6.3,4.8c.3.6,0,1.5.5,2,1.6,1.3,3.6,1.1,5,1.6s1.4,1.7,2.2,2.2,1.9.4,2.9,1.4,1.5,3.2,2.2,3.6,5.4,1.8,6.2,2c5.8,1.3,10.6,1,15.8,4.8s3.7,4,5.8,5.2c4.4,2.6,10.7,2.1,15.5,2.7s2.9,1.4,4.4,1.4c2.8.1,5-.8,7.3-1.8s12.6.7,15.1,1.9,2.7,2.4,4.2,3c4.9,2,15.4,2,20-.6s1.8-2.2,3-3.2,3.8-3.1,4-3.2c2.9-1.3,6.2,0,9.1-.5s3.6-2.2,5-2.6,4.8-.7,6.9-1.2,1.3-1,2.2-1.2c2.7-.6,8.7,1.4,11.7,1.8.1.9-1,.4-1.5.3-2.2-.4-7.8-1.6-9.8-1.2s-1.3,1.1-2,1.3c-1.9.7-5.3.5-7.3,1.3s-3.1,2.6-4.7,2.9-3.1-.3-4.6-.2c-3.2.2-5.3,1.2-7.7,3.4-3.3,3-4.9,5.3-10.2,6.2s-3.5-.8-3.5.3,11.8,4.8,13.4,5.8,2.7,3.2,4.1,4.5c5.2,4.9,11.9,5.4,16.3,10.6s5.1,7.4,7,8.3,3.6.5,5.1,1.1,5,3.5,5.9,3.7c1.5.5,3.7.2,5.6.7s1.4-.5,1.2,1c-2.1-.5-6,0-7.8-.6s-3.4-3.6-6.4-4.1-1.2.4-1.8.3c-1.8-.2-8.5-6.7-9.9-8.4s-1.4-3.2-2.6-4.1-5.9-2.2-7.9-3.2c-4.7-2.4-6.2-7-10.5-9.2s-5.8-1.7-8.5-3-4.5-3.4-7-4-3.8,0-5.8-.5c-4-.9-6.2-4.2-11.8-5s-10.2,2.1-16.3,1.9-2.2-1.2-3.4-1.5c-4.3-.8-10.3.5-14.6-1.5,1.2,4.7,1.6,9.7,4.2,13.8,4.5,7.1,14.4,6.9,20.3,12.4,3.8,7.1,6.5,14.8,10.3,21.9s.9,1.9,1.9,2.9c1.7,1.6,19.1,13.9,20.5,14.5,5.2,2,13.3,1.8,18.8,3.8s1.7.6,2.7,1.7c5.1,5.5,9.4,15,14.6,20.9-.5,8,.8,17.2,4.6,24.3l-.9.4c0,3.9,4.3,11.3,7.2,14,7.1,6.7,12,14.4,18.5,21.8,19,21.9,41.8,40.4,56.2,66.2s14.9,39,28.1,55.4c3.2,3.9,7,7.1,10.3,10.8s5.1,7.2,5.5,7.5.9.3,1.4.2c.8-.8-5.6-11-6.5-12.4-2.6-4.3-5.7-8.5-8.3-12.9-10.6-18-19.1-37.2-27.4-56.3,6.1,1.6,12.3,3.5,17.9,6.3,32.1,15.8,25.9,43.1,41,69.9s3.3,6.8,5.6,6.9c5.4.3.2-8.3-.9-10.6-3.5-7-7.1-13.2-10.1-20.6s-6.4-15.9-4.5-17.2c3-.1,5.7,2,7.9,3.8,11,9.1,21.4,32.3,25.1,46,7.1,26.3-7.5,58.1-4.7,86.7,2.2,21.9,12.4,41.6,26.9,57.8h-72c-7.5-12.6-17.4-25-27.8-35.3-19.4-19.2-38.4-32-51.9-57-15.1-28.1-17-64.9-36.9-89.8-5.4-6.8-12.7-12.4-18-19.4,1.6-6.7,12.8-4.2,17.7-2.9,36.5,9.5,37.4,60.6,59.1,84,6.3,6.8,11.4,9.8,14.5-1.3,3.5-12.5,3.1-28.8.5-41.5s-1.6-7.4-5.8-9.5-9-3.9-13.2-6.5-1.9-2.2-3.4-2.6c2.1,4,0,10.5,2.9,13.7s3,2.4,4.3,4.9,1.2,4.5,2.3,5.9,3.7,2.9,5,4.6,4.5,8.7,5.2,11.6.6,2.5-.4,2.5c-1.4-5.3-2.9-11.5-7-15.4s-2.6-1.6-3.3-2.4c-1.8-2.1-1.9-6.2-3.9-8.6s-3.8-2.2-4.7-4.4,0-4.3-.3-6.9-.9-4.1-1.4-4.8-2.8-3-3.1-3.2c-2.9-2.4-8.9-5.3-10.7-9s-.4-2.6-1-3.8c-3.1-6.8-9.3-14.7-10.9-22.2-.3-1.4,0-3.3-.4-4.4s-5.5-2.7-7-3.4c-.2,5.8,4,10.7,4.3,16.1s.3,2.3-.5,2.2c.4-5.4-4-9.3-5.1-14.4s0-3.6-.5-4.8-4-3.2-5-4.6c-2.8-3.6-3.5-4.3-7-7.4s-3.3-4.9-7.3-5.7h-.7c-1.1,4.7-7.7,8.4-9.5,11.8s-1.6,9.6-6.3,12.2c.9-2.4,3-3.9,3.9-6.4s.7-4.7,1.9-6.7c1.7-2.9,8.9-8.2,9-11.7-3.5-4.4-10-6.1-13.1-11.2l-.8,5.5c-1.9,7.4-2,15.4-4,22.9s-2,3.7-3.8,6.2-3.1,4.9-3.1,5.5c0,1,.9,1.6,1,2.4,1,7.9-3.7,15.6-1,23l-.9,5.1c-.6-2.1-.3-4.3-.5-6.4s-1.1-2.7-1-4.9c.2-4,2.5-9.9,2.4-14.4s-3.1-3.7-.5-7.7,1.2-1,1.6-1.7.6-2.5.9-2.7c.4-.4,1.8-.2,2.2-.7s1.2-3.9,1.4-4.6c1.6-6.3,1.8-12.6,2.7-18.9s2.1-5.9,1.2-10.1-3-5.1-3.9-7.1c-1.7-3.4-3.9-11.1-5.6-13.6s-3-2.1-4-3.2c-2.6-2.6-4.3-6.2-6.3-9.1s-3.5-3.6-3.6-6.3c-.8,0-.5,1.7-.5,2.2.3,5.1,3.3,7.5,4.2,11.6s0,6.9,1.8,11.1.5,1.5-.5.5c-2-3.8-1.1-8.4-2.4-12.5s-2.7-4.5-3.4-6.7-.5-6.2-1.6-8.5-9-8.4-11.4-11.7-3.5-8.8-5.1-12.4c-1.3-.2-.7.2-1,.7-1.2,3-1.6,6.1-3.6,8.8s-12.1,10.8-12.6,14.7,0,4.6-.7,7.4c-1.8,6.9-6.2,8.3-9.6,13.5s-6.8,10.9-7,11.7c-.3,2.1.2,4.7-.8,6.9l-8.4,12c.6-5.2,7.4-9.4,8.1-14.2s-.1-2.8,0-4.2c.5-3.4,3.3-5.3,4.8-8.1s1.4-4.2,2.4-5.8,3.9-3.6,5.2-5.4c4-5.4,2.6-8.7,3.4-14.4s9.5-11.4,12.4-15.9,6.5-19,6.2-21.1-4.3-8.2-5.3-11.1-2.1-8.3-2.9-12.3c-.5,0-1,0-1.5.2-10.2,3.1-14.7,8.2-22.6,14.4s-7.5,5.8-11.5,8c3,3.7,4.5,8.2,5.3,12.9l-1.9-3.6c-.2-2.5-2.7-8.9-5.5-8.9-4.7,1.2-10.1,1.1-14.8,2.1s-7.3,8.2-12.4,11.1-5.9,1.5-8.8,2.7-4.2,3.2-6.5,4.7c6-6.3,6.1-4.5,13.2-7.7s6.9-8.8,11.1-11.5l17.5-3.4c-1-1.7-.8-3.9-1.8-5.6s-2.6-2.5-3.4-3.8-1.3-3.7-2.3-5.4-10.9-9.8-13.5-10.5c-6.7-1.6-14.1-2.7-20.9-4.1s-1.5-.5-2.3-.8c-1.1.9,1.3,7.2.9,8.8s-1,1-1.3,1.7c-1.5,3.2-1.2,2-3,4.2s-2.5,4-3.8,6.1l2.6,8.5c2.6,1.3,3.2,6.1,3.1,8.9s-2.2,5.2-1.9,7.7,2.6,6.9,3,7.6.3.8.9.8c-1,2-.3,5.5-1.3,8.1s-1.9,2.1-2.4,3.3c-1.3,3-1.1,6.4-1.6,9.4s-2.1,5.8-.9,8.4c-1.2.2-.9-.2-1.1-1.1-.4-1.6.8-5.4,1.1-7.4.4-3.2.2-6.4,1.5-9.6s1.7-2.1,2.2-3.6,1-4.8.7-5.3l-5.3,2.9,4.8-4.1c-.6-2.6-3.3-6.6-3.4-9.1s2.7-5,1.9-9.5-2.8-6.9-3.9-10.5-1-3.3-1.7-4.9c-.1-2.3,4.7-7.5,5.9-9.4,3-4.5,1.5-4.7,1.2-9.3s0-2.9.4-4.3c-2.7-3-8.3-6.7-12.2-7.4s-2.9,0-4.5-.3-3.9-2.3-5.7-2.9c2.4-.4,4.4,1.9,6.7,2.4,5.1,1.1,7.9.8,12.7,4.1s3.7,3.8,4.2,3.3c.1-3.2,3-4.8,2.9-8.4s-3.8-9.4-3.9-12.5,2.1-12.8,1.4-15.7-3.8-9.2-4.2-9.6c-.9-1-2.6-1.4-3.6-2.3-4.6-3.8-7.4-10-8.5-15.8-5.8.4-14.3-1-18.9-4.9s-2.7-4-4.1-5.5c-2.8-3.1-5.8-3.6-9.6-4.6.1-.9,2.9,0,3.5.1,7,2,6.7,6.1,11.2,9.5s12.3,5.2,18,4.8c0-5.1,0-10.8-1.4-15.7s-3.7-10.3-4.8-12-8.1-9.3-10.1-10.1-5.6-.6-7.8-1.3-7-7.9-7.7-10c-1.2-3.1-1.1-6.7-2.9-9.6s-5.8-4.2-7.3-6.6-1.5-5.6-2.4-8.1-2.7-5.2-4.6-7.2h5.8ZM131.2,161.6c.3.5,3.4,3.5,4.2,3.7,1.4.5,14.4,2.4,15.6,2.1,3.7-2.1,6.7-6.3,10.2-8.6s11.7-4.7,13.6-6.6,1.2-3.1,1.3-4c.4-3.5-2.5-6.3-3.6-9.6s-1-9.9-3.1-14.2-2.7-3.3-3.6-5c-3.7-6.4-6.3-12.1-11.1-17.7s-1.9-1.2-2.4-1.9c-3.7-4.7-6.1-10.5-11.7-13.3s-12.3-4.8-18.1-7.4l-5.6-13.6c-2.5-1.3-4.7-3.6-7-5s-3-.8-4.5-2.2-3-4.8-4.3-6.2-1.9-1-2.9-1.9c-2.5-2.3-2.5-4.9-6.8-5.7s-4.4.7-6.6.9-2.9-.6-4.7-.5-5.4,1.8-8,1.9c.5,1.7,1.9,2.4,2.8,4.1s4.8,11.1,5.2,13.5,0,6.1.2,8.5,1.1,5.9,1.1,8.9l15.2,13.2c4,2,9.5,1.1,12.9,4.4l-13.6-3.7-14.9-13.4c-.2,2.9,2.5,7.3,4.3,9.6s5.8,4.3,6.7,6.3,1.1,5,2.3,7.3,5.6,8.7,6.3,9.5c2.3,2.5,7.8,2.6,11,6.8,5.3,7.1,8,14.6,12.6,21.9s3,2.9,3.8,4.9c1.3,3.1,1.7,10,3.3,12.8ZM147.4,82.6c0-1-.2-2.1-.5-3.1-1.7-4.7-11.4-9-16.2-9.8s-1.5.4-2.2.3c-1.5-.2-3-.9-4.6-.9l2.2,5.2,21.3,8.2ZM178.1,140.6c0-2.4,2.1-5.7,1.9-7.9s-3-7-3.7-8.7c-1.2-2.7-5.6-13-7.1-14.5s-6.7-3.7-6.9-3.4l7.3,13.6c5.2,4.5,4.6,11.6,6,17.5s1.6,4.3,2.5,3.4ZM129.6,159.8c-1.4-3.1-1.6-7.5-2.8-10.4s-2.5-2.9-3.4-4.3c-2.8-4.6-5.4-9.5-7.8-14.3s-6.2-9-7.1-9.7c-2-1.4-6.2-2.6-8.4-4s-4.7-7.1-5.5-6.3l-1,13.2c1.8,5.4,5.1,11.1,2.9,16.9s-2.9,3.9-2.9,6.5l23.9,4.2,12.1,8.3ZM243.4,192.5l-4.4-19.8-13.5-18.1-21-4.4-20-13.8c0,3.2-3.5,9.4-3.2,12.2s3,8,4.6,9.7c7.2,7.7,15.4,11,24.7,15.7s2.8.8,4.1,1.6c3.6,2.4,6.4,8.6,10.1,11s11.2,4.4,14.4,5.3,4,1,4.3.7ZM187.1,163.3c-2-2-3.9-1.1-6.2-5.1s-1.5-4.4-1.4-2,1.6,8.7,2.4,11.1c1.3,4,4.2,7.7,5.5,11.7,1.6-3.1,3-7.6,1.9-11s-2.1-4.5-2.3-4.7ZM148.3,169.4c-5.4-.4-10.6-1.5-15.8-2.9-.2,2.7,2.8,3.8,3.9,5.9s.8,3.7,2.1,5.1c.8.2,8-6,9.2-7.1s.9,0,.6-1.1ZM193.4,168c1.9,4.2-1,6.9-1.5,10.3-1.9,15.8,12.7,21.3,14.2,36.1s0,4,1.7,7.5c3.2,6,7.7,9,11.3,13.6s2.1,6.2,3.3,9.1,8,15.9,11.2,18.1,2.6,1.2,3.8,2,4.5,4.2,5.1,4c1.5-2.2,1.7-5.1,3.1-7.5s4.5-4.6,6-7.4,5.3-12.6,5.4-13.3c.5-5.3-3.6-14.8-4.2-20.6s.4-6.5-.3-8.3-5.9-6.5-7-9.3-1.1-6.7-1.8-7.3c-2.8-.8-5.8-1.1-8.6-2s-9.6-3.3-11.5-4.4c-4-2.4-6.6-9.1-11-11.5s-5.5-1.5-7.7-3.8l-11.6-5.4ZM202.1,216c1.9-6.8-3.3-10.1-6.4-14.9s-5.8-9.7-6.7-12.5-.6-3.8-1.1-5.7,0-1.6-.7-1.4v2.9s-1-.5-1-.5c1,2,0,3.7,0,5.4s5.4,15.2,6.6,16.9,4.3,4,6,6,1.9,2.8,3.1,3.8ZM320.2,347c-4.1-17-10.5-33.6-19.1-48.8-9-15.9-21.5-29.4-32.2-44.2l-10.2-16c.1.9.5,1.4.3,2.4-.6,3.6-5.5,9.9-5.6,14.2s2.4,10.3,3.5,12.4c2.2,4.1,7.4,8,8.6,13.2,15,.7,27.2,5.7,31.4,21.2.2.7.7,1.7-.5,1.4l-21.9-7.6c-1.3,5.5,2.6,11.4,5,16.3s4.2,9.2,6.1,12.6,6.1,6.3,6.5,6.5c6.6,3.6,12.8,8,19.7,11.5s6.3,1.6,8.3,4.9ZM252,257.3c-.8-.2-1,.3-1.4.7-2.2,2.2-6.9,8.7-6.2,11.9s3.3,2,4.5,2.7,2.8,3.5,4,4.6,5.7,4,6.4,4,2.9-.5,3.2-.7c.8-.4.2-.6,0-1.1-1.3-3.6-5.1-6.6-7-9.8s-3.2-8.4-3.6-12.4Z"/>
  <path class="st1" d="M95.5,200.6c-.5.6-.7,1.6-1.9,1.4.7-1.4,1.2-1,1.9-1.4Z"/>
  <rect class="st1" x="260.4" y="71.3" width=".5" height="2.9" transform="translate(187.8 333.3) rotate(-90)"/>
  <path class="st1" d="M219.8,348.5c-.8.1-.4-1.1-.5-1.7-.1-2.8.7-5.2,0-7.9.8.1,1.3,2.6,1.2,3.1s-.7,1.2-.7,1.9c-.1,1.5,0,3,0,4.5Z"/>
  <path class="st1" d="M88.8,237.6l-1.4-5.3c1.7,1,1.4,3.6,1.4,5.3Z"/>
  <rect class="st1" x="218.6" y="334" width=".7" height="4.4" transform="translate(-46.2 35) rotate(-8.3)"/>
  <path class="st0" d="M131.2,161.6c-1.6-2.7-2-9.6-3.3-12.8s-2.8-3.4-3.8-4.9c-4.6-7.3-7.3-14.9-12.6-21.9s-8.7-4.3-11-6.8-5.7-8.3-6.3-9.5c-1.2-2.3-1.4-5.5-2.3-7.3s-4.9-4.1-6.7-6.3-4.5-6.7-4.3-9.6l14.9,13.4,13.6,3.7c-3.4-3.3-8.9-2.3-12.9-4.4l-15.2-13.2c0-3-.9-5.9-1.1-8.9s.3-5.8-.2-8.5-4-11.1-5.2-13.5-2.4-2.4-2.8-4.1c2.6-.1,5.5-1.7,8-1.9s3.2.6,4.7.5c2.2-.2,3.1-1.5,6.6-.9s4.3,3.3,6.8,5.7,2.2,1.2,2.9,1.9c1.3,1.4,2.6,4.6,4.3,6.2s3.2,1.3,4.5,2.2c2.2,1.4,4.4,3.8,7,5l5.6,13.6c5.8,2.6,12.4,4.6,18.1,7.4s7.9,8.6,11.7,13.3,1.7,1.1,2.4,1.9c4.8,5.6,7.4,11.3,11.1,17.7s3,3.6,3.6,5c2.1,4.2,1.7,9.8,3.1,14.2s4,6.1,3.6,9.6-.8,3.4-1.3,4c-1.8,1.9-10.6,4.6-13.6,6.6s-6.4,6.4-10.2,8.6c-1.2.2-14.2-1.6-15.6-2.1s-3.9-3.2-4.2-3.7Z"/>
  <path class="st0" d="M193.4,168l11.6,5.4c2.2,2.3,5.1,2.3,7.7,3.8,4.4,2.5,7,9.2,11,11.5s9,3.6,11.5,4.4,5.8,1.2,8.6,2c.7.6,1.2,5.8,1.8,7.3,1.1,2.8,6,6.8,7,9.3s0,6,.3,8.3c.5,5.8,4.6,15.3,4.2,20.6s-4.7,12.1-5.4,13.3c-1.5,2.8-4.5,4.8-6,7.4s-1.6,5.2-3.1,7.5c-.5.1-4.2-3.4-5.1-4s-2.6-1.2-3.8-2c-3.1-2.3-9.5-14.2-11.2-18.1s-1.3-6.5-3.3-9.1c-3.6-4.6-8.2-7.7-11.3-13.6s-1.4-4.2-1.7-7.5c-1.6-14.8-16.2-20.3-14.2-36.1s3.4-6.1,1.5-10.3Z"/>
  <path class="st0" d="M320.2,347c-2-3.2-5.3-3.3-8.3-4.9-6.9-3.6-13-7.9-19.7-11.5s-6.3-6.1-6.5-6.5c-1.9-3.4-4.3-8.9-6.1-12.6s-6.3-10.9-5-16.3l21.9,7.6c1.1.3.6-.8.5-1.4-4.2-15.5-16.4-20.5-31.4-21.2-1.2-5.2-6.4-9.1-8.6-13.2s-3.5-10.2-3.5-12.4c.1-4.3,5-10.5,5.6-14.2s-.2-1.5-.3-2.4l10.2,16c10.6,14.8,23.1,28.2,32.2,44.2,8.6,15.2,15,31.8,19.1,48.8ZM309.6,330.7c0-2.8-.5-10.4-2.4-12.3s-7.7-1.6-9.4-1.7c-4.2-.2-11.8-1-10.1,5.3s10.5,8.6,14.9,8.6h7Z"/>
  <path class="st0" d="M243.4,192.5c-.3.3-3.6-.6-4.3-.7-3.2-.9-11.9-3.7-14.4-5.3-3.7-2.4-6.5-8.6-10.1-11s-2.8-.9-4.1-1.6c-9.2-4.7-17.5-8-24.7-15.7s-4.4-7.4-4.6-9.7,3.3-9,3.2-12.2l20,13.8,21,4.4,13.5,18.1,4.4,19.8Z"/>
  <path class="st0" d="M129.6,159.8l-12.1-8.3-23.9-4.2c0-2.5,2.1-4.4,2.9-6.5,2.2-5.8-1.1-11.5-2.9-16.9l1-13.2c.8-.9,4.7,5.7,5.5,6.3,2.3,1.5,6.5,2.6,8.4,4s6.5,8.4,7.1,9.7c2.4,4.8,5,9.6,7.8,14.3s2.7,2.6,3.4,4.3c1.2,2.9,1.3,7.3,2.8,10.4Z"/>
  <path class="st0" d="M252,257.3c.5,4,1.5,9,3.6,12.4s5.7,6.2,7,9.8.7.6,0,1.1-2.8.7-3.2.7c-.7,0-5.6-3.3-6.4-4-1.2-1.1-2.5-3.7-4-4.6s-4.1-.9-4.5-2.7c-.7-3.2,4-9.7,6.2-11.9s.6-.9,1.4-.7Z"/>
  <path class="st0" d="M178.1,140.6c-.9.9-2.4-2.9-2.5-3.4-1.4-5.9-.8-13-6-17.5l-7.3-13.6c.3-.3,6.4,2.8,6.9,3.4,1.5,1.6,5.9,11.8,7.1,14.5s3.6,7.4,3.7,8.7c.1,2.2-2,5.5-1.9,7.9Z"/>
  <path class="st0" d="M147.4,82.6l-21.3-8.2-2.2-5.2c1.6,0,3.1.7,4.6.9s1.5-.4,2.2-.3c4.7.7,14.5,5.1,16.2,9.8s.5,2.1.5,3.1Z"/>
  <path class="st0" d="M202.1,216c-1.2-1-2.1-2.7-3.1-3.8-1.7-1.9-4.6-4-6-6s-6.4-15-6.6-16.9.9-3.4,0-5.4l1,.5v-2.9c.7-.1.6.9.7,1.4.5,1.9.5,3.9,1.1,5.7.8,2.9,4.9,9.9,6.7,12.5,3.1,4.8,8.4,8.1,6.4,14.9Z"/>
  <path class="st0" d="M187.1,163.3c.2.2,2.1,4.2,2.3,4.7,1,3.4-.4,8-1.9,11-1.3-4.1-4.2-7.7-5.5-11.7s-2.3-8.7-2.4-11.1,1.2,1.8,1.4,2c2.3,4,4.2,3.1,6.2,5.1Z"/>
  <path class="st0" d="M148.3,169.4c.3,1.1-.3.8-.6,1.1-1.2,1-8.4,7.2-9.2,7.1-1.3-1.4-1.1-3.4-2.1-5.1s-4.1-3.2-3.9-5.9c5.2,1.4,10.4,2.5,15.8,2.9Z"/>
  <path class="st1" d="M309.6,330.7h-7c-4.4,0-13.6-3.9-14.9-8.6s5.9-5.6,10.1-5.3,8.6.9,9.4,1.7c1.9,1.9,2.3,9.5,2.4,12.3Z"/>
</svg>