<?xml version="1.0" encoding="UTF-8"?>
<svg id="Layer_1" xmlns="http://www.w3.org/2000/svg" version="1.1" viewBox="0 0 446.6 175.3">
  <!-- Generator: Adobe Illustrator 30.0.0, SVG Export Plug-In . SVG Version: 2.1.1 Build 123)  -->
  <defs>
    <style>
      .st0 {
        fill: #fff;
      }
    </style>
  </defs>
  <path class="st0" d="M57.6,40.8c9.2,0,17.3,1.9,24.3,5.6s12.3,8.7,16,14.8v-18.5h40.1v130.7h-40.1v-18.5c-3.9,6.1-9.3,11-16.3,14.8s-15,5.6-24.3,5.6-20.3-2.8-29.1-8.3c-8.7-5.5-15.7-13.4-20.7-23.7-5.1-10.2-7.6-22.1-7.6-35.5s2.5-25.2,7.6-35.4c5.1-10.2,12-18,20.7-23.4,8.7-5.5,18.5-8.2,29.3-8.2ZM69.4,75.7c-8,0-14.7,2.9-20.3,8.6-5.5,5.7-8.3,13.6-8.3,23.5s2.8,17.9,8.3,23.8c5.5,5.9,12.3,8.8,20.3,8.8s14.7-2.9,20.3-8.7,8.3-13.7,8.3-23.7-2.8-17.9-8.3-23.7-12.3-8.7-20.3-8.7Z"/>
  <path class="st0" d="M247.4,40.8c10.8,0,20.5,2.7,29.3,8.2,8.7,5.5,15.7,13.3,20.7,23.4s7.6,21.9,7.6,35.4-2.5,25.3-7.6,35.5c-5.1,10.2-12,18.1-20.7,23.7-8.7,5.5-18.5,8.3-29.3,8.3s-17.3-1.8-24.1-5.5c-6.9-3.7-12.3-8.6-16.2-14.6v18.3h-40.1V0h40.1v61.2c3.7-6.1,9.1-11,16.2-14.8s15.1-5.6,24.1-5.6ZM235.5,75.7c-8,0-14.7,2.9-20.3,8.7-5.5,5.8-8.3,13.7-8.3,23.7s2.8,17.9,8.3,23.7c5.5,5.8,12.3,8.7,20.3,8.7s14.8-2.9,20.4-8.8,8.4-13.8,8.4-23.8-2.8-17.8-8.3-23.5-12.4-8.6-20.5-8.6Z"/>
  <path class="st0" d="M383.8,40.8c16.4,0,30.1,4.3,41.1,12.9,11,8.6,18.2,20.7,21.7,36.3h-42.6c-3.6-10-10.5-15-20.9-15s-13.2,2.9-17.6,8.6-6.6,13.9-6.6,24.5,2.2,18.8,6.6,24.5,10.2,8.6,17.6,8.6,17.3-5,20.9-15h42.6c-3.4,15.3-10.7,27.3-21.8,36.1-11.1,8.7-24.8,13.1-41,13.1s-24.2-2.7-34.1-8.2c-9.9-5.5-17.7-13.3-23.2-23.4-5.5-10.2-8.3-22-8.3-35.6s2.8-25.5,8.3-35.6c5.5-10.2,13.3-18,23.2-23.4,9.9-5.5,21.3-8.2,34.1-8.2Z"/>
</svg>