<?xml version="1.0" encoding="UTF-8"?>
<svg id="Layer_1" xmlns="http://www.w3.org/2000/svg" version="1.1" viewBox="0 0 560.1 396.2">
  <!-- Generator: Adobe Illustrator 29.4.0, SVG Export Plug-In . SVG Version: 2.1.0 Build 152)  -->
  <defs>
    <style>
      .st0 {
        fill: #fff;
      }
    </style>
  </defs>
  <path d="M228.7.1c-1.5-.8-8.6,2.5-10.3,3.2C145.9,32.4,87.4,68.3,1.6,81.4c-1.6.2-1.8-.5-1.6,1.4,55.1,2.2,104.9,19.6,152.4,36.7,27,9.7,53.1,20.6,79.8,30.7l1.6-.4c-18-12.2-38.4-22.4-54-36.2-8.7-7.7-21.7-17.7.6-20.4,45-5.4,105,1.7,147.7,12.2,128.4,31.5,201.1,124.1,142.4,210.9-23.2,34.3-63.6,62.8-115.2,78.3-.3,1.7.2,1.6,2.4,1.2,26-3.8,67.4-18.2,89.4-28.5,110.4-51.3,155-152.8,64.1-226.7-72-58.5-188.4-79.1-297.6-83.1-7.8-.3-40.2,1.1-44.3-2.3s-.5-3.1.3-4.8C179.6,31.1,210,15.6,228.7.1Z"/>
  <path class="st0" d="M228.7.1c-18.7,15.5-49.1,31-59,50.5-.8,1.6-2.2,3.2-.3,4.8,4.1,3.5,36.5,2.1,44.3,2.3,109.2,4,225.6,24.5,297.6,83.1,90.9,73.9,46.3,175.3-64.1,226.7-22,10.2-63.4,24.6-89.4,28.5-2.2.3-2.7.4-2.4-1.2,51.6-15.5,92-44,115.2-78.3,58.7-86.9-14.1-179.4-142.4-210.9-42.7-10.5-102.7-17.6-147.7-12.2-22.4,2.7-9.3,12.7-.6,20.4,15.6,13.7,36,24,54,36.2l-1.6.4c-26.7-10.1-52.8-21-79.8-30.7C104.9,102.3,55.2,84.9,0,82.8c-.2-1.8,0-1.1,1.6-1.4C87.4,68.3,145.9,32.4,218.4,3.3s8.8-3.9,10.3-3.2Z"/>
</svg>