<?xml version="1.0" encoding="UTF-8"?>
<svg xmlns="http://www.w3.org/2000/svg" viewBox="0 0 600 600"
  preserveAspectRatio="xMidYMid meet">
  <defs>
    <style>
      .st0 { fill: #fff; }
    </style>
  </defs>
  <g transform="translate(0,600) scale(0.1,-0.1)" class="st0">
    <path d="M2635 5673 c-427 -364 -774 -660 -885 -753 -70 -59 -493 -419 -1065 -906 -115 -99 -241 -206 -280 -239 -38 -32 -128 -108 -200 -169 -72 -61 -145 -124 -163 -139 -19 -15 -30 -27 -25 -27 4 0 440 -1 968 -3 l960 -2 3 -1717 2 -1718 1060 0 1060 0 2 1718 3 1717 964 5 964 5 -159 135 c-88 75 -355 302 -594 506 -239 204 -664 565 -945 804 -1101 937 -1287 1095 -1294 1097 -3 1 -172 -140 -376 -314z"/>
  </g>
</svg>