<?xml version="1.0" encoding="UTF-8"?>
<svg id="Layer_1" xmlns="http://www.w3.org/2000/svg" version="1.1" viewBox="0 0 1907 1724">
  <!-- Generator: Adobe Illustrator 30.0.0, SVG Export Plug-In . SVG Version: 2.1.1 Build 123)  -->
  <defs>
    <style>
      .st0 {
        fill: #fff;
      }
    </style>
  </defs>
  <path class="st0" d="M0,862v862h1907V0H0v862ZM204,171.5c0,.8.6,3.4,1.4,5.7.8,2.4,3,9.7,5.1,16.3,2,6.6,4.3,13.4,5.1,15.2.8,1.7,1.4,3.7,1.4,4.3,0,1.2,3.4,12.4,5.1,16.5.4,1.1,2.3,6.9,4.3,13,2,6,5.6,17.2,8.1,24.9,2.5,7.6,6.3,19.7,8.6,27,2.2,7.2,5,15.7,6.1,18.8,1,3.2,1.7,6.2,1.3,6.7-.3.5-.1,1.2.5,1.6.5.3,1,0,1-.8,0-1.5,4.1-14.8,15.1-48.7,3.8-11.8,7.4-23.1,8-25s1.8-5.8,2.8-8.5c1-2.8,2.4-6.8,3-9,.7-2.2,1.6-4.9,2.1-6,.4-1.1,2.5-7.4,4.5-14,2.1-6.6,4.2-12.5,4.7-13.2s.7-1.6.4-2.1.1-1.8.9-2.8,1.5-3.1,1.5-4.6.4-2.9.9-3.2c.5-.4,1.2-2.4,1.6-4.6s1.1-4.2,1.6-4.6c.5-.3.9-1.4.9-2.5,0-1.8.8-1.9,16.6-1.9s16.6.1,15.9,1.7c-.9,2.5-25.9,77.9-46,138.8-9.2,28-17.5,52.9-18.4,55.2l-1.6,4.3h-37l-13.8-41.8c-7.6-22.9-14.7-44-15.7-46.7-1-2.8-2.7-7.9-3.8-11.5s-5.6-17.5-10-31-11-34-14.7-45.5c-3.7-11.6-7-21.6-7.3-22.3-.3-.9,4-1.2,19.7-1.2s20.1.2,20.1,1.5h0ZM490,185v15h-38.8c-21.4,0-43,.3-48,.6l-9.1.7v25.3c.1,0,.1,25.4.1,25.4l38.2.2,38.1.3.3,14.7.3,14.8-38.3.2-38.3.3-.3,27.7-.3,27.8h97.1v32h-133.8v-200h132.8v15h0ZM638.1,171.6c.8.6,2.9,1.4,4.8,1.8,5.3,1,17.1,7,21.7,11,3.8,3.2,11.5,13.6,12.1,16.1,0,.5,1.4,4.1,2.8,8,2.2,5.9,2.6,8.8,2.8,18.5,0,14.8-2.6,24.3-10.6,36.7-3.3,5.2-13.2,13.5-19.3,16.2-3.7,1.7-4.5,2.4-3.9,3.8.4,1,1.5,3.8,2.5,6.3s3.5,8.5,5.5,13.5c2,4.9,4.2,10.6,4.9,12.5,3.3,9,16,39.9,17.7,43.3,1,2.1,1.9,4.6,1.9,5.7s.5,2.2,1,2.5c3.2,2-.7,2.5-19,2.5s-20-.3-20-1.2-2.3-7.1-5.1-14.2c-2.8-7.2-6.3-16-7.7-19.6-1.3-3.6-3-7.9-3.8-9.5-1.1-2.6-9.2-23.6-12.9-33.5l-1.3-3.5-25.1-.3-25.1-.2v82h-38v-200.1l56.3.3c39.4.2,56.8.6,57.8,1.4h0ZM847,185.5v15.5h-54v169h-39.5l.3-84.5.3-84.5h-54.1v-31h147v15.5ZM1808,430.5v10.5H100v-21h1708v10.5ZM392.8,516.9c.7.4,6.1,5.5,12,11.2s15.1,14.5,20.6,19.4c5.4,5,13,12.1,17,16,3.9,3.8,11.6,11,17.1,16,5.5,4.9,12.7,11.6,16,14.9,3.3,3.2,10.5,10,16,15s14.7,13.7,20.4,19.3c5.8,5.7,10.9,10.3,11.3,10.3s.8.4.8,1-35,1-102.9,1h-102.9l-9.3-6c-5.2-3.2-14.6-9.2-20.9-13.1-6.3-4-15.8-10-21-13.4s-11.3-7.2-13.5-8.5-4.2-2.6-4.5-2.9c-.3-.4-2.1-1.5-4.1-2.6s-9.4-5.7-16.5-10.3-24.6-15.7-38.9-24.8c-14.3-9-26.7-16.9-27.5-17.4-2.1-1.4-16.3-10.6-23-14.8-12.3-7.8-16-10.2-16-10.7,0-.9,268.4-.5,269.8.4h0ZM1350,516.9c0,.6-.5,1.3-1,1.6-.6.4-3.4,4.1-6.2,8.3s-5.5,7.8-6,8c-.4.2-.8.8-.8,1.3s-2.8,4.9-6.3,9.7c-3.4,4.8-7.1,10-8.1,11.7-1.1,1.6-2.3,3.4-2.7,4-.8.9-10.2,14.7-20.6,30-2.6,3.8-5.1,7.4-5.6,8-2.7,3.4-11,15.3-11.7,17-.4,1.1-2.7,4.5-4.9,7.5-5.7,7.7-6.2,8.4-9.9,13.7-1.8,2.7-6.5,9.3-10.3,14.8-3.9,5.5-7.8,11.2-8.7,12.7l-1.6,2.8h-557.2l-2.2-3.8c-1.1-2-5.2-8.2-9.1-13.7-16.9-24-25.5-36.5-30.3-44-2.9-4.4-5.7-8.6-6.2-9.3-.6-.7-1.6-1.8-2.1-2.5-.6-.7-2.8-3.9-5-7.2-2.1-3.3-4.3-6.5-4.7-7-3-3.6-9.4-12.7-11.6-16.5-2.2-3.7-21-30.8-23.9-34.5-.4-.6-2.1-3-3.8-5.5-1.6-2.5-3.6-5.1-4.2-5.8-.7-.7-1.3-1.5-1.3-1.8s172.4-.4,383-.4,383,.4,383,.9h0ZM1808,551.5c0,9.8,0,10.5-2.2,11.8-12.6,7.6-22.2,13.4-24,14.4-1.2.6-7.6,4.6-14.2,8.8-26,16.5-46.5,29.1-55.5,34.2l-9.4,5.3h-135.8c-74.8,0-135.9-.4-135.9-.8s18.9-19.6,42.1-42.5l42.1-41.7h292.8v10.5ZM211.6,767.7c39.1,39.5,83.5,85.2,142.1,146l10.8,11.3-.3,96.8-.2,96.9-10.8,3.1c-5.9,1.8-12.4,3.7-14.5,4.4-3.7,1.1-4.4,2.2-5,7.8l-.2,2.5,17.3.3,17.2.2v35c0,19.3.3,35,.8,35.1,7.8.9,10.2.8,10.9-.3.4-.7.8-16.6.8-35.3v-34l203.3-.3c182.5-.2,203.5,0,204.9,1.3,1.4,1.4,1.7,1.4,3.2,0,1.5-1.3,7.7-1.5,48.2-1.5s49-.4,52.4-1c10.5-1.8,48.6-5,59.1-5s48.6,3,63.4,5c4.7.6,107.9.9,279.3,1h271.7v70h13v-70l79.2-.2c51.7-.2,79.2-.6,79.4-1.3.2-.6-.3-1.8-1-2.7-1.2-1.6-5.5-1.8-56.7-2l-55.4-.3-20.5-5.9c-11.3-3.3-20.6-6-20.7-6,0,0-.3-42.7-.4-94.6l-.2-94.5,15.4.2c8.5,0,26.2.7,39.4,1.3,64.7,2.7,95.5,4.1,123,5.5,16.5.8,33.8,1.6,38.5,1.8l8.5.2v10l-37.3.3-37.3.2.3,2.3.3,2.2,37.3.3,37.2.2v15h-17.8c-12.5,0-18.2.4-19,1.2-1.6,1.6-1.7,88.9-.2,91.9,1,1.8,2.3,1.9,19,1.9h18v41h-8v10h-5.2c-2.9,0-10,.7-15.8,1.4-7.8,1-10.7,1.1-11.3.2s-3.5-6.1-6.8-12.1c-3.4-6.1-7.2-12.5-8.6-14.3-5.7-7.6-23.4-18.8-28.4-18-2.9.4-5,4.3-3.9,7.2.4,1.2,1.3,3.9,2,6.1,2.5,7.9,15.6,35.3,20.8,43.5,1.9,3,7.8,10.8,13.1,17.4,5.3,6.5,12,14.9,14.9,18.6,7.8,10.2,15.5,16.7,25.2,21.2,13,6,12,3.8,12,28s-.3,21-1.2,21.2c-.7.2-6.6,1.1-13,1.9l-11.7,1.6-5.3-2.9c-6.3-3.4-20.2-8-46.8-15.4-30.7-8.5-27.7-8.1-57-8.1s-41.9,1.3-49,4.8l-4.5,2.2v11.9l6,2.4c3.3,1.3,10.1,3.8,15,5.7,5,1.8,16.7,6.4,26,10.1l17,6.9h16.5c9.1,0,31.5-.4,49.8-.9,31.8-.8,33.3-1,34.3-2.9.6-1.1.9-3.4.6-5.2l-.5-3.2,6.4-.7c3.6-.4,7.8-.9,9.5-1.3l2.9-.6-.6,5.6c-.9,7.8,0,12.5,3.2,13.9l2.4,1.1v363.7h-854c-812.7,0-854,0-854-1.8-.3-44.4.2-206.4.6-207.5.8-2.1,7.9-6.7,10.3-6.7s3.1-1.9,3.1-7.9v-4.6l17.3-2.2c12.1-1.5,19.9-3.1,26.2-5.2,5-1.7,9.1-3.1,9.3-3.1s0,1.1-.4,2.5c-.7,3-.8,3,5.8.6,11.1-4,29.1-4.6,39.2-1.4,3.8,1.2,7.1,1.4,15.5.9,16.3-1.1,28.1-5,28.1-9.3s3.4-16.1,7.9-34.9c.6-2.3,1.5-8.3,2.2-13.3,1.3-10.3.8-11.4-5.8-12.7-1.9-.3-3.3-1.3-3.6-2.5-.4-1.3-1.4-1.9-3.4-1.9s-3.8-.7-4.9-1.5c-1-.8-3.2-1.5-4.9-1.5s-4.7-.5-6.7-1c-2.8-.8-5-.7-8.5.3-6.3,1.7-7.6,1.3-9.7-2.9-1.3-2.8-2-3.3-3-2.5-.7.6-1.1,2.3-.8,4.1.3,2.2-2.4,3.3-8.3,3.3s-12.1.3-22,.8l-18,.8-5.7-3c-3.1-1.6-6.9-2.9-8.3-2.9s-5.2-1.3-8.5-3c-3.2-1.6-8.9-4.1-12.6-5.5-11.6-4.4-14.2-2.6-3.2,2.1,2.9,1.3,4.9,2.4,4.3,2.4-4.7.6-23.2-.4-24.7-1.3-2.3-1.5-3.8.3-3.8,4.9s-.6,3.4-1.5,3.8c-1.3.5-1.5-9.6-1.5-87.4v-87.9l29.3-.3c16-.2,29.6,0,30.1.4,1.7,1.3-1.5,7.5-5.1,9.9-5.4,3.6-6.1,5.3-3.7,8.6,2.9,4,8.6,6.5,16.8,7.3,8.3.9,21.3,5.9,28,10.8.6.5,5.7,2.9,11.2,5.5,8.9,4.1,11,4.7,16.8,4.7,9,0,9.3.7,9.3,21.1v15.7c.1,0-2.5,1.2-2.5,1.2-1.4.6-6.9,2.2-12.1,3.5-15.8,3.8-17.3,4.5-18.6,8.5-.9,3-2.1,4-8.2,7-9.2,4.5-10.2,5.5-10.9,10.1-.5,3.1-1.1,3.9-2.8,3.9s-4.4,1.4-7,3.1c-4.5,2.8-4.8,3.2-4.2,6.2,1,4.8,3.7,7,8.8,7.1,6,0,9.5-2.3,10.3-7.1,1.4-8.2,3.6-13.1,7-15.7,3.3-2.6,6.2-3.5,5.1-1.7-.4.5-.2,2.1.4,3.5.7,1.9,1.7,2.6,3.6,2.6,3.6,0,5.3-2.6,5.4-8.1,0-4.2.2-4.6,3.8-6.3,2-1,7.1-3.1,11.3-4.6l7.6-2.9,1.2,2.5c.9,2.1,1.7,2.4,5.8,2.4,6.8,0,9-.9,9.7-3.6.8-2.9,3.1-3.1,9.6-.8,5.9,2,18.3,7.2,24.4,10.4,3.3,1.7,5.6,5.2,7,10.6,2.6,10.1,3.6,11.4,9.1,11.4s4.8-.5,6.4-2.6c4-5.1,2.2-9.9-4.3-11.5-3.9-1-4.6-1.6-6.1-5.5-1.8-4.8-3.3-5.7-21.7-13-5.4-2.1-9.5-4.1-9-4.5.8-.7,26.9.8,32.1,1.9,3.5.7,4.4,2.2,7,11.9,1,3.7,1.6,4.3,4.5,4.8,8.2,1.6,12.4-1.6,10.8-8.1-.7-2.3-1.7-3.2-5.4-4.4s-4.9-2.2-6.4-5.4c-1.3-2.8-2.8-4.2-4.6-4.7-1.6-.4-13.5-1.1-26.5-1.4-13.1-.4-24.5-.9-25.3-1-1.2-.2-1.4-1.5-1.2-6.1.2-3.2.4-11.2.5-17.8l.2-11.9,3.5-2.8c2.4-1.9,5.6-3.3,9.5-4,16.9-3.1,21-4.5,36-12.9,20.2-11.2,22.9-13.7,27.1-24.3,2.9-7.1,9.9-36.6,12.2-50.8,2.6-16.8,1.2-18-20.8-18.7-11.1-.3-18.4,0-30.5,1.7-8.8,1.1-21.6,2.8-28.4,3.6-14.8,1.9-20.8,4.2-26.1,10.2-4.2,4.8-9.2,16-13.4,29.6-1.5,4.7-3,8.8-3.4,9.1-.5.3-4.2-.4-8.3-1.5-28-7.5-30.9-8-35.7-5.5-3.7,1.9-5.7,4.4-7.2,8.8l-1.2,3.8h-60.8v-6.2l6.5.4c3.6,0,6.9-.2,7.5-.8s.9-18,.8-54l-.3-52.9-7.3-.3-7.2-.3.2-132.2.3-132.2,16-.8c8.8-.4,29.3-1.4,45.5-2.1s29.6-1.4,29.8-1.5c.2,0,9.1,8.8,19.8,19.6h0ZM709.8,753.3c1.1,2.8,4,11.7,6.6,19.7,9.6,29.7,14.8,45.6,15.6,47.5,1.8,4.1,20.4,59.3,22.7,67.5,1.4,4.7,4.2,13.6,6.4,19.8,2.1,6.2,3.9,11.5,3.9,11.8s-86.3.4-191.8.4h-191.9l-6.4-6.8c-3.5-3.7-13.6-14.4-22.5-23.7-8.8-9.4-24.3-25.8-34.4-36.5-10-10.7-24.4-26-32-34-7.5-8-16-17.2-19-20.5-5.4-6-33.8-36.2-41.7-44.2-2.4-2.4-4.3-4.8-4.3-5.3s86-1,243.4-1h243.5l1.9,5.3h0ZM963.8,822.7l.2,74.3-74.2.2-74.3.3-.3,2.2c-.2,1.4.2,2.3,1,2.3.7,0,28.6,0,62.1.2,33.4,0,60.7.4,60.7.7s-9.8,2.9-21.7,5.5c-12,2.7-26.5,5.9-32.3,7.3-18.8,4.2-21.2,4.4-63,4.1l-40.5-.3-10.8-32.5c-5.9-17.9-12.3-38.1-14.2-44.9s-6.1-20.5-9.4-30.5c-3.2-10-7.8-24.2-10.1-31.6s-5.5-17.4-7.1-22.2-2.9-8.9-2.9-9.2,53.2-.5,118.3-.4l118.2.3.3,74.2h0ZM1219,749.1c0,1.2-2.8,10.6-4.1,13.4-.4,1.1-1.6,4.7-2.4,8-2.2,8-12.4,40.5-13.5,43-1.7,3.9-21,64.5-24.2,76-.6,2.2-1.9,6.5-2.9,9.5l-1.8,5.5-25.8-.3c-14.2-.2-26.2-.8-26.7-1.3s-.5-.9.3-.9,1.1-.9.9-2.3l-.3-2.2-74.5-.5-74.5-.5-.3-73c0-40.2,0-73.6.3-74.3.6-1.6,249.5-1.8,249.5,0h0ZM1731,748.8c0,.5-6.6,7.6-14.8,15.8-8.1,8.2-22.8,23.2-32.7,33.4-9.8,10.2-25.6,26.4-35,36-9.3,9.6-25.3,26.2-35.5,36.9s-25.1,26.2-33.2,34.4l-14.6,15-43.4-.6c-23.8-.4-52.5-1.2-63.8-1.7-30.6-1.5-85.2-3.9-114-5-14-.5-35.4-1.4-47.5-2-12.1-.5-32.6-1.5-45.5-2-40.8-1.8-64.4-3.1-64.9-3.5-.4-.5,3.3-11.7,13.1-40,3.3-9.4,7.3-21.3,8.9-26.5,3.9-12.1,13.6-41,20.6-61,3-8.5,6.4-18.5,7.6-22.2,1.2-3.8,2.8-6.9,3.7-7.1,3.1-.9,491-.7,491,0h0ZM1806.7,750.7c1.1.4,1.3,16.3,1.3,91.4v90.9h-5.2c-2.9,0-12.7-.5-21.8-1s-38.1-1.9-64.5-3-57.2-2.5-68.5-3c-11.3-.6-30-1.3-41.7-1.7-18.1-.5-21.1-.8-20.4-2.1s30.7-31.5,61.8-62.4c7-7,34.9-34.8,61.8-61.9l49-49.1,23.4.7c12.9.4,24,.9,24.8,1.2h0ZM1039.5,905.4c19.3.9,53,2.3,75,3.1,34.3,1.2,53.5,2.3,53.5,2.9,0,0-.7,1.9-1.4,4.1l-1.4,4h-195.7l-.2-8c0-4.4.2-8.2.7-8.5.9-.5,16,0,69.5,2.4ZM957.3,907.3c-.4.7-2.8,3.9-5.2,7l-4.3,5.7h-14.1c-7.7,0-13.7-.3-13.3-.7s2.4-1.3,4.4-2,10-3.5,17.7-6.2c15.7-5.6,15.9-5.6,14.8-3.8h0ZM964,914.5v5.5h-4c-2.2,0-4-.3-4-.6,0-.8,7-10.4,7.6-10.4s.4,2.5.4,5.5ZM1243.5,914c26.4,1.1,62.8,2.7,80.8,3.4s33.1,1.6,33.4,2c.4.3-39.1.5-87.8.4-85.8-.3-88.4-.4-88.1-2.2,1.1-6.1,1.8-6.6,7.9-6.1,3.2.3,27.4,1.4,53.8,2.5h0ZM915.5,914.9c-1.8,1.6-13.4,5.1-17,5.1-6.1,0-3.8-1.5,5.8-3.7,10.6-2.4,12.5-2.7,11.2-1.4h0ZM766.8,934.1l.3,8.6-4.8,1.1c-6.3,1.3-37.3,8.4-53.8,12.3-7.1,1.6-15.7,3.6-19,4.4-3.3.7-14.3,3.2-24.5,5.5-10.2,2.2-24.3,5.4-31.5,7.1-7.1,1.6-17,3.9-22,5-12.2,2.8-13.5,3.3-12.8,5.8.3,1.2.6,2.1.7,2.1.4,0,29.2-6.4,40.6-9.1,7.4-1.7,17.4-3.9,22.1-4.9s13.5-3.1,19.5-4.5,15.9-3.7,21.9-5c6.1-1.4,17.8-4,26-6,8.3-1.9,18.8-4.4,23.5-5.4,4.7-1.1,9.7-2.2,11.3-2.6l2.7-.7v19.8l-6.7,2.6c-3.8,1.5-10.4,3.9-14.8,5.3-4.4,1.5-8.9,3-10,3.5-3.5,1.4-29.8,10.8-35,12.5-2.7.9-5.9,2-7,2.5s-15,5.4-31,11c-42.8,14.8-59.9,21-61,22.1s-.4,1.5.6,2.4c1.3,1.4,2.1,1.3,7-.4,2.9-1,13.7-4.8,23.9-8.4s26.4-9.3,36-12.7,24-8.5,32-11.2,15.9-5.5,17.5-6.3c1.7-.7,10.2-3.8,19-6.8,8.8-3.1,18.4-6.5,21.3-7.6,2.9-1.2,5.9-2.1,6.7-2.1,1.3,0,1.5,8.7,1.5,70.5v70.5h-384v-94.3c0-51.9.2-94.6.5-94.9s86.6-.5,191.8-.4h191.2c0,0,.3,8.7.3,8.7h0ZM839.5,926c-.3.5-1.4,1-2.2,1s-4.4.6-7.7,1.4c-3.4.8-10.1,2.4-15.1,3.5-4.9,1.1-13.9,3.1-19.9,4.5-6.1,1.4-11.1,2.4-11.2,2.3-.5-.5-1.3-12-.9-12.7.3-.5,13.4-.9,29.1-1,19.5,0,28.4.3,27.9,1h0ZM883,925.8c0,.4-4.8,2.5-10.7,4.6-6,2.1-16.2,5.7-22.8,8.1-6.6,2.3-14.7,5.3-18,6.5s-11.6,4.1-18.5,6.5-16.3,5.7-20.8,7.4c-4.6,1.7-8.7,2.9-9.1,2.6-.4-.2-.7-4.1-.7-8.6v-8.3c0,0,3.6-.9,3.6-.9,1.9-.5,8.2-1.9,14-3.2,5.8-1.2,19.7-4.4,31-7,34.2-8,36.2-8.3,44.3-8.4,4.2,0,7.7.2,7.7.7h0ZM942.7,926.4c-.4,1.2-8.2,11.8-37.2,50.6-4,5.2-10.5,14.1-14.6,19.6-4.1,5.6-12.2,16.6-18.2,24.5-5.9,7.9-15.3,20.5-20.8,27.9s-13.5,18.1-17.7,23.8c-13.2,17.7-24.2,32.5-28,37.4l-3.6,4.8h-20.6v-72.9c0-55.6.4-73.2,1.3-73.9,1.1-.9,6.9-3,27.5-10.3,4.8-1.7,11.4-4.1,14.7-5.4,6.5-2.5,44.4-15.8,64.5-22.7l12.5-4.3h20.3c11.4,0,20.1.4,19.9.9h0ZM963.8,1020.3l.2,94.7h-77.1c-61.3,0-76.9-.3-76.3-1.3.5-.6,4.2-5.8,8.3-11.4,4.2-5.6,9.6-13,12.1-16.5s4.8-6.8,5.3-7.3c2.8-3.6,21-27.9,30.7-41.1,3.6-4.9,7-9.5,7.7-10.4,6.5-8.5,16.2-21.4,18.7-24.9,3.3-4.8,31.2-42.2,47.1-63.3,10.4-13.7,10.1-13.5,20-13.2h3c0,0,.3,94.7.3,94.7h0ZM1163.8,1020.2l.2,94.8h-195v-94.3c0-51.9.2-94.6.4-94.8s44-.4,97.3-.4h96.8l.3,94.7h0ZM1549,926.7l13.5.8.3,93.7.2,93.8h-382.7l-.5-94.3c-.3-51.8-.4-94.4-.2-94.7.4-.8,354.7,0,369.4.7h0ZM1808,1016v42h-31.9l-.3-5.8c-.2-3.1-.2-22,0-42l.2-36.2h32v42h0ZM1808,1123.9c0,2.9,0,2.9-6.7,3.6-3.8.3-9.3,1-12.3,1.6s-8.2.9-11.5.7c-5.2-.3-6-.6-6.3-2.4-.3-2,.4-2.2,9.5-3.3,8.8-1,22.8-2.6,26.1-3,.7,0,1.2,1.1,1.2,2.8h0ZM185.2,1126.6c5.9,1.5,10.8,3,10.8,3.4,0,.9-24.6,1.4-26,.5-1.2-.8,1.6-6.5,3.2-6.5s6,1.2,12,2.6ZM209,1137.5c0,.2-.7,2.3-1.6,4.5l-1.6,4h-6.2c-3.3,0-12.5-.3-20.3-.7-15.2-.7-15.3-.7-13.3-5.7l1-2.6h21c11.5,0,21,.2,21,.5h0ZM1808,1143.9c0,5.8-.3,7.1-1.7,7.5-3.9,1.1-21.9,1-23.9-.2-2-1.1-5.2-6.7-6.8-12l-.7-2.2h33.1v6.9h0Z"/>
  <path class="st0" d="M562.7,198.6c-.4.4-.7,13.9-.7,30.1v29.3h26.8c19.1,0,28.1-.4,31.7-1.4,15.6-4.1,22.5-12.2,23.3-27.2.4-7.2,0-8.9-2-13.5-3.1-6.7-7.4-11-14.7-14.6l-5.6-2.8-29-.3c-16-.2-29.3,0-29.8.4h0Z"/>
  <path class="st0" d="M198.2,982.8c-.9.7-1.2,8.1-1,33.8l.3,32.9,60.9.3c44.1,0,61.3,0,62.2-.9,1.9-1.6,2.1-63.8.2-65.7s-15.9-1.2-61.3-1.2-60.6.4-61.3.8h0ZM317,1016v29h-115v-58h115v29Z"/>
  <path class="st0" d="M121.3,1017.7c-1,.4-1.3,12.1-1.3,53.8s.3,53.6.8,53.8c.8.5,35.7-3.9,37.9-4.7,1-.4,1.3-10.5,1.3-51s-.1-50.6-1.9-51.6c-2-1-34.4-1.3-36.8-.3h0ZM154.5,1030.5v5l-14.2.3-14.3.3v-4.9c0-2.7.3-5.2.7-5.6.4-.3,6.8-.5,14.2-.4l13.6.3v5h0ZM155,1046.9v4.8l-6.1.7c-3.4.3-10,.6-14.5.6h-8.4v-4.8c0-2.7.3-5.2.7-5.5.3-.4,6.9-.7,14.5-.7h13.8v4.9h0ZM144.4,1095.6c2,.8,2.1,3.8.1,5.4-3.2,2.6-6.3-1.8-3.3-4.8s1.2-1.4,3.2-.6Z"/>
  <path class="st0" d="M1612.5,1047.2c-.2.7-.6,15.3-.9,32.5-.4,23.4-.2,31.4.7,32.1.7.5,5.3,1.3,10.2,1.6,13.4,1,16.5,1.6,16.5,3.2s-1.6,1.4-6.7,1.4-7.5.5-8.3,1c-2.4,1.5,0,4.5,4.1,4.8,1.9,0,12.1,1.1,22.7,2.2,19.4,2,33.6,2.5,36.6,1.4.9-.3,1.6-1.4,1.6-2.4,0-1.5-1.1-2-4.7-2.5-7.7-1.1-10.6-2-11.1-3.4-.4-1.2,2.1-1.3,13.9-.8,10.4.5,15.9.3,19.9-.6l5.5-1.4.3-34.1.2-34.1-3.2-.5c-1.8-.3-24.3-.8-50.1-1.1-38.2-.5-46.8-.4-47.2.7h0ZM1668.3,1057.7l16.7.6v24.3c0,13.4-.3,24.5-.7,24.7-.5.2-13.6-.6-29.3-1.9-15.7-1.2-29.3-2.3-30.2-2.3-1.7,0-1.8-1.9-1.8-23.1v-23h14.3c7.9,0,21.9.3,31,.7h0Z"/>
  <path class="st0" d="M931.3,1138.5c-30.7,2.8-49.9,5.5-57,8.1-3.8,1.4-4.5,1.4-7.5-.2-4.8-2.5-20.7-2.9-43.5-1-10.6.9-28,2.3-38.5,3.2-18.9,1.6-55.8,1.5-85.7-.2-8.4-.5-11.6-.2-16.4,1.2-7,2.1-13.2,7.3-16.9,14-3.1,5.7-5.8,16.6-5.8,23.2s4.7,31.5,8.4,49c2.1,9.5,2.1,9.1-1.7,13.3-1.8,2-5.5,6.2-8.2,9.4-2.8,3.2-5.4,6.3-6,6.9-.5.7-1.4,1.9-2,2.8-.5.9-3.1,4.8-5.6,8.5-5.3,7.9-7.9,14-7.9,18.7,0,12.2,7,19.2,29.3,29.2,6,2.7,11.5,5.8,12.2,6.9.8,1.1,2.7,9.9,4.4,19.5s4,19.3,5.1,21.5,2.3,5.6,2.6,7.5c.9,4.6,2.1,6.9,5.5,10.5,2.8,3,3,3.8,6.6,24.3.3,1.8,1.5,3.9,2.7,4.7,2.4,1.8,15.2,2,20.9.4,5.2-1.4,6.9-4.5,9.8-18.2l1.2-5.7h73.6c40.5,0,142.9-.3,227.7-.7l154.1-.6.7,4.9c.4,2.7.9,7.1,1.3,9.7.5,4,1.2,5.3,4.6,8.2,4,3.4,4.2,3.5,13.1,3.5s10.1-.3,11.3-.6c2.3-.6,2.2-.2,6.8-21.7,1.2-5.3,2.3-8,3.4-8.4,4.9-1.6,12.1-5.9,12.6-7.5,1-3,2.3-2.1,4.3,3.5,1.1,2.9,3.4,8.2,5.1,11.7,3.6,7.4,3.7,8,1.2,8s-3.2.5-5,1.1c-3.1,1.1-3.1,1.2-3,7.3,0,3.3-.2,8.7-.8,12-.5,3.2-.7,7.2-.4,9,.6,2.5,1.2,3.2,3.6,3.4,1.7.2,6.6.9,11,1.7,4.4.7,8.3,1.1,8.8.8s7.9-.6,16.5-.8c8.6,0,19.1-.8,23.2-1.5,4.8-.8,10.9-1,17.2-.5,10.5.7,13.1-.4,5.8-2.6-2.2-.7-4-1.5-4-1.8s1.6-1.7,3.6-3.1c3.3-2.2,3.6-2.7,3.1-6.5-.2-2.2-1.3-6-2.4-8.5-3.1-6.9-3.9-10.8-2.6-11.7,1-.7,2.7-1.9,3.8-2.8,1.3-1,1.3-2.1-.2-3.3-1.2-.9-3.9-2.7-6-4s-4.8-3.9-6.1-5.8c-2.5-3.9-2.3-5.7.3-3,2.9,2.8,3.4,1.7,1.8-3.7-1.7-5.8-2.9-7.7-4.9-7.7s-1.4,0-1.4-.3-2.5-7.5-5.5-16.3c-16-46.2-15.8-45.4-13.6-47.8,2.9-3.1,4.1-7,4.1-13.1s-2.1-11.7-4-13.5c-.3-.3-2.4-3-4.8-6-4.7-6.2-4.1-5.5-10.4-13.5-8.4-10.6-13.3-16.7-14.6-18.1-1.7-1.8-1.7-2.9.9-30.6,2.1-22.2,2.2-25.9,1.1-38-1.7-18.7-4.9-27-12.3-31.3-3.3-2-5-2-87.4-1.7-84,.3-94,.7-96.6,3.8-1.5,1.9-4.5,1.8-5.3,0-.3-.9-2.3-2.3-4.3-3.2-3.3-1.3-4.9-1.4-12-.3-9,1.4-21.1,1-43.3-1.5-24.1-2.7-55.4-5.5-60.5-5.4-2.7,0-11.4.7-19.2,1.4h0ZM1265.8,1419.9l3.2,5.9-6.5,1.6c-3.5.9-6.7,1.6-7,1.6-1,0,.6-9.3,2.2-12.3,2.2-4.3,4.5-3.4,8.1,3.2h0Z"/>
  <path class="st0" d="M1434,1174.4c-18.7,4.2-23,7.1-23,15.2s.3,4.4.6,4.4,9.2,1.1,19.7,2.5c22.6,2.8,57.3,7.1,74.1,9.1,7.4.8,13.3,1,15.5.5,8-1.9,28.7-8.3,29.8-9.3,1.9-1.5,1.5-8-.5-10.4-2.7-3.2-6.7-4.5-20.7-6.5-19.4-2.9-59.3-7-73-7.4-10-.4-13.7,0-22.5,1.9h0Z"/>
  <path class="st0" d="M1409.7,1199.7c-1.1,1.1-.8,6.2.5,8.3,1,1.6,1,2.4,0,4-1.6,2.6-1.7,21.7,0,22.2.6.2,1.4,2.4,1.7,4.9.6,4.2.8,4.5,5,5.8,3.8,1.2,5.1,1.2,8.5,0,2.7-.9,4.2-2.1,4.4-3.4.6-3.3,1.6-3.6,8.3-2.6,27.5,4.2,56.2,8.4,60.4,8.9,4.6.7,5,.9,5.6,4,.4,1.9,1.2,3.9,1.8,4.5s4.7,1.1,9.1,1.2c8.8,0,10-.7,10-5.7s.8-3.1,1.9-3.8c2.6-1.3,5.8-1.3,6.3,0,.2.6,3.3,1.3,6.9,1.6,6.3.5,6.7.4,8.7-2.2,1.2-1.5,2.2-3.6,2.2-4.7s.7-3.3,1.6-5c1.3-2.5,1.5-4.7.9-11.1-.3-4.4-1.2-8.8-1.8-9.8-.9-1.5-.9-2.4,0-3.9,1.2-1.9,1.7-9.2.7-10.2s-7.4,1.4-15.8,3.8c-8.3,2.4-17.1,4.3-19.5,4.4-4,0-36.6-3.8-82-9.6-20.3-2.5-24.4-2.8-25.5-1.7h0Z"/>
  <path class="st0" d="M460.9,1201.5c-6.2,2-12.9,5.8-16,9.2-3.6,3.9-13.4,22.2-16,29.9l-2.1,6.3,2.6,4.4c3,5.2,10.4,10.9,17,13.1,3.8,1.3,7.2,1.5,17.8.9,12.6-.6,13.2-.7,17.1-3.7,4.2-3.2,12.6-17.2,12.7-21,0-1.9.1-1.9,2,.2,3.4,3.6,4.2,2.8,3.4-3.7-.5-5.1-.3-6.4,1.5-8.9,1.3-1.8,2.1-4.5,2.1-6.8,0-3.4-.7-4.5-6.4-10-3.5-3.4-8.6-7.2-11.2-8.4-6-3-17.8-3.7-24.5-1.5Z"/>
  <path class="st0" d="M558.5,1239.9c-3.3,2.1-9.1,5.7-13,8.1-3.8,2.4-9.2,5.8-12,7.5-2.7,1.7-8.4,5.1-12.5,7.5s-9.1,5.5-11,6.9c-1.9,1.5-4.4,3.1-5.5,3.7-3.2,1.7-24.5,14.6-46,28-11,6.8-24.4,14.9-29.7,18.1-8.6,5.1-9.8,6.1-9.8,8.5v2.8h121.8c111.2,0,121.4-.2,118.7-1.6-23.5-12.3-30.1-20.2-29.3-34.9.4-9.2,4.9-18.4,14.8-30.5,3.8-4.7,9.5-11.6,12.5-15.3,4.8-5.9,5.5-7.3,5-9.8l-.7-2.9h-97.3l-6,3.9h0Z"/>
  <path class="st0" d="M1275.7,1238.2c-.4,1.5,0,3.1,1.6,4.8,1.3,1.4,3.6,4.3,5.2,6.5s4,5.1,5.2,6.5c7.4,8.4,18.6,23.3,21,28,3.8,7.5,3.9,17.3.2,24.8l-2.6,5.3,2.8,8.1c1.6,4.5,2.9,8.3,2.9,8.5s45.9.3,102.1.3h102l-.3-2.6c-.2-1.5-1.2-3.2-2.3-3.8-6-3.4-26.1-16.2-26.3-16.8-.2-.5-.7-.8-1.1-.8-.7,0-36.4-22-64.6-39.7-3.3-2.1-11.8-7.3-18.9-11.6-7-4.3-14.7-9.1-17-10.6-2.3-1.6-6.5-4.3-9.4-6l-5.3-3.1h-94.7l-.5,2.2h0Z"/>
  <path class="st0" d="M1617.5,1238.2c-.3,1.2-.5,5-.4,8.3s-.2,11.4-.6,18c-.7,11.9-.7,12,1.9,15.4,1.5,2.1,2.6,4.8,2.6,6.6,0,3.4,1.7,5.3,6.2,7.2,3.2,1.4,13.9.5,15.3-1.3.8-1,1.9-.8,5.5.8,2.5,1.1,9.5,4.3,15.5,7.1,12.2,5.6,14.5,7.5,14.5,11.9s4.8,8.5,9.3,9.3c1.8.4,5.9.5,9.2.3l5.9-.3,1.6-5.4,1.5-5.4,25.2-.5,25.2-.4.3,3.3c.3,3,1,3.7,5.7,6.1,4.1,2.1,6.3,2.6,10,2.3,2.5-.2,5.4-.4,6.3-.5,1.2,0,2.2-1.7,3.4-5.8,1-3.1,2.7-7,3.7-8.5,1.7-2.5,1.9-4.2,1.5-14-.3-7.8-.9-12.1-2-14.2-1.4-2.6-1.4-3.3-.2-5,1.9-2.6,1.8-10.9,0-12.5-1.2-1-5.1-1.1-16.3-.7-8.1.4-29.5,1-47.7,1.3l-33,.6-11-4c-6-2.3-16.8-6.4-24-9.2-7.1-2.8-17-6.7-22-8.5-4.9-1.8-9.8-3.6-10.7-4-1.3-.5-1.9,0-2.3,1.7h0Z"/>
</svg>