<?xml version="1.0" encoding="UTF-8"?>
<svg id="Layer_1" xmlns="http://www.w3.org/2000/svg" version="1.1" viewBox="0 0 625.6 167.3">
  <!-- Generator: Adobe Illustrator 29.5.0, SVG Export Plug-In . SVG Version: 2.1.0 Build 137)  -->
  <defs>
    <style>
      .st0 {
        fill: #fff;
      }
    </style>
  </defs>
  <path class="st0" d="M172.8,160.2c-3.4,1.2-9.5,2.2-14.5,2.2-10.8,0-16.6-4.3-16.6-15.7v-18.8h-.6c-9.8,21.2-33.2,39.4-78.7,39.4S0,151.3,0,119.6s18.1-43.1,51.4-44.3l52-1.8c33.2-.9,38.4-4.9,38.4-23.7v-8.6c0-25.8-22.1-35.1-65.2-35.1S15.7,19.4,13.2,52.6h-6.2C9.5,10.5,36,0,76.6,0s71.4,12.9,71.4,40.9v102.1c0,9.5,1.8,13.2,10.5,13.2s9.8-.9,14.5-2.2v6.2ZM141.8,70.1h-.6c-3.4,5.8-17.8,8.6-41.2,9.5l-48,1.8c-32.9,1.2-45.8,16.3-45.8,38.4s24.6,41.2,56.6,41.2c53.8,0,79-28.3,79-61.8v-29.2Z"/>
  <path class="st0" d="M183,4.9h6.2v42.4h.6C198.7,15.7,226.4,0,254.7,0s9.8.6,13.2.9v6.2c-4.6-.9-9.8-.9-13.5-.9-36,0-65.2,26.8-65.2,78.4v77.8h-6.2V4.9Z"/>
  <path class="st0" d="M276.5,83.7c0,41.5,27.4,77.5,80.6,77.5s69.5-33.5,75.4-53.5h6.2c-4.9,22.1-22.1,59.7-81.5,59.7s-86.7-35.7-86.7-83.7S303.6,0,357.1,0s84,30.8,84,83.7h-164.5ZM434.9,77.5c-2.5-37.2-29.8-71.4-77.8-71.4s-78.1,32.6-80.6,71.4h158.4Z"/>
  <path class="st0" d="M625.6,160.2c-3.4,1.2-9.5,2.2-14.5,2.2-10.8,0-16.6-4.3-16.6-15.7v-18.8h-.6c-9.8,21.2-33.2,39.4-78.7,39.4s-62.4-16-62.4-47.7,18.1-43.1,51.4-44.3l52-1.8c33.2-.9,38.4-4.9,38.4-23.7v-8.6c0-25.8-22.1-35.1-65.2-35.1s-60.9,13.2-63.4,46.4h-6.2c2.5-42.1,28.9-52.6,69.5-52.6s71.4,12.9,71.4,40.9v102.1c0,9.5,1.8,13.2,10.5,13.2s9.8-.9,14.5-2.2v6.2ZM594.5,70.1h-.6c-3.4,5.8-17.8,8.6-41.2,9.5l-48,1.8c-32.9,1.2-45.8,16.3-45.8,38.4s24.6,41.2,56.6,41.2c53.8,0,79-28.3,79-61.8v-29.2Z"/>
</svg>