<?xml version="1.0" encoding="UTF-8"?>
<svg id="Layer_1" xmlns="http://www.w3.org/2000/svg" version="1.1" viewBox="0 0 724.5 242.4">
  <!-- Generator: Adobe Illustrator 29.5.0, SVG Export Plug-In . SVG Version: 2.1.0 Build 137)  -->
  <defs>
    <style>
      .st0 {
        fill: #fff;
      }
    </style>
  </defs>
  <path class="st0" d="M0,0h5.2v28.3H0V0ZM0,52.4h5.2v132.9H0V52.4Z"/>
  <path class="st0" d="M33.7,52.4h5.2v25.4h.5c8.3-18.7,25.2-29.6,54-29.6s42,9.3,48.3,31.1h.5c9.3-22.1,28.5-31.1,48.3-31.1,50.9,0,59.7,28,59.7,53.5v83.6h-5.2v-83.6c0-22.1-6.7-48.3-54.5-48.3s-45.9,15.6-45.9,46.2v85.6h-5.2v-85.6c0-34-20-46.2-45.9-46.2s-54.5,17.4-54.5,49.8v82h-5.2V52.4Z"/>
  <path class="st0" d="M416.5,183.5c-2.9,1-8,1.8-12.2,1.8-9.1,0-14-3.6-14-13.2v-15.8h-.5c-8.3,17.9-28,33.2-66.4,33.2s-52.7-13.5-52.7-40.2,15.3-36.3,43.3-37.4l43.9-1.6c28-.8,32.4-4.2,32.4-20v-7.3c0-21.8-18.7-29.6-55-29.6s-51.4,11.2-53.5,39.2h-5.2c2.1-35.6,24.4-44.4,58.6-44.4s60.2,10.9,60.2,34.5v86.2c0,8,1.6,11.2,8.8,11.2s8.3-.8,12.2-1.8v5.2ZM390.3,107.4h-.5c-2.9,4.9-15.1,7.3-34.8,8l-40.5,1.6c-27.8,1-38.7,13.8-38.7,32.4s20.8,34.8,47.7,34.8c45.4,0,66.7-23.9,66.7-52.2v-24.7Z"/>
  <path class="st0" d="M554.8,52.4h5.2v128.7c0,42.8-26.2,61.2-68.2,61.2s-63.6-5.2-67.7-44.6h5.2c3.4,20.8,13.2,39.4,61.8,39.4s63.8-15.8,63.8-56.3v-35.6h-.5c-12.5,27.2-35.8,37.4-65.1,37.4-42.8,0-70.8-24.7-70.8-67.2s28-67.2,70.8-67.2,56.8,14.8,65.1,37.9h.5v-33.7ZM489.1,177.5c41.8,0,65.7-22.8,65.7-62s-25.2-62-65.7-62-65.7,21.5-65.7,62,25.2,62,65.7,62Z"/>
  <path class="st0" d="M585.6,118.8c0,35,23.1,65.4,68,65.4s58.6-28.3,63.6-45.2h5.2c-4.2,18.7-18.7,50.3-68.8,50.3s-73.2-30.1-73.2-70.6,28-70.6,73.2-70.6,70.8,25.9,70.8,70.6h-138.8ZM719.3,113.7c-2.1-31.4-25.2-60.2-65.7-60.2s-65.9,27.5-68,60.2h133.6Z"/>
</svg>