<?xml version="1.0" encoding="UTF-8"?>
<svg id="Layer_1" xmlns="http://www.w3.org/2000/svg" version="1.1" viewBox="0 0 1280 696">
  <!-- Generator: Adobe Illustrator 29.7.1, SVG Export Plug-In . SVG Version: 2.1.1 Build 8)  -->
  <defs>
    <style>
      .st0 {
        fill: #fefefe;
      }
    </style>
  </defs>
  <path class="st0" d="M0,136h16v93l13.2-27.3c35.4-59.6,103.9-80.1,170.3-76.7,2.3.1,12.7.8,13.8,1.2,3.2,1,1,11.8,1.6,14.9-67.1-9.6-136.9,10-173.4,70.1-19,31.3-24.4,65.2-25.6,101.4-1.9,56.1,1.5,113.3,0,169.6H0V136Z"/>
  <path class="st0" d="M229,696c-15-1.4-43-12-43-30.5v-70.5h31c2.3,20-3.8,49.8,1.9,68.6s49.4,18.1,54.4-.7c5.2-19.4-.4-47.4,1.7-67.8h31v70.5c0,18.5-28,29.1-43,30.5s-25.3.8-34,0Z"/>
  <path class="st0" d="M1280,694l-33.3-.2c-2.3-.8-7.6-16.1-9.6-19.2-16.8-1.5-34.4-.2-51.4-.7l-8.7,20h-34l48.1-97.4c.7-1.6,1.9-1.5,3.3-1.7,11.1-1.3,25,.9,36.4.2l49.2,97.8v1ZM1228,656l-16-38-18,38h34Z"/>
  <rect class="st0" x="760" width="16" height="74"/>
  <path class="st0" d="M697,464v14c-21.1,4.2-64.6,11.4-75.9-12.6s-3.1-8-3.1-8.9v-49.5c-2.3-.5-1.6.4-2.3,1.3-3.2,4.2-5.9,10.1-9.3,14.7-19.1,25.4-48.1,43.7-77.9,54.1-77.9,27.1-262.9,33.7-269.6-82.5-4.3-74.6,60.3-100.4,123.5-104.6,59.6-3.9,121.8,0,181-6,24.1-2.4,49.5-6.5,53.4-34.6,9.4-68.6-18.2-94.2-82.7-105.1s-139.1-10-184.9,9.5c-37.9,16.2-53.4,47.1-55.8,87.2-5.2.9-16.9,3.9-16.6-3.5,4.7-112,124.5-115.9,209.6-112.6,55.5,2.2,143.8,13.7,147.5,84.5v236.1c.2,34.6,41.6,20,63,18.5ZM618,280c-3.7,1.4-6.3,4.6-10,6.5-33.2,17.8-128.1,14.8-168.6,16.4s-152.9-2.4-163.2,71.8c-12.5,90.5,92,107.1,159.3,104.3,86.2-3.6,178-37.3,182.5-136.5.9-20.6-.8-41.9,0-62.5Z"/>
  <path class="st0" d="M1276,482h-16v-229.5c-4.3-78.1-59.3-106.5-130.5-112.4-96.9-8.1-201.6,17.8-212.5,130.5-2.2,70.4-.5,141-1,211.5h-16V136h16v77c2.4.5,1.6-.3,2.2-1.3,2.3-3.6,4.2-8.3,6.7-12.2,43.7-67.7,122.4-78.1,197.6-74.5,77.5,3.7,148.6,36,153.5,122.5v234.5Z"/>
  <path class="st0" d="M47,595l33.5,69,33-69h45.5v99h-30v-78l-35.1,76.4c-.7,1.6-1.9,1.5-3.3,1.7-7.4.9-16.7-.6-24.4-.2l-35.2-76.8v77H1v-99h46Z"/>
  <path class="st0" d="M671,595l33.5,69,33-69h45.5v99h-30v-78l-35.1,76.4c-.7,1.6-1.9,1.5-3.3,1.7-7.4.9-16.7-.6-24.4-.2l-35.2-76.8v77h-30v-99h46Z"/>
  <path class="st0" d="M944,694v-99h83.5c3.2,0,15.1,3.9,18.5,5.5,32,15.2,32.9,69.6,2.7,86.6s-15.9,6.8-19.2,6.8h-85.5ZM975,675h38.5c1.7,0,8.2-2,10.2-2.8,17.7-7.2,19-42.1,4.2-52.6-3.1-2.2-12.8-5.6-16.4-5.6h-36.5v61Z"/>
  <polygon class="st0" points="919 595 919 614 844 614 844 635 916 635 916 653 844 653 844 675 920 675 920 694 813 694 813 595 919 595"/>
  <rect class="st0" x="760" y="136" width="16" height="346"/>
  <path class="st0" d="M546,595v19h-42v80h-31v-80h-41.5c-.1,0-1.5-1.4-1.5-1.5v-17.5h116Z"/>
  <polygon class="st0" points="365 595 365 674 434 674 434 694 334 694 334 595 365 595"/>
  <rect class="st0" x="565" y="595" width="31" height="99"/>
  <rect class="st0" x="1096" y="595" width="31" height="99"/>
</svg>