<?xml version="1.0" encoding="UTF-8"?>
<svg id="Layer_1" xmlns="http://www.w3.org/2000/svg" version="1.1" viewBox="0 0 155 176.4">
  <!-- Generator: Adobe Illustrator 29.5.0, SVG Export Plug-In . SVG Version: 2.1.0 Build 137)  -->
  <defs>
    <style>
      .st0 {
        fill: #fff;
      }
    </style>
  </defs>
  <path class="st0" d="M6.5,119.3c3.6,31.4,14.3,50.6,73.9,50.6s68.1-12.3,68.1-40.9-13.3-33.1-48-37.3l-50.3-6.2c-27.2-3.6-44.4-14.9-44.4-41.2S25.3,0,78.1,0s68.1,12.3,69.7,53.8h-6.5c-1.6-37.6-22.4-47.3-65.2-47.3S12.3,22,12.3,44.4s12,31.1,39.2,34.7l50.3,6.2c39.9,5.2,53.2,16.5,53.2,44.1s-10.4,47-74.6,47S3.6,149.5,0,119.3h6.5Z"/>
</svg>