<?xml version="1.0" encoding="UTF-8"?>
<svg id="Layer_1" xmlns="http://www.w3.org/2000/svg" version="1.1" viewBox="0 0 1357.3 187.3">
  <!-- Generator: Adobe Illustrator 29.5.0, SVG Export Plug-In . SVG Version: 2.1.0 Build 137)  -->
  <defs>
    <style>
      .st0 {
        fill: #fff;
      }
    </style>
  </defs>
  <path class="st0" d="M4,111.1c2.2,19.5,8.8,31.3,45.7,31.3s42.1-7.6,42.1-25.3-8.2-20.5-29.7-23.1l-31.1-3.8c-16.8-2.2-27.5-9.2-27.5-25.5s12-27.5,44.7-27.5,42.1,7.6,43.1,33.3h-4c-1-23.3-13.8-29.3-40.3-29.3S7.6,50.9,7.6,64.8s7.4,19.3,24.3,21.5l31.1,3.8c24.7,3.2,32.9,10.2,32.9,27.3s-6.4,29.1-46.1,29.1S2.2,129.8,0,111.1h4Z"/>
  <path class="st0" d="M218.4,108.3c-5.6,23.1-23.1,38.1-54.2,38.1s-56.6-23.3-56.6-54.6,21.7-54.6,56.6-54.6,49.3,13,53.4,35.3h-4c-4.2-17.7-17-31.3-49.3-31.3s-52.6,23.5-52.6,50.5,17.9,50.5,52.6,50.5,44.3-11.6,50.1-34.1h4Z"/>
  <path class="st0" d="M236.9,91.9c0,27.1,17.9,50.5,52.6,50.5s45.3-21.9,49.1-34.9h4c-3.2,14.4-14.4,38.9-53.2,38.9s-56.6-23.3-56.6-54.6,21.7-54.6,56.6-54.6,54.8,20.1,54.8,54.6h-107.3ZM340.2,87.9c-1.6-24.3-19.5-46.5-50.7-46.5s-50.9,21.3-52.6,46.5h103.3Z"/>
  <path class="st0" d="M358,40.5h4v23.1h.4c8-18.5,23.7-26.3,46.3-26.3,39.3,0,46.1,21.7,46.1,41.3v64.6h-4v-64.6c0-17-5.2-37.3-42.1-37.3s-46.7,31.1-46.7,44.3v57.6h-4V40.5Z"/>
  <path class="st0" d="M474.8,91.9c0,27.1,17.9,50.5,52.6,50.5s45.3-21.9,49.1-34.9h4c-3.2,14.4-14.4,38.9-53.2,38.9s-56.6-23.3-56.6-54.6,21.7-54.6,56.6-54.6,54.8,20.1,54.8,54.6h-107.3ZM578.1,87.9c-1.6-24.3-19.5-46.5-50.7-46.5s-50.9,21.3-52.6,46.5h103.3Z"/>
  <path class="st0" d="M656.1,111.1c2.2,19.5,8.8,31.3,45.7,31.3s42.1-7.6,42.1-25.3-8.2-20.5-29.7-23.1l-31.1-3.8c-16.8-2.2-27.5-9.2-27.5-25.5s12-27.5,44.7-27.5,42.1,7.6,43.1,33.3h-4c-1-23.3-13.8-29.3-40.3-29.3s-39.5,9.6-39.5,23.5,7.4,19.3,24.3,21.5l31.1,3.8c24.7,3.2,32.9,10.2,32.9,27.3s-6.4,29.1-46.1,29.1-47.5-16.6-49.7-35.3h4Z"/>
  <path class="st0" d="M759,91.9c0,27.1,17.9,50.5,52.6,50.5s45.3-21.9,49.1-34.9h4c-3.2,14.4-14.4,38.9-53.2,38.9s-56.6-23.3-56.6-54.6,21.7-54.6,56.6-54.6,54.8,20.1,54.8,54.6h-107.3ZM862.3,87.9c-1.6-24.3-19.5-46.5-50.7-46.5s-50.9,21.3-52.6,46.5h103.3Z"/>
  <path class="st0" d="M893.8,44.5h-24.5v-4h24.5V5.2h4v35.3h29.9v4h-29.9v79.6c0,12.2,3.8,16.2,18.3,16.2s9.6-.4,14.4-1v4c-5.4.6-10.6,1-14.4,1-18.3,0-22.3-6.6-22.3-20.5V44.5Z"/>
  <path class="st0" d="M953.1,44.5h-24.5v-4h24.5V5.2h4v35.3h29.9v4h-29.9v79.6c0,12.2,3.8,16.2,18.3,16.2s9.6-.4,14.4-1v4c-5.4.6-10.6,1-14.4,1-18.3,0-22.3-6.6-22.3-20.5V44.5Z"/>
  <path class="st0" d="M998.9,0h4v21.9h-4V0ZM998.9,40.5h4v102.7h-4V40.5Z"/>
  <path class="st0" d="M1024.9,40.5h4v23.1h.4c8-18.5,23.7-26.3,46.3-26.3,39.3,0,46.1,21.7,46.1,41.3v64.6h-4v-64.6c0-17-5.2-37.3-42.1-37.3s-46.7,31.1-46.7,44.3v57.6h-4V40.5Z"/>
  <path class="st0" d="M1244.2,40.5h4v99.5c0,33.1-20.3,47.3-52.8,47.3s-49.1-4-52.4-34.5h4c2.6,16,10.2,30.5,47.7,30.5s49.3-12.2,49.3-43.5v-27.5h-.4c-9.6,21.1-27.7,28.9-50.3,28.9-33.1,0-54.8-19.1-54.8-51.9s21.7-51.9,54.8-51.9,43.9,11.4,50.3,29.3h.4v-26.1ZM1193.4,137.2c32.3,0,50.7-17.7,50.7-47.9s-19.5-47.9-50.7-47.9-50.7,16.6-50.7,47.9,19.5,47.9,50.7,47.9Z"/>
  <path class="st0" d="M1265.4,111.1c2.2,19.5,8.8,31.3,45.7,31.3s42.1-7.6,42.1-25.3-8.2-20.5-29.7-23.1l-31.1-3.8c-16.8-2.2-27.5-9.2-27.5-25.5s12-27.5,44.7-27.5,42.1,7.6,43.1,33.3h-4c-1-23.3-13.8-29.3-40.3-29.3s-39.5,9.6-39.5,23.5,7.4,19.3,24.3,21.5l31.1,3.8c24.7,3.2,32.9,10.2,32.9,27.3s-6.4,29.1-46.1,29.1-47.5-16.6-49.7-35.3h4Z"/>
</svg>