<?xml version="1.0" encoding="UTF-8"?>
<svg id="Layer_1" xmlns="http://www.w3.org/2000/svg" version="1.1" viewBox="0 0 568.4 233.5">
  <!-- Generator: Adobe Illustrator 29.5.0, SVG Export Plug-In . SVG Version: 2.1.0 Build 137)  -->
  <defs>
    <style>
      .st0 {
        fill: #fff;
      }
    </style>
  </defs>
  <path class="st0" d="M40.5,65H0v-6.6h40.5V0h6.6v58.4h49.4v6.6h-49.4v131.7c0,20.2,6.3,26.9,30.2,26.9s15.9-.7,23.9-1.7v6.6c-9,1-17.6,1.7-23.9,1.7-30.2,0-36.8-10.9-36.8-33.8V65Z"/>
  <path class="st0" d="M112.4,143.3c0,44.8,29.5,83.6,86.9,83.6s75-36.1,81.3-57.7h6.6c-5.3,23.9-23.9,64.3-87.9,64.3s-93.5-38.5-93.5-90.2,35.8-90.2,93.5-90.2,90.5,33.2,90.5,90.2H112.4ZM283.2,136.6c-2.7-40.1-32.2-76.9-83.9-76.9s-84.2,35.2-86.9,76.9h170.8Z"/>
  <path class="st0" d="M375.4,139.6l-76.9-81.3h10l72.3,76.3,72.3-76.3h10l-77.6,81.3,84.6,88.6h-9.6l-79.6-83.2-79.6,83.2h-9.6l83.9-88.6Z"/>
  <path class="st0" d="M507.7,65h-40.5v-6.6h40.5V0h6.6v58.4h49.4v6.6h-49.4v131.7c0,20.2,6.3,26.9,30.2,26.9s15.9-.7,23.9-1.7v6.6c-9,1-17.6,1.7-23.9,1.7-30.2,0-36.8-10.9-36.8-33.8V65Z"/>
</svg>