<?xml version="1.0" encoding="UTF-8"?>
<svg id="Layer_1" xmlns="http://www.w3.org/2000/svg" version="1.1" viewBox="0 0 1058.2 200.5">
  <!-- Generator: Adobe Illustrator 29.7.1, SVG Export Plug-In . SVG Version: 2.1.1 Build 8)  -->
  <defs>
    <style>
      .st0 {
        isolation: isolate;
      }

      .st1 {
        fill: #fff;
      }
    </style>
  </defs>
  <g class="st0">
    <g class="st0">
      <path class="st1" d="M115.2,159.6h-4.3v-21.4l-.4.4c-8.4,16.6-25.3,24-49.5,24-42,0-49.2-20.1-49.2-38.4v-60h4.3v60c0,15.8,5.6,34.6,45,34.6s49.9-29.2,49.9-40.2v-54.4h4.3v95.3Z"/>
      <path class="st1" d="M138.7,64.2h4.3v21.4h.4c8.6-17.1,25.3-24.4,49.5-24.4,42,0,49.2,20.1,49.2,38.4v60h-4.3v-60c0-15.8-5.6-34.6-45-34.6s-49.9,28.9-49.9,41.1v53.4h-4.3v-95.3Z"/>
      <path class="st1" d="M368.9,133.9h-.4c-8.4,18.8-27.2,28.7-52.2,28.7-39.6,0-57.2-23.6-57.2-50.6s17.6-50.6,57.2-50.6,43,7.6,52.2,28.9h.4V26.6h4.3v132.9h-4.3v-25.7ZM316.2,158.8c37,0,52.7-22.5,52.7-46.9s-15.6-46.9-52.7-46.9-52.9,22.5-52.9,46.9,15.4,46.9,52.9,46.9Z"/>
      <path class="st1" d="M394.4,111.9c0,25.1,19.1,46.9,56.1,46.9s48.4-20.3,52.5-32.4h4.3c-3.4,13.4-15.4,36.1-56.7,36.1s-60.4-21.6-60.4-50.6,23.1-50.6,60.4-50.6,58.5,18.6,58.5,50.6h-114.5ZM504.7,108.2c-1.7-22.5-20.8-43.2-54.2-43.2s-54.4,19.7-56.1,43.2h110.3Z"/>
      <path class="st1" d="M523.7,64.2h4.3v25.7h.4c6.2-19.2,25.5-28.7,45.2-28.7s6.9.4,9.2.6v3.7c-3.2-.6-6.9-.6-9.4-.6-25.1,0-45.4,16.2-45.4,47.5v47.1h-4.3v-95.3Z"/>
      <path class="st1" d="M586,129.8c2.4,18.1,9.4,29,48.8,29s45-7.1,45-23.5-8.8-19-31.7-21.4l-33.2-3.5c-18-2-29.3-8.6-29.3-23.6s12.8-25.5,47.7-25.5,45,7.1,46,30.9h-4.3c-1.1-21.6-14.8-27.2-43-27.2s-42.2,8.9-42.2,21.8,7.9,17.9,25.9,19.9l33.2,3.5c26.3,3,35.1,9.5,35.1,25.3s-6.9,27-49.2,27-50.7-15.5-53.1-32.8h4.3Z"/>
      <path class="st1" d="M712.8,68h-26.1v-3.7h26.1V31.5h4.3v32.8h31.9v3.7h-31.9v73.9c0,11.4,4.1,15.1,19.5,15.1s10.3-.4,15.4-.9v3.7c-5.8.6-11.3.9-15.4.9-19.5,0-23.8-6.1-23.8-19v-73.7Z"/>
      <path class="st1" d="M815.3,61.3c37.3,0,60.4,21.6,60.4,50.6s-23.1,50.6-60.4,50.6-60.4-21.6-60.4-50.6,23.1-50.6,60.4-50.6ZM815.3,158.8c36.6,0,56.1-21.8,56.1-46.9s-19.5-46.9-56.1-46.9-56.1,21.8-56.1,46.9,19.1,46.9,56.1,46.9Z"/>
      <path class="st1" d="M892.6,64.2h4.3v25.7h.4c6.2-19.2,25.5-28.7,45.2-28.7s6.9.4,9.2.6v3.7c-3.2-.6-6.9-.6-9.4-.6-25.1,0-45.4,16.2-45.4,47.5v47.1h-4.3v-95.3Z"/>
      <path class="st1" d="M945.5,64.2h5.6l53.3,90.7,48.2-90.7h5.6l-58.2,108c-9.2,16.6-14.8,19.5-30.8,19.5h-8.6v-3.7h9.8c11.8,0,18-3,24.2-14.9l7.3-13.8-56.3-95.1Z"/>
    </g>
  </g>
</svg>