<?xml version="1.0" encoding="UTF-8"?>
<svg id="Layer_1" xmlns="http://www.w3.org/2000/svg" version="1.1" viewBox="0 0 701.6 208.1">
  <!-- Generator: Adobe Illustrator 29.5.0, SVG Export Plug-In . SVG Version: 2.1.0 Build 137)  -->
  <defs>
    <style>
      .st0 {
        fill: #fff;
      }
    </style>
  </defs>
  <path class="st0" d="M0,57.6h6.6l70.1,140.3L146.8,57.6h6.6l-73.8,146h-5.7L0,57.6Z"/>
  <path class="st0" d="M169.1,0h5.7v31.1h-5.7V0ZM169.1,57.6h5.7v146h-5.7V57.6Z"/>
  <path class="st0" d="M343.5,164.2h-.6c-11.1,28.8-36.2,43.9-69.6,43.9-52.7,0-76.1-36.2-76.1-77.5s23.4-77.5,76.1-77.5,57.3,11.7,69.6,44.2h.6V0h5.7v203.6h-5.7v-39.3ZM273.4,202.4c49.3,0,70.1-34.5,70.1-71.8s-20.8-71.8-70.1-71.8-70.4,34.5-70.4,71.8,20.5,71.8,70.4,71.8Z"/>
  <path class="st0" d="M377.5,130.6c0,38.5,25.4,71.8,74.7,71.8s64.4-31.1,69.9-49.6h5.7c-4.6,20.5-20.5,55.3-75.6,55.3s-80.4-33.1-80.4-77.5,30.8-77.5,80.4-77.5,77.8,28.5,77.8,77.5h-152.5ZM524.3,124.9c-2.3-34.5-27.7-66.1-72.1-66.1s-72.4,30.2-74.7,66.1h146.8Z"/>
  <path class="st0" d="M621.2,53c49.6,0,80.4,33.1,80.4,77.5s-30.8,77.5-80.4,77.5-80.4-33.1-80.4-77.5,30.8-77.5,80.4-77.5ZM621.2,202.4c48.8,0,74.7-33.4,74.7-71.8s-25.9-71.8-74.7-71.8-74.7,33.4-74.7,71.8,25.4,71.8,74.7,71.8Z"/>
</svg>